ISO-10303-21;
HEADER;
FILE_DESCRIPTION ((''), '2;1');
FILE_NAME ('01 First building.ifc', '2026-10-09T14:44:27', (''), (''), 'xbim Toolkit v6.1.605.0', 'IfcHopper', '');
FILE_SCHEMA (('IFC4X3_ADD2'));
ENDSEC;
DATA;
#1=IFCPROJECT('1Fe8hZEozUPuGYF5eYgZfc',$,'First building',$,$,$,$,(#7),#2);
#2=IFCUNITASSIGNMENT((#3,#4,#5,#6));
#3=IFCSIUNIT(*,.LENGTHUNIT.,$,.METRE.);
#4=IFCSIUNIT(*,.AREAUNIT.,$,.SQUARE_METRE.);
#5=IFCSIUNIT(*,.VOLUMEUNIT.,$,.CUBIC_METRE.);
#6=IFCSIUNIT(*,.PLANEANGLEUNIT.,$,.RADIAN.);
#7=IFCGEOMETRICREPRESENTATIONCONTEXT($,'Model',3,1.E-05,#8,$);
#8=IFCAXIS2PLACEMENT3D(#9,$,$);
#9=IFCCARTESIANPOINT((0.,0.,0.));
#10=IFCSITE('2TYcD2ZwLHQvJeXbzrFMUt',$,'Hopper Site',$,$,#11,$,$,.ELEMENT.,$,$,$,$,$);
#11=IFCLOCALPLACEMENT($,#12);
#12=IFCAXIS2PLACEMENT3D(#13,$,$);
#13=IFCCARTESIANPOINT((0.,0.,0.));
#14=IFCBUILDING('15lzYabInGdPESqPm9SLch',$,'Hopper Building',$,$,#15,$,$,.ELEMENT.,$,$,$);
#15=IFCLOCALPLACEMENT(#11,#16);
#16=IFCAXIS2PLACEMENT3D(#17,$,$);
#17=IFCCARTESIANPOINT((0.,0.,0.));
#18=IFCBUILDINGSTOREY('2TeQM9aKLVlftmUUHQQBLW',$,'Ground floor',$,$,#19,$,$,.ELEMENT.,0.);
#19=IFCLOCALPLACEMENT(#15,#20);
#20=IFCAXIS2PLACEMENT3D(#21,$,$);
#21=IFCCARTESIANPOINT((0.,0.,0.));
#22=IFCSLAB('1I3qbYJafN595UXwYlR8ze',$,'Floor slab',$,$,#23,#128,$,.FLOOR.);
#23=IFCLOCALPLACEMENT(#19,#24);
#24=IFCAXIS2PLACEMENT3D(#25,$,$);
#25=IFCCARTESIANPOINT((0.,0.,0.));
#26=IFCCARTESIANPOINTLIST3D(((6.,5.,0.),(6.,5.,-0.20000000298023224),(6.,4.285714149475098,0.),(6.,4.285714149475098,-0.20000000298023224),(6.,3.5714285373687744,0.),(6.,3.5714285373687744,-0.20000000298023224),(6.,2.857142925262451,0.),(6.,2.857142925262451,-0.20000000298023224),(6.,2.142857074737549,0.),(6.,2.142857074737549,-0.20000000298023224),(6.,1.4285714626312256,0.),(6.,1.4285714626312256,-0.20000000298023224),(6.,0.7142857313156128,0.),(6.,0.7142857313156128,-0.20000000298023224),(6.,0.,0.),(6.,0.,-0.20000000298023224),(5.142857074737549,5.,0.),(5.142857074737549,5.,-0.20000000298023224),(5.142857074737549,0.,0.),(5.142857074737549,0.,-0.20000000298023224),(4.5,3.75,0.),(4.5,3.75,-0.20000000298023224),(4.5,2.5,0.),(4.5,2.5,-0.20000000298023224),(4.5,1.25,0.),(4.5,1.25,-0.20000000298023224),(4.285714149475098,5.,0.),(4.285714149475098,5.,-0.20000000298023224),(4.285714149475098,0.,0.),(4.285714149475098,0.,-0.20000000298023224),(3.4285714626312256,5.,0.),(3.4285714626312256,5.,-0.20000000298023224),(3.4285714626312256,0.,0.),(3.4285714626312256,0.,-0.20000000298023224),(3.,3.75,0.),(3.,3.75,-0.20000000298023224),(3.,2.5,0.),(3.,2.5,-0.20000000298023224),(3.,1.25,0.),(3.,1.25,-0.20000000298023224),(2.5714285373687744,5.,0.),(2.5714285373687744,5.,-0.20000000298023224),(2.5714285373687744,0.,0.),(2.5714285373687744,0.,-0.20000000298023224),(1.7142857313156128,5.,0.),(1.7142857313156128,5.,-0.20000000298023224),(1.7142857313156128,0.,0.),(1.7142857313156128,0.,-0.20000000298023224),(1.5,3.75,0.),(1.5,3.75,-0.20000000298023224),(1.5,2.5,0.),(1.5,2.5,-0.20000000298023224),(1.5,1.25,0.),(1.5,1.25,-0.20000000298023224),(0.8571428656578064,5.,0.),(0.8571428656578064,5.,-0.20000000298023224),(0.8571428656578064,0.,0.),(0.8571428656578064,0.,-0.20000000298023224),(0.,5.,0.),(0.,5.,-0.20000000298023224),(0.,4.285714149475098,0.),(0.,4.285714149475098,-0.20000000298023224),(0.,3.5714285373687744,0.),(0.,3.5714285373687744,-0.20000000298023224),(0.,2.857142925262451,0.),(0.,2.857142925262451,-0.20000000298023224),(0.,2.142857074737549,0.),(0.,2.142857074737549,-0.20000000298023224),(0.,1.4285714626312256,0.),(0.,1.4285714626312256,-0.20000000298023224),(0.,0.7142857313156128,0.),(0.,0.7142857313156128,-0.20000000298023224),(0.,0.,0.),(0.,0.,-0.20000000298023224)),$);
#27=IFCPOLYGONALFACESET(#26,.T.,(#28,#29,#30,#31,#32,#33,#34,#35,#36,#37,#38,#39,#40,#41,#42,#43,#44,#45,#46,#47,#48,#49,#50,#51,#52,#53,#54,#55,#56,#57,#58,#59,#60,#61,#62,#63,#64,#65,#66,#67,#68,#69,#70,#71,#72,#73,#74,#75,#76,#77,#78,#79,#80,#81,#82,#83,#84,#85,#86,#87,#88,#89,#90,#91,#92,#93,#94,#95,#96,#97,#98,#99,#100,#101,#102,#103,#104,#105,#106,#107,#108,#109,#110,#111,#112,#113,#114,#115,#116,#117,#118,#119,#120,#121,#122,#123,#124,#125),$);
#28=IFCINDEXEDPOLYGONALFACE((18,17,1,2));
#29=IFCINDEXEDPOLYGONALFACE((32,31,27,28));
#30=IFCINDEXEDPOLYGONALFACE((28,27,17,18));
#31=IFCINDEXEDPOLYGONALFACE((31,32,42,41));
#32=IFCINDEXEDPOLYGONALFACE((46,45,41,42));
#33=IFCINDEXEDPOLYGONALFACE((56,60,59,55));
#34=IFCINDEXEDPOLYGONALFACE((46,56,55,45));
#35=IFCINDEXEDPOLYGONALFACE((62,61,59,60));
#36=IFCINDEXEDPOLYGONALFACE((66,65,63,64));
#37=IFCINDEXEDPOLYGONALFACE((64,63,61,62));
#38=IFCINDEXEDPOLYGONALFACE((65,66,68,67));
#39=IFCINDEXEDPOLYGONALFACE((68,70,69,67));
#40=IFCINDEXEDPOLYGONALFACE((72,74,73,71));
#41=IFCINDEXEDPOLYGONALFACE((70,72,71,69));
#42=IFCINDEXEDPOLYGONALFACE((74,58,57,73));
#43=IFCINDEXEDPOLYGONALFACE((44,43,47,48));
#44=IFCINDEXEDPOLYGONALFACE((58,48,47,57));
#45=IFCINDEXEDPOLYGONALFACE((43,44,34,33));
#46=IFCINDEXEDPOLYGONALFACE((30,29,33,34));
#47=IFCINDEXEDPOLYGONALFACE((16,15,19,20));
#48=IFCINDEXEDPOLYGONALFACE((20,19,29,30));
#49=IFCINDEXEDPOLYGONALFACE((14,13,15,16));
#50=IFCINDEXEDPOLYGONALFACE((10,9,11,12));
#51=IFCINDEXEDPOLYGONALFACE((12,11,13,14));
#52=IFCINDEXEDPOLYGONALFACE((9,10,8,7));
#53=IFCINDEXEDPOLYGONALFACE((6,5,7,8));
#54=IFCINDEXEDPOLYGONALFACE((2,1,3,4));
#55=IFCINDEXEDPOLYGONALFACE((4,3,5,6));
#56=IFCINDEXEDPOLYGONALFACE((22,24,38,36));
#57=IFCINDEXEDPOLYGONALFACE((36,38,52,50));
#58=IFCINDEXEDPOLYGONALFACE((38,40,54,52));
#59=IFCINDEXEDPOLYGONALFACE((24,26,40,38));
#60=IFCINDEXEDPOLYGONALFACE((58,74,72));
#61=IFCINDEXEDPOLYGONALFACE((68,52,54,70));
#62=IFCINDEXEDPOLYGONALFACE((70,54,72));
#63=IFCINDEXEDPOLYGONALFACE((54,48,58));
#64=IFCINDEXEDPOLYGONALFACE((40,44,48,54));
#65=IFCINDEXEDPOLYGONALFACE((34,44,40));
#66=IFCINDEXEDPOLYGONALFACE((72,54,58));
#67=IFCINDEXEDPOLYGONALFACE((64,50,52,66));
#68=IFCINDEXEDPOLYGONALFACE((56,62,60));
#69=IFCINDEXEDPOLYGONALFACE((62,50,64));
#70=IFCINDEXEDPOLYGONALFACE((62,56,50));
#71=IFCINDEXEDPOLYGONALFACE((50,56,46));
#72=IFCINDEXEDPOLYGONALFACE((50,46,42));
#73=IFCINDEXEDPOLYGONALFACE((42,36,50));
#74=IFCINDEXEDPOLYGONALFACE((52,68,66));
#75=IFCINDEXEDPOLYGONALFACE((26,30,34));
#76=IFCINDEXEDPOLYGONALFACE((24,10,12,26));
#77=IFCINDEXEDPOLYGONALFACE((26,20,30));
#78=IFCINDEXEDPOLYGONALFACE((14,16,20));
#79=IFCINDEXEDPOLYGONALFACE((14,26,12));
#80=IFCINDEXEDPOLYGONALFACE((14,20,26));
#81=IFCINDEXEDPOLYGONALFACE((8,10,24));
#82=IFCINDEXEDPOLYGONALFACE((36,32,28,22));
#83=IFCINDEXEDPOLYGONALFACE((28,18,22));
#84=IFCINDEXEDPOLYGONALFACE((42,32,36));
#85=IFCINDEXEDPOLYGONALFACE((6,22,4));
#86=IFCINDEXEDPOLYGONALFACE((2,4,18));
#87=IFCINDEXEDPOLYGONALFACE((4,22,18));
#88=IFCINDEXEDPOLYGONALFACE((8,22,6));
#89=IFCINDEXEDPOLYGONALFACE((22,8,24));
#90=IFCINDEXEDPOLYGONALFACE((34,40,26));
#91=IFCINDEXEDPOLYGONALFACE((21,35,37,23));
#92=IFCINDEXEDPOLYGONALFACE((35,49,51,37));
#93=IFCINDEXEDPOLYGONALFACE((37,51,53,39));
#94=IFCINDEXEDPOLYGONALFACE((23,37,39,25));
#95=IFCINDEXEDPOLYGONALFACE((57,71,73));
#96=IFCINDEXEDPOLYGONALFACE((67,69,53,51));
#97=IFCINDEXEDPOLYGONALFACE((69,71,53));
#98=IFCINDEXEDPOLYGONALFACE((53,57,47));
#99=IFCINDEXEDPOLYGONALFACE((39,53,47,43));
#100=IFCINDEXEDPOLYGONALFACE((33,39,43));
#101=IFCINDEXEDPOLYGONALFACE((71,57,53));
#102=IFCINDEXEDPOLYGONALFACE((63,65,51,49));
#103=IFCINDEXEDPOLYGONALFACE((55,59,61));
#104=IFCINDEXEDPOLYGONALFACE((61,63,49));
#105=IFCINDEXEDPOLYGONALFACE((61,49,55));
#106=IFCINDEXEDPOLYGONALFACE((49,45,55));
#107=IFCINDEXEDPOLYGONALFACE((49,41,45));
#108=IFCINDEXEDPOLYGONALFACE((41,49,35));
#109=IFCINDEXEDPOLYGONALFACE((51,65,67));
#110=IFCINDEXEDPOLYGONALFACE((25,33,29));
#111=IFCINDEXEDPOLYGONALFACE((23,25,11,9));
#112=IFCINDEXEDPOLYGONALFACE((25,29,19));
#113=IFCINDEXEDPOLYGONALFACE((13,19,15));
#114=IFCINDEXEDPOLYGONALFACE((13,11,25));
#115=IFCINDEXEDPOLYGONALFACE((13,25,19));
#116=IFCINDEXEDPOLYGONALFACE((7,23,9));
#117=IFCINDEXEDPOLYGONALFACE((35,21,27,31));
#118=IFCINDEXEDPOLYGONALFACE((27,21,17));
#119=IFCINDEXEDPOLYGONALFACE((41,35,31));
#120=IFCINDEXEDPOLYGONALFACE((5,3,21));
#121=IFCINDEXEDPOLYGONALFACE((1,17,3));
#122=IFCINDEXEDPOLYGONALFACE((3,17,21));
#123=IFCINDEXEDPOLYGONALFACE((7,5,21));
#124=IFCINDEXEDPOLYGONALFACE((21,23,7));
#125=IFCINDEXEDPOLYGONALFACE((33,25,39));
#126=IFCSHAPEREPRESENTATION(#127,'Body','Tessellation',(#27));
#127=IFCGEOMETRICREPRESENTATIONSUBCONTEXT('Body','Model',*,*,*,*,#7,$,.MODEL_VIEW.,$);
#128=IFCPRODUCTDEFINITIONSHAPE($,$,(#126));
#129=IFCWALL('2ED6Nc4U1GTOh3cyvuaOeK',$,'South wall',$,$,#130,#210,$,.SOLIDWALL.);
#130=IFCLOCALPLACEMENT(#19,#131);
#131=IFCAXIS2PLACEMENT3D(#132,$,$);
#132=IFCCARTESIANPOINT((0.,0.,0.));
#133=IFCCARTESIANPOINTLIST3D(((6.,0.20000000298023224,3.),(6.,0.20000000298023224,2.25),(6.,0.20000000298023224,1.5),(6.,0.20000000298023224,0.75),(6.,0.20000000298023224,0.),(6.,0.,3.),(6.,0.,2.25),(6.,0.,1.5),(6.,0.,0.75),(6.,0.,0.),(5.142857074737549,0.20000000298023224,3.),(5.142857074737549,0.20000000298023224,0.),(5.142857074737549,0.,3.),(5.142857074737549,0.,0.),(4.5,0.20000000298023224,2.25),(4.5,0.20000000298023224,1.5),(4.5,0.20000000298023224,0.75),(4.5,0.,2.25),(4.5,0.,1.5),(4.5,0.,0.75),(4.285714149475098,0.20000000298023224,3.),(4.285714149475098,0.20000000298023224,0.),(4.285714149475098,0.,3.),(4.285714149475098,0.,0.),(3.4285714626312256,0.20000000298023224,3.),(3.4285714626312256,0.20000000298023224,0.),(3.4285714626312256,0.,3.),(3.4285714626312256,0.,0.),(3.,0.20000000298023224,2.25),(3.,0.20000000298023224,1.5),(3.,0.20000000298023224,0.75),(3.,0.,2.25),(3.,0.,1.5),(3.,0.,0.75),(2.5714285373687744,0.20000000298023224,3.),(2.5714285373687744,0.20000000298023224,0.),(2.5714285373687744,0.,3.),(2.5714285373687744,0.,0.),(1.7142857313156128,0.20000000298023224,3.),(1.7142857313156128,0.20000000298023224,0.),(1.7142857313156128,0.,3.),(1.7142857313156128,0.,0.),(1.5,0.20000000298023224,2.25),(1.5,0.20000000298023224,1.5),(1.5,0.20000000298023224,0.75),(1.5,0.,2.25),(1.5,0.,1.5),(1.5,0.,0.75),(0.8571428656578064,0.20000000298023224,3.),(0.8571428656578064,0.20000000298023224,0.),(0.8571428656578064,0.,3.),(0.8571428656578064,0.,0.),(0.,0.20000000298023224,3.),(0.,0.20000000298023224,2.25),(0.,0.20000000298023224,1.5),(0.,0.20000000298023224,0.75),(0.,0.20000000298023224,0.),(0.,0.,3.),(0.,0.,2.25),(0.,0.,1.5),(0.,0.,0.75),(0.,0.,0.)),$);
#134=IFCPOLYGONALFACESET(#133,.T.,(#135,#136,#137,#138,#139,#140,#141,#142,#143,#144,#145,#146,#147,#148,#149,#150,#151,#152,#153,#154,#155,#156,#157,#158,#159,#160,#161,#162,#163,#164,#165,#166,#167,#168,#169,#170,#171,#172,#173,#174,#175,#176,#177,#178,#179,#180,#181,#182,#183,#184,#185,#186,#187,#188,#189,#190,#191,#192,#193,#194,#195,#196,#197,#198,#199,#200,#201,#202,#203,#204,#205,#206,#207,#208),$);
#135=IFCINDEXEDPOLYGONALFACE((43,29,30,44));
#136=IFCINDEXEDPOLYGONALFACE((29,15,16,30));
#137=IFCINDEXEDPOLYGONALFACE((30,16,17,31));
#138=IFCINDEXEDPOLYGONALFACE((44,30,31,45));
#139=IFCINDEXEDPOLYGONALFACE((4,5,12));
#140=IFCINDEXEDPOLYGONALFACE((17,4,12));
#141=IFCINDEXEDPOLYGONALFACE((17,22,26));
#142=IFCINDEXEDPOLYGONALFACE((26,31,17));
#143=IFCINDEXEDPOLYGONALFACE((31,26,36));
#144=IFCINDEXEDPOLYGONALFACE((12,22,17));
#145=IFCINDEXEDPOLYGONALFACE((17,16,3,4));
#146=IFCINDEXEDPOLYGONALFACE((2,15,11,1));
#147=IFCINDEXEDPOLYGONALFACE((2,3,16,15));
#148=IFCINDEXEDPOLYGONALFACE((15,25,21));
#149=IFCINDEXEDPOLYGONALFACE((25,15,29));
#150=IFCINDEXEDPOLYGONALFACE((11,15,21));
#151=IFCINDEXEDPOLYGONALFACE((36,40,45,31));
#152=IFCINDEXEDPOLYGONALFACE((50,45,40));
#153=IFCINDEXEDPOLYGONALFACE((56,50,57));
#154=IFCINDEXEDPOLYGONALFACE((56,55,44,45));
#155=IFCINDEXEDPOLYGONALFACE((50,56,45));
#156=IFCINDEXEDPOLYGONALFACE((29,43,39,35));
#157=IFCINDEXEDPOLYGONALFACE((39,43,49));
#158=IFCINDEXEDPOLYGONALFACE((25,29,35));
#159=IFCINDEXEDPOLYGONALFACE((43,54,53,49));
#160=IFCINDEXEDPOLYGONALFACE((55,54,43,44));
#161=IFCINDEXEDPOLYGONALFACE((56,57,62,61));
#162=IFCINDEXEDPOLYGONALFACE((54,55,60,59));
#163=IFCINDEXEDPOLYGONALFACE((53,54,59,58));
#164=IFCINDEXEDPOLYGONALFACE((55,56,61,60));
#165=IFCINDEXEDPOLYGONALFACE((18,32,33,19));
#166=IFCINDEXEDPOLYGONALFACE((32,46,47,33));
#167=IFCINDEXEDPOLYGONALFACE((33,47,48,34));
#168=IFCINDEXEDPOLYGONALFACE((19,33,34,20));
#169=IFCINDEXEDPOLYGONALFACE((61,62,52));
#170=IFCINDEXEDPOLYGONALFACE((48,61,52));
#171=IFCINDEXEDPOLYGONALFACE((48,42,38));
#172=IFCINDEXEDPOLYGONALFACE((38,34,48));
#173=IFCINDEXEDPOLYGONALFACE((34,38,28));
#174=IFCINDEXEDPOLYGONALFACE((52,42,48));
#175=IFCINDEXEDPOLYGONALFACE((48,47,60,61));
#176=IFCINDEXEDPOLYGONALFACE((59,46,51,58));
#177=IFCINDEXEDPOLYGONALFACE((59,60,47,46));
#178=IFCINDEXEDPOLYGONALFACE((46,37,41));
#179=IFCINDEXEDPOLYGONALFACE((37,46,32));
#180=IFCINDEXEDPOLYGONALFACE((51,46,41));
#181=IFCINDEXEDPOLYGONALFACE((28,24,20,34));
#182=IFCINDEXEDPOLYGONALFACE((14,20,24));
#183=IFCINDEXEDPOLYGONALFACE((9,14,10));
#184=IFCINDEXEDPOLYGONALFACE((9,8,19,20));
#185=IFCINDEXEDPOLYGONALFACE((14,9,20));
#186=IFCINDEXEDPOLYGONALFACE((32,18,23,27));
#187=IFCINDEXEDPOLYGONALFACE((23,18,13));
#188=IFCINDEXEDPOLYGONALFACE((37,32,27));
#189=IFCINDEXEDPOLYGONALFACE((18,7,6,13));
#190=IFCINDEXEDPOLYGONALFACE((8,7,18,19));
#191=IFCINDEXEDPOLYGONALFACE((9,10,5,4));
#192=IFCINDEXEDPOLYGONALFACE((7,8,3,2));
#193=IFCINDEXEDPOLYGONALFACE((6,7,2,1));
#194=IFCINDEXEDPOLYGONALFACE((8,9,4,3));
#195=IFCINDEXEDPOLYGONALFACE((62,57,50,52));
#196=IFCINDEXEDPOLYGONALFACE((42,40,36,38));
#197=IFCINDEXEDPOLYGONALFACE((52,50,40,42));
#198=IFCINDEXEDPOLYGONALFACE((38,36,26,28));
#199=IFCINDEXEDPOLYGONALFACE((24,28,26,22));
#200=IFCINDEXEDPOLYGONALFACE((14,12,5,10));
#201=IFCINDEXEDPOLYGONALFACE((24,22,12,14));
#202=IFCINDEXEDPOLYGONALFACE((58,51,49,53));
#203=IFCINDEXEDPOLYGONALFACE((41,37,35,39));
#204=IFCINDEXEDPOLYGONALFACE((51,41,39,49));
#205=IFCINDEXEDPOLYGONALFACE((37,27,25,35));
#206=IFCINDEXEDPOLYGONALFACE((23,21,25,27));
#207=IFCINDEXEDPOLYGONALFACE((13,6,1,11));
#208=IFCINDEXEDPOLYGONALFACE((23,13,11,21));
#209=IFCSHAPEREPRESENTATION(#127,'Body','Tessellation',(#134));
#210=IFCPRODUCTDEFINITIONSHAPE($,$,(#209));
#211=IFCWALL('0keacKZyDSK91zTb6p2eK_',$,'North wall',$,$,#212,#306,$,.SOLIDWALL.);
#212=IFCLOCALPLACEMENT(#19,#213);
#213=IFCAXIS2PLACEMENT3D(#214,$,$);
#214=IFCCARTESIANPOINT((0.,0.,0.));
#215=IFCCARTESIANPOINTLIST3D(((6.,5.,3.),(6.,5.,2.25),(6.,5.,1.5),(6.,5.,0.75),(6.,5.,0.),(6.,4.800000190734863,3.),(6.,4.800000190734863,2.25),(6.,4.800000190734863,1.5),(6.,4.800000190734863,0.75),(6.,4.800000190734863,0.),(5.25,5.,3.),(5.25,5.,0.),(5.25,4.800000190734863,3.),(5.25,4.800000190734863,0.),(4.5,5.,3.),(4.5,5.,2.25),(4.5,5.,1.5),(4.5,5.,0.75),(4.5,5.,0.),(4.5,4.800000190734863,3.),(4.5,4.800000190734863,2.25),(4.5,4.800000190734863,1.5),(4.5,4.800000190734863,0.75),(4.5,4.800000190734863,0.),(3.75,5.,3.),(3.75,5.,0.),(3.75,4.800000190734863,3.),(3.75,4.800000190734863,0.),(3.,5.,3.),(3.,5.,2.25),(3.,5.,1.5),(3.,5.,0.75),(3.,5.,0.),(3.,4.800000190734863,3.),(3.,4.800000190734863,2.25),(3.,4.800000190734863,1.5),(3.,4.800000190734863,0.75),(3.,4.800000190734863,0.),(2.25,5.,3.),(2.25,5.,0.),(2.25,4.800000190734863,3.),(2.25,4.800000190734863,0.),(1.5,5.,3.),(1.5,5.,2.25),(1.5,5.,1.5),(1.5,5.,0.75),(1.5,5.,0.),(1.5,4.800000190734863,3.),(1.5,4.800000190734863,2.25),(1.5,4.800000190734863,1.5),(1.5,4.800000190734863,0.75),(1.5,4.800000190734863,0.),(0.75,5.,3.),(0.75,5.,0.),(0.75,4.800000190734863,3.),(0.75,4.800000190734863,0.),(0.,5.,3.),(0.,5.,2.25),(0.,5.,1.5),(0.,5.,0.75),(0.,5.,0.),(0.,4.800000190734863,3.),(0.,4.800000190734863,2.25),(0.,4.800000190734863,1.5),(0.,4.800000190734863,0.75),(0.,4.800000190734863,0.)),$);
#216=IFCPOLYGONALFACESET(#215,.T.,(#217,#218,#219,#220,#221,#222,#223,#224,#225,#226,#227,#228,#229,#230,#231,#232,#233,#234,#235,#236,#237,#238,#239,#240,#241,#242,#243,#244,#245,#246,#247,#248,#249,#250,#251,#252,#253,#254,#255,#256,#257,#258,#259,#260,#261,#262,#263,#264,#265,#266,#267,#268,#269,#270,#271,#272,#273,#274,#275,#276,#277,#278,#279,#280,#281,#282,#283,#284,#285,#286,#287,#288,#289,#290,#291,#292,#293,#294,#295,#296,#297,#298,#299,#300,#301,#302,#303,#304),$);
#217=IFCINDEXEDPOLYGONALFACE((44,30,31,45));
#218=IFCINDEXEDPOLYGONALFACE((30,16,17,31));
#219=IFCINDEXEDPOLYGONALFACE((31,17,18,32));
#220=IFCINDEXEDPOLYGONALFACE((45,31,32,46));
#221=IFCINDEXEDPOLYGONALFACE((4,5,12));
#222=IFCINDEXEDPOLYGONALFACE((19,18,12));
#223=IFCINDEXEDPOLYGONALFACE((4,12,18));
#224=IFCINDEXEDPOLYGONALFACE((32,26,33));
#225=IFCINDEXEDPOLYGONALFACE((26,32,18));
#226=IFCINDEXEDPOLYGONALFACE((32,33,40));
#227=IFCINDEXEDPOLYGONALFACE((19,26,18));
#228=IFCINDEXEDPOLYGONALFACE((18,17,3,4));
#229=IFCINDEXEDPOLYGONALFACE((16,11,2));
#230=IFCINDEXEDPOLYGONALFACE((2,11,1));
#231=IFCINDEXEDPOLYGONALFACE((2,3,17,16));
#232=IFCINDEXEDPOLYGONALFACE((16,25,15));
#233=IFCINDEXEDPOLYGONALFACE((25,16,30));
#234=IFCINDEXEDPOLYGONALFACE((11,16,15));
#235=IFCINDEXEDPOLYGONALFACE((46,40,47));
#236=IFCINDEXEDPOLYGONALFACE((45,46,60,59));
#237=IFCINDEXEDPOLYGONALFACE((46,47,54));
#238=IFCINDEXEDPOLYGONALFACE((60,54,61));
#239=IFCINDEXEDPOLYGONALFACE((54,60,46));
#240=IFCINDEXEDPOLYGONALFACE((59,58,44,45));
#241=IFCINDEXEDPOLYGONALFACE((39,30,44));
#242=IFCINDEXEDPOLYGONALFACE((30,39,29));
#243=IFCINDEXEDPOLYGONALFACE((39,44,43));
#244=IFCINDEXEDPOLYGONALFACE((25,30,29));
#245=IFCINDEXEDPOLYGONALFACE((43,44,53));
#246=IFCINDEXEDPOLYGONALFACE((58,53,44));
#247=IFCINDEXEDPOLYGONALFACE((58,57,53));
#248=IFCINDEXEDPOLYGONALFACE((40,46,32));
#249=IFCINDEXEDPOLYGONALFACE((60,61,66,65));
#250=IFCINDEXEDPOLYGONALFACE((58,59,64,63));
#251=IFCINDEXEDPOLYGONALFACE((57,58,63,62));
#252=IFCINDEXEDPOLYGONALFACE((59,60,65,64));
#253=IFCINDEXEDPOLYGONALFACE((21,35,36,22));
#254=IFCINDEXEDPOLYGONALFACE((35,49,50,36));
#255=IFCINDEXEDPOLYGONALFACE((36,50,51,37));
#256=IFCINDEXEDPOLYGONALFACE((22,36,37,23));
#257=IFCINDEXEDPOLYGONALFACE((65,66,56));
#258=IFCINDEXEDPOLYGONALFACE((52,51,56));
#259=IFCINDEXEDPOLYGONALFACE((65,56,51));
#260=IFCINDEXEDPOLYGONALFACE((37,42,38));
#261=IFCINDEXEDPOLYGONALFACE((42,37,51));
#262=IFCINDEXEDPOLYGONALFACE((37,38,28));
#263=IFCINDEXEDPOLYGONALFACE((52,42,51));
#264=IFCINDEXEDPOLYGONALFACE((51,50,64,65));
#265=IFCINDEXEDPOLYGONALFACE((49,55,63));
#266=IFCINDEXEDPOLYGONALFACE((63,55,62));
#267=IFCINDEXEDPOLYGONALFACE((63,64,50,49));
#268=IFCINDEXEDPOLYGONALFACE((49,41,48));
#269=IFCINDEXEDPOLYGONALFACE((41,49,35));
#270=IFCINDEXEDPOLYGONALFACE((55,49,48));
#271=IFCINDEXEDPOLYGONALFACE((23,28,24));
#272=IFCINDEXEDPOLYGONALFACE((22,23,9,8));
#273=IFCINDEXEDPOLYGONALFACE((23,24,14));
#274=IFCINDEXEDPOLYGONALFACE((9,14,10));
#275=IFCINDEXEDPOLYGONALFACE((14,9,23));
#276=IFCINDEXEDPOLYGONALFACE((8,7,21,22));
#277=IFCINDEXEDPOLYGONALFACE((27,35,21));
#278=IFCINDEXEDPOLYGONALFACE((35,27,34));
#279=IFCINDEXEDPOLYGONALFACE((27,21,20));
#280=IFCINDEXEDPOLYGONALFACE((41,35,34));
#281=IFCINDEXEDPOLYGONALFACE((20,21,13));
#282=IFCINDEXEDPOLYGONALFACE((7,13,21));
#283=IFCINDEXEDPOLYGONALFACE((7,6,13));
#284=IFCINDEXEDPOLYGONALFACE((28,23,37));
#285=IFCINDEXEDPOLYGONALFACE((9,10,5,4));
#286=IFCINDEXEDPOLYGONALFACE((7,8,3,2));
#287=IFCINDEXEDPOLYGONALFACE((6,7,2,1));
#288=IFCINDEXEDPOLYGONALFACE((8,9,4,3));
#289=IFCINDEXEDPOLYGONALFACE((56,66,61,54));
#290=IFCINDEXEDPOLYGONALFACE((42,52,47,40));
#291=IFCINDEXEDPOLYGONALFACE((52,56,54,47));
#292=IFCINDEXEDPOLYGONALFACE((38,42,40,33));
#293=IFCINDEXEDPOLYGONALFACE((24,28,26,19));
#294=IFCINDEXEDPOLYGONALFACE((10,14,12,5));
#295=IFCINDEXEDPOLYGONALFACE((14,24,19,12));
#296=IFCINDEXEDPOLYGONALFACE((28,38,33,26));
#297=IFCINDEXEDPOLYGONALFACE((55,53,57,62));
#298=IFCINDEXEDPOLYGONALFACE((41,39,43,48));
#299=IFCINDEXEDPOLYGONALFACE((48,43,53,55));
#300=IFCINDEXEDPOLYGONALFACE((34,29,39,41));
#301=IFCINDEXEDPOLYGONALFACE((20,15,25,27));
#302=IFCINDEXEDPOLYGONALFACE((6,1,11,13));
#303=IFCINDEXEDPOLYGONALFACE((13,11,15,20));
#304=IFCINDEXEDPOLYGONALFACE((27,25,29,34));
#305=IFCSHAPEREPRESENTATION(#127,'Body','Tessellation',(#216));
#306=IFCPRODUCTDEFINITIONSHAPE($,$,(#305));
#307=IFCRELCONTAINEDINSPATIALSTRUCTURE('3pK2PEYFrRAwVF$P4zrI_7',$,$,$,(#22,#129,#211),#18);
#308=IFCRELAGGREGATES('1AGMWmbEbItfqbaY6KodLo',$,$,$,#14,(#18));
#309=IFCRELAGGREGATES('0ku6gHNDXJkRqXHwdSpQ4t',$,$,$,#10,(#14));
#310=IFCRELAGGREGATES('2xur6eFynIWPDon9MB6NTP',$,$,$,#1,(#10));
ENDSEC;
END-ISO-10303-21;
