ISO-10303-21;
HEADER;
FILE_DESCRIPTION ((''), '2;1');
FILE_NAME ('03 Units, contexts and georeference.ifc', '2026-10-09T14:44:27', (''), (''), 'xbim Toolkit v6.1.605.0', 'IfcHopper', '');
FILE_SCHEMA (('IFC4X3_ADD2'));
ENDSEC;
DATA;
#1=IFCPROJECT('2AJ3Lfi8PUIwmZ1iswoAfo',$,'Georeferenced site',$,$,$,$,(#7),#2);
#2=IFCUNITASSIGNMENT((#3,#4,#5,#6));
#3=IFCSIUNIT(*,.LENGTHUNIT.,.MILLI.,.METRE.);
#4=IFCSIUNIT(*,.AREAUNIT.,$,.SQUARE_METRE.);
#5=IFCSIUNIT(*,.VOLUMEUNIT.,$,.CUBIC_METRE.);
#6=IFCSIUNIT(*,.PLANEANGLEUNIT.,$,.RADIAN.);
#7=IFCGEOMETRICREPRESENTATIONCONTEXT($,'Model',3,0.01,#8,#10);
#8=IFCAXIS2PLACEMENT3D(#9,$,$);
#9=IFCCARTESIANPOINT((0.,0.,0.));
#10=IFCDIRECTION((-0.09950371902099893,0.9950371902099893));
#11=IFCGEOMETRICREPRESENTATIONSUBCONTEXT('Body','Model',*,*,*,*,#7,$,.MODEL_VIEW.,$);
#12=IFCGEOMETRICREPRESENTATIONSUBCONTEXT('Axis','Model',*,*,*,*,#7,$,.GRAPH_VIEW.,$);
#13=IFCGEOMETRICREPRESENTATIONSUBCONTEXT('Box','Model',*,*,*,*,#7,$,.MODEL_VIEW.,$);
#14=IFCPROJECTEDCRS('EPSG:32632','WGS 84 / UTM zone 32N','WGS84',$,$,$,#15);
#15=IFCSIUNIT(*,.LENGTHUNIT.,$,.METRE.);
#16=IFCMAPCONVERSION(#7,#14,500000.,5000000.,120.,0.9987523388778446,0.04993761694389223,0.001);
#17=IFCSITE('3QybI1hAXJQeRh0dflHLae',$,'Hopper Site',$,$,#18,$,$,.ELEMENT.,$,$,$,$,$);
#18=IFCLOCALPLACEMENT($,#19);
#19=IFCAXIS2PLACEMENT3D(#20,$,$);
#20=IFCCARTESIANPOINT((0.,0.,0.));
#21=IFCBUILDINGELEMENTPROXY('0fmQ$pCljGK8TfV8$IMKR0',$,'Survey marker',$,$,#22,#64,$,$);
#22=IFCLOCALPLACEMENT(#18,#23);
#23=IFCAXIS2PLACEMENT3D(#24,$,$);
#24=IFCCARTESIANPOINT((0.,0.,0.));
#25=IFCCARTESIANPOINTLIST3D(((500.,500.,1000.),(500.,500.,500.),(500.,500.,0.),(500.,0.,1000.),(500.,0.,0.),(500.,-500.,1000.),(500.,-500.,500.),(500.,-500.,0.),(0.,500.,1000.),(0.,500.,0.),(0.,-500.,1000.),(0.,-500.,0.),(-500.,500.,1000.),(-500.,500.,500.),(-500.,500.,0.),(-500.,0.,1000.),(-500.,0.,0.),(-500.,-500.,1000.),(-500.,-500.,500.),(-500.,-500.,0.)),$);
#26=IFCPOLYGONALFACESET(#25,.T.,(#27,#28,#29,#30,#31,#32,#33,#34,#35,#36,#37,#38,#39,#40,#41,#42,#43,#44,#45,#46,#47,#48,#49,#50,#51,#52,#53,#54,#55,#56,#57,#58,#59,#60,#61,#62),$);
#27=IFCINDEXEDPOLYGONALFACE((2,3,10));
#28=IFCINDEXEDPOLYGONALFACE((2,9,1));
#29=IFCINDEXEDPOLYGONALFACE((14,2,10));
#30=IFCINDEXEDPOLYGONALFACE((2,14,9));
#31=IFCINDEXEDPOLYGONALFACE((14,13,9));
#32=IFCINDEXEDPOLYGONALFACE((15,14,10));
#33=IFCINDEXEDPOLYGONALFACE((14,15,17));
#34=IFCINDEXEDPOLYGONALFACE((14,16,13));
#35=IFCINDEXEDPOLYGONALFACE((19,14,17));
#36=IFCINDEXEDPOLYGONALFACE((14,19,16));
#37=IFCINDEXEDPOLYGONALFACE((19,18,16));
#38=IFCINDEXEDPOLYGONALFACE((20,19,17));
#39=IFCINDEXEDPOLYGONALFACE((19,20,12));
#40=IFCINDEXEDPOLYGONALFACE((19,11,18));
#41=IFCINDEXEDPOLYGONALFACE((7,19,12));
#42=IFCINDEXEDPOLYGONALFACE((19,7,11));
#43=IFCINDEXEDPOLYGONALFACE((7,6,11));
#44=IFCINDEXEDPOLYGONALFACE((8,7,12));
#45=IFCINDEXEDPOLYGONALFACE((7,8,5));
#46=IFCINDEXEDPOLYGONALFACE((7,4,6));
#47=IFCINDEXEDPOLYGONALFACE((2,7,5));
#48=IFCINDEXEDPOLYGONALFACE((7,2,4));
#49=IFCINDEXEDPOLYGONALFACE((2,1,4));
#50=IFCINDEXEDPOLYGONALFACE((3,2,5));
#51=IFCINDEXEDPOLYGONALFACE((17,12,20));
#52=IFCINDEXEDPOLYGONALFACE((17,15,10));
#53=IFCINDEXEDPOLYGONALFACE((5,12,17));
#54=IFCINDEXEDPOLYGONALFACE((17,10,5));
#55=IFCINDEXEDPOLYGONALFACE((5,10,3));
#56=IFCINDEXEDPOLYGONALFACE((8,12,5));
#57=IFCINDEXEDPOLYGONALFACE((16,18,11));
#58=IFCINDEXEDPOLYGONALFACE((16,9,13));
#59=IFCINDEXEDPOLYGONALFACE((4,16,11));
#60=IFCINDEXEDPOLYGONALFACE((16,4,9));
#61=IFCINDEXEDPOLYGONALFACE((4,1,9));
#62=IFCINDEXEDPOLYGONALFACE((6,4,11));
#63=IFCSHAPEREPRESENTATION(#11,'Body','Tessellation',(#26));
#64=IFCPRODUCTDEFINITIONSHAPE($,$,(#63));
#65=IFCRELCONTAINEDINSPATIALSTRUCTURE('0WxHuROZ9I89$5GwwhVN8q',$,$,$,(#21),#17);
#66=IFCRELAGGREGATES('1_cuqGqkvLWB0G2zdMBrZI',$,$,$,#1,(#17));
ENDSEC;
END-ISO-10303-21;
