ISO-10303-21;
HEADER;
FILE_DESCRIPTION ((''), '2;1');
FILE_NAME ('05 Spaces.ifc', '2026-10-09T14:44:27', (''), (''), 'xbim Toolkit v6.1.605.0', 'IfcHopper', '');
FILE_SCHEMA (('IFC4X3_ADD2'));
ENDSEC;
DATA;
#1=IFCPROJECT('3XR_bw7LbGnuH_$gYPd1$o',$,'Spaces',$,$,$,$,(#7),#2);
#2=IFCUNITASSIGNMENT((#3,#4,#5,#6));
#3=IFCSIUNIT(*,.LENGTHUNIT.,$,.METRE.);
#4=IFCSIUNIT(*,.AREAUNIT.,$,.SQUARE_METRE.);
#5=IFCSIUNIT(*,.VOLUMEUNIT.,$,.CUBIC_METRE.);
#6=IFCSIUNIT(*,.PLANEANGLEUNIT.,$,.RADIAN.);
#7=IFCGEOMETRICREPRESENTATIONCONTEXT($,'Model',3,1.E-05,#8,$);
#8=IFCAXIS2PLACEMENT3D(#9,$,$);
#9=IFCCARTESIANPOINT((0.,0.,0.));
#10=IFCSITE('36TChYZbLRbQcxlC8X0cI$',$,'Hopper Site',$,$,#11,$,$,.ELEMENT.,$,$,$,$,$);
#11=IFCLOCALPLACEMENT($,#12);
#12=IFCAXIS2PLACEMENT3D(#13,$,$);
#13=IFCCARTESIANPOINT((0.,0.,0.));
#14=IFCBUILDING('2Nld$w0w1Q4eprH5TXFoFM',$,'Hopper Building',$,$,#15,$,$,.ELEMENT.,$,$,$);
#15=IFCLOCALPLACEMENT(#11,#16);
#16=IFCAXIS2PLACEMENT3D(#17,$,$);
#17=IFCCARTESIANPOINT((0.,0.,0.));
#18=IFCBUILDINGSTOREY('1vOQjJH0LP_xvB8botdTXO',$,'Hopper Storey',$,$,#19,$,$,.ELEMENT.,0.);
#19=IFCLOCALPLACEMENT(#15,#20);
#20=IFCAXIS2PLACEMENT3D(#21,$,$);
#21=IFCCARTESIANPOINT((0.,0.,0.));
#22=IFCSPACE('2zVd8qS9PVDgDs6B7zg1FD',$,'Living room',$,$,#23,$,$,.ELEMENT.,.INTERNAL.,$);
#23=IFCLOCALPLACEMENT(#19,#24);
#24=IFCAXIS2PLACEMENT3D(#25,$,$);
#25=IFCCARTESIANPOINT((0.1,0.1,0.));
#26=IFCPROPERTYSET('2TTOhPBrHUuAtEQYPlefts',$,'Pset_SpaceCommon',$,(#27,#28,#29));
#27=IFCPROPERTYSINGLEVALUE('Reference',$,IFCIDENTIFIER('R01'),$);
#28=IFCPROPERTYSINGLEVALUE('IsExternal',$,IFCBOOLEAN(.F.),$);
#29=IFCPROPERTYSINGLEVALUE('PubliclyAccessible',$,IFCBOOLEAN(.F.),$);
#30=IFCRELDEFINESBYPROPERTIES('0Juw8ENpXGtAeEQnU4PU4O',$,$,$,(#22),#26);
#31=IFCSPACE('0VHaqbFSvRVOnGooMAh1WG',$,'Reading corner',$,$,#32,$,$,.ELEMENT.,.SPACE.,$);
#32=IFCLOCALPLACEMENT(#23,#33);
#33=IFCAXIS2PLACEMENT3D(#34,$,$);
#34=IFCCARTESIANPOINT((0.1,0.1,0.));
#35=IFCFURNITURE('2Y2IpvCXrPbREZTLbpBRv4',$,'Table',$,$,#36,#79,$,.TABLE.);
#36=IFCLOCALPLACEMENT(#23,#37);
#37=IFCAXIS2PLACEMENT3D(#38,$,$);
#38=IFCCARTESIANPOINT((0.,0.,0.));
#39=IFCCARTESIANPOINTLIST3D(((4.200000190734864,3.3500000476837157,0.75),(4.200000190734864,3.3500000476837157,0.375),(4.200000190734864,3.3500000476837157,0.),(4.200000190734864,2.9,0.75),(4.200000190734864,2.9,0.),(4.200000190734864,2.449999952316284,0.75),(4.200000190734864,2.449999952316284,0.375),(4.200000190734864,2.449999952316284,0.),(3.4,3.3500000476837157,0.75),(3.4,3.3500000476837157,0.),(3.4,2.449999952316284,0.75),(3.4,2.449999952316284,0.),(2.6000000476837157,3.3500000476837157,0.75),(2.6000000476837157,3.3500000476837157,0.375),(2.6000000476837157,3.3500000476837157,0.),(2.6000000476837157,2.9,0.75),(2.6000000476837157,2.9,0.),(2.6000000476837157,2.449999952316284,0.75),(2.6000000476837157,2.449999952316284,0.375),(2.6000000476837157,2.449999952316284,0.)),$);
#40=IFCPOLYGONALFACESET(#39,.T.,(#41,#42,#43,#44,#45,#46,#47,#48,#49,#50,#51,#52,#53,#54,#55,#56,#57,#58,#59,#60,#61,#62,#63,#64,#65,#66,#67,#68,#69,#70,#71,#72,#73,#74,#75,#76),$);
#41=IFCINDEXEDPOLYGONALFACE((14,9,2));
#42=IFCINDEXEDPOLYGONALFACE((2,9,1));
#43=IFCINDEXEDPOLYGONALFACE((10,2,3));
#44=IFCINDEXEDPOLYGONALFACE((14,10,15));
#45=IFCINDEXEDPOLYGONALFACE((14,13,9));
#46=IFCINDEXEDPOLYGONALFACE((10,14,2));
#47=IFCINDEXEDPOLYGONALFACE((14,15,17));
#48=IFCINDEXEDPOLYGONALFACE((14,16,13));
#49=IFCINDEXEDPOLYGONALFACE((16,14,17));
#50=IFCINDEXEDPOLYGONALFACE((17,19,16));
#51=IFCINDEXEDPOLYGONALFACE((19,18,16));
#52=IFCINDEXEDPOLYGONALFACE((20,19,17));
#53=IFCINDEXEDPOLYGONALFACE((19,20,12));
#54=IFCINDEXEDPOLYGONALFACE((19,11,18));
#55=IFCINDEXEDPOLYGONALFACE((7,19,12));
#56=IFCINDEXEDPOLYGONALFACE((19,7,11));
#57=IFCINDEXEDPOLYGONALFACE((7,6,11));
#58=IFCINDEXEDPOLYGONALFACE((8,7,12));
#59=IFCINDEXEDPOLYGONALFACE((7,8,5));
#60=IFCINDEXEDPOLYGONALFACE((7,4,6));
#61=IFCINDEXEDPOLYGONALFACE((2,7,5));
#62=IFCINDEXEDPOLYGONALFACE((7,2,4));
#63=IFCINDEXEDPOLYGONALFACE((2,1,4));
#64=IFCINDEXEDPOLYGONALFACE((3,2,5));
#65=IFCINDEXEDPOLYGONALFACE((5,17,10));
#66=IFCINDEXEDPOLYGONALFACE((17,15,10));
#67=IFCINDEXEDPOLYGONALFACE((12,20,17));
#68=IFCINDEXEDPOLYGONALFACE((5,8,12));
#69=IFCINDEXEDPOLYGONALFACE((5,10,3));
#70=IFCINDEXEDPOLYGONALFACE((12,17,5));
#71=IFCINDEXEDPOLYGONALFACE((4,9,16));
#72=IFCINDEXEDPOLYGONALFACE((16,9,13));
#73=IFCINDEXEDPOLYGONALFACE((11,16,18));
#74=IFCINDEXEDPOLYGONALFACE((4,11,6));
#75=IFCINDEXEDPOLYGONALFACE((4,1,9));
#76=IFCINDEXEDPOLYGONALFACE((11,4,16));
#77=IFCSHAPEREPRESENTATION(#78,'Body','Tessellation',(#40));
#78=IFCGEOMETRICREPRESENTATIONSUBCONTEXT('Body','Model',*,*,*,*,#7,$,.MODEL_VIEW.,$);
#79=IFCPRODUCTDEFINITIONSHAPE($,$,(#77));
#80=IFCRELAGGREGATES('2PiJ8YgGLO98zu9eL3FI$z',$,$,$,#22,(#31));
#81=IFCRELCONTAINEDINSPATIALSTRUCTURE('1uxhbttjnPyg5r_UzoKhAb',$,$,$,(#35),#22);
#82=IFCRELAGGREGATES('3AHeOerAHPrQPi$x7G8GP6',$,$,$,#18,(#22));
#83=IFCRELAGGREGATES('2NK0Oy2GbP39jVo3fBLL74',$,$,$,#14,(#18));
#84=IFCSPACE('079kSrNZfI7QXPsQKJEbUT',$,'Garden',$,$,#85,$,$,.ELEMENT.,.EXTERNAL.,$);
#85=IFCLOCALPLACEMENT(#11,#86);
#86=IFCAXIS2PLACEMENT3D(#87,$,$);
#87=IFCCARTESIANPOINT((-1.,-9.,0.));
#88=IFCRELAGGREGATES('3PWL9lOFnUAus5ksVqaW8g',$,$,$,#10,(#14,#84));
#89=IFCRELAGGREGATES('0qGyhfEVjSrhU40CctyPof',$,$,$,#1,(#10));
ENDSEC;
END-ISO-10303-21;
