ISO-10303-21;
HEADER;
FILE_DESCRIPTION ((''), '2;1');
FILE_NAME ('06 Geometry and colour.ifc', '2026-10-09T14:44:27', (''), (''), 'xbim Toolkit v6.1.605.0', 'IfcHopper', '');
FILE_SCHEMA (('IFC4X3_ADD2'));
ENDSEC;
DATA;
#1=IFCPROJECT('0scQLCVwnMw8nJ5PLi1ABX',$,'Geometry and colour',$,$,$,$,(#7),#2);
#2=IFCUNITASSIGNMENT((#3,#4,#5,#6));
#3=IFCSIUNIT(*,.LENGTHUNIT.,$,.METRE.);
#4=IFCSIUNIT(*,.AREAUNIT.,$,.SQUARE_METRE.);
#5=IFCSIUNIT(*,.VOLUMEUNIT.,$,.CUBIC_METRE.);
#6=IFCSIUNIT(*,.PLANEANGLEUNIT.,$,.RADIAN.);
#7=IFCGEOMETRICREPRESENTATIONCONTEXT($,'Model',3,1.E-05,#8,$);
#8=IFCAXIS2PLACEMENT3D(#9,$,$);
#9=IFCCARTESIANPOINT((0.,0.,0.));
#10=IFCSITE('1qvYbOY81LL9FayorYueEt',$,'Hopper Site',$,$,#11,$,$,.ELEMENT.,$,$,$,$,$);
#11=IFCLOCALPLACEMENT($,#12);
#12=IFCAXIS2PLACEMENT3D(#13,$,$);
#13=IFCCARTESIANPOINT((0.,0.,0.));
#14=IFCBUILDING('2Ua04LpzXR2f_T4VFmK2xv',$,'Hopper Building',$,$,#15,$,$,.ELEMENT.,$,$,$);
#15=IFCLOCALPLACEMENT(#11,#16);
#16=IFCAXIS2PLACEMENT3D(#17,$,$);
#17=IFCCARTESIANPOINT((0.,0.,0.));
#18=IFCBUILDINGSTOREY('2Cu1rnJ2nUdABmzxK2_il1',$,'Ground floor',$,$,#19,$,$,.ELEMENT.,0.);
#19=IFCLOCALPLACEMENT(#15,#20);
#20=IFCAXIS2PLACEMENT3D(#21,$,$);
#21=IFCCARTESIANPOINT((0.,0.,0.));
#22=IFCCOLUMN('0BiQAR_YrUrOS7nyZOyQPj',$,'Brep column',$,$,#23,#70,$,.COLUMN.);
#23=IFCLOCALPLACEMENT(#19,#24);
#24=IFCAXIS2PLACEMENT3D(#25,$,$);
#25=IFCCARTESIANPOINT((0.,0.,0.));
#26=IFCCARTESIANPOINTLIST3D(((0.5,0.5,2.),(0.5,0.5,1.),(0.5,0.5,0.),(0.5,0.,2.),(0.5,0.,0.),(0.5,-0.5,2.),(0.5,-0.5,1.),(0.5,-0.5,0.),(0.,0.5,2.),(0.,0.5,0.),(0.,-0.5,2.),(0.,-0.5,0.),(-0.5,0.5,2.),(-0.5,0.5,1.),(-0.5,0.5,0.),(-0.5,0.,2.),(-0.5,0.,0.),(-0.5,-0.5,2.),(-0.5,-0.5,1.),(-0.5,-0.5,0.)),$);
#27=IFCPOLYGONALFACESET(#26,.T.,(#28,#29,#30,#31,#32,#33,#34,#35,#36,#37,#38,#39,#40,#41,#42,#43,#44,#45,#46,#47,#48,#49,#50,#51,#52,#53,#54,#55,#56,#57,#58,#59,#60,#61,#62,#63),$);
#28=IFCINDEXEDPOLYGONALFACE((2,3,10));
#29=IFCINDEXEDPOLYGONALFACE((2,9,1));
#30=IFCINDEXEDPOLYGONALFACE((14,2,10));
#31=IFCINDEXEDPOLYGONALFACE((2,14,9));
#32=IFCINDEXEDPOLYGONALFACE((14,13,9));
#33=IFCINDEXEDPOLYGONALFACE((15,14,10));
#34=IFCINDEXEDPOLYGONALFACE((14,15,17));
#35=IFCINDEXEDPOLYGONALFACE((14,16,13));
#36=IFCINDEXEDPOLYGONALFACE((19,14,17));
#37=IFCINDEXEDPOLYGONALFACE((14,19,16));
#38=IFCINDEXEDPOLYGONALFACE((19,18,16));
#39=IFCINDEXEDPOLYGONALFACE((20,19,17));
#40=IFCINDEXEDPOLYGONALFACE((19,20,12));
#41=IFCINDEXEDPOLYGONALFACE((19,11,18));
#42=IFCINDEXEDPOLYGONALFACE((7,19,12));
#43=IFCINDEXEDPOLYGONALFACE((19,7,11));
#44=IFCINDEXEDPOLYGONALFACE((7,6,11));
#45=IFCINDEXEDPOLYGONALFACE((8,7,12));
#46=IFCINDEXEDPOLYGONALFACE((7,8,5));
#47=IFCINDEXEDPOLYGONALFACE((7,4,6));
#48=IFCINDEXEDPOLYGONALFACE((2,7,5));
#49=IFCINDEXEDPOLYGONALFACE((7,2,4));
#50=IFCINDEXEDPOLYGONALFACE((2,1,4));
#51=IFCINDEXEDPOLYGONALFACE((3,2,5));
#52=IFCINDEXEDPOLYGONALFACE((17,12,20));
#53=IFCINDEXEDPOLYGONALFACE((17,15,10));
#54=IFCINDEXEDPOLYGONALFACE((5,12,17));
#55=IFCINDEXEDPOLYGONALFACE((17,10,5));
#56=IFCINDEXEDPOLYGONALFACE((5,10,3));
#57=IFCINDEXEDPOLYGONALFACE((8,12,5));
#58=IFCINDEXEDPOLYGONALFACE((16,18,11));
#59=IFCINDEXEDPOLYGONALFACE((16,9,13));
#60=IFCINDEXEDPOLYGONALFACE((4,16,11));
#61=IFCINDEXEDPOLYGONALFACE((16,4,9));
#62=IFCINDEXEDPOLYGONALFACE((4,1,9));
#63=IFCINDEXEDPOLYGONALFACE((6,4,11));
#64=IFCSTYLEDITEM(#27,(#67),$);
#65=IFCSURFACESTYLESHADING(#66,$);
#66=IFCCOLOURRGB($,0.7843137254901961,0.3137254901960784,0.23529411764705882);
#67=IFCSURFACESTYLE('RGB(200, 80, 60)',.BOTH.,(#65));
#68=IFCSHAPEREPRESENTATION(#69,'Body','Tessellation',(#27));
#69=IFCGEOMETRICREPRESENTATIONSUBCONTEXT('Body','Model',*,*,*,*,#7,$,.MODEL_VIEW.,$);
#70=IFCPRODUCTDEFINITIONSHAPE($,$,(#68));
#71=IFCBUILDINGELEMENTPROXY('1Lpq4DGcrV88LjU0lXx4o3',$,'Glass sphere',$,$,#72,#282,$,$);
#72=IFCLOCALPLACEMENT(#19,#73);
#73=IFCAXIS2PLACEMENT3D(#74,$,$);
#74=IFCCARTESIANPOINT((0.,0.,0.));
#75=IFCCARTESIANPOINTLIST3D(((3.,0.,0.20000000298023224),(3.24721360206604,0.,0.23915478587150574),(3.235114097595215,0.07639320194721222,0.23915478587150574),(3.200000047683716,0.1453085094690323,0.23915478587150574),(3.145308494567871,0.20000000298023224,0.23915478587150574),(3.0763931274414062,0.23511409759521484,0.23915478587150574),(3.,0.24721360206604004,0.23915478587150574),(2.9236068725585938,0.23511409759521484,0.23915478587150574),(2.854691505432129,0.20000000298023224,0.23915478587150574),(2.799999952316284,0.1453085094690323,0.23915478587150574),(2.764885902404785,0.07639320194721222,0.23915478587150574),(2.75278639793396,3.027493284217147E-17,0.23915478587150574),(2.764885902404785,-0.07639320194721222,0.23915478587150574),(2.799999952316284,-0.1453085094690323,0.23915478587150574),(2.854691505432129,-0.20000000298023224,0.23915478587150574),(2.9236068725585938,-0.23511409759521484,0.23915478587150574),(3.,-0.24721360206604004,0.23915478587150574),(3.0763931274414062,-0.23511409759521484,0.23915478587150574),(3.145308494567871,-0.20000000298023224,0.23915478587150574),(3.200000047683716,-0.1453085094690323,0.23915478587150574),(3.235114097595215,-0.07639320194721222,0.23915478587150574),(3.4702281951904297,0.,0.3527863919734955),(3.447213649749756,0.1453085094690323,0.3527863919734955),(3.380422592163086,0.27639320492744446,0.3527863919734955),(3.276393175125122,0.38042259216308594,0.3527863919734955),(3.145308494567871,0.4472135901451111,0.3527863919734955),(3.,0.4702281951904297,0.3527863919734955),(2.854691505432129,0.4472135901451111,0.3527863919734955),(2.723606824874878,0.38042259216308594,0.3527863919734955),(2.619577407836914,0.27639320492744446,0.3527863919734955),(2.552786350250244,0.1453085094690323,0.3527863919734955),(2.5297718048095703,5.758634886480636E-17,0.3527863919734955),(2.552786350250244,-0.1453085094690323,0.3527863919734955),(2.619577407836914,-0.27639320492744446,0.3527863919734955),(2.723606824874878,-0.38042259216308594,0.3527863919734955),(2.854691505432129,-0.4472135901451111,0.3527863919734955),(3.,-0.4702281951904297,0.3527863919734955),(3.145308494567871,-0.4472135901451111,0.3527863919734955),(3.276393175125122,-0.38042259216308594,0.3527863919734955),(3.380422592163086,-0.27639320492744446,0.3527863919734955),(3.447213649749756,-0.1453085094690323,0.3527863919734955),(3.6472136974334717,0.,0.5297718048095703),(3.615536689758301,0.20000000298023224,0.5297718048095703),(3.523606777191162,0.38042259216308594,0.5297718048095703),(3.380422592163086,0.5236067771911621,0.5297718048095703),(3.200000047683716,0.6155366897583008,0.5297718048095703),(3.,0.6472135782241821,0.5297718048095703),(2.799999952316284,0.6155366897583008,0.5297718048095703),(2.619577407836914,0.5236067771911621,0.5297718048095703),(2.476393222808838,0.38042259216308594,0.5297718048095703),(2.384463310241699,0.20000000298023224,0.5297718048095703),(2.3527863025665283,7.926080363685573E-17,0.5297718048095703),(2.384463310241699,-0.20000000298023224,0.5297718048095703),(2.476393222808838,-0.38042259216308594,0.5297718048095703),(2.619577407836914,-0.5236067771911621,0.5297718048095703),(2.799999952316284,-0.6155366897583008,0.5297718048095703),(3.,-0.6472135782241821,0.5297718048095703),(3.200000047683716,-0.6155366897583008,0.5297718048095703),(3.380422592163086,-0.5236067771911621,0.5297718048095703),(3.523606777191162,-0.38042259216308594,0.5297718048095703),(3.615536689758301,-0.20000000298023224,0.5297718048095703),(3.760845184326172,0.,0.75278639793396),(3.723606824874878,0.23511409759521484,0.75278639793396),(3.615536689758301,0.4472135901451111,0.75278639793396),(3.447213649749756,0.6155366897583008,0.75278639793396),(3.235114097595215,0.7236068248748779,0.75278639793396),(3.,0.7608451843261719,0.75278639793396),(2.764885902404785,0.7236068248748779,0.75278639793396),(2.552786350250244,0.6155366897583008,0.75278639793396),(2.384463310241699,0.4472135901451111,0.75278639793396),(2.276393175125122,0.23511409759521484,0.75278639793396),(2.239154815673828,9.317666822262723E-17,0.75278639793396),(2.276393175125122,-0.23511409759521484,0.75278639793396),(2.384463310241699,-0.4472135901451111,0.75278639793396),(2.552786350250244,-0.6155366897583008,0.75278639793396),(2.764885902404785,-0.7236068248748779,0.75278639793396),(3.,-0.7608451843261719,0.75278639793396),(3.235114097595215,-0.7236068248748779,0.75278639793396),(3.447213649749756,-0.6155366897583008,0.75278639793396),(3.615536689758301,-0.4472135901451111,0.75278639793396),(3.723606824874878,-0.23511409759521484,0.75278639793396),(3.799999952316284,0.,1.),(3.760845184326172,0.24721360206604004,1.),(3.6472136974334717,0.4702281951904297,1.),(3.4702281951904297,0.6472135782241821,1.),(3.24721360206604,0.7608451843261719,1.),(3.,0.800000011920929,1.),(2.75278639793396,0.7608451843261719,1.),(2.5297718048095703,0.6472135782241821,1.),(2.3527863025665283,0.4702281951904297,1.),(2.239154815673828,0.24721360206604004,1.),(2.200000047683716,9.797174158936853E-17,1.),(2.239154815673828,-0.24721360206604004,1.),(2.3527863025665283,-0.4702281951904297,1.),(2.5297718048095703,-0.6472135782241821,1.),(2.75278639793396,-0.7608451843261719,1.),(3.,-0.800000011920929,1.),(3.24721360206604,-0.7608451843261719,1.),(3.4702281951904297,-0.6472135782241821,1.),(3.6472136974334717,-0.4702281951904297,1.),(3.760845184326172,-0.24721360206604004,1.),(3.760845184326172,0.,1.24721360206604),(3.723606824874878,0.23511409759521484,1.24721360206604),(3.615536689758301,0.4472135901451111,1.24721360206604),(3.447213649749756,0.6155366897583008,1.24721360206604),(3.235114097595215,0.7236068248748779,1.24721360206604),(3.,0.7608451843261719,1.24721360206604),(2.764885902404785,0.7236068248748779,1.24721360206604),(2.552786350250244,0.6155366897583008,1.24721360206604),(2.384463310241699,0.4472135901451111,1.24721360206604),(2.276393175125122,0.23511409759521484,1.24721360206604),(2.239154815673828,9.317666822262723E-17,1.24721360206604),(2.276393175125122,-0.23511409759521484,1.24721360206604),(2.384463310241699,-0.4472135901451111,1.24721360206604),(2.552786350250244,-0.6155366897583008,1.24721360206604),(2.764885902404785,-0.7236068248748779,1.24721360206604),(3.,-0.7608451843261719,1.24721360206604),(3.235114097595215,-0.7236068248748779,1.24721360206604),(3.447213649749756,-0.6155366897583008,1.24721360206604),(3.615536689758301,-0.4472135901451111,1.24721360206604),(3.723606824874878,-0.23511409759521484,1.24721360206604),(3.6472136974334717,0.,1.4702281951904297),(3.615536689758301,0.20000000298023224,1.4702281951904297),(3.523606777191162,0.38042259216308594,1.4702281951904297),(3.380422592163086,0.5236067771911621,1.4702281951904297),(3.200000047683716,0.6155366897583008,1.4702281951904297),(3.,0.6472135782241821,1.4702281951904297),(2.799999952316284,0.6155366897583008,1.4702281951904297),(2.619577407836914,0.5236067771911621,1.4702281951904297),(2.476393222808838,0.38042259216308594,1.4702281951904297),(2.384463310241699,0.20000000298023224,1.4702281951904297),(2.3527863025665283,7.926080363685573E-17,1.4702281951904297),(2.384463310241699,-0.20000000298023224,1.4702281951904297),(2.476393222808838,-0.38042259216308594,1.4702281951904297),(2.619577407836914,-0.5236067771911621,1.4702281951904297),(2.799999952316284,-0.6155366897583008,1.4702281951904297),(3.,-0.6472135782241821,1.4702281951904297),(3.200000047683716,-0.6155366897583008,1.4702281951904297),(3.380422592163086,-0.5236067771911621,1.4702281951904297),(3.523606777191162,-0.38042259216308594,1.4702281951904297),(3.615536689758301,-0.20000000298023224,1.4702281951904297),(3.4702281951904297,0.,1.6472135782241821),(3.447213649749756,0.1453085094690323,1.6472135782241821),(3.380422592163086,0.27639320492744446,1.6472135782241821),(3.276393175125122,0.38042259216308594,1.6472135782241821),(3.145308494567871,0.4472135901451111,1.6472135782241821),(3.,0.4702281951904297,1.6472135782241821),(2.854691505432129,0.4472135901451111,1.6472135782241821),(2.723606824874878,0.38042259216308594,1.6472135782241821),(2.619577407836914,0.27639320492744446,1.6472135782241821),(2.552786350250244,0.1453085094690323,1.6472135782241821),(2.5297718048095703,5.758634886480636E-17,1.6472135782241821),(2.552786350250244,-0.1453085094690323,1.6472135782241821),(2.619577407836914,-0.27639320492744446,1.6472135782241821),(2.723606824874878,-0.38042259216308594,1.6472135782241821),(2.854691505432129,-0.4472135901451111,1.6472135782241821),(3.,-0.4702281951904297,1.6472135782241821),(3.145308494567871,-0.4472135901451111,1.6472135782241821),(3.276393175125122,-0.38042259216308594,1.6472135782241821),(3.380422592163086,-0.27639320492744446,1.6472135782241821),(3.447213649749756,-0.1453085094690323,1.6472135782241821),(3.24721360206604,0.,1.7608451843261719),(3.235114097595215,0.07639320194721222,1.7608451843261719),(3.200000047683716,0.1453085094690323,1.7608451843261719),(3.145308494567871,0.20000000298023224,1.7608451843261719),(3.0763931274414062,0.23511409759521484,1.7608451843261719),(3.,0.24721360206604004,1.7608451843261719),(2.9236068725585938,0.23511409759521484,1.7608451843261719),(2.854691505432129,0.20000000298023224,1.7608451843261719),(2.799999952316284,0.1453085094690323,1.7608451843261719),(2.764885902404785,0.07639320194721222,1.7608451843261719),(2.75278639793396,3.027493284217147E-17,1.7608451843261719),(2.764885902404785,-0.07639320194721222,1.7608451843261719),(2.799999952316284,-0.1453085094690323,1.7608451843261719),(2.854691505432129,-0.20000000298023224,1.7608451843261719),(2.9236068725585938,-0.23511409759521484,1.7608451843261719),(3.,-0.24721360206604004,1.7608451843261719),(3.0763931274414062,-0.23511409759521484,1.7608451843261719),(3.145308494567871,-0.20000000298023224,1.7608451843261719),(3.200000047683716,-0.1453085094690323,1.7608451843261719),(3.235114097595215,-0.07639320194721222,1.7608451843261719),(3.,0.,1.7999999523162842)),$);
#76=IFCPOLYGONALFACESET(#75,.T.,(#77,#78,#79,#80,#81,#82,#83,#84,#85,#86,#87,#88,#89,#90,#91,#92,#93,#94,#95,#96,#97,#98,#99,#100,#101,#102,#103,#104,#105,#106,#107,#108,#109,#110,#111,#112,#113,#114,#115,#116,#117,#118,#119,#120,#121,#122,#123,#124,#125,#126,#127,#128,#129,#130,#131,#132,#133,#134,#135,#136,#137,#138,#139,#140,#141,#142,#143,#144,#145,#146,#147,#148,#149,#150,#151,#152,#153,#154,#155,#156,#157,#158,#159,#160,#161,#162,#163,#164,#165,#166,#167,#168,#169,#170,#171,#172,#173,#174,#175,#176,#177,#178,#179,#180,#181,#182,#183,#184,#185,#186,#187,#188,#189,#190,#191,#192,#193,#194,#195,#196,#197,#198,#199,#200,#201,#202,#203,#204,#205,#206,#207,#208,#209,#210,#211,#212,#213,#214,#215,#216,#217,#218,#219,#220,#221,#222,#223,#224,#225,#226,#227,#228,#229,#230,#231,#232,#233,#234,#235,#236,#237,#238,#239,#240,#241,#242,#243,#244,#245,#246,#247,#248,#249,#250,#251,#252,#253,#254,#255,#256,#257,#258,#259,#260,#261,#262,#263,#264,#265,#266,#267,#268,#269,#270,#271,#272,#273,#274,#275,#276),$);
#77=IFCINDEXEDPOLYGONALFACE((1,3,2));
#78=IFCINDEXEDPOLYGONALFACE((1,4,3));
#79=IFCINDEXEDPOLYGONALFACE((1,5,4));
#80=IFCINDEXEDPOLYGONALFACE((1,6,5));
#81=IFCINDEXEDPOLYGONALFACE((1,7,6));
#82=IFCINDEXEDPOLYGONALFACE((1,8,7));
#83=IFCINDEXEDPOLYGONALFACE((1,9,8));
#84=IFCINDEXEDPOLYGONALFACE((1,10,9));
#85=IFCINDEXEDPOLYGONALFACE((1,11,10));
#86=IFCINDEXEDPOLYGONALFACE((1,12,11));
#87=IFCINDEXEDPOLYGONALFACE((1,13,12));
#88=IFCINDEXEDPOLYGONALFACE((1,14,13));
#89=IFCINDEXEDPOLYGONALFACE((1,15,14));
#90=IFCINDEXEDPOLYGONALFACE((1,16,15));
#91=IFCINDEXEDPOLYGONALFACE((1,17,16));
#92=IFCINDEXEDPOLYGONALFACE((1,18,17));
#93=IFCINDEXEDPOLYGONALFACE((1,19,18));
#94=IFCINDEXEDPOLYGONALFACE((1,20,19));
#95=IFCINDEXEDPOLYGONALFACE((1,21,20));
#96=IFCINDEXEDPOLYGONALFACE((1,2,21));
#97=IFCINDEXEDPOLYGONALFACE((2,3,23,22));
#98=IFCINDEXEDPOLYGONALFACE((3,4,24,23));
#99=IFCINDEXEDPOLYGONALFACE((4,5,25,24));
#100=IFCINDEXEDPOLYGONALFACE((5,6,26,25));
#101=IFCINDEXEDPOLYGONALFACE((6,7,27,26));
#102=IFCINDEXEDPOLYGONALFACE((7,8,28,27));
#103=IFCINDEXEDPOLYGONALFACE((8,9,29,28));
#104=IFCINDEXEDPOLYGONALFACE((9,10,30,29));
#105=IFCINDEXEDPOLYGONALFACE((10,11,31,30));
#106=IFCINDEXEDPOLYGONALFACE((11,12,32,31));
#107=IFCINDEXEDPOLYGONALFACE((12,13,33,32));
#108=IFCINDEXEDPOLYGONALFACE((13,14,34,33));
#109=IFCINDEXEDPOLYGONALFACE((14,15,35,34));
#110=IFCINDEXEDPOLYGONALFACE((15,16,36,35));
#111=IFCINDEXEDPOLYGONALFACE((16,17,37,36));
#112=IFCINDEXEDPOLYGONALFACE((17,18,38,37));
#113=IFCINDEXEDPOLYGONALFACE((18,19,39,38));
#114=IFCINDEXEDPOLYGONALFACE((19,20,40,39));
#115=IFCINDEXEDPOLYGONALFACE((20,21,41,40));
#116=IFCINDEXEDPOLYGONALFACE((21,2,22,41));
#117=IFCINDEXEDPOLYGONALFACE((22,23,43,42));
#118=IFCINDEXEDPOLYGONALFACE((23,24,44,43));
#119=IFCINDEXEDPOLYGONALFACE((24,25,45,44));
#120=IFCINDEXEDPOLYGONALFACE((25,26,46,45));
#121=IFCINDEXEDPOLYGONALFACE((26,27,47,46));
#122=IFCINDEXEDPOLYGONALFACE((27,28,48,47));
#123=IFCINDEXEDPOLYGONALFACE((28,29,49,48));
#124=IFCINDEXEDPOLYGONALFACE((29,30,50,49));
#125=IFCINDEXEDPOLYGONALFACE((30,31,51,50));
#126=IFCINDEXEDPOLYGONALFACE((31,32,52,51));
#127=IFCINDEXEDPOLYGONALFACE((32,33,53,52));
#128=IFCINDEXEDPOLYGONALFACE((33,34,54,53));
#129=IFCINDEXEDPOLYGONALFACE((34,35,55,54));
#130=IFCINDEXEDPOLYGONALFACE((35,36,56,55));
#131=IFCINDEXEDPOLYGONALFACE((36,37,57,56));
#132=IFCINDEXEDPOLYGONALFACE((37,38,58,57));
#133=IFCINDEXEDPOLYGONALFACE((38,39,59,58));
#134=IFCINDEXEDPOLYGONALFACE((39,40,60,59));
#135=IFCINDEXEDPOLYGONALFACE((40,41,61,60));
#136=IFCINDEXEDPOLYGONALFACE((41,22,42,61));
#137=IFCINDEXEDPOLYGONALFACE((42,43,63,62));
#138=IFCINDEXEDPOLYGONALFACE((43,44,64,63));
#139=IFCINDEXEDPOLYGONALFACE((44,45,65,64));
#140=IFCINDEXEDPOLYGONALFACE((45,46,66,65));
#141=IFCINDEXEDPOLYGONALFACE((46,47,67,66));
#142=IFCINDEXEDPOLYGONALFACE((47,48,68,67));
#143=IFCINDEXEDPOLYGONALFACE((48,49,69,68));
#144=IFCINDEXEDPOLYGONALFACE((49,50,70,69));
#145=IFCINDEXEDPOLYGONALFACE((50,51,71,70));
#146=IFCINDEXEDPOLYGONALFACE((51,52,72,71));
#147=IFCINDEXEDPOLYGONALFACE((52,53,73,72));
#148=IFCINDEXEDPOLYGONALFACE((53,54,74,73));
#149=IFCINDEXEDPOLYGONALFACE((54,55,75,74));
#150=IFCINDEXEDPOLYGONALFACE((55,56,76,75));
#151=IFCINDEXEDPOLYGONALFACE((56,57,77,76));
#152=IFCINDEXEDPOLYGONALFACE((57,58,78,77));
#153=IFCINDEXEDPOLYGONALFACE((58,59,79,78));
#154=IFCINDEXEDPOLYGONALFACE((59,60,80,79));
#155=IFCINDEXEDPOLYGONALFACE((60,61,81,80));
#156=IFCINDEXEDPOLYGONALFACE((61,42,62,81));
#157=IFCINDEXEDPOLYGONALFACE((62,63,83,82));
#158=IFCINDEXEDPOLYGONALFACE((63,64,84,83));
#159=IFCINDEXEDPOLYGONALFACE((64,65,85,84));
#160=IFCINDEXEDPOLYGONALFACE((65,66,86,85));
#161=IFCINDEXEDPOLYGONALFACE((66,67,87,86));
#162=IFCINDEXEDPOLYGONALFACE((67,68,88,87));
#163=IFCINDEXEDPOLYGONALFACE((68,69,89,88));
#164=IFCINDEXEDPOLYGONALFACE((69,70,90,89));
#165=IFCINDEXEDPOLYGONALFACE((70,71,91,90));
#166=IFCINDEXEDPOLYGONALFACE((71,72,92,91));
#167=IFCINDEXEDPOLYGONALFACE((72,73,93,92));
#168=IFCINDEXEDPOLYGONALFACE((73,74,94,93));
#169=IFCINDEXEDPOLYGONALFACE((74,75,95,94));
#170=IFCINDEXEDPOLYGONALFACE((75,76,96,95));
#171=IFCINDEXEDPOLYGONALFACE((76,77,97,96));
#172=IFCINDEXEDPOLYGONALFACE((77,78,98,97));
#173=IFCINDEXEDPOLYGONALFACE((78,79,99,98));
#174=IFCINDEXEDPOLYGONALFACE((79,80,100,99));
#175=IFCINDEXEDPOLYGONALFACE((80,81,101,100));
#176=IFCINDEXEDPOLYGONALFACE((81,62,82,101));
#177=IFCINDEXEDPOLYGONALFACE((82,83,103,102));
#178=IFCINDEXEDPOLYGONALFACE((83,84,104,103));
#179=IFCINDEXEDPOLYGONALFACE((84,85,105,104));
#180=IFCINDEXEDPOLYGONALFACE((85,86,106,105));
#181=IFCINDEXEDPOLYGONALFACE((86,87,107,106));
#182=IFCINDEXEDPOLYGONALFACE((87,88,108,107));
#183=IFCINDEXEDPOLYGONALFACE((88,89,109,108));
#184=IFCINDEXEDPOLYGONALFACE((89,90,110,109));
#185=IFCINDEXEDPOLYGONALFACE((90,91,111,110));
#186=IFCINDEXEDPOLYGONALFACE((91,92,112,111));
#187=IFCINDEXEDPOLYGONALFACE((92,93,113,112));
#188=IFCINDEXEDPOLYGONALFACE((93,94,114,113));
#189=IFCINDEXEDPOLYGONALFACE((94,95,115,114));
#190=IFCINDEXEDPOLYGONALFACE((95,96,116,115));
#191=IFCINDEXEDPOLYGONALFACE((96,97,117,116));
#192=IFCINDEXEDPOLYGONALFACE((97,98,118,117));
#193=IFCINDEXEDPOLYGONALFACE((98,99,119,118));
#194=IFCINDEXEDPOLYGONALFACE((99,100,120,119));
#195=IFCINDEXEDPOLYGONALFACE((100,101,121,120));
#196=IFCINDEXEDPOLYGONALFACE((101,82,102,121));
#197=IFCINDEXEDPOLYGONALFACE((102,103,123,122));
#198=IFCINDEXEDPOLYGONALFACE((103,104,124,123));
#199=IFCINDEXEDPOLYGONALFACE((104,105,125,124));
#200=IFCINDEXEDPOLYGONALFACE((105,106,126,125));
#201=IFCINDEXEDPOLYGONALFACE((106,107,127,126));
#202=IFCINDEXEDPOLYGONALFACE((107,108,128,127));
#203=IFCINDEXEDPOLYGONALFACE((108,109,129,128));
#204=IFCINDEXEDPOLYGONALFACE((109,110,130,129));
#205=IFCINDEXEDPOLYGONALFACE((110,111,131,130));
#206=IFCINDEXEDPOLYGONALFACE((111,112,132,131));
#207=IFCINDEXEDPOLYGONALFACE((112,113,133,132));
#208=IFCINDEXEDPOLYGONALFACE((113,114,134,133));
#209=IFCINDEXEDPOLYGONALFACE((114,115,135,134));
#210=IFCINDEXEDPOLYGONALFACE((115,116,136,135));
#211=IFCINDEXEDPOLYGONALFACE((116,117,137,136));
#212=IFCINDEXEDPOLYGONALFACE((117,118,138,137));
#213=IFCINDEXEDPOLYGONALFACE((118,119,139,138));
#214=IFCINDEXEDPOLYGONALFACE((119,120,140,139));
#215=IFCINDEXEDPOLYGONALFACE((120,121,141,140));
#216=IFCINDEXEDPOLYGONALFACE((121,102,122,141));
#217=IFCINDEXEDPOLYGONALFACE((122,123,143,142));
#218=IFCINDEXEDPOLYGONALFACE((123,124,144,143));
#219=IFCINDEXEDPOLYGONALFACE((124,125,145,144));
#220=IFCINDEXEDPOLYGONALFACE((125,126,146,145));
#221=IFCINDEXEDPOLYGONALFACE((126,127,147,146));
#222=IFCINDEXEDPOLYGONALFACE((127,128,148,147));
#223=IFCINDEXEDPOLYGONALFACE((128,129,149,148));
#224=IFCINDEXEDPOLYGONALFACE((129,130,150,149));
#225=IFCINDEXEDPOLYGONALFACE((130,131,151,150));
#226=IFCINDEXEDPOLYGONALFACE((131,132,152,151));
#227=IFCINDEXEDPOLYGONALFACE((132,133,153,152));
#228=IFCINDEXEDPOLYGONALFACE((133,134,154,153));
#229=IFCINDEXEDPOLYGONALFACE((134,135,155,154));
#230=IFCINDEXEDPOLYGONALFACE((135,136,156,155));
#231=IFCINDEXEDPOLYGONALFACE((136,137,157,156));
#232=IFCINDEXEDPOLYGONALFACE((137,138,158,157));
#233=IFCINDEXEDPOLYGONALFACE((138,139,159,158));
#234=IFCINDEXEDPOLYGONALFACE((139,140,160,159));
#235=IFCINDEXEDPOLYGONALFACE((140,141,161,160));
#236=IFCINDEXEDPOLYGONALFACE((141,122,142,161));
#237=IFCINDEXEDPOLYGONALFACE((142,143,163,162));
#238=IFCINDEXEDPOLYGONALFACE((143,144,164,163));
#239=IFCINDEXEDPOLYGONALFACE((144,145,165,164));
#240=IFCINDEXEDPOLYGONALFACE((145,146,166,165));
#241=IFCINDEXEDPOLYGONALFACE((146,147,167,166));
#242=IFCINDEXEDPOLYGONALFACE((147,148,168,167));
#243=IFCINDEXEDPOLYGONALFACE((148,149,169,168));
#244=IFCINDEXEDPOLYGONALFACE((149,150,170,169));
#245=IFCINDEXEDPOLYGONALFACE((150,151,171,170));
#246=IFCINDEXEDPOLYGONALFACE((151,152,172,171));
#247=IFCINDEXEDPOLYGONALFACE((152,153,173,172));
#248=IFCINDEXEDPOLYGONALFACE((153,154,174,173));
#249=IFCINDEXEDPOLYGONALFACE((154,155,175,174));
#250=IFCINDEXEDPOLYGONALFACE((155,156,176,175));
#251=IFCINDEXEDPOLYGONALFACE((156,157,177,176));
#252=IFCINDEXEDPOLYGONALFACE((157,158,178,177));
#253=IFCINDEXEDPOLYGONALFACE((158,159,179,178));
#254=IFCINDEXEDPOLYGONALFACE((159,160,180,179));
#255=IFCINDEXEDPOLYGONALFACE((160,161,181,180));
#256=IFCINDEXEDPOLYGONALFACE((161,142,162,181));
#257=IFCINDEXEDPOLYGONALFACE((162,163,182));
#258=IFCINDEXEDPOLYGONALFACE((163,164,182));
#259=IFCINDEXEDPOLYGONALFACE((164,165,182));
#260=IFCINDEXEDPOLYGONALFACE((165,166,182));
#261=IFCINDEXEDPOLYGONALFACE((166,167,182));
#262=IFCINDEXEDPOLYGONALFACE((167,168,182));
#263=IFCINDEXEDPOLYGONALFACE((168,169,182));
#264=IFCINDEXEDPOLYGONALFACE((169,170,182));
#265=IFCINDEXEDPOLYGONALFACE((170,171,182));
#266=IFCINDEXEDPOLYGONALFACE((171,172,182));
#267=IFCINDEXEDPOLYGONALFACE((172,173,182));
#268=IFCINDEXEDPOLYGONALFACE((173,174,182));
#269=IFCINDEXEDPOLYGONALFACE((174,175,182));
#270=IFCINDEXEDPOLYGONALFACE((175,176,182));
#271=IFCINDEXEDPOLYGONALFACE((176,177,182));
#272=IFCINDEXEDPOLYGONALFACE((177,178,182));
#273=IFCINDEXEDPOLYGONALFACE((178,179,182));
#274=IFCINDEXEDPOLYGONALFACE((179,180,182));
#275=IFCINDEXEDPOLYGONALFACE((180,181,182));
#276=IFCINDEXEDPOLYGONALFACE((181,162,182));
#277=IFCSTYLEDITEM(#76,(#280),$);
#278=IFCSURFACESTYLESHADING(#279,0.6470588235294117);
#279=IFCCOLOURRGB($,0.47058823529411764,0.7450980392156863,0.9019607843137255);
#280=IFCSURFACESTYLE('RGB(120, 190, 230) transparency 0.65',.BOTH.,(#278));
#281=IFCSHAPEREPRESENTATION(#69,'Body','Tessellation',(#76));
#282=IFCPRODUCTDEFINITIONSHAPE($,$,(#281));
#283=IFCMEMBER('0my_eOAobRqxrkeLlSu2zG',$,'Round post',$,$,#284,#450,$,.POST.);
#284=IFCLOCALPLACEMENT(#19,#285);
#285=IFCAXIS2PLACEMENT3D(#286,$,$);
#286=IFCCARTESIANPOINT((0.,0.,0.));
#287=IFCCARTESIANPOINTLIST3D(((6.400000095367432,0.,2.),(6.400000095367432,0.,1.600000023841858),(6.400000095367432,0.,1.2000000476837158),(6.400000095367432,0.,0.800000011920929),(6.400000095367432,0.,0.4000000059604645),(6.400000095367432,0.,0.),(6.39349365234375,-0.07185132056474686,2.),(6.39349365234375,-0.07185132056474686,1.600000023841858),(6.39349365234375,-0.07185132056474686,1.2000000476837158),(6.39349365234375,-0.07185132056474686,0.800000011920929),(6.39349365234375,-0.07185132056474686,0.4000000059604645),(6.39349365234375,-0.07185132056474686,0.),(6.392632007598877,0.07642019540071487,2.),(6.392632007598877,0.07642019540071487,1.600000023841858),(6.392632007598877,0.07642019540071487,1.2000000476837158),(6.392632007598877,0.07642019540071487,0.800000011920929),(6.392632007598877,0.07642019540071487,0.4000000059604645),(6.392632007598877,0.07642019540071487,0.),(6.372645378112793,-0.14537979662418365,2.),(6.372645378112793,-0.14537979662418365,1.600000023841858),(6.372645378112793,-0.14537979662418365,1.2000000476837158),(6.372645378112793,-0.14537979662418365,0.800000011920929),(6.372645378112793,-0.14537979662418365,0.4000000059604645),(6.372645378112793,-0.14537979662418365,0.),(6.370009422302246,0.15196417272090912,2.),(6.370009422302246,0.15196417272090912,1.600000023841858),(6.370009422302246,0.15196417272090912,1.2000000476837158),(6.370009422302246,0.15196417272090912,0.800000011920929),(6.370009422302246,0.15196417272090912,0.4000000059604645),(6.370009422302246,0.15196417272090912,0.),(6.336479187011719,-0.21629081666469574,2.),(6.336479187011719,-0.21629081666469574,1.600000023841858),(6.336479187011719,-0.21629081666469574,1.2000000476837158),(6.336479187011719,-0.21629081666469574,0.800000011920929),(6.336479187011719,-0.21629081666469574,0.4000000059604645),(6.336479187011719,-0.21629081666469574,0.),(6.331949234008789,0.2231811285018921,2.),(6.331949234008789,0.2231811285018921,1.600000023841858),(6.331949234008789,0.2231811285018921,1.2000000476837158),(6.331949234008789,0.2231811285018921,0.800000011920929),(6.331949234008789,0.2231811285018921,0.4000000059604645),(6.331949234008789,0.2231811285018921,0.),(6.285773277282715,-0.27988144755363464,2.),(6.285773277282715,-0.27988144755363464,1.600000023841858),(6.285773277282715,-0.27988144755363464,1.2000000476837158),(6.285773277282715,-0.27988144755363464,0.800000011920929),(6.285773277282715,-0.27988144755363464,0.4000000059604645),(6.285773277282715,-0.27988144755363464,0.),(6.279881477355957,0.28577330708503723,2.),(6.279881477355957,0.28577330708503723,1.600000023841858),(6.279881477355957,0.28577330708503723,1.2000000476837158),(6.279881477355957,0.28577330708503723,0.800000011920929),(6.279881477355957,0.28577330708503723,0.4000000059604645),(6.279881477355957,0.28577330708503723,0.),(6.223181247711182,-0.33194905519485474,2.),(6.223181247711182,-0.33194905519485474,1.600000023841858),(6.223181247711182,-0.33194905519485474,1.2000000476837158),(6.223181247711182,-0.33194905519485474,0.800000011920929),(6.223181247711182,-0.33194905519485474,0.4000000059604645),(6.223181247711182,-0.33194905519485474,0.),(6.2162909507751465,0.3364792466163635,2.),(6.2162909507751465,0.3364792466163635,1.600000023841858),(6.2162909507751465,0.3364792466163635,1.2000000476837158),(6.2162909507751465,0.3364792466163635,0.800000011920929),(6.2162909507751465,0.3364792466163635,0.4000000059604645),(6.2162909507751465,0.3364792466163635,0.),(6.15196418762207,-0.37000930309295654,2.),(6.15196418762207,-0.37000930309295654,1.600000023841858),(6.15196418762207,-0.37000930309295654,1.2000000476837158),(6.15196418762207,-0.37000930309295654,0.800000011920929),(6.15196418762207,-0.37000930309295654,0.4000000059604645),(6.15196418762207,-0.37000930309295654,0.),(6.145380020141602,0.3726455569267273,2.),(6.145380020141602,0.3726455569267273,1.600000023841858),(6.145380020141602,0.3726455569267273,1.2000000476837158),(6.145380020141602,0.3726455569267273,0.800000011920929),(6.145380020141602,0.3726455569267273,0.4000000059604645),(6.145380020141602,0.3726455569267273,0.),(6.076420307159424,-0.3926320970058441,2.),(6.076420307159424,-0.3926320970058441,1.600000023841858),(6.076420307159424,-0.3926320970058441,1.2000000476837158),(6.076420307159424,-0.3926320970058441,0.800000011920929),(6.076420307159424,-0.3926320970058441,0.4000000059604645),(6.076420307159424,-0.3926320970058441,0.),(6.0718512535095215,0.3934938311576843,2.),(6.0718512535095215,0.3934938311576843,1.600000023841858),(6.0718512535095215,0.3934938311576843,1.2000000476837158),(6.0718512535095215,0.3934938311576843,0.800000011920929),(6.0718512535095215,0.3934938311576843,0.4000000059604645),(6.0718512535095215,0.3934938311576843,0.),(6.,0.4000000059604645,2.),(6.,0.4000000059604645,1.600000023841858),(6.,0.4000000059604645,1.2000000476837158),(6.,0.4000000059604645,0.800000011920929),(6.,0.4000000059604645,0.4000000059604645),(6.,0.4000000059604645,0.),(6.,-0.4000000059604645,2.),(6.,-0.4000000059604645,1.600000023841858),(6.,-0.4000000059604645,1.2000000476837158),(6.,-0.4000000059604645,0.800000011920929),(6.,-0.4000000059604645,0.4000000059604645),(6.,-0.4000000059604645,0.),(5.9281487464904785,-0.3934938311576843,2.),(5.9281487464904785,-0.3934938311576843,1.600000023841858),(5.9281487464904785,-0.3934938311576843,1.2000000476837158),(5.9281487464904785,-0.3934938311576843,0.800000011920929),(5.9281487464904785,-0.3934938311576843,0.4000000059604645),(5.9281487464904785,-0.3934938311576843,0.),(5.923579692840576,0.3926320970058441,2.),(5.923579692840576,0.3926320970058441,1.600000023841858),(5.923579692840576,0.3926320970058441,1.2000000476837158),(5.923579692840576,0.3926320970058441,0.800000011920929),(5.923579692840576,0.3926320970058441,0.4000000059604645),(5.923579692840576,0.3926320970058441,0.),(5.854619979858398,-0.3726455569267273,2.),(5.854619979858398,-0.3726455569267273,1.600000023841858),(5.854619979858398,-0.3726455569267273,1.2000000476837158),(5.854619979858398,-0.3726455569267273,0.800000011920929),(5.854619979858398,-0.3726455569267273,0.4000000059604645),(5.854619979858398,-0.3726455569267273,0.),(5.84803581237793,0.37000930309295654,2.),(5.84803581237793,0.37000930309295654,1.600000023841858),(5.84803581237793,0.37000930309295654,1.2000000476837158),(5.84803581237793,0.37000930309295654,0.800000011920929),(5.84803581237793,0.37000930309295654,0.4000000059604645),(5.84803581237793,0.37000930309295654,0.),(5.7837090492248535,-0.3364792466163635,2.),(5.7837090492248535,-0.3364792466163635,1.600000023841858),(5.7837090492248535,-0.3364792466163635,1.2000000476837158),(5.7837090492248535,-0.3364792466163635,0.800000011920929),(5.7837090492248535,-0.3364792466163635,0.4000000059604645),(5.7837090492248535,-0.3364792466163635,0.),(5.776818752288818,0.33194905519485474,2.),(5.776818752288818,0.33194905519485474,1.600000023841858),(5.776818752288818,0.33194905519485474,1.2000000476837158),(5.776818752288818,0.33194905519485474,0.800000011920929),(5.776818752288818,0.33194905519485474,0.4000000059604645),(5.776818752288818,0.33194905519485474,0.),(5.720118522644043,-0.28577330708503723,2.),(5.720118522644043,-0.28577330708503723,1.600000023841858),(5.720118522644043,-0.28577330708503723,1.2000000476837158),(5.720118522644043,-0.28577330708503723,0.800000011920929),(5.720118522644043,-0.28577330708503723,0.4000000059604645),(5.720118522644043,-0.28577330708503723,0.),(5.714226722717285,0.27988144755363464,2.),(5.714226722717285,0.27988144755363464,1.600000023841858),(5.714226722717285,0.27988144755363464,1.2000000476837158),(5.714226722717285,0.27988144755363464,0.800000011920929),(5.714226722717285,0.27988144755363464,0.4000000059604645),(5.714226722717285,0.27988144755363464,0.),(5.668050765991211,-0.2231811285018921,2.),(5.668050765991211,-0.2231811285018921,1.600000023841858),(5.668050765991211,-0.2231811285018921,1.2000000476837158),(5.668050765991211,-0.2231811285018921,0.800000011920929),(5.668050765991211,-0.2231811285018921,0.4000000059604645),(5.668050765991211,-0.2231811285018921,0.),(5.663520812988281,0.21629081666469574,2.),(5.663520812988281,0.21629081666469574,1.600000023841858),(5.663520812988281,0.21629081666469574,1.2000000476837158),(5.663520812988281,0.21629081666469574,0.800000011920929),(5.663520812988281,0.21629081666469574,0.4000000059604645),(5.663520812988281,0.21629081666469574,0.),(5.629990577697754,-0.15196417272090912,2.),(5.629990577697754,-0.15196417272090912,1.600000023841858),(5.629990577697754,-0.15196417272090912,1.2000000476837158),(5.629990577697754,-0.15196417272090912,0.800000011920929),(5.629990577697754,-0.15196417272090912,0.4000000059604645),(5.629990577697754,-0.15196417272090912,0.),(5.627354621887207,0.14537979662418365,2.),(5.627354621887207,0.14537979662418365,1.600000023841858),(5.627354621887207,0.14537979662418365,1.2000000476837158),(5.627354621887207,0.14537979662418365,0.800000011920929),(5.627354621887207,0.14537979662418365,0.4000000059604645),(5.627354621887207,0.14537979662418365,0.),(5.607367992401123,-0.07642019540071487,2.),(5.607367992401123,-0.07642019540071487,1.600000023841858),(5.607367992401123,-0.07642019540071487,1.2000000476837158),(5.607367992401123,-0.07642019540071487,0.800000011920929),(5.607367992401123,-0.07642019540071487,0.4000000059604645),(5.607367992401123,-0.07642019540071487,0.),(5.60650634765625,0.07185132056474686,2.),(5.60650634765625,0.07185132056474686,1.600000023841858),(5.60650634765625,0.07185132056474686,1.2000000476837158),(5.60650634765625,0.07185132056474686,0.800000011920929),(5.60650634765625,0.07185132056474686,0.4000000059604645),(5.60650634765625,0.07185132056474686,0.),(5.599999904632568,0.,2.),(5.599999904632568,0.,1.600000023841858),(5.599999904632568,0.,1.2000000476837158),(5.599999904632568,0.,0.800000011920929),(5.599999904632568,0.,0.4000000059604645),(5.599999904632568,0.,0.)),$);
#288=IFCPOLYGONALFACESET(#287,.F.,(#289,#290,#291,#292,#293,#294,#295,#296,#297,#298,#299,#300,#301,#302,#303,#304,#305,#306,#307,#308,#309,#310,#311,#312,#313,#314,#315,#316,#317,#318,#319,#320,#321,#322,#323,#324,#325,#326,#327,#328,#329,#330,#331,#332,#333,#334,#335,#336,#337,#338,#339,#340,#341,#342,#343,#344,#345,#346,#347,#348,#349,#350,#351,#352,#353,#354,#355,#356,#357,#358,#359,#360,#361,#362,#363,#364,#365,#366,#367,#368,#369,#370,#371,#372,#373,#374,#375,#376,#377,#378,#379,#380,#381,#382,#383,#384,#385,#386,#387,#388,#389,#390,#391,#392,#393,#394,#395,#396,#397,#398,#399,#400,#401,#402,#403,#404,#405,#406,#407,#408,#409,#410,#411,#412,#413,#414,#415,#416,#417,#418,#419,#420,#421,#422,#423,#424,#425,#426,#427,#428,#429,#430,#431,#432,#433,#434,#435,#436,#437,#438,#439,#440,#441,#442,#443,#444,#445,#446,#447,#448),$);
#289=IFCINDEXEDPOLYGONALFACE((17,18,6,5));
#290=IFCINDEXEDPOLYGONALFACE((29,30,18,17));
#291=IFCINDEXEDPOLYGONALFACE((41,42,30,29));
#292=IFCINDEXEDPOLYGONALFACE((53,54,42,41));
#293=IFCINDEXEDPOLYGONALFACE((65,66,54,53));
#294=IFCINDEXEDPOLYGONALFACE((77,78,66,65));
#295=IFCINDEXEDPOLYGONALFACE((89,90,78,77));
#296=IFCINDEXEDPOLYGONALFACE((95,96,90,89));
#297=IFCINDEXEDPOLYGONALFACE((113,114,96,95));
#298=IFCINDEXEDPOLYGONALFACE((125,126,114,113));
#299=IFCINDEXEDPOLYGONALFACE((137,138,126,125));
#300=IFCINDEXEDPOLYGONALFACE((149,150,138,137));
#301=IFCINDEXEDPOLYGONALFACE((161,162,150,149));
#302=IFCINDEXEDPOLYGONALFACE((173,174,162,161));
#303=IFCINDEXEDPOLYGONALFACE((185,186,174,173));
#304=IFCINDEXEDPOLYGONALFACE((191,192,186,185));
#305=IFCINDEXEDPOLYGONALFACE((179,180,192,191));
#306=IFCINDEXEDPOLYGONALFACE((167,168,180,179));
#307=IFCINDEXEDPOLYGONALFACE((155,156,168,167));
#308=IFCINDEXEDPOLYGONALFACE((143,144,156,155));
#309=IFCINDEXEDPOLYGONALFACE((131,132,144,143));
#310=IFCINDEXEDPOLYGONALFACE((119,120,132,131));
#311=IFCINDEXEDPOLYGONALFACE((107,108,120,119));
#312=IFCINDEXEDPOLYGONALFACE((101,102,108,107));
#313=IFCINDEXEDPOLYGONALFACE((83,84,102,101));
#314=IFCINDEXEDPOLYGONALFACE((71,72,84,83));
#315=IFCINDEXEDPOLYGONALFACE((59,60,72,71));
#316=IFCINDEXEDPOLYGONALFACE((47,48,60,59));
#317=IFCINDEXEDPOLYGONALFACE((35,36,48,47));
#318=IFCINDEXEDPOLYGONALFACE((23,24,36,35));
#319=IFCINDEXEDPOLYGONALFACE((11,12,24,23));
#320=IFCINDEXEDPOLYGONALFACE((5,6,12,11));
#321=IFCINDEXEDPOLYGONALFACE((16,17,5,4));
#322=IFCINDEXEDPOLYGONALFACE((28,29,17,16));
#323=IFCINDEXEDPOLYGONALFACE((40,41,29,28));
#324=IFCINDEXEDPOLYGONALFACE((52,53,41,40));
#325=IFCINDEXEDPOLYGONALFACE((64,65,53,52));
#326=IFCINDEXEDPOLYGONALFACE((76,77,65,64));
#327=IFCINDEXEDPOLYGONALFACE((88,89,77,76));
#328=IFCINDEXEDPOLYGONALFACE((94,95,89,88));
#329=IFCINDEXEDPOLYGONALFACE((112,113,95,94));
#330=IFCINDEXEDPOLYGONALFACE((124,125,113,112));
#331=IFCINDEXEDPOLYGONALFACE((136,137,125,124));
#332=IFCINDEXEDPOLYGONALFACE((148,149,137,136));
#333=IFCINDEXEDPOLYGONALFACE((160,161,149,148));
#334=IFCINDEXEDPOLYGONALFACE((172,173,161,160));
#335=IFCINDEXEDPOLYGONALFACE((184,185,173,172));
#336=IFCINDEXEDPOLYGONALFACE((190,191,185,184));
#337=IFCINDEXEDPOLYGONALFACE((178,179,191,190));
#338=IFCINDEXEDPOLYGONALFACE((166,167,179,178));
#339=IFCINDEXEDPOLYGONALFACE((154,155,167,166));
#340=IFCINDEXEDPOLYGONALFACE((142,143,155,154));
#341=IFCINDEXEDPOLYGONALFACE((130,131,143,142));
#342=IFCINDEXEDPOLYGONALFACE((118,119,131,130));
#343=IFCINDEXEDPOLYGONALFACE((106,107,119,118));
#344=IFCINDEXEDPOLYGONALFACE((100,101,107,106));
#345=IFCINDEXEDPOLYGONALFACE((82,83,101,100));
#346=IFCINDEXEDPOLYGONALFACE((70,71,83,82));
#347=IFCINDEXEDPOLYGONALFACE((58,59,71,70));
#348=IFCINDEXEDPOLYGONALFACE((46,47,59,58));
#349=IFCINDEXEDPOLYGONALFACE((34,35,47,46));
#350=IFCINDEXEDPOLYGONALFACE((22,23,35,34));
#351=IFCINDEXEDPOLYGONALFACE((10,11,23,22));
#352=IFCINDEXEDPOLYGONALFACE((4,5,11,10));
#353=IFCINDEXEDPOLYGONALFACE((15,16,4,3));
#354=IFCINDEXEDPOLYGONALFACE((27,28,16,15));
#355=IFCINDEXEDPOLYGONALFACE((39,40,28,27));
#356=IFCINDEXEDPOLYGONALFACE((51,52,40,39));
#357=IFCINDEXEDPOLYGONALFACE((63,64,52,51));
#358=IFCINDEXEDPOLYGONALFACE((75,76,64,63));
#359=IFCINDEXEDPOLYGONALFACE((87,88,76,75));
#360=IFCINDEXEDPOLYGONALFACE((93,94,88,87));
#361=IFCINDEXEDPOLYGONALFACE((111,112,94,93));
#362=IFCINDEXEDPOLYGONALFACE((123,124,112,111));
#363=IFCINDEXEDPOLYGONALFACE((135,136,124,123));
#364=IFCINDEXEDPOLYGONALFACE((147,148,136,135));
#365=IFCINDEXEDPOLYGONALFACE((159,160,148,147));
#366=IFCINDEXEDPOLYGONALFACE((171,172,160,159));
#367=IFCINDEXEDPOLYGONALFACE((183,184,172,171));
#368=IFCINDEXEDPOLYGONALFACE((189,190,184,183));
#369=IFCINDEXEDPOLYGONALFACE((177,178,190,189));
#370=IFCINDEXEDPOLYGONALFACE((165,166,178,177));
#371=IFCINDEXEDPOLYGONALFACE((153,154,166,165));
#372=IFCINDEXEDPOLYGONALFACE((141,142,154,153));
#373=IFCINDEXEDPOLYGONALFACE((129,130,142,141));
#374=IFCINDEXEDPOLYGONALFACE((117,118,130,129));
#375=IFCINDEXEDPOLYGONALFACE((105,106,118,117));
#376=IFCINDEXEDPOLYGONALFACE((99,100,106,105));
#377=IFCINDEXEDPOLYGONALFACE((81,82,100,99));
#378=IFCINDEXEDPOLYGONALFACE((69,70,82,81));
#379=IFCINDEXEDPOLYGONALFACE((57,58,70,69));
#380=IFCINDEXEDPOLYGONALFACE((45,46,58,57));
#381=IFCINDEXEDPOLYGONALFACE((33,34,46,45));
#382=IFCINDEXEDPOLYGONALFACE((21,22,34,33));
#383=IFCINDEXEDPOLYGONALFACE((9,10,22,21));
#384=IFCINDEXEDPOLYGONALFACE((3,4,10,9));
#385=IFCINDEXEDPOLYGONALFACE((14,15,3,2));
#386=IFCINDEXEDPOLYGONALFACE((26,27,15,14));
#387=IFCINDEXEDPOLYGONALFACE((38,39,27,26));
#388=IFCINDEXEDPOLYGONALFACE((50,51,39,38));
#389=IFCINDEXEDPOLYGONALFACE((62,63,51,50));
#390=IFCINDEXEDPOLYGONALFACE((74,75,63,62));
#391=IFCINDEXEDPOLYGONALFACE((86,87,75,74));
#392=IFCINDEXEDPOLYGONALFACE((92,93,87,86));
#393=IFCINDEXEDPOLYGONALFACE((110,111,93,92));
#394=IFCINDEXEDPOLYGONALFACE((122,123,111,110));
#395=IFCINDEXEDPOLYGONALFACE((134,135,123,122));
#396=IFCINDEXEDPOLYGONALFACE((146,147,135,134));
#397=IFCINDEXEDPOLYGONALFACE((158,159,147,146));
#398=IFCINDEXEDPOLYGONALFACE((170,171,159,158));
#399=IFCINDEXEDPOLYGONALFACE((182,183,171,170));
#400=IFCINDEXEDPOLYGONALFACE((188,189,183,182));
#401=IFCINDEXEDPOLYGONALFACE((176,177,189,188));
#402=IFCINDEXEDPOLYGONALFACE((164,165,177,176));
#403=IFCINDEXEDPOLYGONALFACE((152,153,165,164));
#404=IFCINDEXEDPOLYGONALFACE((140,141,153,152));
#405=IFCINDEXEDPOLYGONALFACE((128,129,141,140));
#406=IFCINDEXEDPOLYGONALFACE((116,117,129,128));
#407=IFCINDEXEDPOLYGONALFACE((104,105,117,116));
#408=IFCINDEXEDPOLYGONALFACE((98,99,105,104));
#409=IFCINDEXEDPOLYGONALFACE((80,81,99,98));
#410=IFCINDEXEDPOLYGONALFACE((68,69,81,80));
#411=IFCINDEXEDPOLYGONALFACE((56,57,69,68));
#412=IFCINDEXEDPOLYGONALFACE((44,45,57,56));
#413=IFCINDEXEDPOLYGONALFACE((32,33,45,44));
#414=IFCINDEXEDPOLYGONALFACE((20,21,33,32));
#415=IFCINDEXEDPOLYGONALFACE((8,9,21,20));
#416=IFCINDEXEDPOLYGONALFACE((2,3,9,8));
#417=IFCINDEXEDPOLYGONALFACE((13,14,2,1));
#418=IFCINDEXEDPOLYGONALFACE((25,26,14,13));
#419=IFCINDEXEDPOLYGONALFACE((37,38,26,25));
#420=IFCINDEXEDPOLYGONALFACE((49,50,38,37));
#421=IFCINDEXEDPOLYGONALFACE((61,62,50,49));
#422=IFCINDEXEDPOLYGONALFACE((73,74,62,61));
#423=IFCINDEXEDPOLYGONALFACE((85,86,74,73));
#424=IFCINDEXEDPOLYGONALFACE((91,92,86,85));
#425=IFCINDEXEDPOLYGONALFACE((109,110,92,91));
#426=IFCINDEXEDPOLYGONALFACE((121,122,110,109));
#427=IFCINDEXEDPOLYGONALFACE((133,134,122,121));
#428=IFCINDEXEDPOLYGONALFACE((145,146,134,133));
#429=IFCINDEXEDPOLYGONALFACE((157,158,146,145));
#430=IFCINDEXEDPOLYGONALFACE((169,170,158,157));
#431=IFCINDEXEDPOLYGONALFACE((181,182,170,169));
#432=IFCINDEXEDPOLYGONALFACE((187,188,182,181));
#433=IFCINDEXEDPOLYGONALFACE((175,176,188,187));
#434=IFCINDEXEDPOLYGONALFACE((163,164,176,175));
#435=IFCINDEXEDPOLYGONALFACE((151,152,164,163));
#436=IFCINDEXEDPOLYGONALFACE((139,140,152,151));
#437=IFCINDEXEDPOLYGONALFACE((127,128,140,139));
#438=IFCINDEXEDPOLYGONALFACE((115,116,128,127));
#439=IFCINDEXEDPOLYGONALFACE((103,104,116,115));
#440=IFCINDEXEDPOLYGONALFACE((97,98,104,103));
#441=IFCINDEXEDPOLYGONALFACE((79,80,98,97));
#442=IFCINDEXEDPOLYGONALFACE((67,68,80,79));
#443=IFCINDEXEDPOLYGONALFACE((55,56,68,67));
#444=IFCINDEXEDPOLYGONALFACE((43,44,56,55));
#445=IFCINDEXEDPOLYGONALFACE((31,32,44,43));
#446=IFCINDEXEDPOLYGONALFACE((19,20,32,31));
#447=IFCINDEXEDPOLYGONALFACE((7,8,20,19));
#448=IFCINDEXEDPOLYGONALFACE((1,2,8,7));
#449=IFCSHAPEREPRESENTATION(#69,'Body','Tessellation',(#288));
#450=IFCPRODUCTDEFINITIONSHAPE($,$,(#449));
#451=IFCELEMENTASSEMBLY('0H0N36bHDI$vn9Ml3xZS1R',$,'Stand',$,$,#452,$,$,$,$);
#452=IFCLOCALPLACEMENT(#19,#453);
#453=IFCAXIS2PLACEMENT3D(#454,$,$);
#454=IFCCARTESIANPOINT((0.,0.,0.));
#455=IFCPLATE('2L5m8JMsjHWQUtFSJFaj0s',$,'Top plate',$,$,#456,#510,$,$);
#456=IFCLOCALPLACEMENT(#452,#457);
#457=IFCAXIS2PLACEMENT3D(#458,$,$);
#458=IFCCARTESIANPOINT((0.,0.,0.));
#459=IFCCARTESIANPOINTLIST3D(((10.,0.5,2.0999999046325684),(10.,0.5,2.),(10.,0.1666666716337204,2.0999999046325684),(10.,0.1666666716337204,2.),(10.,-0.1666666716337204,2.0999999046325684),(10.,-0.1666666716337204,2.),(10.,-0.5,2.0999999046325684),(10.,-0.5,2.),(9.666666984558105,0.5,2.0999999046325684),(9.666666984558105,0.5,2.),(9.666666984558105,-0.5,2.0999999046325684),(9.666666984558105,-0.5,2.),(9.333333015441895,0.5,2.0999999046325684),(9.333333015441895,0.5,2.),(9.333333015441895,-0.5,2.0999999046325684),(9.333333015441895,-0.5,2.),(9.,0.5,2.0999999046325684),(9.,0.5,2.),(9.,-0.5,2.0999999046325684),(9.,-0.5,2.),(8.666666984558105,0.5,2.0999999046325684),(8.666666984558105,0.5,2.),(8.666666984558105,-0.5,2.0999999046325684),(8.666666984558105,-0.5,2.),(8.333333015441895,0.5,2.0999999046325684),(8.333333015441895,0.5,2.),(8.333333015441895,-0.5,2.0999999046325684),(8.333333015441895,-0.5,2.),(8.,0.5,2.0999999046325684),(8.,0.5,2.),(8.,0.1666666716337204,2.0999999046325684),(8.,0.1666666716337204,2.),(8.,-0.1666666716337204,2.0999999046325684),(8.,-0.1666666716337204,2.),(8.,-0.5,2.0999999046325684),(8.,-0.5,2.)),$);
#460=IFCPOLYGONALFACESET(#459,.T.,(#461,#462,#463,#464,#465,#466,#467,#468,#469,#470,#471,#472,#473,#474,#475,#476,#477,#478,#479,#480,#481,#482,#483,#484,#485,#486,#487,#488,#489,#490,#491,#492,#493,#494,#495,#496,#497,#498,#499,#500,#501,#502,#503,#504,#505,#506,#507,#508),$);
#461=IFCINDEXEDPOLYGONALFACE((10,9,1,2));
#462=IFCINDEXEDPOLYGONALFACE((14,13,9,10));
#463=IFCINDEXEDPOLYGONALFACE((18,17,13,14));
#464=IFCINDEXEDPOLYGONALFACE((26,25,21,22));
#465=IFCINDEXEDPOLYGONALFACE((30,29,25,26));
#466=IFCINDEXEDPOLYGONALFACE((22,21,17,18));
#467=IFCINDEXEDPOLYGONALFACE((32,31,29,30));
#468=IFCINDEXEDPOLYGONALFACE((31,32,34,33));
#469=IFCINDEXEDPOLYGONALFACE((36,35,33,34));
#470=IFCINDEXEDPOLYGONALFACE((28,27,35,36));
#471=IFCINDEXEDPOLYGONALFACE((28,24,23,27));
#472=IFCINDEXEDPOLYGONALFACE((19,23,24,20));
#473=IFCINDEXEDPOLYGONALFACE((12,11,15,16));
#474=IFCINDEXEDPOLYGONALFACE((8,7,11,12));
#475=IFCINDEXEDPOLYGONALFACE((16,15,19,20));
#476=IFCINDEXEDPOLYGONALFACE((6,5,7,8));
#477=IFCINDEXEDPOLYGONALFACE((5,6,4,3));
#478=IFCINDEXEDPOLYGONALFACE((2,1,3,4));
#479=IFCINDEXEDPOLYGONALFACE((34,28,36));
#480=IFCINDEXEDPOLYGONALFACE((34,20,24));
#481=IFCINDEXEDPOLYGONALFACE((34,24,28));
#482=IFCINDEXEDPOLYGONALFACE((18,34,32));
#483=IFCINDEXEDPOLYGONALFACE((32,30,26));
#484=IFCINDEXEDPOLYGONALFACE((32,26,22));
#485=IFCINDEXEDPOLYGONALFACE((22,18,32));
#486=IFCINDEXEDPOLYGONALFACE((20,34,18));
#487=IFCINDEXEDPOLYGONALFACE((6,12,16));
#488=IFCINDEXEDPOLYGONALFACE((12,6,8));
#489=IFCINDEXEDPOLYGONALFACE((18,4,6,20));
#490=IFCINDEXEDPOLYGONALFACE((4,18,14));
#491=IFCINDEXEDPOLYGONALFACE((2,4,10));
#492=IFCINDEXEDPOLYGONALFACE((14,10,4));
#493=IFCINDEXEDPOLYGONALFACE((16,20,6));
#494=IFCINDEXEDPOLYGONALFACE((33,35,27));
#495=IFCINDEXEDPOLYGONALFACE((33,23,19));
#496=IFCINDEXEDPOLYGONALFACE((33,27,23));
#497=IFCINDEXEDPOLYGONALFACE((17,31,33));
#498=IFCINDEXEDPOLYGONALFACE((31,25,29));
#499=IFCINDEXEDPOLYGONALFACE((31,21,25));
#500=IFCINDEXEDPOLYGONALFACE((21,31,17));
#501=IFCINDEXEDPOLYGONALFACE((19,17,33));
#502=IFCINDEXEDPOLYGONALFACE((5,15,11));
#503=IFCINDEXEDPOLYGONALFACE((11,7,5));
#504=IFCINDEXEDPOLYGONALFACE((17,19,5,3));
#505=IFCINDEXEDPOLYGONALFACE((3,13,17));
#506=IFCINDEXEDPOLYGONALFACE((1,9,3));
#507=IFCINDEXEDPOLYGONALFACE((13,3,9));
#508=IFCINDEXEDPOLYGONALFACE((15,5,19));
#509=IFCSHAPEREPRESENTATION(#69,'Body','Tessellation',(#460));
#510=IFCPRODUCTDEFINITIONSHAPE($,$,(#509));
#511=IFCMEMBER('3MfpMCqNPORgi5jcgZHEo3',$,'Leg',$,$,#512,#650,$,$);
#512=IFCLOCALPLACEMENT(#452,#513);
#513=IFCAXIS2PLACEMENT3D(#514,$,$);
#514=IFCCARTESIANPOINT((0.,0.,0.));
#515=IFCCARTESIANPOINTLIST3D(((9.050000190734863,0.05000000074505806,2.),(9.050000190734863,0.05000000074505806,1.6666666269302368),(9.050000190734863,0.05000000074505806,1.3333333730697632),(9.050000190734863,0.05000000074505806,1.),(9.050000190734863,0.05000000074505806,0.6666666865348816),(9.050000190734863,0.05000000074505806,0.3333333432674408),(9.050000190734863,0.05000000074505806,0.),(9.050000190734863,0.02500000037252903,1.875),(9.050000190734863,0.02500000037252903,1.75),(9.050000190734863,0.02500000037252903,0.25),(9.050000190734863,0.02500000037252903,0.125),(9.050000190734863,2.0816681711721685E-17,1.875),(9.050000190734863,2.0816681711721685E-17,1.75),(9.050000190734863,2.0166160408230382E-17,0.125),(9.050000190734863,1.951563910473908E-17,0.25),(9.050000190734863,0.,2.),(9.050000190734863,0.,0.),(9.050000190734863,-0.02500000037252903,1.875),(9.050000190734863,-0.02500000037252903,1.75),(9.050000190734863,-0.02500000037252903,0.25),(9.050000190734863,-0.02500000037252903,0.125),(9.050000190734863,-0.05000000074505806,2.),(9.050000190734863,-0.05000000074505806,1.6666666269302368),(9.050000190734863,-0.05000000074505806,1.3333333730697632),(9.050000190734863,-0.05000000074505806,1.),(9.050000190734863,-0.05000000074505806,0.6666666865348816),(9.050000190734863,-0.05000000074505806,0.3333333432674408),(9.050000190734863,-0.05000000074505806,0.),(9.024999618530273,0.05000000074505806,1.875),(9.024999618530273,0.05000000074505806,1.75),(9.024999618530273,0.05000000074505806,0.25),(9.024999618530273,0.05000000074505806,0.125),(9.024999618530273,-0.05000000074505806,1.875),(9.024999618530273,-0.05000000074505806,1.75),(9.024999618530273,-0.05000000074505806,0.25),(9.024999618530273,-0.05000000074505806,0.125),(9.,0.05000000074505806,2.),(9.,0.05000000074505806,1.875),(9.,0.05000000074505806,1.75),(9.,0.05000000074505806,0.25),(9.,0.05000000074505806,0.125),(9.,0.05000000074505806,0.),(9.,-0.05000000074505806,2.),(9.,-0.05000000074505806,1.875),(9.,-0.05000000074505806,1.75),(9.,-0.05000000074505806,0.25),(9.,-0.05000000074505806,0.125),(9.,-0.05000000074505806,0.),(8.975000381469727,0.05000000074505806,1.875),(8.975000381469727,0.05000000074505806,1.75),(8.975000381469727,0.05000000074505806,0.25),(8.975000381469727,0.05000000074505806,0.125),(8.975000381469727,-0.05000000074505806,1.875),(8.975000381469727,-0.05000000074505806,1.75),(8.975000381469727,-0.05000000074505806,0.25),(8.975000381469727,-0.05000000074505806,0.125),(8.949999809265137,0.05000000074505806,2.),(8.949999809265137,0.05000000074505806,1.6666666269302368),(8.949999809265137,0.05000000074505806,1.3333333730697632),(8.949999809265137,0.05000000074505806,1.),(8.949999809265137,0.05000000074505806,0.6666666865348816),(8.949999809265137,0.05000000074505806,0.3333333432674408),(8.949999809265137,0.05000000074505806,0.),(8.949999809265137,0.02500000037252903,1.875),(8.949999809265137,0.02500000037252903,1.75),(8.949999809265137,0.02500000037252903,0.25),(8.949999809265137,0.02500000037252903,0.125),(8.949999809265137,1.3010426069826053E-18,0.125),(8.949999809265137,0.,2.),(8.949999809265137,0.,1.875),(8.949999809265137,0.,1.75),(8.949999809265137,0.,0.),(8.949999809265137,-8.673617379884035E-19,0.25),(8.949999809265137,-0.02500000037252903,1.875),(8.949999809265137,-0.02500000037252903,1.75),(8.949999809265137,-0.02500000037252903,0.25),(8.949999809265137,-0.02500000037252903,0.125),(8.949999809265137,-0.05000000074505806,2.),(8.949999809265137,-0.05000000074505806,1.6666666269302368),(8.949999809265137,-0.05000000074505806,1.3333333730697632),(8.949999809265137,-0.05000000074505806,1.),(8.949999809265137,-0.05000000074505806,0.6666666865348816),(8.949999809265137,-0.05000000074505806,0.3333333432674408),(8.949999809265137,-0.05000000074505806,0.)),$);
#516=IFCPOLYGONALFACESET(#515,.T.,(#517,#518,#519,#520,#521,#522,#523,#524,#525,#526,#527,#528,#529,#530,#531,#532,#533,#534,#535,#536,#537,#538,#539,#540,#541,#542,#543,#544,#545,#546,#547,#548,#549,#550,#551,#552,#553,#554,#555,#556,#557,#558,#559,#560,#561,#562,#563,#564,#565,#566,#567,#568,#569,#570,#571,#572,#573,#574,#575,#576,#577,#578,#579,#580,#581,#582,#583,#584,#585,#586,#587,#588,#589,#590,#591,#592,#593,#594,#595,#596,#597,#598,#599,#600,#601,#602,#603,#604,#605,#606,#607,#608,#609,#610,#611,#612,#613,#614,#615,#616,#617,#618,#619,#620,#621,#622,#623,#624,#625,#626,#627,#628,#629,#630,#631,#632,#633,#634,#635,#636,#637,#638,#639,#640,#641,#642,#643,#644,#645,#646,#647,#648),$);
#517=IFCINDEXEDPOLYGONALFACE((40,31,32,41));
#518=IFCINDEXEDPOLYGONALFACE((51,40,41,52));
#519=IFCINDEXEDPOLYGONALFACE((49,38,39,50));
#520=IFCINDEXEDPOLYGONALFACE((38,29,30,39));
#521=IFCINDEXEDPOLYGONALFACE((6,7,32,31));
#522=IFCINDEXEDPOLYGONALFACE((7,42,41,32));
#523=IFCINDEXEDPOLYGONALFACE((52,41,42));
#524=IFCINDEXEDPOLYGONALFACE((6,31,40));
#525=IFCINDEXEDPOLYGONALFACE((5,6,40));
#526=IFCINDEXEDPOLYGONALFACE((4,5,61,60));
#527=IFCINDEXEDPOLYGONALFACE((3,39,2));
#528=IFCINDEXEDPOLYGONALFACE((29,2,30));
#529=IFCINDEXEDPOLYGONALFACE((2,39,30));
#530=IFCINDEXEDPOLYGONALFACE((37,1,29,38));
#531=IFCINDEXEDPOLYGONALFACE((2,29,1));
#532=IFCINDEXEDPOLYGONALFACE((3,4,60,59));
#533=IFCINDEXEDPOLYGONALFACE((5,40,61));
#534=IFCINDEXEDPOLYGONALFACE((62,51,52));
#535=IFCINDEXEDPOLYGONALFACE((42,63,52));
#536=IFCINDEXEDPOLYGONALFACE((63,62,52));
#537=IFCINDEXEDPOLYGONALFACE((40,51,62));
#538=IFCINDEXEDPOLYGONALFACE((62,61,40));
#539=IFCINDEXEDPOLYGONALFACE((39,3,59));
#540=IFCINDEXEDPOLYGONALFACE((49,37,38));
#541=IFCINDEXEDPOLYGONALFACE((49,50,58));
#542=IFCINDEXEDPOLYGONALFACE((39,58,50));
#543=IFCINDEXEDPOLYGONALFACE((37,49,57));
#544=IFCINDEXEDPOLYGONALFACE((58,57,49));
#545=IFCINDEXEDPOLYGONALFACE((58,39,59));
#546=IFCINDEXEDPOLYGONALFACE((73,66,67,68));
#547=IFCINDEXEDPOLYGONALFACE((76,73,68,77));
#548=IFCINDEXEDPOLYGONALFACE((74,70,71,75));
#549=IFCINDEXEDPOLYGONALFACE((70,64,65,71));
#550=IFCINDEXEDPOLYGONALFACE((62,63,67,66));
#551=IFCINDEXEDPOLYGONALFACE((63,72,68,67));
#552=IFCINDEXEDPOLYGONALFACE((77,68,72));
#553=IFCINDEXEDPOLYGONALFACE((62,66,73));
#554=IFCINDEXEDPOLYGONALFACE((61,62,73));
#555=IFCINDEXEDPOLYGONALFACE((60,61,82,81));
#556=IFCINDEXEDPOLYGONALFACE((59,71,58));
#557=IFCINDEXEDPOLYGONALFACE((64,58,65));
#558=IFCINDEXEDPOLYGONALFACE((58,71,65));
#559=IFCINDEXEDPOLYGONALFACE((69,57,64,70));
#560=IFCINDEXEDPOLYGONALFACE((58,64,57));
#561=IFCINDEXEDPOLYGONALFACE((59,60,81,80));
#562=IFCINDEXEDPOLYGONALFACE((61,73,82));
#563=IFCINDEXEDPOLYGONALFACE((83,76,77));
#564=IFCINDEXEDPOLYGONALFACE((72,84,77));
#565=IFCINDEXEDPOLYGONALFACE((84,83,77));
#566=IFCINDEXEDPOLYGONALFACE((73,76,83));
#567=IFCINDEXEDPOLYGONALFACE((83,82,73));
#568=IFCINDEXEDPOLYGONALFACE((71,59,80));
#569=IFCINDEXEDPOLYGONALFACE((74,69,70));
#570=IFCINDEXEDPOLYGONALFACE((74,75,79));
#571=IFCINDEXEDPOLYGONALFACE((71,79,75));
#572=IFCINDEXEDPOLYGONALFACE((69,74,78));
#573=IFCINDEXEDPOLYGONALFACE((79,78,74));
#574=IFCINDEXEDPOLYGONALFACE((79,71,80));
#575=IFCINDEXEDPOLYGONALFACE((46,55,56,47));
#576=IFCINDEXEDPOLYGONALFACE((35,46,47,36));
#577=IFCINDEXEDPOLYGONALFACE((33,44,45,34));
#578=IFCINDEXEDPOLYGONALFACE((44,53,54,45));
#579=IFCINDEXEDPOLYGONALFACE((83,84,56,55));
#580=IFCINDEXEDPOLYGONALFACE((48,56,84));
#581=IFCINDEXEDPOLYGONALFACE((36,47,48));
#582=IFCINDEXEDPOLYGONALFACE((83,55,46));
#583=IFCINDEXEDPOLYGONALFACE((48,47,56));
#584=IFCINDEXEDPOLYGONALFACE((82,83,46));
#585=IFCINDEXEDPOLYGONALFACE((81,82,26,25));
#586=IFCINDEXEDPOLYGONALFACE((80,45,79));
#587=IFCINDEXEDPOLYGONALFACE((53,79,54));
#588=IFCINDEXEDPOLYGONALFACE((79,45,54));
#589=IFCINDEXEDPOLYGONALFACE((43,78,53));
#590=IFCINDEXEDPOLYGONALFACE((79,53,78));
#591=IFCINDEXEDPOLYGONALFACE((80,81,25,24));
#592=IFCINDEXEDPOLYGONALFACE((82,46,26));
#593=IFCINDEXEDPOLYGONALFACE((27,35,36));
#594=IFCINDEXEDPOLYGONALFACE((48,28,36));
#595=IFCINDEXEDPOLYGONALFACE((28,27,36));
#596=IFCINDEXEDPOLYGONALFACE((46,35,27));
#597=IFCINDEXEDPOLYGONALFACE((27,26,46));
#598=IFCINDEXEDPOLYGONALFACE((45,80,24));
#599=IFCINDEXEDPOLYGONALFACE((33,43,44));
#600=IFCINDEXEDPOLYGONALFACE((53,44,43));
#601=IFCINDEXEDPOLYGONALFACE((33,34,23));
#602=IFCINDEXEDPOLYGONALFACE((45,23,34));
#603=IFCINDEXEDPOLYGONALFACE((43,33,22));
#604=IFCINDEXEDPOLYGONALFACE((23,22,33));
#605=IFCINDEXEDPOLYGONALFACE((23,45,24));
#606=IFCINDEXEDPOLYGONALFACE((15,20,21,14));
#607=IFCINDEXEDPOLYGONALFACE((10,15,14,11));
#608=IFCINDEXEDPOLYGONALFACE((8,12,13,9));
#609=IFCINDEXEDPOLYGONALFACE((12,18,19,13));
#610=IFCINDEXEDPOLYGONALFACE((27,28,21,20));
#611=IFCINDEXEDPOLYGONALFACE((17,21,28));
#612=IFCINDEXEDPOLYGONALFACE((11,14,17));
#613=IFCINDEXEDPOLYGONALFACE((27,20,15));
#614=IFCINDEXEDPOLYGONALFACE((17,14,21));
#615=IFCINDEXEDPOLYGONALFACE((26,27,15));
#616=IFCINDEXEDPOLYGONALFACE((25,26,5,4));
#617=IFCINDEXEDPOLYGONALFACE((24,13,23));
#618=IFCINDEXEDPOLYGONALFACE((18,23,19));
#619=IFCINDEXEDPOLYGONALFACE((23,13,19));
#620=IFCINDEXEDPOLYGONALFACE((16,22,18));
#621=IFCINDEXEDPOLYGONALFACE((23,18,22));
#622=IFCINDEXEDPOLYGONALFACE((24,25,4,3));
#623=IFCINDEXEDPOLYGONALFACE((26,15,5));
#624=IFCINDEXEDPOLYGONALFACE((6,10,11));
#625=IFCINDEXEDPOLYGONALFACE((17,7,11));
#626=IFCINDEXEDPOLYGONALFACE((7,6,11));
#627=IFCINDEXEDPOLYGONALFACE((15,10,6));
#628=IFCINDEXEDPOLYGONALFACE((6,5,15));
#629=IFCINDEXEDPOLYGONALFACE((13,24,3));
#630=IFCINDEXEDPOLYGONALFACE((8,16,12));
#631=IFCINDEXEDPOLYGONALFACE((18,12,16));
#632=IFCINDEXEDPOLYGONALFACE((8,9,2));
#633=IFCINDEXEDPOLYGONALFACE((13,2,9));
#634=IFCINDEXEDPOLYGONALFACE((16,8,1));
#635=IFCINDEXEDPOLYGONALFACE((2,1,8));
#636=IFCINDEXEDPOLYGONALFACE((2,13,3));
#637=IFCINDEXEDPOLYGONALFACE((72,48,84));
#638=IFCINDEXEDPOLYGONALFACE((72,63,42));
#639=IFCINDEXEDPOLYGONALFACE((17,48,72));
#640=IFCINDEXEDPOLYGONALFACE((72,42,17));
#641=IFCINDEXEDPOLYGONALFACE((17,42,7));
#642=IFCINDEXEDPOLYGONALFACE((28,48,17));
#643=IFCINDEXEDPOLYGONALFACE((69,78,43));
#644=IFCINDEXEDPOLYGONALFACE((69,37,57));
#645=IFCINDEXEDPOLYGONALFACE((16,69,43));
#646=IFCINDEXEDPOLYGONALFACE((69,16,37));
#647=IFCINDEXEDPOLYGONALFACE((16,1,37));
#648=IFCINDEXEDPOLYGONALFACE((22,16,43));
#649=IFCSHAPEREPRESENTATION(#69,'Body','Tessellation',(#516));
#650=IFCPRODUCTDEFINITIONSHAPE($,$,(#649));
#651=IFCRELAGGREGATES('2XBCWlKIvOaxDSAEafzfg0',$,$,$,#451,(#455,#511));
#652=IFCRELCONTAINEDINSPATIALSTRUCTURE('3cq7MmN4rQ6weMNxj7My7t',$,$,$,(#22,#71,#283,#451),#18);
#653=IFCRELAGGREGATES('06lSVeR9jGxve5TwPBpQEd',$,$,$,#14,(#18));
#654=IFCRELAGGREGATES('3LYRzWCJ9PJve_gYoVbpIU',$,$,$,#10,(#14));
#655=IFCRELAGGREGATES('1v2xyjHefVNRnJLRau0cdw',$,$,$,#1,(#10));
ENDSEC;
END-ISO-10303-21;
