ISO-10303-21;
HEADER;
FILE_DESCRIPTION ((''), '2;1');
FILE_NAME ('07 Types and blocks.ifc', '2026-10-09T14:44:27', (''), (''), 'xbim Toolkit v6.1.605.0', 'IfcHopper', '');
FILE_SCHEMA (('IFC4X3_ADD2'));
ENDSEC;
DATA;
#1=IFCPROJECT('3E6JvoabDO0gvcKVns_Sw7',$,'Types and blocks',$,$,$,$,(#7),#2);
#2=IFCUNITASSIGNMENT((#3,#4,#5,#6));
#3=IFCSIUNIT(*,.LENGTHUNIT.,$,.METRE.);
#4=IFCSIUNIT(*,.AREAUNIT.,$,.SQUARE_METRE.);
#5=IFCSIUNIT(*,.VOLUMEUNIT.,$,.CUBIC_METRE.);
#6=IFCSIUNIT(*,.PLANEANGLEUNIT.,$,.RADIAN.);
#7=IFCGEOMETRICREPRESENTATIONCONTEXT($,'Model',3,1.E-05,#8,$);
#8=IFCAXIS2PLACEMENT3D(#9,$,$);
#9=IFCCARTESIANPOINT((0.,0.,0.));
#10=IFCSITE('1GZlLZ0KvR1h3z4Er3djF7',$,'Hopper Site',$,$,#11,$,$,.ELEMENT.,$,$,$,$,$);
#11=IFCLOCALPLACEMENT($,#12);
#12=IFCAXIS2PLACEMENT3D(#13,$,$);
#13=IFCCARTESIANPOINT((0.,0.,0.));
#14=IFCBUILDING('2d9KCWzyXR3hr42r8a2deD',$,'Hopper Building',$,$,#15,$,$,.ELEMENT.,$,$,$);
#15=IFCLOCALPLACEMENT(#11,#16);
#16=IFCAXIS2PLACEMENT3D(#17,$,$);
#17=IFCCARTESIANPOINT((0.,0.,0.));
#18=IFCBUILDINGSTOREY('0rLEjYqtvRxQxBNxj5NwvD',$,'Ground floor',$,$,#19,$,$,.ELEMENT.,0.);
#19=IFCLOCALPLACEMENT(#15,#20);
#20=IFCAXIS2PLACEMENT3D(#21,$,$);
#21=IFCCARTESIANPOINT((0.,0.,0.));
#22=IFCFURNITURE('3xQNxQgfrTHPsVxMtZmK5y',$,'Chair',$,$,#23,#498,$,$);
#23=IFCLOCALPLACEMENT(#19,#24);
#24=IFCAXIS2PLACEMENT3D(#25,$,$);
#25=IFCCARTESIANPOINT((2.,3.,0.));
#26=IFCFURNITURETYPE('2_FJdDcAjKxv10WHl_zkwT',$,'Chair','Dining chair',$,$,(#27),$,$,.FACTORY.,.CHAIR.);
#27=IFCREPRESENTATIONMAP(#28,#492);
#28=IFCAXIS2PLACEMENT3D(#29,$,$);
#29=IFCCARTESIANPOINT((0.,0.,0.));
#30=IFCCARTESIANPOINTLIST3D(((0.2199999988079071,0.2199999988079071,0.46000000834465027),(0.2199999988079071,0.2199999988079071,0.41999998688697815),(0.2199999988079071,0.07333333045244217,0.46000000834465027),(0.2199999988079071,0.07333333045244217,0.41999998688697815),(0.2199999988079071,-0.07333333045244217,0.46000000834465027),(0.2199999988079071,-0.07333333045244217,0.41999998688697815),(0.2199999988079071,-0.2199999988079071,0.46000000834465027),(0.2199999988079071,-0.2199999988079071,0.41999998688697815),(0.07333333045244217,0.2199999988079071,0.46000000834465027),(0.07333333045244217,0.2199999988079071,0.41999998688697815),(0.07333333045244217,-0.2199999988079071,0.46000000834465027),(0.07333333045244217,-0.2199999988079071,0.41999998688697815),(-0.07333333045244217,0.2199999988079071,0.46000000834465027),(-0.07333333045244217,0.2199999988079071,0.41999998688697815),(-0.07333333045244217,-0.2199999988079071,0.46000000834465027),(-0.07333333045244217,-0.2199999988079071,0.41999998688697815),(-0.2199999988079071,0.2199999988079071,0.46000000834465027),(-0.2199999988079071,0.2199999988079071,0.41999998688697815),(-0.2199999988079071,0.07333333045244217,0.46000000834465027),(-0.2199999988079071,0.07333333045244217,0.41999998688697815),(-0.2199999988079071,-0.07333333045244217,0.46000000834465027),(-0.2199999988079071,-0.07333333045244217,0.41999998688697815),(-0.2199999988079071,-0.2199999988079071,0.46000000834465027),(-0.2199999988079071,-0.2199999988079071,0.41999998688697815)),$);
#31=IFCPOLYGONALFACESET(#30,.T.,(#32,#33,#34,#35,#36,#37,#38,#39,#40,#41,#42,#43,#44,#45,#46,#47,#48,#49,#50,#51,#52,#53,#54,#55,#56,#57,#58,#59,#60,#61),$);
#32=IFCINDEXEDPOLYGONALFACE((24,16,15,23));
#33=IFCINDEXEDPOLYGONALFACE((11,15,16,12));
#34=IFCINDEXEDPOLYGONALFACE((8,7,11,12));
#35=IFCINDEXEDPOLYGONALFACE((8,6,5,7));
#36=IFCINDEXEDPOLYGONALFACE((3,5,6,4));
#37=IFCINDEXEDPOLYGONALFACE((2,1,3,4));
#38=IFCINDEXEDPOLYGONALFACE((2,10,9,1));
#39=IFCINDEXEDPOLYGONALFACE((13,9,10,14));
#40=IFCINDEXEDPOLYGONALFACE((18,17,13,14));
#41=IFCINDEXEDPOLYGONALFACE((18,20,19,17));
#42=IFCINDEXEDPOLYGONALFACE((21,19,20,22));
#43=IFCINDEXEDPOLYGONALFACE((24,23,21,22));
#44=IFCINDEXEDPOLYGONALFACE((16,24,22));
#45=IFCINDEXEDPOLYGONALFACE((22,6,12,16));
#46=IFCINDEXEDPOLYGONALFACE((8,12,6));
#47=IFCINDEXEDPOLYGONALFACE((6,22,14));
#48=IFCINDEXEDPOLYGONALFACE((14,20,18));
#49=IFCINDEXEDPOLYGONALFACE((6,14,4));
#50=IFCINDEXEDPOLYGONALFACE((2,4,10));
#51=IFCINDEXEDPOLYGONALFACE((14,10,4));
#52=IFCINDEXEDPOLYGONALFACE((20,14,22));
#53=IFCINDEXEDPOLYGONALFACE((21,23,15));
#54=IFCINDEXEDPOLYGONALFACE((15,13,19,21));
#55=IFCINDEXEDPOLYGONALFACE((17,19,13));
#56=IFCINDEXEDPOLYGONALFACE((13,15,5));
#57=IFCINDEXEDPOLYGONALFACE((5,11,7));
#58=IFCINDEXEDPOLYGONALFACE((13,5,9));
#59=IFCINDEXEDPOLYGONALFACE((1,9,3));
#60=IFCINDEXEDPOLYGONALFACE((5,3,9));
#61=IFCINDEXEDPOLYGONALFACE((11,5,15));
#62=IFCCARTESIANPOINTLIST3D(((0.2199999988079071,0.2199999988079071,0.8999999761581421),(0.2199999988079071,0.2199999988079071,0.753333330154419),(0.2199999988079071,0.2199999988079071,0.6066666841506958),(0.2199999988079071,0.2199999988079071,0.46000000834465027),(0.2199999988079071,0.18000000715255737,0.8999999761581421),(0.2199999988079071,0.18000000715255737,0.753333330154419),(0.2199999988079071,0.18000000715255737,0.6066666841506958),(0.2199999988079071,0.18000000715255737,0.46000000834465027),(0.07333333045244217,0.2199999988079071,0.8999999761581421),(0.07333333045244217,0.2199999988079071,0.46000000834465027),(0.07333333045244217,0.18000000715255737,0.8999999761581421),(0.07333333045244217,0.18000000715255737,0.46000000834465027),(-0.07333333045244217,0.2199999988079071,0.8999999761581421),(-0.07333333045244217,0.2199999988079071,0.46000000834465027),(-0.07333333045244217,0.18000000715255737,0.8999999761581421),(-0.07333333045244217,0.18000000715255737,0.46000000834465027),(-0.2199999988079071,0.2199999988079071,0.8999999761581421),(-0.2199999988079071,0.2199999988079071,0.753333330154419),(-0.2199999988079071,0.2199999988079071,0.6066666841506958),(-0.2199999988079071,0.2199999988079071,0.46000000834465027),(-0.2199999988079071,0.18000000715255737,0.8999999761581421),(-0.2199999988079071,0.18000000715255737,0.753333330154419),(-0.2199999988079071,0.18000000715255737,0.6066666841506958),(-0.2199999988079071,0.18000000715255737,0.46000000834465027)),$);
#63=IFCPOLYGONALFACESET(#62,.T.,(#64,#65,#66,#67,#68,#69,#70,#71,#72,#73,#74,#75,#76,#77,#78,#79,#80,#81,#82,#83,#84,#85,#86,#87,#88,#89,#90,#91),$);
#64=IFCINDEXEDPOLYGONALFACE((23,24,16));
#65=IFCINDEXEDPOLYGONALFACE((16,15,22,23));
#66=IFCINDEXEDPOLYGONALFACE((21,22,15));
#67=IFCINDEXEDPOLYGONALFACE((15,16,7,6));
#68=IFCINDEXEDPOLYGONALFACE((7,12,8));
#69=IFCINDEXEDPOLYGONALFACE((5,11,6));
#70=IFCINDEXEDPOLYGONALFACE((6,11,15));
#71=IFCINDEXEDPOLYGONALFACE((12,7,16));
#72=IFCINDEXEDPOLYGONALFACE((7,8,4,3));
#73=IFCINDEXEDPOLYGONALFACE((5,6,2,1));
#74=IFCINDEXEDPOLYGONALFACE((6,7,3,2));
#75=IFCINDEXEDPOLYGONALFACE((3,4,10));
#76=IFCINDEXEDPOLYGONALFACE((10,9,2,3));
#77=IFCINDEXEDPOLYGONALFACE((1,2,9));
#78=IFCINDEXEDPOLYGONALFACE((9,10,19,18));
#79=IFCINDEXEDPOLYGONALFACE((19,14,20));
#80=IFCINDEXEDPOLYGONALFACE((17,13,18));
#81=IFCINDEXEDPOLYGONALFACE((18,13,9));
#82=IFCINDEXEDPOLYGONALFACE((14,19,10));
#83=IFCINDEXEDPOLYGONALFACE((19,20,24,23));
#84=IFCINDEXEDPOLYGONALFACE((17,18,22,21));
#85=IFCINDEXEDPOLYGONALFACE((18,19,23,22));
#86=IFCINDEXEDPOLYGONALFACE((16,24,20,14));
#87=IFCINDEXEDPOLYGONALFACE((8,12,10,4));
#88=IFCINDEXEDPOLYGONALFACE((12,16,14,10));
#89=IFCINDEXEDPOLYGONALFACE((15,13,17,21));
#90=IFCINDEXEDPOLYGONALFACE((13,15,11,9));
#91=IFCINDEXEDPOLYGONALFACE((5,1,9,11));
#92=IFCCARTESIANPOINTLIST3D(((-0.18000000715255737,-0.18000000715255737,0.41999998688697815),(-0.18000000715255737,-0.18000000715255737,0.2800000011920929),(-0.18000000715255737,-0.18000000715255737,0.14000000059604645),(-0.18000000715255737,-0.18000000715255737,0.),(-0.18000000715255737,-0.1899999976158142,0.3675000071525574),(-0.18000000715255737,-0.1899999976158142,0.3149999976158142),(-0.18000000715255737,-0.1899999976158142,0.10499999672174454),(-0.18000000715255737,-0.1899999976158142,0.05249999836087227),(-0.18000000715255737,-0.20000000298023224,0.41999998688697815),(-0.18000000715255737,-0.20000000298023224,0.3675000071525574),(-0.18000000715255737,-0.20000000298023224,0.3149999976158142),(-0.18000000715255737,-0.20000000298023224,0.10499999672174454),(-0.18000000715255737,-0.20000000298023224,0.05249999836087227),(-0.18000000715255737,-0.20000000298023224,0.),(-0.18000000715255737,-0.20999999344348907,0.3675000071525574),(-0.18000000715255737,-0.20999999344348907,0.3149999976158142),(-0.18000000715255737,-0.20999999344348907,0.10499999672174454),(-0.18000000715255737,-0.20999999344348907,0.05249999836087227),(-0.18000000715255737,-0.2199999988079071,0.41999998688697815),(-0.18000000715255737,-0.2199999988079071,0.2800000011920929),(-0.18000000715255737,-0.2199999988079071,0.14000000059604645),(-0.18000000715255737,-0.2199999988079071,0.),(-0.1899999976158142,-0.18000000715255737,0.3675000071525574),(-0.1899999976158142,-0.18000000715255737,0.3149999976158142),(-0.1899999976158142,-0.18000000715255737,0.10499999672174454),(-0.1899999976158142,-0.18000000715255737,0.05249999836087227),(-0.1899999976158142,-0.2199999988079071,0.3675000071525574),(-0.1899999976158142,-0.2199999988079071,0.3149999976158142),(-0.1899999976158142,-0.2199999988079071,0.10499999672174454),(-0.1899999976158142,-0.2199999988079071,0.05249999836087227),(-0.20000000298023224,-0.18000000715255737,0.41999998688697815),(-0.20000000298023224,-0.18000000715255737,0.3675000071525574),(-0.20000000298023224,-0.18000000715255737,0.3149999976158142),(-0.20000000298023224,-0.18000000715255737,0.10499999672174454),(-0.20000000298023224,-0.18000000715255737,0.05249999836087227),(-0.20000000298023224,-0.18000000715255737,0.),(-0.20000000298023224,-0.2199999988079071,0.41999998688697815),(-0.20000000298023224,-0.2199999988079071,0.3675000071525574),(-0.20000000298023224,-0.2199999988079071,0.3149999976158142),(-0.20000000298023224,-0.2199999988079071,0.10499999672174454),(-0.20000000298023224,-0.2199999988079071,0.05249999836087227),(-0.20000000298023224,-0.2199999988079071,0.),(-0.20999999344348907,-0.18000000715255737,0.3675000071525574),(-0.20999999344348907,-0.18000000715255737,0.3149999976158142),(-0.20999999344348907,-0.18000000715255737,0.10499999672174454),(-0.20999999344348907,-0.18000000715255737,0.05249999836087227),(-0.20999999344348907,-0.2199999988079071,0.3675000071525574),(-0.20999999344348907,-0.2199999988079071,0.3149999976158142),(-0.20999999344348907,-0.2199999988079071,0.10499999672174454),(-0.20999999344348907,-0.2199999988079071,0.05249999836087227),(-0.2199999988079071,-0.18000000715255737,0.41999998688697815),(-0.2199999988079071,-0.18000000715255737,0.2800000011920929),(-0.2199999988079071,-0.18000000715255737,0.14000000059604645),(-0.2199999988079071,-0.18000000715255737,0.),(-0.2199999988079071,-0.1899999976158142,0.3675000071525574),(-0.2199999988079071,-0.1899999976158142,0.3149999976158142),(-0.2199999988079071,-0.1899999976158142,0.10499999672174454),(-0.2199999988079071,-0.1899999976158142,0.05249999836087227),(-0.2199999988079071,-0.20000000298023224,0.41999998688697815),(-0.2199999988079071,-0.20000000298023224,0.3675000071525574),(-0.2199999988079071,-0.20000000298023224,0.3149999976158142),(-0.2199999988079071,-0.20000000298023224,0.10499999672174454),(-0.2199999988079071,-0.20000000298023224,0.05249999836087227),(-0.2199999988079071,-0.20000000298023224,0.),(-0.2199999988079071,-0.20999999344348907,0.3675000071525574),(-0.2199999988079071,-0.20999999344348907,0.3149999976158142),(-0.2199999988079071,-0.20999999344348907,0.10499999672174454),(-0.2199999988079071,-0.20999999344348907,0.05249999836087227),(-0.2199999988079071,-0.2199999988079071,0.41999998688697815),(-0.2199999988079071,-0.2199999988079071,0.2800000011920929),(-0.2199999988079071,-0.2199999988079071,0.14000000059604645),(-0.2199999988079071,-0.2199999988079071,0.)),$);
#93=IFCPOLYGONALFACESET(#92,.T.,(#94,#95,#96,#97,#98,#99,#100,#101,#102,#103,#104,#105,#106,#107,#108,#109,#110,#111,#112,#113,#114,#115,#116,#117,#118,#119,#120,#121,#122,#123,#124,#125,#126,#127,#128,#129,#130,#131,#132,#133,#134,#135,#136,#137,#138,#139,#140,#141,#142,#143,#144,#145,#146,#147,#148,#149,#150,#151,#152,#153,#154,#155,#156,#157,#158,#159,#160,#161,#162,#163,#164,#165,#166,#167,#168,#169,#170,#171,#172,#173,#174,#175,#176,#177,#178,#179,#180,#181,#182,#183,#184,#185,#186,#187,#188,#189),$);
#94=IFCINDEXEDPOLYGONALFACE((40,49,50,41));
#95=IFCINDEXEDPOLYGONALFACE((29,40,41,30));
#96=IFCINDEXEDPOLYGONALFACE((27,38,39,28));
#97=IFCINDEXEDPOLYGONALFACE((38,47,48,39));
#98=IFCINDEXEDPOLYGONALFACE((71,72,50,49));
#99=IFCINDEXEDPOLYGONALFACE((42,50,72));
#100=IFCINDEXEDPOLYGONALFACE((42,41,50));
#101=IFCINDEXEDPOLYGONALFACE((30,41,42));
#102=IFCINDEXEDPOLYGONALFACE((71,49,40));
#103=IFCINDEXEDPOLYGONALFACE((70,71,40,39));
#104=IFCINDEXEDPOLYGONALFACE((69,70,48,47));
#105=IFCINDEXEDPOLYGONALFACE((37,47,38));
#106=IFCINDEXEDPOLYGONALFACE((39,48,70));
#107=IFCINDEXEDPOLYGONALFACE((69,47,37));
#108=IFCINDEXEDPOLYGONALFACE((29,30,21));
#109=IFCINDEXEDPOLYGONALFACE((22,21,30));
#110=IFCINDEXEDPOLYGONALFACE((40,29,21));
#111=IFCINDEXEDPOLYGONALFACE((30,42,22));
#112=IFCINDEXEDPOLYGONALFACE((21,20,39,40));
#113=IFCINDEXEDPOLYGONALFACE((20,28,39));
#114=IFCINDEXEDPOLYGONALFACE((20,19,27,28));
#115=IFCINDEXEDPOLYGONALFACE((19,37,38,27));
#116=IFCINDEXEDPOLYGONALFACE((12,17,18,13));
#117=IFCINDEXEDPOLYGONALFACE((7,12,13,8));
#118=IFCINDEXEDPOLYGONALFACE((5,10,11,6));
#119=IFCINDEXEDPOLYGONALFACE((10,15,16,11));
#120=IFCINDEXEDPOLYGONALFACE((21,22,18,17));
#121=IFCINDEXEDPOLYGONALFACE((14,18,22));
#122=IFCINDEXEDPOLYGONALFACE((14,13,18));
#123=IFCINDEXEDPOLYGONALFACE((8,13,14));
#124=IFCINDEXEDPOLYGONALFACE((21,17,12));
#125=IFCINDEXEDPOLYGONALFACE((20,21,12,11));
#126=IFCINDEXEDPOLYGONALFACE((19,20,16,15));
#127=IFCINDEXEDPOLYGONALFACE((9,15,10));
#128=IFCINDEXEDPOLYGONALFACE((11,16,20));
#129=IFCINDEXEDPOLYGONALFACE((19,15,9));
#130=IFCINDEXEDPOLYGONALFACE((7,8,3));
#131=IFCINDEXEDPOLYGONALFACE((4,3,8));
#132=IFCINDEXEDPOLYGONALFACE((12,7,3));
#133=IFCINDEXEDPOLYGONALFACE((8,14,4));
#134=IFCINDEXEDPOLYGONALFACE((3,2,11,12));
#135=IFCINDEXEDPOLYGONALFACE((2,6,11));
#136=IFCINDEXEDPOLYGONALFACE((2,1,5,6));
#137=IFCINDEXEDPOLYGONALFACE((1,9,10,5));
#138=IFCINDEXEDPOLYGONALFACE((34,25,26,35));
#139=IFCINDEXEDPOLYGONALFACE((45,34,35,46));
#140=IFCINDEXEDPOLYGONALFACE((43,32,33,44));
#141=IFCINDEXEDPOLYGONALFACE((32,23,24,33));
#142=IFCINDEXEDPOLYGONALFACE((3,4,26,25));
#143=IFCINDEXEDPOLYGONALFACE((36,35,26));
#144=IFCINDEXEDPOLYGONALFACE((3,25,34));
#145=IFCINDEXEDPOLYGONALFACE((36,26,4));
#146=IFCINDEXEDPOLYGONALFACE((2,3,34,33));
#147=IFCINDEXEDPOLYGONALFACE((1,2,24,23));
#148=IFCINDEXEDPOLYGONALFACE((2,33,24));
#149=IFCINDEXEDPOLYGONALFACE((31,1,23,32));
#150=IFCINDEXEDPOLYGONALFACE((33,34,53,52));
#151=IFCINDEXEDPOLYGONALFACE((54,46,36));
#152=IFCINDEXEDPOLYGONALFACE((45,46,53));
#153=IFCINDEXEDPOLYGONALFACE((54,53,46));
#154=IFCINDEXEDPOLYGONALFACE((34,45,53));
#155=IFCINDEXEDPOLYGONALFACE((43,31,32));
#156=IFCINDEXEDPOLYGONALFACE((52,51,43,44));
#157=IFCINDEXEDPOLYGONALFACE((31,43,51));
#158=IFCINDEXEDPOLYGONALFACE((44,33,52));
#159=IFCINDEXEDPOLYGONALFACE((46,35,36));
#160=IFCINDEXEDPOLYGONALFACE((62,57,58,63));
#161=IFCINDEXEDPOLYGONALFACE((67,62,63,68));
#162=IFCINDEXEDPOLYGONALFACE((65,60,61,66));
#163=IFCINDEXEDPOLYGONALFACE((60,55,56,61));
#164=IFCINDEXEDPOLYGONALFACE((53,54,58,57));
#165=IFCINDEXEDPOLYGONALFACE((64,63,58));
#166=IFCINDEXEDPOLYGONALFACE((53,57,62));
#167=IFCINDEXEDPOLYGONALFACE((64,58,54));
#168=IFCINDEXEDPOLYGONALFACE((52,53,62,61));
#169=IFCINDEXEDPOLYGONALFACE((51,52,56,55));
#170=IFCINDEXEDPOLYGONALFACE((52,61,56));
#171=IFCINDEXEDPOLYGONALFACE((59,51,55,60));
#172=IFCINDEXEDPOLYGONALFACE((61,62,71,70));
#173=IFCINDEXEDPOLYGONALFACE((72,68,64));
#174=IFCINDEXEDPOLYGONALFACE((67,68,71));
#175=IFCINDEXEDPOLYGONALFACE((72,71,68));
#176=IFCINDEXEDPOLYGONALFACE((62,67,71));
#177=IFCINDEXEDPOLYGONALFACE((65,59,60));
#178=IFCINDEXEDPOLYGONALFACE((70,69,65,66));
#179=IFCINDEXEDPOLYGONALFACE((59,65,69));
#180=IFCINDEXEDPOLYGONALFACE((66,61,70));
#181=IFCINDEXEDPOLYGONALFACE((68,63,64));
#182=IFCINDEXEDPOLYGONALFACE((42,72,64));
#183=IFCINDEXEDPOLYGONALFACE((42,14,22));
#184=IFCINDEXEDPOLYGONALFACE((36,42,64,54));
#185=IFCINDEXEDPOLYGONALFACE((42,36,4,14));
#186=IFCINDEXEDPOLYGONALFACE((59,69,37));
#187=IFCINDEXEDPOLYGONALFACE((59,31,51));
#188=IFCINDEXEDPOLYGONALFACE((9,59,37,19));
#189=IFCINDEXEDPOLYGONALFACE((59,9,1,31));
#190=IFCCARTESIANPOINTLIST3D(((0.2199999988079071,-0.18000000715255737,0.41999998688697815),(0.2199999988079071,-0.18000000715255737,0.2800000011920929),(0.2199999988079071,-0.18000000715255737,0.14000000059604645),(0.2199999988079071,-0.18000000715255737,0.),(0.2199999988079071,-0.1899999976158142,0.3675000071525574),(0.2199999988079071,-0.1899999976158142,0.3149999976158142),(0.2199999988079071,-0.1899999976158142,0.10499999672174454),(0.2199999988079071,-0.1899999976158142,0.05249999836087227),(0.2199999988079071,-0.20000000298023224,0.41999998688697815),(0.2199999988079071,-0.20000000298023224,0.3675000071525574),(0.2199999988079071,-0.20000000298023224,0.3149999976158142),(0.2199999988079071,-0.20000000298023224,0.10499999672174454),(0.2199999988079071,-0.20000000298023224,0.05249999836087227),(0.2199999988079071,-0.20000000298023224,0.),(0.2199999988079071,-0.20999999344348907,0.3675000071525574),(0.2199999988079071,-0.20999999344348907,0.3149999976158142),(0.2199999988079071,-0.20999999344348907,0.10499999672174454),(0.2199999988079071,-0.20999999344348907,0.05249999836087227),(0.2199999988079071,-0.2199999988079071,0.41999998688697815),(0.2199999988079071,-0.2199999988079071,0.2800000011920929),(0.2199999988079071,-0.2199999988079071,0.14000000059604645),(0.2199999988079071,-0.2199999988079071,0.),(0.20999999344348907,-0.18000000715255737,0.3675000071525574),(0.20999999344348907,-0.18000000715255737,0.3149999976158142),(0.20999999344348907,-0.18000000715255737,0.10499999672174454),(0.20999999344348907,-0.18000000715255737,0.05249999836087227),(0.20999999344348907,-0.2199999988079071,0.3675000071525574),(0.20999999344348907,-0.2199999988079071,0.3149999976158142),(0.20999999344348907,-0.2199999988079071,0.10499999672174454),(0.20999999344348907,-0.2199999988079071,0.05249999836087227),(0.20000000298023224,-0.18000000715255737,0.41999998688697815),(0.20000000298023224,-0.18000000715255737,0.3675000071525574),(0.20000000298023224,-0.18000000715255737,0.3149999976158142),(0.20000000298023224,-0.18000000715255737,0.10499999672174454),(0.20000000298023224,-0.18000000715255737,0.05249999836087227),(0.20000000298023224,-0.18000000715255737,0.),(0.20000000298023224,-0.2199999988079071,0.41999998688697815),(0.20000000298023224,-0.2199999988079071,0.3675000071525574),(0.20000000298023224,-0.2199999988079071,0.3149999976158142),(0.20000000298023224,-0.2199999988079071,0.10499999672174454),(0.20000000298023224,-0.2199999988079071,0.05249999836087227),(0.20000000298023224,-0.2199999988079071,0.),(0.1899999976158142,-0.18000000715255737,0.3675000071525574),(0.1899999976158142,-0.18000000715255737,0.3149999976158142),(0.1899999976158142,-0.18000000715255737,0.10499999672174454),(0.1899999976158142,-0.18000000715255737,0.05249999836087227),(0.1899999976158142,-0.2199999988079071,0.3675000071525574),(0.1899999976158142,-0.2199999988079071,0.3149999976158142),(0.1899999976158142,-0.2199999988079071,0.10499999672174454),(0.1899999976158142,-0.2199999988079071,0.05249999836087227),(0.18000000715255737,-0.18000000715255737,0.41999998688697815),(0.18000000715255737,-0.18000000715255737,0.2800000011920929),(0.18000000715255737,-0.18000000715255737,0.14000000059604645),(0.18000000715255737,-0.18000000715255737,0.),(0.18000000715255737,-0.1899999976158142,0.3675000071525574),(0.18000000715255737,-0.1899999976158142,0.3149999976158142),(0.18000000715255737,-0.1899999976158142,0.10499999672174454),(0.18000000715255737,-0.1899999976158142,0.05249999836087227),(0.18000000715255737,-0.20000000298023224,0.41999998688697815),(0.18000000715255737,-0.20000000298023224,0.3675000071525574),(0.18000000715255737,-0.20000000298023224,0.3149999976158142),(0.18000000715255737,-0.20000000298023224,0.10499999672174454),(0.18000000715255737,-0.20000000298023224,0.05249999836087227),(0.18000000715255737,-0.20000000298023224,0.),(0.18000000715255737,-0.20999999344348907,0.3675000071525574),(0.18000000715255737,-0.20999999344348907,0.3149999976158142),(0.18000000715255737,-0.20999999344348907,0.10499999672174454),(0.18000000715255737,-0.20999999344348907,0.05249999836087227),(0.18000000715255737,-0.2199999988079071,0.41999998688697815),(0.18000000715255737,-0.2199999988079071,0.2800000011920929),(0.18000000715255737,-0.2199999988079071,0.14000000059604645),(0.18000000715255737,-0.2199999988079071,0.)),$);
#191=IFCPOLYGONALFACESET(#190,.T.,(#192,#193,#194,#195,#196,#197,#198,#199,#200,#201,#202,#203,#204,#205,#206,#207,#208,#209,#210,#211,#212,#213,#214,#215,#216,#217,#218,#219,#220,#221,#222,#223,#224,#225,#226,#227,#228,#229,#230,#231,#232,#233,#234,#235,#236,#237,#238,#239,#240,#241,#242,#243,#244,#245,#246,#247,#248,#249,#250,#251,#252,#253,#254,#255,#256,#257,#258,#259,#260,#261,#262,#263,#264,#265,#266,#267,#268,#269,#270,#271,#272,#273,#274,#275,#276,#277,#278,#279,#280,#281,#282,#283,#284,#285,#286,#287,#288,#289),$);
#192=IFCINDEXEDPOLYGONALFACE((40,49,50,41));
#193=IFCINDEXEDPOLYGONALFACE((29,40,41,30));
#194=IFCINDEXEDPOLYGONALFACE((27,38,39,28));
#195=IFCINDEXEDPOLYGONALFACE((38,47,48,39));
#196=IFCINDEXEDPOLYGONALFACE((71,72,50,49));
#197=IFCINDEXEDPOLYGONALFACE((42,41,50));
#198=IFCINDEXEDPOLYGONALFACE((71,49,40));
#199=IFCINDEXEDPOLYGONALFACE((42,50,72));
#200=IFCINDEXEDPOLYGONALFACE((70,71,40,39));
#201=IFCINDEXEDPOLYGONALFACE((69,70,48,47));
#202=IFCINDEXEDPOLYGONALFACE((70,39,48));
#203=IFCINDEXEDPOLYGONALFACE((37,69,47,38));
#204=IFCINDEXEDPOLYGONALFACE((39,40,21,20));
#205=IFCINDEXEDPOLYGONALFACE((22,30,42));
#206=IFCINDEXEDPOLYGONALFACE((29,30,21));
#207=IFCINDEXEDPOLYGONALFACE((22,21,30));
#208=IFCINDEXEDPOLYGONALFACE((40,29,21));
#209=IFCINDEXEDPOLYGONALFACE((27,37,38));
#210=IFCINDEXEDPOLYGONALFACE((20,19,27,28));
#211=IFCINDEXEDPOLYGONALFACE((37,27,19));
#212=IFCINDEXEDPOLYGONALFACE((28,39,20));
#213=IFCINDEXEDPOLYGONALFACE((30,41,42));
#214=IFCINDEXEDPOLYGONALFACE((12,17,18,13));
#215=IFCINDEXEDPOLYGONALFACE((7,12,13,8));
#216=IFCINDEXEDPOLYGONALFACE((5,10,11,6));
#217=IFCINDEXEDPOLYGONALFACE((10,15,16,11));
#218=IFCINDEXEDPOLYGONALFACE((21,22,18,17));
#219=IFCINDEXEDPOLYGONALFACE((14,18,22));
#220=IFCINDEXEDPOLYGONALFACE((14,13,18));
#221=IFCINDEXEDPOLYGONALFACE((8,13,14));
#222=IFCINDEXEDPOLYGONALFACE((21,17,12));
#223=IFCINDEXEDPOLYGONALFACE((20,21,12,11));
#224=IFCINDEXEDPOLYGONALFACE((19,20,16,15));
#225=IFCINDEXEDPOLYGONALFACE((9,15,10));
#226=IFCINDEXEDPOLYGONALFACE((11,16,20));
#227=IFCINDEXEDPOLYGONALFACE((19,15,9));
#228=IFCINDEXEDPOLYGONALFACE((7,8,3));
#229=IFCINDEXEDPOLYGONALFACE((4,3,8));
#230=IFCINDEXEDPOLYGONALFACE((12,7,3));
#231=IFCINDEXEDPOLYGONALFACE((8,14,4));
#232=IFCINDEXEDPOLYGONALFACE((3,2,11,12));
#233=IFCINDEXEDPOLYGONALFACE((2,6,11));
#234=IFCINDEXEDPOLYGONALFACE((2,1,5,6));
#235=IFCINDEXEDPOLYGONALFACE((1,9,10,5));
#236=IFCINDEXEDPOLYGONALFACE((34,25,26,35));
#237=IFCINDEXEDPOLYGONALFACE((45,34,35,46));
#238=IFCINDEXEDPOLYGONALFACE((43,32,33,44));
#239=IFCINDEXEDPOLYGONALFACE((32,23,24,33));
#240=IFCINDEXEDPOLYGONALFACE((3,4,26,25));
#241=IFCINDEXEDPOLYGONALFACE((36,26,4));
#242=IFCINDEXEDPOLYGONALFACE((36,35,26));
#243=IFCINDEXEDPOLYGONALFACE((46,35,36));
#244=IFCINDEXEDPOLYGONALFACE((3,25,34));
#245=IFCINDEXEDPOLYGONALFACE((2,3,34,33));
#246=IFCINDEXEDPOLYGONALFACE((1,2,24,23));
#247=IFCINDEXEDPOLYGONALFACE((31,23,32));
#248=IFCINDEXEDPOLYGONALFACE((33,24,2));
#249=IFCINDEXEDPOLYGONALFACE((1,23,31));
#250=IFCINDEXEDPOLYGONALFACE((45,46,53));
#251=IFCINDEXEDPOLYGONALFACE((54,53,46));
#252=IFCINDEXEDPOLYGONALFACE((34,45,53));
#253=IFCINDEXEDPOLYGONALFACE((46,36,54));
#254=IFCINDEXEDPOLYGONALFACE((53,52,33,34));
#255=IFCINDEXEDPOLYGONALFACE((52,44,33));
#256=IFCINDEXEDPOLYGONALFACE((52,51,43,44));
#257=IFCINDEXEDPOLYGONALFACE((51,31,32,43));
#258=IFCINDEXEDPOLYGONALFACE((62,57,58,63));
#259=IFCINDEXEDPOLYGONALFACE((67,62,63,68));
#260=IFCINDEXEDPOLYGONALFACE((65,60,61,66));
#261=IFCINDEXEDPOLYGONALFACE((60,55,56,61));
#262=IFCINDEXEDPOLYGONALFACE((53,54,58,57));
#263=IFCINDEXEDPOLYGONALFACE((64,63,58));
#264=IFCINDEXEDPOLYGONALFACE((53,57,62));
#265=IFCINDEXEDPOLYGONALFACE((64,58,54));
#266=IFCINDEXEDPOLYGONALFACE((52,53,62,61));
#267=IFCINDEXEDPOLYGONALFACE((51,52,56,55));
#268=IFCINDEXEDPOLYGONALFACE((52,61,56));
#269=IFCINDEXEDPOLYGONALFACE((59,51,55,60));
#270=IFCINDEXEDPOLYGONALFACE((61,62,71,70));
#271=IFCINDEXEDPOLYGONALFACE((72,68,64));
#272=IFCINDEXEDPOLYGONALFACE((67,68,71));
#273=IFCINDEXEDPOLYGONALFACE((72,71,68));
#274=IFCINDEXEDPOLYGONALFACE((62,67,71));
#275=IFCINDEXEDPOLYGONALFACE((65,59,60));
#276=IFCINDEXEDPOLYGONALFACE((70,69,65,66));
#277=IFCINDEXEDPOLYGONALFACE((59,65,69));
#278=IFCINDEXEDPOLYGONALFACE((66,61,70));
#279=IFCINDEXEDPOLYGONALFACE((68,63,64));
#280=IFCINDEXEDPOLYGONALFACE((42,72,64));
#281=IFCINDEXEDPOLYGONALFACE((42,14,22));
#282=IFCINDEXEDPOLYGONALFACE((36,42,64,54));
#283=IFCINDEXEDPOLYGONALFACE((42,36,4,14));
#284=IFCINDEXEDPOLYGONALFACE((59,69,37));
#285=IFCINDEXEDPOLYGONALFACE((59,31,51));
#286=IFCINDEXEDPOLYGONALFACE((9,59,37));
#287=IFCINDEXEDPOLYGONALFACE((59,9,31));
#288=IFCINDEXEDPOLYGONALFACE((9,1,31));
#289=IFCINDEXEDPOLYGONALFACE((19,9,37));
#290=IFCCARTESIANPOINTLIST3D(((-0.18000000715255737,0.2199999988079071,0.41999998688697815),(-0.18000000715255737,0.2199999988079071,0.2800000011920929),(-0.18000000715255737,0.2199999988079071,0.14000000059604645),(-0.18000000715255737,0.2199999988079071,0.),(-0.18000000715255737,0.20999999344348907,0.3675000071525574),(-0.18000000715255737,0.20999999344348907,0.3149999976158142),(-0.18000000715255737,0.20999999344348907,0.10499999672174454),(-0.18000000715255737,0.20999999344348907,0.05249999836087227),(-0.18000000715255737,0.20000000298023224,0.41999998688697815),(-0.18000000715255737,0.20000000298023224,0.3675000071525574),(-0.18000000715255737,0.20000000298023224,0.3149999976158142),(-0.18000000715255737,0.20000000298023224,0.10499999672174454),(-0.18000000715255737,0.20000000298023224,0.05249999836087227),(-0.18000000715255737,0.20000000298023224,0.),(-0.18000000715255737,0.1899999976158142,0.3675000071525574),(-0.18000000715255737,0.1899999976158142,0.3149999976158142),(-0.18000000715255737,0.1899999976158142,0.10499999672174454),(-0.18000000715255737,0.1899999976158142,0.05249999836087227),(-0.18000000715255737,0.18000000715255737,0.41999998688697815),(-0.18000000715255737,0.18000000715255737,0.2800000011920929),(-0.18000000715255737,0.18000000715255737,0.14000000059604645),(-0.18000000715255737,0.18000000715255737,0.),(-0.1899999976158142,0.2199999988079071,0.3675000071525574),(-0.1899999976158142,0.2199999988079071,0.3149999976158142),(-0.1899999976158142,0.2199999988079071,0.10499999672174454),(-0.1899999976158142,0.2199999988079071,0.05249999836087227),(-0.1899999976158142,0.18000000715255737,0.3675000071525574),(-0.1899999976158142,0.18000000715255737,0.3149999976158142),(-0.1899999976158142,0.18000000715255737,0.10499999672174454),(-0.1899999976158142,0.18000000715255737,0.05249999836087227),(-0.20000000298023224,0.2199999988079071,0.41999998688697815),(-0.20000000298023224,0.2199999988079071,0.3675000071525574),(-0.20000000298023224,0.2199999988079071,0.3149999976158142),(-0.20000000298023224,0.2199999988079071,0.10499999672174454),(-0.20000000298023224,0.2199999988079071,0.05249999836087227),(-0.20000000298023224,0.2199999988079071,0.),(-0.20000000298023224,0.18000000715255737,0.41999998688697815),(-0.20000000298023224,0.18000000715255737,0.3675000071525574),(-0.20000000298023224,0.18000000715255737,0.3149999976158142),(-0.20000000298023224,0.18000000715255737,0.10499999672174454),(-0.20000000298023224,0.18000000715255737,0.05249999836087227),(-0.20000000298023224,0.18000000715255737,0.),(-0.20999999344348907,0.2199999988079071,0.3675000071525574),(-0.20999999344348907,0.2199999988079071,0.3149999976158142),(-0.20999999344348907,0.2199999988079071,0.10499999672174454),(-0.20999999344348907,0.2199999988079071,0.05249999836087227),(-0.20999999344348907,0.18000000715255737,0.3675000071525574),(-0.20999999344348907,0.18000000715255737,0.3149999976158142),(-0.20999999344348907,0.18000000715255737,0.10499999672174454),(-0.20999999344348907,0.18000000715255737,0.05249999836087227),(-0.2199999988079071,0.2199999988079071,0.41999998688697815),(-0.2199999988079071,0.2199999988079071,0.2800000011920929),(-0.2199999988079071,0.2199999988079071,0.14000000059604645),(-0.2199999988079071,0.2199999988079071,0.),(-0.2199999988079071,0.20999999344348907,0.3675000071525574),(-0.2199999988079071,0.20999999344348907,0.3149999976158142),(-0.2199999988079071,0.20999999344348907,0.10499999672174454),(-0.2199999988079071,0.20999999344348907,0.05249999836087227),(-0.2199999988079071,0.20000000298023224,0.41999998688697815),(-0.2199999988079071,0.20000000298023224,0.3675000071525574),(-0.2199999988079071,0.20000000298023224,0.3149999976158142),(-0.2199999988079071,0.20000000298023224,0.10499999672174454),(-0.2199999988079071,0.20000000298023224,0.05249999836087227),(-0.2199999988079071,0.20000000298023224,0.),(-0.2199999988079071,0.1899999976158142,0.3675000071525574),(-0.2199999988079071,0.1899999976158142,0.3149999976158142),(-0.2199999988079071,0.1899999976158142,0.10499999672174454),(-0.2199999988079071,0.1899999976158142,0.05249999836087227),(-0.2199999988079071,0.18000000715255737,0.41999998688697815),(-0.2199999988079071,0.18000000715255737,0.2800000011920929),(-0.2199999988079071,0.18000000715255737,0.14000000059604645),(-0.2199999988079071,0.18000000715255737,0.)),$);
#291=IFCPOLYGONALFACESET(#290,.T.,(#292,#293,#294,#295,#296,#297,#298,#299,#300,#301,#302,#303,#304,#305,#306,#307,#308,#309,#310,#311,#312,#313,#314,#315,#316,#317,#318,#319,#320,#321,#322,#323,#324,#325,#326,#327,#328,#329,#330,#331,#332,#333,#334,#335,#336,#337,#338,#339,#340,#341,#342,#343,#344,#345,#346,#347,#348,#349,#350,#351,#352,#353,#354,#355,#356,#357,#358,#359,#360,#361,#362,#363,#364,#365,#366,#367,#368,#369,#370,#371,#372,#373,#374,#375,#376,#377,#378,#379,#380,#381,#382,#383,#384,#385,#386,#387,#388,#389),$);
#292=IFCINDEXEDPOLYGONALFACE((40,49,50,41));
#293=IFCINDEXEDPOLYGONALFACE((29,40,41,30));
#294=IFCINDEXEDPOLYGONALFACE((27,38,39,28));
#295=IFCINDEXEDPOLYGONALFACE((38,47,48,39));
#296=IFCINDEXEDPOLYGONALFACE((71,72,50,49));
#297=IFCINDEXEDPOLYGONALFACE((42,50,72));
#298=IFCINDEXEDPOLYGONALFACE((42,41,50));
#299=IFCINDEXEDPOLYGONALFACE((30,41,42));
#300=IFCINDEXEDPOLYGONALFACE((71,49,40));
#301=IFCINDEXEDPOLYGONALFACE((70,71,40,39));
#302=IFCINDEXEDPOLYGONALFACE((69,70,48,47));
#303=IFCINDEXEDPOLYGONALFACE((37,47,38));
#304=IFCINDEXEDPOLYGONALFACE((39,48,70));
#305=IFCINDEXEDPOLYGONALFACE((69,47,37));
#306=IFCINDEXEDPOLYGONALFACE((29,30,21));
#307=IFCINDEXEDPOLYGONALFACE((22,21,30));
#308=IFCINDEXEDPOLYGONALFACE((40,29,21));
#309=IFCINDEXEDPOLYGONALFACE((30,42,22));
#310=IFCINDEXEDPOLYGONALFACE((21,20,39,40));
#311=IFCINDEXEDPOLYGONALFACE((20,28,39));
#312=IFCINDEXEDPOLYGONALFACE((20,19,27,28));
#313=IFCINDEXEDPOLYGONALFACE((19,37,38,27));
#314=IFCINDEXEDPOLYGONALFACE((12,17,18,13));
#315=IFCINDEXEDPOLYGONALFACE((7,12,13,8));
#316=IFCINDEXEDPOLYGONALFACE((5,10,11,6));
#317=IFCINDEXEDPOLYGONALFACE((10,15,16,11));
#318=IFCINDEXEDPOLYGONALFACE((21,22,18,17));
#319=IFCINDEXEDPOLYGONALFACE((14,13,18));
#320=IFCINDEXEDPOLYGONALFACE((21,17,12));
#321=IFCINDEXEDPOLYGONALFACE((14,18,22));
#322=IFCINDEXEDPOLYGONALFACE((20,21,12,11));
#323=IFCINDEXEDPOLYGONALFACE((19,20,16,15));
#324=IFCINDEXEDPOLYGONALFACE((20,11,16));
#325=IFCINDEXEDPOLYGONALFACE((9,19,15,10));
#326=IFCINDEXEDPOLYGONALFACE((11,12,3,2));
#327=IFCINDEXEDPOLYGONALFACE((4,8,14));
#328=IFCINDEXEDPOLYGONALFACE((7,8,3));
#329=IFCINDEXEDPOLYGONALFACE((4,3,8));
#330=IFCINDEXEDPOLYGONALFACE((12,7,3));
#331=IFCINDEXEDPOLYGONALFACE((5,9,10));
#332=IFCINDEXEDPOLYGONALFACE((2,1,5,6));
#333=IFCINDEXEDPOLYGONALFACE((9,5,1));
#334=IFCINDEXEDPOLYGONALFACE((6,11,2));
#335=IFCINDEXEDPOLYGONALFACE((8,13,14));
#336=IFCINDEXEDPOLYGONALFACE((34,25,26,35));
#337=IFCINDEXEDPOLYGONALFACE((45,34,35,46));
#338=IFCINDEXEDPOLYGONALFACE((43,32,33,44));
#339=IFCINDEXEDPOLYGONALFACE((32,23,24,33));
#340=IFCINDEXEDPOLYGONALFACE((3,4,26,25));
#341=IFCINDEXEDPOLYGONALFACE((36,35,26));
#342=IFCINDEXEDPOLYGONALFACE((3,25,34));
#343=IFCINDEXEDPOLYGONALFACE((36,26,4));
#344=IFCINDEXEDPOLYGONALFACE((2,3,34,33));
#345=IFCINDEXEDPOLYGONALFACE((1,2,24,23));
#346=IFCINDEXEDPOLYGONALFACE((2,33,24));
#347=IFCINDEXEDPOLYGONALFACE((31,1,23,32));
#348=IFCINDEXEDPOLYGONALFACE((33,34,53,52));
#349=IFCINDEXEDPOLYGONALFACE((54,46,36));
#350=IFCINDEXEDPOLYGONALFACE((45,46,53));
#351=IFCINDEXEDPOLYGONALFACE((54,53,46));
#352=IFCINDEXEDPOLYGONALFACE((34,45,53));
#353=IFCINDEXEDPOLYGONALFACE((43,31,32));
#354=IFCINDEXEDPOLYGONALFACE((52,51,43,44));
#355=IFCINDEXEDPOLYGONALFACE((31,43,51));
#356=IFCINDEXEDPOLYGONALFACE((44,33,52));
#357=IFCINDEXEDPOLYGONALFACE((46,35,36));
#358=IFCINDEXEDPOLYGONALFACE((62,57,58,63));
#359=IFCINDEXEDPOLYGONALFACE((67,62,63,68));
#360=IFCINDEXEDPOLYGONALFACE((65,60,61,66));
#361=IFCINDEXEDPOLYGONALFACE((60,55,56,61));
#362=IFCINDEXEDPOLYGONALFACE((53,54,58,57));
#363=IFCINDEXEDPOLYGONALFACE((64,58,54));
#364=IFCINDEXEDPOLYGONALFACE((64,63,58));
#365=IFCINDEXEDPOLYGONALFACE((68,63,64));
#366=IFCINDEXEDPOLYGONALFACE((53,57,62));
#367=IFCINDEXEDPOLYGONALFACE((52,53,62,61));
#368=IFCINDEXEDPOLYGONALFACE((51,52,56,55));
#369=IFCINDEXEDPOLYGONALFACE((59,55,60));
#370=IFCINDEXEDPOLYGONALFACE((61,56,52));
#371=IFCINDEXEDPOLYGONALFACE((51,55,59));
#372=IFCINDEXEDPOLYGONALFACE((67,68,71));
#373=IFCINDEXEDPOLYGONALFACE((72,71,68));
#374=IFCINDEXEDPOLYGONALFACE((62,67,71));
#375=IFCINDEXEDPOLYGONALFACE((68,64,72));
#376=IFCINDEXEDPOLYGONALFACE((71,70,61,62));
#377=IFCINDEXEDPOLYGONALFACE((70,66,61));
#378=IFCINDEXEDPOLYGONALFACE((70,69,65,66));
#379=IFCINDEXEDPOLYGONALFACE((69,59,60,65));
#380=IFCINDEXEDPOLYGONALFACE((42,72,64));
#381=IFCINDEXEDPOLYGONALFACE((42,14,22));
#382=IFCINDEXEDPOLYGONALFACE((36,42,64));
#383=IFCINDEXEDPOLYGONALFACE((42,36,14));
#384=IFCINDEXEDPOLYGONALFACE((36,4,14));
#385=IFCINDEXEDPOLYGONALFACE((54,36,64));
#386=IFCINDEXEDPOLYGONALFACE((59,69,37));
#387=IFCINDEXEDPOLYGONALFACE((59,31,51));
#388=IFCINDEXEDPOLYGONALFACE((9,59,37,19));
#389=IFCINDEXEDPOLYGONALFACE((59,9,1,31));
#390=IFCCARTESIANPOINTLIST3D(((0.2199999988079071,0.2199999988079071,0.41999998688697815),(0.2199999988079071,0.2199999988079071,0.2800000011920929),(0.2199999988079071,0.2199999988079071,0.14000000059604645),(0.2199999988079071,0.2199999988079071,0.),(0.2199999988079071,0.20999999344348907,0.3675000071525574),(0.2199999988079071,0.20999999344348907,0.3149999976158142),(0.2199999988079071,0.20999999344348907,0.10499999672174454),(0.2199999988079071,0.20999999344348907,0.05249999836087227),(0.2199999988079071,0.20000000298023224,0.41999998688697815),(0.2199999988079071,0.20000000298023224,0.3675000071525574),(0.2199999988079071,0.20000000298023224,0.3149999976158142),(0.2199999988079071,0.20000000298023224,0.10499999672174454),(0.2199999988079071,0.20000000298023224,0.05249999836087227),(0.2199999988079071,0.20000000298023224,0.),(0.2199999988079071,0.1899999976158142,0.3675000071525574),(0.2199999988079071,0.1899999976158142,0.3149999976158142),(0.2199999988079071,0.1899999976158142,0.10499999672174454),(0.2199999988079071,0.1899999976158142,0.05249999836087227),(0.2199999988079071,0.18000000715255737,0.41999998688697815),(0.2199999988079071,0.18000000715255737,0.2800000011920929),(0.2199999988079071,0.18000000715255737,0.14000000059604645),(0.2199999988079071,0.18000000715255737,0.),(0.20999999344348907,0.2199999988079071,0.3675000071525574),(0.20999999344348907,0.2199999988079071,0.3149999976158142),(0.20999999344348907,0.2199999988079071,0.10499999672174454),(0.20999999344348907,0.2199999988079071,0.05249999836087227),(0.20999999344348907,0.18000000715255737,0.3675000071525574),(0.20999999344348907,0.18000000715255737,0.3149999976158142),(0.20999999344348907,0.18000000715255737,0.10499999672174454),(0.20999999344348907,0.18000000715255737,0.05249999836087227),(0.20000000298023224,0.2199999988079071,0.41999998688697815),(0.20000000298023224,0.2199999988079071,0.3675000071525574),(0.20000000298023224,0.2199999988079071,0.3149999976158142),(0.20000000298023224,0.2199999988079071,0.10499999672174454),(0.20000000298023224,0.2199999988079071,0.05249999836087227),(0.20000000298023224,0.2199999988079071,0.),(0.20000000298023224,0.18000000715255737,0.41999998688697815),(0.20000000298023224,0.18000000715255737,0.3675000071525574),(0.20000000298023224,0.18000000715255737,0.3149999976158142),(0.20000000298023224,0.18000000715255737,0.10499999672174454),(0.20000000298023224,0.18000000715255737,0.05249999836087227),(0.20000000298023224,0.18000000715255737,0.),(0.1899999976158142,0.2199999988079071,0.3675000071525574),(0.1899999976158142,0.2199999988079071,0.3149999976158142),(0.1899999976158142,0.2199999988079071,0.10499999672174454),(0.1899999976158142,0.2199999988079071,0.05249999836087227),(0.1899999976158142,0.18000000715255737,0.3675000071525574),(0.1899999976158142,0.18000000715255737,0.3149999976158142),(0.1899999976158142,0.18000000715255737,0.10499999672174454),(0.1899999976158142,0.18000000715255737,0.05249999836087227),(0.18000000715255737,0.2199999988079071,0.41999998688697815),(0.18000000715255737,0.2199999988079071,0.2800000011920929),(0.18000000715255737,0.2199999988079071,0.14000000059604645),(0.18000000715255737,0.2199999988079071,0.),(0.18000000715255737,0.20999999344348907,0.3675000071525574),(0.18000000715255737,0.20999999344348907,0.3149999976158142),(0.18000000715255737,0.20999999344348907,0.10499999672174454),(0.18000000715255737,0.20999999344348907,0.05249999836087227),(0.18000000715255737,0.20000000298023224,0.41999998688697815),(0.18000000715255737,0.20000000298023224,0.3675000071525574),(0.18000000715255737,0.20000000298023224,0.3149999976158142),(0.18000000715255737,0.20000000298023224,0.10499999672174454),(0.18000000715255737,0.20000000298023224,0.05249999836087227),(0.18000000715255737,0.20000000298023224,0.),(0.18000000715255737,0.1899999976158142,0.3675000071525574),(0.18000000715255737,0.1899999976158142,0.3149999976158142),(0.18000000715255737,0.1899999976158142,0.10499999672174454),(0.18000000715255737,0.1899999976158142,0.05249999836087227),(0.18000000715255737,0.18000000715255737,0.41999998688697815),(0.18000000715255737,0.18000000715255737,0.2800000011920929),(0.18000000715255737,0.18000000715255737,0.14000000059604645),(0.18000000715255737,0.18000000715255737,0.)),$);
#391=IFCPOLYGONALFACESET(#390,.T.,(#392,#393,#394,#395,#396,#397,#398,#399,#400,#401,#402,#403,#404,#405,#406,#407,#408,#409,#410,#411,#412,#413,#414,#415,#416,#417,#418,#419,#420,#421,#422,#423,#424,#425,#426,#427,#428,#429,#430,#431,#432,#433,#434,#435,#436,#437,#438,#439,#440,#441,#442,#443,#444,#445,#446,#447,#448,#449,#450,#451,#452,#453,#454,#455,#456,#457,#458,#459,#460,#461,#462,#463,#464,#465,#466,#467,#468,#469,#470,#471,#472,#473,#474,#475,#476,#477,#478,#479,#480,#481,#482,#483,#484,#485,#486,#487,#488,#489,#490,#491),$);
#392=IFCINDEXEDPOLYGONALFACE((40,49,50,41));
#393=IFCINDEXEDPOLYGONALFACE((29,40,41,30));
#394=IFCINDEXEDPOLYGONALFACE((27,38,39,28));
#395=IFCINDEXEDPOLYGONALFACE((38,47,48,39));
#396=IFCINDEXEDPOLYGONALFACE((71,72,50,49));
#397=IFCINDEXEDPOLYGONALFACE((42,41,50));
#398=IFCINDEXEDPOLYGONALFACE((71,49,40));
#399=IFCINDEXEDPOLYGONALFACE((42,50,72));
#400=IFCINDEXEDPOLYGONALFACE((70,71,40,39));
#401=IFCINDEXEDPOLYGONALFACE((69,70,48,47));
#402=IFCINDEXEDPOLYGONALFACE((70,39,48));
#403=IFCINDEXEDPOLYGONALFACE((37,69,47,38));
#404=IFCINDEXEDPOLYGONALFACE((39,40,21,20));
#405=IFCINDEXEDPOLYGONALFACE((22,30,42));
#406=IFCINDEXEDPOLYGONALFACE((29,30,21));
#407=IFCINDEXEDPOLYGONALFACE((22,21,30));
#408=IFCINDEXEDPOLYGONALFACE((40,29,21));
#409=IFCINDEXEDPOLYGONALFACE((27,37,38));
#410=IFCINDEXEDPOLYGONALFACE((20,19,27,28));
#411=IFCINDEXEDPOLYGONALFACE((37,27,19));
#412=IFCINDEXEDPOLYGONALFACE((28,39,20));
#413=IFCINDEXEDPOLYGONALFACE((30,41,42));
#414=IFCINDEXEDPOLYGONALFACE((12,17,18,13));
#415=IFCINDEXEDPOLYGONALFACE((7,12,13,8));
#416=IFCINDEXEDPOLYGONALFACE((5,10,11,6));
#417=IFCINDEXEDPOLYGONALFACE((10,15,16,11));
#418=IFCINDEXEDPOLYGONALFACE((21,22,18,17));
#419=IFCINDEXEDPOLYGONALFACE((14,13,18));
#420=IFCINDEXEDPOLYGONALFACE((21,17,12));
#421=IFCINDEXEDPOLYGONALFACE((14,18,22));
#422=IFCINDEXEDPOLYGONALFACE((20,21,12,11));
#423=IFCINDEXEDPOLYGONALFACE((19,20,16,15));
#424=IFCINDEXEDPOLYGONALFACE((20,11,16));
#425=IFCINDEXEDPOLYGONALFACE((9,19,15,10));
#426=IFCINDEXEDPOLYGONALFACE((11,12,3,2));
#427=IFCINDEXEDPOLYGONALFACE((4,8,14));
#428=IFCINDEXEDPOLYGONALFACE((7,8,3));
#429=IFCINDEXEDPOLYGONALFACE((4,3,8));
#430=IFCINDEXEDPOLYGONALFACE((12,7,3));
#431=IFCINDEXEDPOLYGONALFACE((5,9,10));
#432=IFCINDEXEDPOLYGONALFACE((2,1,5,6));
#433=IFCINDEXEDPOLYGONALFACE((9,5,1));
#434=IFCINDEXEDPOLYGONALFACE((6,11,2));
#435=IFCINDEXEDPOLYGONALFACE((8,13,14));
#436=IFCINDEXEDPOLYGONALFACE((34,25,26,35));
#437=IFCINDEXEDPOLYGONALFACE((45,34,35,46));
#438=IFCINDEXEDPOLYGONALFACE((43,32,33,44));
#439=IFCINDEXEDPOLYGONALFACE((32,23,24,33));
#440=IFCINDEXEDPOLYGONALFACE((3,4,26,25));
#441=IFCINDEXEDPOLYGONALFACE((36,26,4));
#442=IFCINDEXEDPOLYGONALFACE((36,35,26));
#443=IFCINDEXEDPOLYGONALFACE((46,35,36));
#444=IFCINDEXEDPOLYGONALFACE((3,25,34));
#445=IFCINDEXEDPOLYGONALFACE((2,3,34,33));
#446=IFCINDEXEDPOLYGONALFACE((1,2,24,23));
#447=IFCINDEXEDPOLYGONALFACE((31,23,32));
#448=IFCINDEXEDPOLYGONALFACE((33,24,2));
#449=IFCINDEXEDPOLYGONALFACE((1,23,31));
#450=IFCINDEXEDPOLYGONALFACE((45,46,53));
#451=IFCINDEXEDPOLYGONALFACE((54,53,46));
#452=IFCINDEXEDPOLYGONALFACE((34,45,53));
#453=IFCINDEXEDPOLYGONALFACE((46,36,54));
#454=IFCINDEXEDPOLYGONALFACE((53,52,33,34));
#455=IFCINDEXEDPOLYGONALFACE((52,44,33));
#456=IFCINDEXEDPOLYGONALFACE((52,51,43,44));
#457=IFCINDEXEDPOLYGONALFACE((51,31,32,43));
#458=IFCINDEXEDPOLYGONALFACE((62,57,58,63));
#459=IFCINDEXEDPOLYGONALFACE((67,62,63,68));
#460=IFCINDEXEDPOLYGONALFACE((65,60,61,66));
#461=IFCINDEXEDPOLYGONALFACE((60,55,56,61));
#462=IFCINDEXEDPOLYGONALFACE((53,54,58,57));
#463=IFCINDEXEDPOLYGONALFACE((64,58,54));
#464=IFCINDEXEDPOLYGONALFACE((64,63,58));
#465=IFCINDEXEDPOLYGONALFACE((68,63,64));
#466=IFCINDEXEDPOLYGONALFACE((53,57,62));
#467=IFCINDEXEDPOLYGONALFACE((52,53,62,61));
#468=IFCINDEXEDPOLYGONALFACE((51,52,56,55));
#469=IFCINDEXEDPOLYGONALFACE((59,55,60));
#470=IFCINDEXEDPOLYGONALFACE((61,56,52));
#471=IFCINDEXEDPOLYGONALFACE((51,55,59));
#472=IFCINDEXEDPOLYGONALFACE((67,68,71));
#473=IFCINDEXEDPOLYGONALFACE((72,71,68));
#474=IFCINDEXEDPOLYGONALFACE((62,67,71));
#475=IFCINDEXEDPOLYGONALFACE((68,64,72));
#476=IFCINDEXEDPOLYGONALFACE((71,70,61,62));
#477=IFCINDEXEDPOLYGONALFACE((70,66,61));
#478=IFCINDEXEDPOLYGONALFACE((70,69,65,66));
#479=IFCINDEXEDPOLYGONALFACE((69,59,60,65));
#480=IFCINDEXEDPOLYGONALFACE((42,72,64));
#481=IFCINDEXEDPOLYGONALFACE((42,14,22));
#482=IFCINDEXEDPOLYGONALFACE((36,42,64));
#483=IFCINDEXEDPOLYGONALFACE((42,36,14));
#484=IFCINDEXEDPOLYGONALFACE((36,4,14));
#485=IFCINDEXEDPOLYGONALFACE((54,36,64));
#486=IFCINDEXEDPOLYGONALFACE((59,69,37));
#487=IFCINDEXEDPOLYGONALFACE((59,31,51));
#488=IFCINDEXEDPOLYGONALFACE((9,59,37));
#489=IFCINDEXEDPOLYGONALFACE((59,9,31));
#490=IFCINDEXEDPOLYGONALFACE((9,1,31));
#491=IFCINDEXEDPOLYGONALFACE((19,9,37));
#492=IFCSHAPEREPRESENTATION(#493,'Body','Tessellation',(#31,#63,#93,#191,#291,#391));
#493=IFCGEOMETRICREPRESENTATIONSUBCONTEXT('Body','Model',*,*,*,*,#7,$,.MODEL_VIEW.,$);
#494=IFCCARTESIANTRANSFORMATIONOPERATOR3D($,$,#495,$,$);
#495=IFCCARTESIANPOINT((0.,0.,0.));
#496=IFCSHAPEREPRESENTATION(#493,'Body','MappedRepresentation',(#497));
#497=IFCMAPPEDITEM(#27,#494);
#498=IFCPRODUCTDEFINITIONSHAPE($,$,(#496));
#499=IFCFURNITURE('2pN6JFoEjLYfbLD1f$Fh17',$,'Chair',$,$,#500,#509,$,$);
#500=IFCLOCALPLACEMENT(#19,#501);
#501=IFCAXIS2PLACEMENT3D(#502,#503,#504);
#502=IFCCARTESIANPOINT((3.,3.,0.));
#503=IFCDIRECTION((0.,0.,1.));
#504=IFCDIRECTION((-1.,0.,0.));
#505=IFCCARTESIANTRANSFORMATIONOPERATOR3D($,$,#506,$,$);
#506=IFCCARTESIANPOINT((0.,0.,0.));
#507=IFCSHAPEREPRESENTATION(#493,'Body','MappedRepresentation',(#508));
#508=IFCMAPPEDITEM(#27,#505);
#509=IFCPRODUCTDEFINITIONSHAPE($,$,(#507));
#510=IFCRELCONTAINEDINSPATIALSTRUCTURE('3TJA6mfkTQ0PT8d6FIDs7G',$,$,$,(#22,#499),#18);
#511=IFCRELAGGREGATES('3Kj3z2FnbKUwvo$mPknXTp',$,$,$,#14,(#18));
#512=IFCRELAGGREGATES('2wacyQmzLUzw6CMzYBZkIx',$,$,$,#10,(#14));
#513=IFCRELAGGREGATES('2OS0RgKQ5LkeqmOw$QM83w',$,$,$,#1,(#10));
#514=IFCRELDEFINESBYTYPE('3VGVa7FuvM6hIQKV3YmICI',$,$,$,(#22,#499),#26);
ENDSEC;
END-ISO-10303-21;
