ISO-10303-21;
HEADER;
FILE_DESCRIPTION ((''), '2;1');
FILE_NAME ('08 Materials.ifc', '2026-10-09T14:44:27', (''), (''), 'xbim Toolkit v6.1.605.0', 'IfcHopper', '');
FILE_SCHEMA (('IFC4X3_ADD2'));
ENDSEC;
DATA;
#1=IFCPROJECT('2oqpc9jLTI6fEodFF6bgi1',$,'Materials',$,$,$,$,(#7),#2);
#2=IFCUNITASSIGNMENT((#3,#4,#5,#6));
#3=IFCSIUNIT(*,.LENGTHUNIT.,$,.METRE.);
#4=IFCSIUNIT(*,.AREAUNIT.,$,.SQUARE_METRE.);
#5=IFCSIUNIT(*,.VOLUMEUNIT.,$,.CUBIC_METRE.);
#6=IFCSIUNIT(*,.PLANEANGLEUNIT.,$,.RADIAN.);
#7=IFCGEOMETRICREPRESENTATIONCONTEXT($,'Model',3,1.E-05,#8,$);
#8=IFCAXIS2PLACEMENT3D(#9,$,$);
#9=IFCCARTESIANPOINT((0.,0.,0.));
#10=IFCSITE('0KSiuroizKGvVVg9R8iG4y',$,'Hopper Site',$,$,#11,$,$,.ELEMENT.,$,$,$,$,$);
#11=IFCLOCALPLACEMENT($,#12);
#12=IFCAXIS2PLACEMENT3D(#13,$,$);
#13=IFCCARTESIANPOINT((0.,0.,0.));
#14=IFCBUILDING('3wwZ6bDFzQSgkhaRHIH2xA',$,'Hopper Building',$,$,#15,$,$,.ELEMENT.,$,$,$);
#15=IFCLOCALPLACEMENT(#11,#16);
#16=IFCAXIS2PLACEMENT3D(#17,$,$);
#17=IFCCARTESIANPOINT((0.,0.,0.));
#18=IFCBUILDINGSTOREY('0dmeoA_F1S5R9E21QsIbQH',$,'Ground floor',$,$,#19,$,$,.ELEMENT.,0.);
#19=IFCLOCALPLACEMENT(#15,#20);
#20=IFCAXIS2PLACEMENT3D(#21,$,$);
#21=IFCCARTESIANPOINT((0.,0.,0.));
#22=IFCWALL('23yceUCQHPBhKSPCi4I2Nd',$,'Cavity wall',$,$,#23,#106,$,$);
#23=IFCLOCALPLACEMENT(#19,#24);
#24=IFCAXIS2PLACEMENT3D(#25,$,$);
#25=IFCCARTESIANPOINT((0.,0.,0.));
#26=IFCMATERIALLAYERSET((#27,#36,#44),'Cavity wall 300',$);
#27=IFCMATERIALLAYER(#28,0.1,$,'Facing',$,$,$);
#28=IFCMATERIAL('Brick',$,'brick');
#29=IFCMATERIALDEFINITIONREPRESENTATION($,$,(#30),#28);
#30=IFCSTYLEDREPRESENTATION(#7,'Style','Material',(#32));
#31=IFCGEOMETRICREPRESENTATIONSUBCONTEXT('Body','Model',*,*,*,*,#7,$,.MODEL_VIEW.,$);
#32=IFCSTYLEDITEM($,(#35),$);
#33=IFCSURFACESTYLESHADING(#34,$);
#34=IFCCOLOURRGB($,0.6666666666666666,0.3333333333333333,0.23529411764705882);
#35=IFCSURFACESTYLE('RGB(170, 85, 60)',.BOTH.,(#33));
#36=IFCMATERIALLAYER(#37,0.08,$,'Insulation',$,$,$);
#37=IFCMATERIAL('Mineral wool',$,'insulation');
#38=IFCMATERIALDEFINITIONREPRESENTATION($,$,(#39),#37);
#39=IFCSTYLEDREPRESENTATION(#7,'Style','Material',(#40));
#40=IFCSTYLEDITEM($,(#43),$);
#41=IFCSURFACESTYLESHADING(#42,$);
#42=IFCCOLOURRGB($,0.9215686274509803,0.8431372549019608,0.47058823529411764);
#43=IFCSURFACESTYLE('RGB(235, 215, 120)',.BOTH.,(#41));
#44=IFCMATERIALLAYER(#45,0.12,$,'Core',$,$,$);
#45=IFCMATERIAL('Concrete C30/37',$,'concrete');
#46=IFCMATERIALDEFINITIONREPRESENTATION($,$,(#47),#45);
#47=IFCSTYLEDREPRESENTATION(#7,'Style','Material',(#48));
#48=IFCSTYLEDITEM($,(#51),$);
#49=IFCSURFACESTYLESHADING(#50,$);
#50=IFCCOLOURRGB($,0.7254901960784313,0.7254901960784313,0.7058823529411765);
#51=IFCSURFACESTYLE('RGB(185, 185, 180)',.BOTH.,(#49));
#52=IFCMATERIALPROPERTIES('Pset_MaterialCommon',$,(#53),#45);
#53=IFCPROPERTYSINGLEVALUE('MassDensity',$,IFCMASSDENSITYMEASURE(2400.),$);
#54=IFCMATERIALLAYERSETUSAGE(#26,.AXIS2.,.POSITIVE.,0.,$);
#55=IFCCARTESIANPOINTLIST3D(((6.,0.30000001192092896,3.),(6.,0.30000001192092896,2.),(6.,0.30000001192092896,1.),(6.,0.30000001192092896,0.),(6.,0.,3.),(6.,0.,2.),(6.,0.,1.),(6.,0.,0.),(5.,0.30000001192092896,3.),(5.,0.30000001192092896,0.),(5.,0.,3.),(5.,0.,0.),(4.,0.30000001192092896,3.),(4.,0.30000001192092896,0.),(4.,0.,3.),(4.,0.,0.),(3.,0.30000001192092896,3.),(3.,0.30000001192092896,0.),(3.,0.,3.),(3.,0.,0.),(2.,0.30000001192092896,3.),(2.,0.30000001192092896,0.),(2.,0.,3.),(2.,0.,0.),(1.,0.30000001192092896,3.),(1.,0.30000001192092896,0.),(1.,0.,3.),(1.,0.,0.),(0.,0.30000001192092896,3.),(0.,0.30000001192092896,2.),(0.,0.30000001192092896,1.),(0.,0.30000001192092896,0.),(0.,0.,3.),(0.,0.,2.),(0.,0.,1.),(0.,0.,0.)),$);
#56=IFCPOLYGONALFACESET(#55,.T.,(#57,#58,#59,#60,#61,#62,#63,#64,#65,#66,#67,#68,#69,#70,#71,#72,#73,#74,#75,#76,#77,#78,#79,#80,#81,#82,#83,#84,#85,#86,#87,#88,#89,#90,#91,#92,#93,#94,#95,#96,#97,#98,#99,#100,#101,#102,#103,#104),$);
#57=IFCINDEXEDPOLYGONALFACE((35,36,28));
#58=IFCINDEXEDPOLYGONALFACE((35,24,20));
#59=IFCINDEXEDPOLYGONALFACE((35,28,24));
#60=IFCINDEXEDPOLYGONALFACE((34,35,20));
#61=IFCINDEXEDPOLYGONALFACE((34,27,33));
#62=IFCINDEXEDPOLYGONALFACE((34,23,27));
#63=IFCINDEXEDPOLYGONALFACE((23,34,19));
#64=IFCINDEXEDPOLYGONALFACE((19,34,20));
#65=IFCINDEXEDPOLYGONALFACE((7,16,12));
#66=IFCINDEXEDPOLYGONALFACE((12,8,7));
#67=IFCINDEXEDPOLYGONALFACE((19,20,7,6));
#68=IFCINDEXEDPOLYGONALFACE((6,15,19));
#69=IFCINDEXEDPOLYGONALFACE((5,11,6));
#70=IFCINDEXEDPOLYGONALFACE((15,6,11));
#71=IFCINDEXEDPOLYGONALFACE((16,7,20));
#72=IFCINDEXEDPOLYGONALFACE((7,8,4,3));
#73=IFCINDEXEDPOLYGONALFACE((5,6,2,1));
#74=IFCINDEXEDPOLYGONALFACE((6,7,3,2));
#75=IFCINDEXEDPOLYGONALFACE((3,4,10));
#76=IFCINDEXEDPOLYGONALFACE((3,14,18));
#77=IFCINDEXEDPOLYGONALFACE((3,10,14));
#78=IFCINDEXEDPOLYGONALFACE((2,3,18));
#79=IFCINDEXEDPOLYGONALFACE((2,9,1));
#80=IFCINDEXEDPOLYGONALFACE((2,13,9));
#81=IFCINDEXEDPOLYGONALFACE((13,2,17));
#82=IFCINDEXEDPOLYGONALFACE((17,2,18));
#83=IFCINDEXEDPOLYGONALFACE((31,22,26));
#84=IFCINDEXEDPOLYGONALFACE((26,32,31));
#85=IFCINDEXEDPOLYGONALFACE((17,18,31,30));
#86=IFCINDEXEDPOLYGONALFACE((30,21,17));
#87=IFCINDEXEDPOLYGONALFACE((29,25,30));
#88=IFCINDEXEDPOLYGONALFACE((21,30,25));
#89=IFCINDEXEDPOLYGONALFACE((22,31,18));
#90=IFCINDEXEDPOLYGONALFACE((31,32,36,35));
#91=IFCINDEXEDPOLYGONALFACE((29,30,34,33));
#92=IFCINDEXEDPOLYGONALFACE((30,31,35,34));
#93=IFCINDEXEDPOLYGONALFACE((28,36,32,26));
#94=IFCINDEXEDPOLYGONALFACE((24,28,26,22));
#95=IFCINDEXEDPOLYGONALFACE((16,20,18,14));
#96=IFCINDEXEDPOLYGONALFACE((8,12,10,4));
#97=IFCINDEXEDPOLYGONALFACE((12,16,14,10));
#98=IFCINDEXEDPOLYGONALFACE((20,24,22,18));
#99=IFCINDEXEDPOLYGONALFACE((27,25,29,33));
#100=IFCINDEXEDPOLYGONALFACE((23,21,25,27));
#101=IFCINDEXEDPOLYGONALFACE((19,17,21,23));
#102=IFCINDEXEDPOLYGONALFACE((11,9,13,15));
#103=IFCINDEXEDPOLYGONALFACE((5,1,9,11));
#104=IFCINDEXEDPOLYGONALFACE((15,13,17,19));
#105=IFCSHAPEREPRESENTATION(#31,'Body','Tessellation',(#56));
#106=IFCPRODUCTDEFINITIONSHAPE($,$,(#105));
#107=IFCSLAB('0iSQiLRIrNbvHiqD4bv0qn',$,'Slab',$,$,#108,#208,$,$);
#108=IFCLOCALPLACEMENT(#19,#109);
#109=IFCAXIS2PLACEMENT3D(#110,$,$);
#110=IFCCARTESIANPOINT((0.,0.,0.));
#111=IFCCARTESIANPOINTLIST3D(((6.,5.,0.),(6.,5.,-0.20000000298023224),(6.,4.285714149475098,0.),(6.,4.285714149475098,-0.20000000298023224),(6.,3.5714285373687744,0.),(6.,3.5714285373687744,-0.20000000298023224),(6.,2.857142925262451,0.),(6.,2.857142925262451,-0.20000000298023224),(6.,2.142857074737549,0.),(6.,2.142857074737549,-0.20000000298023224),(6.,1.4285714626312256,0.),(6.,1.4285714626312256,-0.20000000298023224),(6.,0.7142857313156128,0.),(6.,0.7142857313156128,-0.20000000298023224),(6.,0.,0.),(6.,0.,-0.20000000298023224),(5.142857074737549,5.,0.),(5.142857074737549,5.,-0.20000000298023224),(5.142857074737549,0.,0.),(5.142857074737549,0.,-0.20000000298023224),(4.5,3.75,0.),(4.5,3.75,-0.20000000298023224),(4.5,2.5,0.),(4.5,2.5,-0.20000000298023224),(4.5,1.25,0.),(4.5,1.25,-0.20000000298023224),(4.285714149475098,5.,0.),(4.285714149475098,5.,-0.20000000298023224),(4.285714149475098,0.,0.),(4.285714149475098,0.,-0.20000000298023224),(3.4285714626312256,5.,0.),(3.4285714626312256,5.,-0.20000000298023224),(3.4285714626312256,0.,0.),(3.4285714626312256,0.,-0.20000000298023224),(3.,3.75,0.),(3.,3.75,-0.20000000298023224),(3.,2.5,0.),(3.,2.5,-0.20000000298023224),(3.,1.25,0.),(3.,1.25,-0.20000000298023224),(2.5714285373687744,5.,0.),(2.5714285373687744,5.,-0.20000000298023224),(2.5714285373687744,0.,0.),(2.5714285373687744,0.,-0.20000000298023224),(1.7142857313156128,5.,0.),(1.7142857313156128,5.,-0.20000000298023224),(1.7142857313156128,0.,0.),(1.7142857313156128,0.,-0.20000000298023224),(1.5,3.75,0.),(1.5,3.75,-0.20000000298023224),(1.5,2.5,0.),(1.5,2.5,-0.20000000298023224),(1.5,1.25,0.),(1.5,1.25,-0.20000000298023224),(0.8571428656578064,5.,0.),(0.8571428656578064,5.,-0.20000000298023224),(0.8571428656578064,0.,0.),(0.8571428656578064,0.,-0.20000000298023224),(0.,5.,0.),(0.,5.,-0.20000000298023224),(0.,4.285714149475098,0.),(0.,4.285714149475098,-0.20000000298023224),(0.,3.5714285373687744,0.),(0.,3.5714285373687744,-0.20000000298023224),(0.,2.857142925262451,0.),(0.,2.857142925262451,-0.20000000298023224),(0.,2.142857074737549,0.),(0.,2.142857074737549,-0.20000000298023224),(0.,1.4285714626312256,0.),(0.,1.4285714626312256,-0.20000000298023224),(0.,0.7142857313156128,0.),(0.,0.7142857313156128,-0.20000000298023224),(0.,0.,0.),(0.,0.,-0.20000000298023224)),$);
#112=IFCPOLYGONALFACESET(#111,.T.,(#113,#114,#115,#116,#117,#118,#119,#120,#121,#122,#123,#124,#125,#126,#127,#128,#129,#130,#131,#132,#133,#134,#135,#136,#137,#138,#139,#140,#141,#142,#143,#144,#145,#146,#147,#148,#149,#150,#151,#152,#153,#154,#155,#156,#157,#158,#159,#160,#161,#162,#163,#164,#165,#166,#167,#168,#169,#170,#171,#172,#173,#174,#175,#176,#177,#178,#179,#180,#181,#182,#183,#184,#185,#186,#187,#188,#189,#190,#191,#192,#193,#194,#195,#196,#197,#198,#199,#200,#201,#202,#203,#204,#205,#206),$);
#113=IFCINDEXEDPOLYGONALFACE((74,58,57,73));
#114=IFCINDEXEDPOLYGONALFACE((44,43,47,48));
#115=IFCINDEXEDPOLYGONALFACE((58,48,47,57));
#116=IFCINDEXEDPOLYGONALFACE((43,44,34,33));
#117=IFCINDEXEDPOLYGONALFACE((30,29,33,34));
#118=IFCINDEXEDPOLYGONALFACE((16,15,19,20));
#119=IFCINDEXEDPOLYGONALFACE((20,19,29,30));
#120=IFCINDEXEDPOLYGONALFACE((16,14,13,15));
#121=IFCINDEXEDPOLYGONALFACE((12,10,9,11));
#122=IFCINDEXEDPOLYGONALFACE((14,12,11,13));
#123=IFCINDEXEDPOLYGONALFACE((7,9,10,8));
#124=IFCINDEXEDPOLYGONALFACE((6,5,7,8));
#125=IFCINDEXEDPOLYGONALFACE((2,1,3,4));
#126=IFCINDEXEDPOLYGONALFACE((4,3,5,6));
#127=IFCINDEXEDPOLYGONALFACE((18,17,1,2));
#128=IFCINDEXEDPOLYGONALFACE((28,32,31,27));
#129=IFCINDEXEDPOLYGONALFACE((28,27,17,18));
#130=IFCINDEXEDPOLYGONALFACE((32,42,41,31));
#131=IFCINDEXEDPOLYGONALFACE((46,45,41,42));
#132=IFCINDEXEDPOLYGONALFACE((60,59,55,56));
#133=IFCINDEXEDPOLYGONALFACE((56,55,45,46));
#134=IFCINDEXEDPOLYGONALFACE((62,61,59,60));
#135=IFCINDEXEDPOLYGONALFACE((64,66,65,63));
#136=IFCINDEXEDPOLYGONALFACE((64,63,61,62));
#137=IFCINDEXEDPOLYGONALFACE((67,65,66,68));
#138=IFCINDEXEDPOLYGONALFACE((70,69,67,68));
#139=IFCINDEXEDPOLYGONALFACE((74,73,71,72));
#140=IFCINDEXEDPOLYGONALFACE((72,71,69,70));
#141=IFCINDEXEDPOLYGONALFACE((22,24,38,36));
#142=IFCINDEXEDPOLYGONALFACE((24,26,40,38));
#143=IFCINDEXEDPOLYGONALFACE((38,40,54,52));
#144=IFCINDEXEDPOLYGONALFACE((36,38,52,50));
#145=IFCINDEXEDPOLYGONALFACE((72,58,74));
#146=IFCINDEXEDPOLYGONALFACE((54,44,48));
#147=IFCINDEXEDPOLYGONALFACE((48,58,54));
#148=IFCINDEXEDPOLYGONALFACE((54,72,70));
#149=IFCINDEXEDPOLYGONALFACE((52,54,70,68));
#150=IFCINDEXEDPOLYGONALFACE((66,52,68));
#151=IFCINDEXEDPOLYGONALFACE((40,44,54));
#152=IFCINDEXEDPOLYGONALFACE((58,72,54));
#153=IFCINDEXEDPOLYGONALFACE((30,34,40,26));
#154=IFCINDEXEDPOLYGONALFACE((14,16,20));
#155=IFCINDEXEDPOLYGONALFACE((20,30,26));
#156=IFCINDEXEDPOLYGONALFACE((20,26,14));
#157=IFCINDEXEDPOLYGONALFACE((26,12,14));
#158=IFCINDEXEDPOLYGONALFACE((26,10,12));
#159=IFCINDEXEDPOLYGONALFACE((10,26,24));
#160=IFCINDEXEDPOLYGONALFACE((40,34,44));
#161=IFCINDEXEDPOLYGONALFACE((66,64,50,52));
#162=IFCINDEXEDPOLYGONALFACE((36,50,46,42));
#163=IFCINDEXEDPOLYGONALFACE((50,64,62));
#164=IFCINDEXEDPOLYGONALFACE((56,62,60));
#165=IFCINDEXEDPOLYGONALFACE((56,46,50));
#166=IFCINDEXEDPOLYGONALFACE((56,50,62));
#167=IFCINDEXEDPOLYGONALFACE((32,36,42));
#168=IFCINDEXEDPOLYGONALFACE((24,22,6,8));
#169=IFCINDEXEDPOLYGONALFACE((6,22,4));
#170=IFCINDEXEDPOLYGONALFACE((10,24,8));
#171=IFCINDEXEDPOLYGONALFACE((28,18,22));
#172=IFCINDEXEDPOLYGONALFACE((2,4,18));
#173=IFCINDEXEDPOLYGONALFACE((18,4,22));
#174=IFCINDEXEDPOLYGONALFACE((32,28,22,36));
#175=IFCINDEXEDPOLYGONALFACE((21,35,37,23));
#176=IFCINDEXEDPOLYGONALFACE((35,49,51,37));
#177=IFCINDEXEDPOLYGONALFACE((37,51,53,39));
#178=IFCINDEXEDPOLYGONALFACE((23,37,39,25));
#179=IFCINDEXEDPOLYGONALFACE((57,71,73));
#180=IFCINDEXEDPOLYGONALFACE((67,69,53,51));
#181=IFCINDEXEDPOLYGONALFACE((69,71,53));
#182=IFCINDEXEDPOLYGONALFACE((53,57,47));
#183=IFCINDEXEDPOLYGONALFACE((39,53,47,43));
#184=IFCINDEXEDPOLYGONALFACE((33,39,43));
#185=IFCINDEXEDPOLYGONALFACE((71,57,53));
#186=IFCINDEXEDPOLYGONALFACE((63,65,51,49));
#187=IFCINDEXEDPOLYGONALFACE((55,59,61));
#188=IFCINDEXEDPOLYGONALFACE((61,63,49));
#189=IFCINDEXEDPOLYGONALFACE((61,49,55));
#190=IFCINDEXEDPOLYGONALFACE((49,45,55));
#191=IFCINDEXEDPOLYGONALFACE((41,45,49,35));
#192=IFCINDEXEDPOLYGONALFACE((51,65,67));
#193=IFCINDEXEDPOLYGONALFACE((33,29,25,39));
#194=IFCINDEXEDPOLYGONALFACE((23,25,11,9));
#195=IFCINDEXEDPOLYGONALFACE((25,29,19));
#196=IFCINDEXEDPOLYGONALFACE((13,19,15));
#197=IFCINDEXEDPOLYGONALFACE((13,11,25));
#198=IFCINDEXEDPOLYGONALFACE((13,25,19));
#199=IFCINDEXEDPOLYGONALFACE((7,23,9));
#200=IFCINDEXEDPOLYGONALFACE((35,21,27,31));
#201=IFCINDEXEDPOLYGONALFACE((27,21,17));
#202=IFCINDEXEDPOLYGONALFACE((41,35,31));
#203=IFCINDEXEDPOLYGONALFACE((5,3,21));
#204=IFCINDEXEDPOLYGONALFACE((1,17,3));
#205=IFCINDEXEDPOLYGONALFACE((3,17,21));
#206=IFCINDEXEDPOLYGONALFACE((7,5,21,23));
#207=IFCSHAPEREPRESENTATION(#31,'Body','Tessellation',(#112));
#208=IFCPRODUCTDEFINITIONSHAPE($,$,(#207));
#209=IFCWINDOW('2bwkZTGSfTNvnHe6skRN6H',$,'Window',$,$,#210,#265,$,$,$,$,$,$);
#210=IFCLOCALPLACEMENT(#19,#211);
#211=IFCAXIS2PLACEMENT3D(#212,$,$);
#212=IFCCARTESIANPOINT((0.,0.,0.));
#213=IFCMATERIALCONSTITUENTSET('Window W1',$,(#214,#222));
#214=IFCMATERIALCONSTITUENT('Frame',$,#215,0.15,$);
#215=IFCMATERIAL('Aluminium',$,'aluminium');
#216=IFCMATERIALDEFINITIONREPRESENTATION($,$,(#217),#215);
#217=IFCSTYLEDREPRESENTATION(#7,'Style','Material',(#218));
#218=IFCSTYLEDITEM($,(#221),$);
#219=IFCSURFACESTYLESHADING(#220,$);
#220=IFCCOLOURRGB($,0.7843137254901961,0.7843137254901961,0.803921568627451);
#221=IFCSURFACESTYLE('RGB(200, 200, 205)',.BOTH.,(#219));
#222=IFCMATERIALCONSTITUENT('Glazing',$,#223,0.85,$);
#223=IFCMATERIAL('Glass',$,'glass');
#224=IFCMATERIALDEFINITIONREPRESENTATION($,$,(#225),#223);
#225=IFCSTYLEDREPRESENTATION(#7,'Style','Material',(#226));
#226=IFCSTYLEDITEM($,(#229),$);
#227=IFCSURFACESTYLESHADING(#228,0.5294117647058824);
#228=IFCCOLOURRGB($,0.5882352941176471,0.7843137254901961,0.9019607843137255);
#229=IFCSURFACESTYLE('RGB(150, 200, 230) transparency 0.53',.BOTH.,(#227));
#230=IFCCARTESIANPOINTLIST3D(((2.0999999046325684,0.20000000298023224,2.0999999046325684),(2.0999999046325684,0.20000000298023224,1.7000000476837158),(2.0999999046325684,0.20000000298023224,1.2999999523162842),(2.0999999046325684,0.20000000298023224,0.8999999761581421),(2.0999999046325684,0.10000000149011612,2.0999999046325684),(2.0999999046325684,0.10000000149011612,1.7000000476837158),(2.0999999046325684,0.10000000149011612,1.2999999523162842),(2.0999999046325684,0.10000000149011612,0.8999999761581421),(1.7000000476837158,0.20000000298023224,2.0999999046325684),(1.7000000476837158,0.20000000298023224,0.8999999761581421),(1.7000000476837158,0.10000000149011612,2.0999999046325684),(1.7000000476837158,0.10000000149011612,0.8999999761581421),(1.2999999523162842,0.20000000298023224,2.0999999046325684),(1.2999999523162842,0.20000000298023224,0.8999999761581421),(1.2999999523162842,0.10000000149011612,2.0999999046325684),(1.2999999523162842,0.10000000149011612,0.8999999761581421),(0.8999999761581421,0.20000000298023224,2.0999999046325684),(0.8999999761581421,0.20000000298023224,1.7000000476837158),(0.8999999761581421,0.20000000298023224,1.2999999523162842),(0.8999999761581421,0.20000000298023224,0.8999999761581421),(0.8999999761581421,0.10000000149011612,2.0999999046325684),(0.8999999761581421,0.10000000149011612,1.7000000476837158),(0.8999999761581421,0.10000000149011612,1.2999999523162842),(0.8999999761581421,0.10000000149011612,0.8999999761581421)),$);
#231=IFCPOLYGONALFACESET(#230,.T.,(#232,#233,#234,#235,#236,#237,#238,#239,#240,#241,#242,#243,#244,#245,#246,#247,#248,#249,#250,#251,#252,#253,#254,#255,#256,#257,#258,#259,#260,#261,#262,#263),$);
#232=IFCINDEXEDPOLYGONALFACE((23,24,16));
#233=IFCINDEXEDPOLYGONALFACE((22,23,16));
#234=IFCINDEXEDPOLYGONALFACE((21,22,15));
#235=IFCINDEXEDPOLYGONALFACE((22,11,15));
#236=IFCINDEXEDPOLYGONALFACE((12,22,16));
#237=IFCINDEXEDPOLYGONALFACE((7,12,8));
#238=IFCINDEXEDPOLYGONALFACE((6,12,7));
#239=IFCINDEXEDPOLYGONALFACE((5,11,6));
#240=IFCINDEXEDPOLYGONALFACE((12,6,11));
#241=IFCINDEXEDPOLYGONALFACE((22,12,11));
#242=IFCINDEXEDPOLYGONALFACE((7,8,4,3));
#243=IFCINDEXEDPOLYGONALFACE((5,6,2,1));
#244=IFCINDEXEDPOLYGONALFACE((6,7,3,2));
#245=IFCINDEXEDPOLYGONALFACE((3,4,10));
#246=IFCINDEXEDPOLYGONALFACE((14,2,3));
#247=IFCINDEXEDPOLYGONALFACE((1,2,9));
#248=IFCINDEXEDPOLYGONALFACE((2,13,9));
#249=IFCINDEXEDPOLYGONALFACE((10,14,3));
#250=IFCINDEXEDPOLYGONALFACE((19,14,20));
#251=IFCINDEXEDPOLYGONALFACE((18,14,19));
#252=IFCINDEXEDPOLYGONALFACE((17,13,18));
#253=IFCINDEXEDPOLYGONALFACE((14,18,13));
#254=IFCINDEXEDPOLYGONALFACE((2,14,13));
#255=IFCINDEXEDPOLYGONALFACE((19,20,24,23));
#256=IFCINDEXEDPOLYGONALFACE((17,18,22,21));
#257=IFCINDEXEDPOLYGONALFACE((18,19,23,22));
#258=IFCINDEXEDPOLYGONALFACE((16,24,20,14));
#259=IFCINDEXEDPOLYGONALFACE((8,12,10,4));
#260=IFCINDEXEDPOLYGONALFACE((12,16,14,10));
#261=IFCINDEXEDPOLYGONALFACE((15,13,17,21));
#262=IFCINDEXEDPOLYGONALFACE((15,11,9,13));
#263=IFCINDEXEDPOLYGONALFACE((11,5,1,9));
#264=IFCSHAPEREPRESENTATION(#31,'Body','Tessellation',(#231));
#265=IFCPRODUCTDEFINITIONSHAPE($,$,(#264));
#266=IFCBEAM('2PyXk7mdjHau4Z_2ofjuK$',$,'Beam',$,$,#267,#415,$,$);
#267=IFCLOCALPLACEMENT(#19,#268);
#268=IFCAXIS2PLACEMENT3D(#269,$,$);
#269=IFCCARTESIANPOINT((0.,0.,0.));
#270=IFCBEAMTYPE('2DyaWv0HzQGf6ZLfp6U_I2',$,'HEA 200',$,$,$,$,$,$,.NOTDEFINED.);
#271=IFCMATERIAL('Steel S355',$,'steel');
#272=IFCMATERIALDEFINITIONREPRESENTATION($,$,(#273),#271);
#273=IFCSTYLEDREPRESENTATION(#7,'Style','Material',(#274));
#274=IFCSTYLEDITEM($,(#277),$);
#275=IFCSURFACESTYLESHADING(#276,$);
#276=IFCCOLOURRGB($,0.43137254901960786,0.45098039215686275,0.49019607843137253);
#277=IFCSURFACESTYLE('RGB(110, 115, 125)',.BOTH.,(#275));
#278=IFCCARTESIANPOINTLIST3D(((6.,2.5999999046325684,3.200000047683716),(6.,2.5999999046325684,3.0999999046325684),(6.,2.5999999046325684,3.),(6.,2.5,3.200000047683716),(6.,2.5,3.),(6.,2.4000000953674316,3.200000047683716),(6.,2.4000000953674316,3.0999999046325684),(6.,2.4000000953674316,3.),(5.699999809265137,2.5999999046325684,3.1500000953674316),(5.699999809265137,2.5999999046325684,3.0999999046325684),(5.699999809265137,2.5999999046325684,3.049999952316284),(5.699999809265137,2.549999952316284,3.200000047683716),(5.699999809265137,2.549999952316284,3.),(5.699999809265137,2.5,3.200000047683716),(5.699999809265137,2.5,3.),(5.699999809265137,2.450000047683716,3.200000047683716),(5.699999809265137,2.450000047683716,3.),(5.699999809265137,2.4000000953674316,3.1500000953674316),(5.699999809265137,2.4000000953674316,3.0999999046325684),(5.699999809265137,2.4000000953674316,3.049999952316284),(5.400000095367432,2.5999999046325684,3.1500000953674316),(5.400000095367432,2.5999999046325684,3.0999999046325684),(5.400000095367432,2.5999999046325684,3.049999952316284),(5.400000095367432,2.549999952316284,3.200000047683716),(5.400000095367432,2.549999952316284,3.),(5.400000095367432,2.5,3.200000047683716),(5.400000095367432,2.5,3.),(5.400000095367432,2.450000047683716,3.200000047683716),(5.400000095367432,2.450000047683716,3.),(5.400000095367432,2.4000000953674316,3.1500000953674316),(5.400000095367432,2.4000000953674316,3.0999999046325684),(5.400000095367432,2.4000000953674316,3.049999952316284),(5.142857074737549,2.5999999046325684,3.200000047683716),(5.142857074737549,2.5999999046325684,3.),(5.142857074737549,2.4000000953674316,3.200000047683716),(5.142857074737549,2.4000000953674316,3.),(4.285714149475098,2.5999999046325684,3.200000047683716),(4.285714149475098,2.5999999046325684,3.),(4.285714149475098,2.4000000953674316,3.200000047683716),(4.285714149475098,2.4000000953674316,3.),(3.4285714626312256,2.5999999046325684,3.200000047683716),(3.4285714626312256,2.5999999046325684,3.),(3.4285714626312256,2.4000000953674316,3.200000047683716),(3.4285714626312256,2.4000000953674316,3.),(2.5714285373687744,2.5999999046325684,3.200000047683716),(2.5714285373687744,2.5999999046325684,3.),(2.5714285373687744,2.4000000953674316,3.200000047683716),(2.5714285373687744,2.4000000953674316,3.),(1.7142857313156128,2.5999999046325684,3.200000047683716),(1.7142857313156128,2.5999999046325684,3.),(1.7142857313156128,2.4000000953674316,3.200000047683716),(1.7142857313156128,2.4000000953674316,3.),(0.8571428656578064,2.5999999046325684,3.200000047683716),(0.8571428656578064,2.5999999046325684,3.),(0.8571428656578064,2.4000000953674316,3.200000047683716),(0.8571428656578064,2.4000000953674316,3.),(0.6000000238418579,2.5999999046325684,3.1500000953674316),(0.6000000238418579,2.5999999046325684,3.0999999046325684),(0.6000000238418579,2.5999999046325684,3.049999952316284),(0.6000000238418579,2.549999952316284,3.200000047683716),(0.6000000238418579,2.549999952316284,3.),(0.6000000238418579,2.5,3.200000047683716),(0.6000000238418579,2.5,3.),(0.6000000238418579,2.450000047683716,3.200000047683716),(0.6000000238418579,2.450000047683716,3.),(0.6000000238418579,2.4000000953674316,3.1500000953674316),(0.6000000238418579,2.4000000953674316,3.0999999046325684),(0.6000000238418579,2.4000000953674316,3.049999952316284),(0.30000001192092896,2.5999999046325684,3.1500000953674316),(0.30000001192092896,2.5999999046325684,3.0999999046325684),(0.30000001192092896,2.5999999046325684,3.049999952316284),(0.30000001192092896,2.549999952316284,3.200000047683716),(0.30000001192092896,2.549999952316284,3.),(0.30000001192092896,2.5,3.200000047683716),(0.30000001192092896,2.5,3.),(0.30000001192092896,2.450000047683716,3.200000047683716),(0.30000001192092896,2.450000047683716,3.),(0.30000001192092896,2.4000000953674316,3.1500000953674316),(0.30000001192092896,2.4000000953674316,3.0999999046325684),(0.30000001192092896,2.4000000953674316,3.049999952316284),(0.,2.5999999046325684,3.200000047683716),(0.,2.5999999046325684,3.0999999046325684),(0.,2.5999999046325684,3.),(0.,2.5,3.200000047683716),(0.,2.5,3.),(0.,2.4000000953674316,3.200000047683716),(0.,2.4000000953674316,3.0999999046325684),(0.,2.4000000953674316,3.)),$);
#279=IFCPOLYGONALFACESET(#278,.T.,(#280,#281,#282,#283,#284,#285,#286,#287,#288,#289,#290,#291,#292,#293,#294,#295,#296,#297,#298,#299,#300,#301,#302,#303,#304,#305,#306,#307,#308,#309,#310,#311,#312,#313,#314,#315,#316,#317,#318,#319,#320,#321,#322,#323,#324,#325,#326,#327,#328,#329,#330,#331,#332,#333,#334,#335,#336,#337,#338,#339,#340,#341,#342,#343,#344,#345,#346,#347,#348,#349,#350,#351,#352,#353,#354,#355,#356,#357,#358,#359,#360,#361,#362,#363,#364,#365,#366,#367,#368,#369,#370,#371,#372,#373,#374,#375,#376,#377,#378,#379,#380,#381,#382,#383,#384,#385,#386,#387,#388,#389,#390,#391,#392,#393,#394,#395,#396,#397,#398,#399,#400,#401,#402,#403,#404,#405,#406,#407,#408,#409,#410,#411,#412,#413),$);
#280=IFCINDEXEDPOLYGONALFACE((66,78,79,67));
#281=IFCINDEXEDPOLYGONALFACE((67,79,80,68));
#282=IFCINDEXEDPOLYGONALFACE((18,30,31,19));
#283=IFCINDEXEDPOLYGONALFACE((19,31,32,20));
#284=IFCINDEXEDPOLYGONALFACE((87,88,80));
#285=IFCINDEXEDPOLYGONALFACE((88,56,68,80));
#286=IFCINDEXEDPOLYGONALFACE((80,79,87));
#287=IFCINDEXEDPOLYGONALFACE((67,68,56));
#288=IFCINDEXEDPOLYGONALFACE((67,56,52));
#289=IFCINDEXEDPOLYGONALFACE((52,48,47,51));
#290=IFCINDEXEDPOLYGONALFACE((55,86,78,66));
#291=IFCINDEXEDPOLYGONALFACE((86,87,79,78));
#292=IFCINDEXEDPOLYGONALFACE((55,66,67));
#293=IFCINDEXEDPOLYGONALFACE((51,55,67));
#294=IFCINDEXEDPOLYGONALFACE((67,52,51));
#295=IFCINDEXEDPOLYGONALFACE((48,44,43,47));
#296=IFCINDEXEDPOLYGONALFACE((40,39,43,44));
#297=IFCINDEXEDPOLYGONALFACE((31,40,36));
#298=IFCINDEXEDPOLYGONALFACE((32,36,20));
#299=IFCINDEXEDPOLYGONALFACE((8,20,36));
#300=IFCINDEXEDPOLYGONALFACE((20,8,7));
#301=IFCINDEXEDPOLYGONALFACE((36,32,31));
#302=IFCINDEXEDPOLYGONALFACE((31,39,40));
#303=IFCINDEXEDPOLYGONALFACE((31,30,35));
#304=IFCINDEXEDPOLYGONALFACE((35,39,31));
#305=IFCINDEXEDPOLYGONALFACE((35,30,18));
#306=IFCINDEXEDPOLYGONALFACE((18,19,7));
#307=IFCINDEXEDPOLYGONALFACE((20,7,19));
#308=IFCINDEXEDPOLYGONALFACE((35,18,6));
#309=IFCINDEXEDPOLYGONALFACE((7,6,18));
#310=IFCINDEXEDPOLYGONALFACE((7,8,5));
#311=IFCINDEXEDPOLYGONALFACE((7,4,6));
#312=IFCINDEXEDPOLYGONALFACE((2,7,5));
#313=IFCINDEXEDPOLYGONALFACE((7,2,4));
#314=IFCINDEXEDPOLYGONALFACE((2,1,4));
#315=IFCINDEXEDPOLYGONALFACE((3,2,5));
#316=IFCINDEXEDPOLYGONALFACE((21,9,10,22));
#317=IFCINDEXEDPOLYGONALFACE((22,10,11,23));
#318=IFCINDEXEDPOLYGONALFACE((69,57,58,70));
#319=IFCINDEXEDPOLYGONALFACE((70,58,59,71));
#320=IFCINDEXEDPOLYGONALFACE((2,3,11));
#321=IFCINDEXEDPOLYGONALFACE((3,34,23,11));
#322=IFCINDEXEDPOLYGONALFACE((11,10,2));
#323=IFCINDEXEDPOLYGONALFACE((22,23,34));
#324=IFCINDEXEDPOLYGONALFACE((22,34,38));
#325=IFCINDEXEDPOLYGONALFACE((38,42,41,37));
#326=IFCINDEXEDPOLYGONALFACE((33,1,9,21));
#327=IFCINDEXEDPOLYGONALFACE((1,2,10,9));
#328=IFCINDEXEDPOLYGONALFACE((33,21,22));
#329=IFCINDEXEDPOLYGONALFACE((37,33,22));
#330=IFCINDEXEDPOLYGONALFACE((22,38,37));
#331=IFCINDEXEDPOLYGONALFACE((42,46,45,41));
#332=IFCINDEXEDPOLYGONALFACE((50,49,45,46));
#333=IFCINDEXEDPOLYGONALFACE((58,50,54));
#334=IFCINDEXEDPOLYGONALFACE((59,54,71));
#335=IFCINDEXEDPOLYGONALFACE((83,71,54));
#336=IFCINDEXEDPOLYGONALFACE((71,83,82));
#337=IFCINDEXEDPOLYGONALFACE((54,59,58));
#338=IFCINDEXEDPOLYGONALFACE((58,49,50));
#339=IFCINDEXEDPOLYGONALFACE((58,57,53));
#340=IFCINDEXEDPOLYGONALFACE((53,49,58));
#341=IFCINDEXEDPOLYGONALFACE((53,57,69));
#342=IFCINDEXEDPOLYGONALFACE((69,70,82));
#343=IFCINDEXEDPOLYGONALFACE((71,82,70));
#344=IFCINDEXEDPOLYGONALFACE((53,69,81));
#345=IFCINDEXEDPOLYGONALFACE((82,81,69));
#346=IFCINDEXEDPOLYGONALFACE((82,83,85));
#347=IFCINDEXEDPOLYGONALFACE((82,84,81));
#348=IFCINDEXEDPOLYGONALFACE((87,82,85));
#349=IFCINDEXEDPOLYGONALFACE((82,87,84));
#350=IFCINDEXEDPOLYGONALFACE((87,86,84));
#351=IFCINDEXEDPOLYGONALFACE((88,87,85));
#352=IFCINDEXEDPOLYGONALFACE((63,65,77,75));
#353=IFCINDEXEDPOLYGONALFACE((61,63,75,73));
#354=IFCINDEXEDPOLYGONALFACE((13,15,27,25));
#355=IFCINDEXEDPOLYGONALFACE((15,17,29,27));
#356=IFCINDEXEDPOLYGONALFACE((56,88,77,65));
#357=IFCINDEXEDPOLYGONALFACE((85,77,88));
#358=IFCINDEXEDPOLYGONALFACE((73,75,85));
#359=IFCINDEXEDPOLYGONALFACE((56,65,63));
#360=IFCINDEXEDPOLYGONALFACE((85,75,77));
#361=IFCINDEXEDPOLYGONALFACE((52,56,63));
#362=IFCINDEXEDPOLYGONALFACE((48,52,50,46));
#363=IFCINDEXEDPOLYGONALFACE((40,27,36));
#364=IFCINDEXEDPOLYGONALFACE((44,48,46,42));
#365=IFCINDEXEDPOLYGONALFACE((17,36,29));
#366=IFCINDEXEDPOLYGONALFACE((36,27,29));
#367=IFCINDEXEDPOLYGONALFACE((5,8,17));
#368=IFCINDEXEDPOLYGONALFACE((36,17,8));
#369=IFCINDEXEDPOLYGONALFACE((40,44,42,38));
#370=IFCINDEXEDPOLYGONALFACE((50,52,63));
#371=IFCINDEXEDPOLYGONALFACE((54,61,73));
#372=IFCINDEXEDPOLYGONALFACE((85,83,73));
#373=IFCINDEXEDPOLYGONALFACE((83,54,73));
#374=IFCINDEXEDPOLYGONALFACE((63,61,54));
#375=IFCINDEXEDPOLYGONALFACE((54,50,63));
#376=IFCINDEXEDPOLYGONALFACE((34,25,27));
#377=IFCINDEXEDPOLYGONALFACE((17,15,5));
#378=IFCINDEXEDPOLYGONALFACE((15,13,5));
#379=IFCINDEXEDPOLYGONALFACE((25,34,13));
#380=IFCINDEXEDPOLYGONALFACE((5,13,3));
#381=IFCINDEXEDPOLYGONALFACE((34,3,13));
#382=IFCINDEXEDPOLYGONALFACE((38,34,27));
#383=IFCINDEXEDPOLYGONALFACE((27,40,38));
#384=IFCINDEXEDPOLYGONALFACE((60,72,74,62));
#385=IFCINDEXEDPOLYGONALFACE((62,74,76,64));
#386=IFCINDEXEDPOLYGONALFACE((12,24,26,14));
#387=IFCINDEXEDPOLYGONALFACE((14,26,28,16));
#388=IFCINDEXEDPOLYGONALFACE((84,86,76));
#389=IFCINDEXEDPOLYGONALFACE((86,55,64,76));
#390=IFCINDEXEDPOLYGONALFACE((76,74,84));
#391=IFCINDEXEDPOLYGONALFACE((62,64,55));
#392=IFCINDEXEDPOLYGONALFACE((62,55,51));
#393=IFCINDEXEDPOLYGONALFACE((51,47,45,49));
#394=IFCINDEXEDPOLYGONALFACE((53,81,72,60));
#395=IFCINDEXEDPOLYGONALFACE((81,84,74,72));
#396=IFCINDEXEDPOLYGONALFACE((53,60,62));
#397=IFCINDEXEDPOLYGONALFACE((49,53,62));
#398=IFCINDEXEDPOLYGONALFACE((62,51,49));
#399=IFCINDEXEDPOLYGONALFACE((47,43,41,45));
#400=IFCINDEXEDPOLYGONALFACE((39,37,41,43));
#401=IFCINDEXEDPOLYGONALFACE((26,39,35));
#402=IFCINDEXEDPOLYGONALFACE((28,35,16));
#403=IFCINDEXEDPOLYGONALFACE((6,16,35));
#404=IFCINDEXEDPOLYGONALFACE((16,6,4));
#405=IFCINDEXEDPOLYGONALFACE((35,28,26));
#406=IFCINDEXEDPOLYGONALFACE((26,37,39));
#407=IFCINDEXEDPOLYGONALFACE((26,24,33));
#408=IFCINDEXEDPOLYGONALFACE((33,37,26));
#409=IFCINDEXEDPOLYGONALFACE((33,24,12));
#410=IFCINDEXEDPOLYGONALFACE((12,14,4));
#411=IFCINDEXEDPOLYGONALFACE((16,4,14));
#412=IFCINDEXEDPOLYGONALFACE((33,12,1));
#413=IFCINDEXEDPOLYGONALFACE((4,1,12));
#414=IFCSHAPEREPRESENTATION(#31,'Body','Tessellation',(#279));
#415=IFCPRODUCTDEFINITIONSHAPE($,$,(#414));
#416=IFCRELCONTAINEDINSPATIALSTRUCTURE('2YD9kNfebMU9wCwH58_pXC',$,$,$,(#22,#107,#209,#266),#18);
#417=IFCRELAGGREGATES('2J9wIK4EDKJf$36uLUlV_d',$,$,$,#14,(#18));
#418=IFCRELAGGREGATES('2KTHxrY8TTQutqTqxpLQHV',$,$,$,#10,(#14));
#419=IFCRELAGGREGATES('1fsAmqVFzSuvhfgq9G9BB9',$,$,$,#1,(#10));
#420=IFCRELDEFINESBYTYPE('3rgNUE2UzL_PXVl1MIPBc2',$,$,$,(#266),#270);
#421=IFCRELASSOCIATESMATERIAL('2HrOoC43rNVOVmwHEKQQHx',$,$,$,(#22),#54);
#422=IFCRELASSOCIATESMATERIAL('0$fPMryDDLjAw5XlMDpsb5',$,$,$,(#107),#45);
#423=IFCRELASSOCIATESMATERIAL('2CdrVJQ29IjPBNhCnqnBrE',$,$,$,(#209),#213);
#424=IFCRELASSOCIATESMATERIAL('2L0h8Ar21KzglDMtg7Ki3z',$,$,$,(#270),#271);
ENDSEC;
END-ISO-10303-21;
