ISO-10303-21;
HEADER;
FILE_DESCRIPTION ((''), '2;1');
FILE_NAME ('09 Property and quantity sets.ifc', '2026-10-09T14:44:28', (''), (''), 'xbim Toolkit v6.1.605.0', 'IfcHopper', '');
FILE_SCHEMA (('IFC4X3_ADD2'));
ENDSEC;
DATA;
#1=IFCPROJECT('0mp2mtGH9Mcuk3$tE2y1OD',$,'Property and quantity sets',$,$,$,$,(#7),#2);
#2=IFCUNITASSIGNMENT((#3,#4,#5,#6));
#3=IFCSIUNIT(*,.LENGTHUNIT.,$,.METRE.);
#4=IFCSIUNIT(*,.AREAUNIT.,$,.SQUARE_METRE.);
#5=IFCSIUNIT(*,.VOLUMEUNIT.,$,.CUBIC_METRE.);
#6=IFCSIUNIT(*,.PLANEANGLEUNIT.,$,.RADIAN.);
#7=IFCGEOMETRICREPRESENTATIONCONTEXT($,'Model',3,1.E-05,#8,$);
#8=IFCAXIS2PLACEMENT3D(#9,$,$);
#9=IFCCARTESIANPOINT((0.,0.,0.));
#10=IFCSITE('2d5a5mNzXVaRTHjC9No7iP',$,'Hopper Site',$,$,#11,$,$,.ELEMENT.,$,$,$,$,$);
#11=IFCLOCALPLACEMENT($,#12);
#12=IFCAXIS2PLACEMENT3D(#13,$,$);
#13=IFCCARTESIANPOINT((0.,0.,0.));
#14=IFCBUILDING('1bZEz3P2DK99lt4UCzPwZ9',$,'Hopper Building',$,$,#15,$,$,.ELEMENT.,$,$,$);
#15=IFCLOCALPLACEMENT(#11,#16);
#16=IFCAXIS2PLACEMENT3D(#17,$,$);
#17=IFCCARTESIANPOINT((0.,0.,0.));
#18=IFCBUILDINGSTOREY('2W8WSSdZnPSAcxi7k_CPiZ',$,'Ground floor',$,$,#19,$,$,.ELEMENT.,0.);
#19=IFCLOCALPLACEMENT(#15,#20);
#20=IFCAXIS2PLACEMENT3D(#21,$,$);
#21=IFCCARTESIANPOINT((0.,0.,0.));
#22=IFCWALL('2sUXiFrY1HVvIWQv8fMDRW',$,'Wall',$,$,#23,#103,$,$);
#23=IFCLOCALPLACEMENT(#19,#24);
#24=IFCAXIS2PLACEMENT3D(#25,$,$);
#25=IFCCARTESIANPOINT((0.,0.,0.));
#26=IFCCARTESIANPOINTLIST3D(((6.,0.20000000298023224,3.),(6.,0.20000000298023224,2.25),(6.,0.20000000298023224,1.5),(6.,0.20000000298023224,0.75),(6.,0.20000000298023224,0.),(6.,0.,3.),(6.,0.,2.25),(6.,0.,1.5),(6.,0.,0.75),(6.,0.,0.),(5.142857074737549,0.20000000298023224,3.),(5.142857074737549,0.20000000298023224,0.),(5.142857074737549,0.,3.),(5.142857074737549,0.,0.),(4.5,0.20000000298023224,2.25),(4.5,0.20000000298023224,1.5),(4.5,0.20000000298023224,0.75),(4.5,0.,2.25),(4.5,0.,1.5),(4.5,0.,0.75),(4.285714149475098,0.20000000298023224,3.),(4.285714149475098,0.20000000298023224,0.),(4.285714149475098,0.,3.),(4.285714149475098,0.,0.),(3.4285714626312256,0.20000000298023224,3.),(3.4285714626312256,0.20000000298023224,0.),(3.4285714626312256,0.,3.),(3.4285714626312256,0.,0.),(3.,0.20000000298023224,2.25),(3.,0.20000000298023224,1.5),(3.,0.20000000298023224,0.75),(3.,0.,2.25),(3.,0.,1.5),(3.,0.,0.75),(2.5714285373687744,0.20000000298023224,3.),(2.5714285373687744,0.20000000298023224,0.),(2.5714285373687744,0.,3.),(2.5714285373687744,0.,0.),(1.7142857313156128,0.20000000298023224,3.),(1.7142857313156128,0.20000000298023224,0.),(1.7142857313156128,0.,3.),(1.7142857313156128,0.,0.),(1.5,0.20000000298023224,2.25),(1.5,0.20000000298023224,1.5),(1.5,0.20000000298023224,0.75),(1.5,0.,2.25),(1.5,0.,1.5),(1.5,0.,0.75),(0.8571428656578064,0.20000000298023224,3.),(0.8571428656578064,0.20000000298023224,0.),(0.8571428656578064,0.,3.),(0.8571428656578064,0.,0.),(0.,0.20000000298023224,3.),(0.,0.20000000298023224,2.25),(0.,0.20000000298023224,1.5),(0.,0.20000000298023224,0.75),(0.,0.20000000298023224,0.),(0.,0.,3.),(0.,0.,2.25),(0.,0.,1.5),(0.,0.,0.75),(0.,0.,0.)),$);
#27=IFCPOLYGONALFACESET(#26,.T.,(#28,#29,#30,#31,#32,#33,#34,#35,#36,#37,#38,#39,#40,#41,#42,#43,#44,#45,#46,#47,#48,#49,#50,#51,#52,#53,#54,#55,#56,#57,#58,#59,#60,#61,#62,#63,#64,#65,#66,#67,#68,#69,#70,#71,#72,#73,#74,#75,#76,#77,#78,#79,#80,#81,#82,#83,#84,#85,#86,#87,#88,#89,#90,#91,#92,#93,#94,#95,#96,#97,#98,#99,#100),$);
#28=IFCINDEXEDPOLYGONALFACE((18,32,33,19));
#29=IFCINDEXEDPOLYGONALFACE((32,46,47,33));
#30=IFCINDEXEDPOLYGONALFACE((33,47,48,34));
#31=IFCINDEXEDPOLYGONALFACE((19,33,34,20));
#32=IFCINDEXEDPOLYGONALFACE((61,62,52));
#33=IFCINDEXEDPOLYGONALFACE((48,61,52));
#34=IFCINDEXEDPOLYGONALFACE((48,42,38));
#35=IFCINDEXEDPOLYGONALFACE((38,34,48));
#36=IFCINDEXEDPOLYGONALFACE((34,38,28));
#37=IFCINDEXEDPOLYGONALFACE((52,42,48));
#38=IFCINDEXEDPOLYGONALFACE((48,47,60,61));
#39=IFCINDEXEDPOLYGONALFACE((59,46,51,58));
#40=IFCINDEXEDPOLYGONALFACE((59,60,47,46));
#41=IFCINDEXEDPOLYGONALFACE((46,37,41));
#42=IFCINDEXEDPOLYGONALFACE((37,46,32));
#43=IFCINDEXEDPOLYGONALFACE((51,46,41));
#44=IFCINDEXEDPOLYGONALFACE((28,24,20,34));
#45=IFCINDEXEDPOLYGONALFACE((14,20,24));
#46=IFCINDEXEDPOLYGONALFACE((9,14,10));
#47=IFCINDEXEDPOLYGONALFACE((9,8,19,20));
#48=IFCINDEXEDPOLYGONALFACE((14,9,20));
#49=IFCINDEXEDPOLYGONALFACE((32,18,23,27));
#50=IFCINDEXEDPOLYGONALFACE((23,18,13));
#51=IFCINDEXEDPOLYGONALFACE((37,32,27));
#52=IFCINDEXEDPOLYGONALFACE((18,7,6,13));
#53=IFCINDEXEDPOLYGONALFACE((8,7,18,19));
#54=IFCINDEXEDPOLYGONALFACE((9,10,5,4));
#55=IFCINDEXEDPOLYGONALFACE((7,8,3,2));
#56=IFCINDEXEDPOLYGONALFACE((6,7,2,1));
#57=IFCINDEXEDPOLYGONALFACE((8,9,4,3));
#58=IFCINDEXEDPOLYGONALFACE((43,29,30,44));
#59=IFCINDEXEDPOLYGONALFACE((29,15,16,30));
#60=IFCINDEXEDPOLYGONALFACE((30,16,17,31));
#61=IFCINDEXEDPOLYGONALFACE((44,30,31,45));
#62=IFCINDEXEDPOLYGONALFACE((4,5,12));
#63=IFCINDEXEDPOLYGONALFACE((17,4,12));
#64=IFCINDEXEDPOLYGONALFACE((17,22,26));
#65=IFCINDEXEDPOLYGONALFACE((26,31,17));
#66=IFCINDEXEDPOLYGONALFACE((31,26,36));
#67=IFCINDEXEDPOLYGONALFACE((12,22,17));
#68=IFCINDEXEDPOLYGONALFACE((17,16,3,4));
#69=IFCINDEXEDPOLYGONALFACE((2,15,11,1));
#70=IFCINDEXEDPOLYGONALFACE((2,3,16,15));
#71=IFCINDEXEDPOLYGONALFACE((25,21,15,29));
#72=IFCINDEXEDPOLYGONALFACE((11,15,21));
#73=IFCINDEXEDPOLYGONALFACE((36,40,45,31));
#74=IFCINDEXEDPOLYGONALFACE((50,45,40));
#75=IFCINDEXEDPOLYGONALFACE((56,50,57));
#76=IFCINDEXEDPOLYGONALFACE((56,55,44,45));
#77=IFCINDEXEDPOLYGONALFACE((50,56,45));
#78=IFCINDEXEDPOLYGONALFACE((29,43,39,35));
#79=IFCINDEXEDPOLYGONALFACE((39,43,49));
#80=IFCINDEXEDPOLYGONALFACE((25,29,35));
#81=IFCINDEXEDPOLYGONALFACE((43,54,53,49));
#82=IFCINDEXEDPOLYGONALFACE((55,54,43,44));
#83=IFCINDEXEDPOLYGONALFACE((56,57,62,61));
#84=IFCINDEXEDPOLYGONALFACE((54,55,60,59));
#85=IFCINDEXEDPOLYGONALFACE((53,54,59,58));
#86=IFCINDEXEDPOLYGONALFACE((55,56,61,60));
#87=IFCINDEXEDPOLYGONALFACE((52,62,57,50));
#88=IFCINDEXEDPOLYGONALFACE((38,42,40,36));
#89=IFCINDEXEDPOLYGONALFACE((42,52,50,40));
#90=IFCINDEXEDPOLYGONALFACE((24,28,26,22));
#91=IFCINDEXEDPOLYGONALFACE((10,14,12,5));
#92=IFCINDEXEDPOLYGONALFACE((14,24,22,12));
#93=IFCINDEXEDPOLYGONALFACE((28,38,36,26));
#94=IFCINDEXEDPOLYGONALFACE((58,51,49,53));
#95=IFCINDEXEDPOLYGONALFACE((41,37,35,39));
#96=IFCINDEXEDPOLYGONALFACE((51,41,39,49));
#97=IFCINDEXEDPOLYGONALFACE((37,27,25,35));
#98=IFCINDEXEDPOLYGONALFACE((23,21,25,27));
#99=IFCINDEXEDPOLYGONALFACE((13,6,1,11));
#100=IFCINDEXEDPOLYGONALFACE((23,13,11,21));
#101=IFCSHAPEREPRESENTATION(#102,'Body','Tessellation',(#27));
#102=IFCGEOMETRICREPRESENTATIONSUBCONTEXT('Body','Model',*,*,*,*,#7,$,.MODEL_VIEW.,$);
#103=IFCPRODUCTDEFINITIONSHAPE($,$,(#101));
#104=IFCPROPERTYSET('3ebx9Uwn1RYPFEUfmULPTd',$,'Pset_WallCommon',$,(#105,#106,#107,#108));
#105=IFCPROPERTYSINGLEVALUE('IsExternal',$,IFCBOOLEAN(.T.),$);
#106=IFCPROPERTYSINGLEVALUE('FireRating',$,IFCLABEL('REI 60'),$);
#107=IFCPROPERTYSINGLEVALUE('ThermalTransmittance',$,IFCTHERMALTRANSMITTANCEMEASURE(0.25),$);
#108=IFCPROPERTYENUMERATEDVALUE('Status',$,(IFCLABEL('NEW')),$);
#109=IFCRELDEFINESBYPROPERTIES('07K4fkIqHPjQGPs9JNVY_B',$,$,$,(#22),#104);
#110=IFCPROPERTYSET('0D9Odb4i9Lnx8F2XabyNuE',$,'Project_Data',$,(#111,#112,#113));
#111=IFCPROPERTYSINGLEVALUE('Supplier',$,IFCLABEL('ACME'),$);
#112=IFCPROPERTYSINGLEVALUE('Batch',$,IFCINTEGER(3),$);
#113=IFCPROPERTYBOUNDEDVALUE('Tolerance',$,IFCREAL(0.005),IFCREAL(-0.005),$,$);
#114=IFCRELDEFINESBYPROPERTIES('1D6IPHiFfHSQRRkyL1bape',$,$,$,(#22),#110);
#115=IFCELEMENTQUANTITY('1fzuU8fEfLPwvzYWQM4fRS',$,'Qto_WallBaseQuantities',$,'BaseQuantities',(#116,#117,#118,#119,#120));
#116=IFCQUANTITYLENGTH('Length',$,$,6.,$);
#117=IFCQUANTITYLENGTH('Height',$,$,3.,$);
#118=IFCQUANTITYLENGTH('Width',$,$,0.2,$);
#119=IFCQUANTITYAREA('NetSideArea',$,$,18.,$);
#120=IFCQUANTITYVOLUME('NetVolume',$,$,3.6,$);
#121=IFCRELDEFINESBYPROPERTIES('2kztNHrZjVtfw3vnHZjmuq',$,$,$,(#22),#115);
#122=IFCRELCONTAINEDINSPATIALSTRUCTURE('1$3mMSgzbSf9xI$yG9G6kh',$,$,$,(#22),#18);
#123=IFCRELAGGREGATES('0HFqqfS3jGZBEo262Da5Gj',$,$,$,#14,(#18));
#124=IFCRELAGGREGATES('0mO7LcuB9N4gKNBsxktsyD',$,$,$,#10,(#14));
#125=IFCRELAGGREGATES('3EfONB_b5PhPWNhVZtuijc',$,$,$,#1,(#10));
ENDSEC;
END-ISO-10303-21;
