ISO-10303-21;
HEADER;
FILE_DESCRIPTION ((''), '2;1');
FILE_NAME ('10 Classification.ifc', '2026-10-09T14:44:28', (''), (''), 'xbim Toolkit v6.1.605.0', 'IfcHopper', '');
FILE_SCHEMA (('IFC4X3_ADD2'));
ENDSEC;
DATA;
#1=IFCPROJECT('00vR5olnPQjPRjlcCmI8r6',$,'Classification',$,$,$,$,(#7),#2);
#2=IFCUNITASSIGNMENT((#3,#4,#5,#6));
#3=IFCSIUNIT(*,.LENGTHUNIT.,$,.METRE.);
#4=IFCSIUNIT(*,.AREAUNIT.,$,.SQUARE_METRE.);
#5=IFCSIUNIT(*,.VOLUMEUNIT.,$,.CUBIC_METRE.);
#6=IFCSIUNIT(*,.PLANEANGLEUNIT.,$,.RADIAN.);
#7=IFCGEOMETRICREPRESENTATIONCONTEXT($,'Model',3,1.E-05,#8,$);
#8=IFCAXIS2PLACEMENT3D(#9,$,$);
#9=IFCCARTESIANPOINT((0.,0.,0.));
#10=IFCSITE('01imXVTyzVGA$3EAcIFARk',$,'Hopper Site',$,$,#11,$,$,.ELEMENT.,$,$,$,$,$);
#11=IFCLOCALPLACEMENT($,#12);
#12=IFCAXIS2PLACEMENT3D(#13,$,$);
#13=IFCCARTESIANPOINT((0.,0.,0.));
#14=IFCBUILDING('3XIyvSzfXSlRPnaVjRNv67',$,'Hopper Building',$,$,#15,$,$,.ELEMENT.,$,$,$);
#15=IFCLOCALPLACEMENT(#11,#16);
#16=IFCAXIS2PLACEMENT3D(#17,$,$);
#17=IFCCARTESIANPOINT((0.,0.,0.));
#18=IFCBUILDINGSTOREY('0OLeR7MvLGSuPIaerUzv1X',$,'Ground floor',$,$,#19,$,$,.ELEMENT.,0.);
#19=IFCLOCALPLACEMENT(#15,#20);
#20=IFCAXIS2PLACEMENT3D(#21,$,$);
#21=IFCCARTESIANPOINT((0.,0.,0.));
#22=IFCWALL('3WJ0LzZ$DHMg18$SHseGUW',$,'Wall',$,$,#23,#108,$,$);
#23=IFCLOCALPLACEMENT(#19,#24);
#24=IFCAXIS2PLACEMENT3D(#25,$,$);
#25=IFCCARTESIANPOINT((0.,0.,0.));
#26=IFCWALLTYPE('3HQm1YxqvTP99tOAiKiSZe',$,'Concrete wall 200',$,$,$,$,$,$,.NOTDEFINED.);
#27=IFCCLASSIFICATIONREFERENCE($,'Pr_20_93','Wall and barrier units',#28,$,$);
#28=IFCCLASSIFICATION($,'v1.30',$,'Uniclass 2015',$,$,$);
#29=IFCCLASSIFICATIONREFERENCE($,'23-13 35 11','Walls',#30,$,$);
#30=IFCCLASSIFICATION($,'2012',$,'OmniClass',$,$,$);
#31=IFCCARTESIANPOINTLIST3D(((6.,0.20000000298023224,3.),(6.,0.20000000298023224,2.25),(6.,0.20000000298023224,1.5),(6.,0.20000000298023224,0.75),(6.,0.20000000298023224,0.),(6.,0.,3.),(6.,0.,2.25),(6.,0.,1.5),(6.,0.,0.75),(6.,0.,0.),(5.142857074737549,0.20000000298023224,3.),(5.142857074737549,0.20000000298023224,0.),(5.142857074737549,0.,3.),(5.142857074737549,0.,0.),(4.5,0.20000000298023224,2.25),(4.5,0.20000000298023224,1.5),(4.5,0.20000000298023224,0.75),(4.5,0.,2.25),(4.5,0.,1.5),(4.5,0.,0.75),(4.285714149475098,0.20000000298023224,3.),(4.285714149475098,0.20000000298023224,0.),(4.285714149475098,0.,3.),(4.285714149475098,0.,0.),(3.4285714626312256,0.20000000298023224,3.),(3.4285714626312256,0.20000000298023224,0.),(3.4285714626312256,0.,3.),(3.4285714626312256,0.,0.),(3.,0.20000000298023224,2.25),(3.,0.20000000298023224,1.5),(3.,0.20000000298023224,0.75),(3.,0.,2.25),(3.,0.,1.5),(3.,0.,0.75),(2.5714285373687744,0.20000000298023224,3.),(2.5714285373687744,0.20000000298023224,0.),(2.5714285373687744,0.,3.),(2.5714285373687744,0.,0.),(1.7142857313156128,0.20000000298023224,3.),(1.7142857313156128,0.20000000298023224,0.),(1.7142857313156128,0.,3.),(1.7142857313156128,0.,0.),(1.5,0.20000000298023224,2.25),(1.5,0.20000000298023224,1.5),(1.5,0.20000000298023224,0.75),(1.5,0.,2.25),(1.5,0.,1.5),(1.5,0.,0.75),(0.8571428656578064,0.20000000298023224,3.),(0.8571428656578064,0.20000000298023224,0.),(0.8571428656578064,0.,3.),(0.8571428656578064,0.,0.),(0.,0.20000000298023224,3.),(0.,0.20000000298023224,2.25),(0.,0.20000000298023224,1.5),(0.,0.20000000298023224,0.75),(0.,0.20000000298023224,0.),(0.,0.,3.),(0.,0.,2.25),(0.,0.,1.5),(0.,0.,0.75),(0.,0.,0.)),$);
#32=IFCPOLYGONALFACESET(#31,.T.,(#33,#34,#35,#36,#37,#38,#39,#40,#41,#42,#43,#44,#45,#46,#47,#48,#49,#50,#51,#52,#53,#54,#55,#56,#57,#58,#59,#60,#61,#62,#63,#64,#65,#66,#67,#68,#69,#70,#71,#72,#73,#74,#75,#76,#77,#78,#79,#80,#81,#82,#83,#84,#85,#86,#87,#88,#89,#90,#91,#92,#93,#94,#95,#96,#97,#98,#99,#100,#101,#102,#103,#104,#105),$);
#33=IFCINDEXEDPOLYGONALFACE((18,32,33,19));
#34=IFCINDEXEDPOLYGONALFACE((32,46,47,33));
#35=IFCINDEXEDPOLYGONALFACE((33,47,48,34));
#36=IFCINDEXEDPOLYGONALFACE((19,33,34,20));
#37=IFCINDEXEDPOLYGONALFACE((61,62,52));
#38=IFCINDEXEDPOLYGONALFACE((48,61,52));
#39=IFCINDEXEDPOLYGONALFACE((48,42,38));
#40=IFCINDEXEDPOLYGONALFACE((38,34,48));
#41=IFCINDEXEDPOLYGONALFACE((34,38,28));
#42=IFCINDEXEDPOLYGONALFACE((52,42,48));
#43=IFCINDEXEDPOLYGONALFACE((48,47,60,61));
#44=IFCINDEXEDPOLYGONALFACE((59,46,51,58));
#45=IFCINDEXEDPOLYGONALFACE((59,60,47,46));
#46=IFCINDEXEDPOLYGONALFACE((46,37,41));
#47=IFCINDEXEDPOLYGONALFACE((37,46,32));
#48=IFCINDEXEDPOLYGONALFACE((51,46,41));
#49=IFCINDEXEDPOLYGONALFACE((28,24,20,34));
#50=IFCINDEXEDPOLYGONALFACE((14,20,24));
#51=IFCINDEXEDPOLYGONALFACE((9,14,10));
#52=IFCINDEXEDPOLYGONALFACE((9,8,19,20));
#53=IFCINDEXEDPOLYGONALFACE((14,9,20));
#54=IFCINDEXEDPOLYGONALFACE((32,18,23,27));
#55=IFCINDEXEDPOLYGONALFACE((23,18,13));
#56=IFCINDEXEDPOLYGONALFACE((37,32,27));
#57=IFCINDEXEDPOLYGONALFACE((18,7,6,13));
#58=IFCINDEXEDPOLYGONALFACE((8,7,18,19));
#59=IFCINDEXEDPOLYGONALFACE((9,10,5,4));
#60=IFCINDEXEDPOLYGONALFACE((7,8,3,2));
#61=IFCINDEXEDPOLYGONALFACE((6,7,2,1));
#62=IFCINDEXEDPOLYGONALFACE((8,9,4,3));
#63=IFCINDEXEDPOLYGONALFACE((43,29,30,44));
#64=IFCINDEXEDPOLYGONALFACE((29,15,16,30));
#65=IFCINDEXEDPOLYGONALFACE((30,16,17,31));
#66=IFCINDEXEDPOLYGONALFACE((44,30,31,45));
#67=IFCINDEXEDPOLYGONALFACE((4,5,12));
#68=IFCINDEXEDPOLYGONALFACE((17,4,12));
#69=IFCINDEXEDPOLYGONALFACE((17,22,26));
#70=IFCINDEXEDPOLYGONALFACE((26,31,17));
#71=IFCINDEXEDPOLYGONALFACE((31,26,36));
#72=IFCINDEXEDPOLYGONALFACE((12,22,17));
#73=IFCINDEXEDPOLYGONALFACE((17,16,3,4));
#74=IFCINDEXEDPOLYGONALFACE((2,15,11,1));
#75=IFCINDEXEDPOLYGONALFACE((2,3,16,15));
#76=IFCINDEXEDPOLYGONALFACE((25,21,15,29));
#77=IFCINDEXEDPOLYGONALFACE((11,15,21));
#78=IFCINDEXEDPOLYGONALFACE((36,40,45,31));
#79=IFCINDEXEDPOLYGONALFACE((50,45,40));
#80=IFCINDEXEDPOLYGONALFACE((56,50,57));
#81=IFCINDEXEDPOLYGONALFACE((56,55,44,45));
#82=IFCINDEXEDPOLYGONALFACE((50,56,45));
#83=IFCINDEXEDPOLYGONALFACE((29,43,39,35));
#84=IFCINDEXEDPOLYGONALFACE((39,43,49));
#85=IFCINDEXEDPOLYGONALFACE((25,29,35));
#86=IFCINDEXEDPOLYGONALFACE((43,54,53,49));
#87=IFCINDEXEDPOLYGONALFACE((55,54,43,44));
#88=IFCINDEXEDPOLYGONALFACE((56,57,62,61));
#89=IFCINDEXEDPOLYGONALFACE((54,55,60,59));
#90=IFCINDEXEDPOLYGONALFACE((53,54,59,58));
#91=IFCINDEXEDPOLYGONALFACE((55,56,61,60));
#92=IFCINDEXEDPOLYGONALFACE((52,62,57,50));
#93=IFCINDEXEDPOLYGONALFACE((38,42,40,36));
#94=IFCINDEXEDPOLYGONALFACE((42,52,50,40));
#95=IFCINDEXEDPOLYGONALFACE((24,28,26,22));
#96=IFCINDEXEDPOLYGONALFACE((10,14,12,5));
#97=IFCINDEXEDPOLYGONALFACE((14,24,22,12));
#98=IFCINDEXEDPOLYGONALFACE((28,38,36,26));
#99=IFCINDEXEDPOLYGONALFACE((58,51,49,53));
#100=IFCINDEXEDPOLYGONALFACE((41,37,35,39));
#101=IFCINDEXEDPOLYGONALFACE((51,41,39,49));
#102=IFCINDEXEDPOLYGONALFACE((37,27,25,35));
#103=IFCINDEXEDPOLYGONALFACE((23,21,25,27));
#104=IFCINDEXEDPOLYGONALFACE((13,6,1,11));
#105=IFCINDEXEDPOLYGONALFACE((23,13,11,21));
#106=IFCSHAPEREPRESENTATION(#107,'Body','Tessellation',(#32));
#107=IFCGEOMETRICREPRESENTATIONSUBCONTEXT('Body','Model',*,*,*,*,#7,$,.MODEL_VIEW.,$);
#108=IFCPRODUCTDEFINITIONSHAPE($,$,(#106));
#109=IFCCLASSIFICATIONREFERENCE('https://uniclass.thenbs.com/taxon/pr_20_93_52','Pr_20_93_52','Concrete walls',#28,$,$);
#110=IFCRELCONTAINEDINSPATIALSTRUCTURE('3SyG9QpETOPQzvHa4fxpC1',$,$,$,(#22),#18);
#111=IFCRELAGGREGATES('0Czx40qc9S4eYY_deiITNf',$,$,$,#14,(#18));
#112=IFCRELAGGREGATES('1lQysw65PSCQ8oHCeF$cdH',$,$,$,#10,(#14));
#113=IFCRELAGGREGATES('3e9ZfANsvVZQUYiw3rhK4j',$,$,$,#1,(#10));
#114=IFCRELDEFINESBYTYPE('2cHZsUo1HT1RpYqAOK2q5a',$,$,$,(#22),#26);
#115=IFCRELASSOCIATESCLASSIFICATION('1u08Tfz4POmxdk58_pUPje',$,$,$,(#26),#27);
#116=IFCRELASSOCIATESCLASSIFICATION('0pe0$stjHUvf4vKBE13diN',$,$,$,(#26),#29);
#117=IFCRELASSOCIATESCLASSIFICATION('3NIFZsIyrVdQdbn3hfr3ZW',$,$,$,(#22),#109);
ENDSEC;
END-ISO-10303-21;
