ISO-10303-21;
HEADER;
FILE_DESCRIPTION ((''), '2;1');
FILE_NAME ('11 Openings.ifc', '2026-10-09T14:44:28', (''), (''), 'xbim Toolkit v6.1.605.0', 'IfcHopper', '');
FILE_SCHEMA (('IFC4X3_ADD2'));
ENDSEC;
DATA;
#1=IFCPROJECT('0pckslybnMGuVPtry1QC4C',$,'Openings',$,$,$,$,(#7),#2);
#2=IFCUNITASSIGNMENT((#3,#4,#5,#6));
#3=IFCSIUNIT(*,.LENGTHUNIT.,$,.METRE.);
#4=IFCSIUNIT(*,.AREAUNIT.,$,.SQUARE_METRE.);
#5=IFCSIUNIT(*,.VOLUMEUNIT.,$,.CUBIC_METRE.);
#6=IFCSIUNIT(*,.PLANEANGLEUNIT.,$,.RADIAN.);
#7=IFCGEOMETRICREPRESENTATIONCONTEXT($,'Model',3,1.E-05,#8,$);
#8=IFCAXIS2PLACEMENT3D(#9,$,$);
#9=IFCCARTESIANPOINT((0.,0.,0.));
#10=IFCSITE('00oJkFyODL2Bvp4Yc47YVU',$,'Hopper Site',$,$,#11,$,$,.ELEMENT.,$,$,$,$,$);
#11=IFCLOCALPLACEMENT($,#12);
#12=IFCAXIS2PLACEMENT3D(#13,$,$);
#13=IFCCARTESIANPOINT((0.,0.,0.));
#14=IFCBUILDING('1Iea5LSTfJJ88FkUVEcmG8',$,'Hopper Building',$,$,#15,$,$,.ELEMENT.,$,$,$);
#15=IFCLOCALPLACEMENT(#11,#16);
#16=IFCAXIS2PLACEMENT3D(#17,$,$);
#17=IFCCARTESIANPOINT((0.,0.,0.));
#18=IFCBUILDINGSTOREY('3S2DgfbqrN5QKRylOnC6FK',$,'Ground floor',$,$,#19,$,$,.ELEMENT.,0.);
#19=IFCLOCALPLACEMENT(#15,#20);
#20=IFCAXIS2PLACEMENT3D(#21,$,$);
#21=IFCCARTESIANPOINT((0.,0.,0.));
#22=IFCWALL('1CjN7eOWLGpQ6mWVUieBm8',$,'Wall',$,$,#23,#103,$,.SOLIDWALL.);
#23=IFCLOCALPLACEMENT(#19,#24);
#24=IFCAXIS2PLACEMENT3D(#25,$,$);
#25=IFCCARTESIANPOINT((0.,0.,0.));
#26=IFCCARTESIANPOINTLIST3D(((6.,0.20000000298023224,3.),(6.,0.20000000298023224,2.25),(6.,0.20000000298023224,1.5),(6.,0.20000000298023224,0.75),(6.,0.20000000298023224,0.),(6.,0.,3.),(6.,0.,2.25),(6.,0.,1.5),(6.,0.,0.75),(6.,0.,0.),(5.142857074737549,0.20000000298023224,3.),(5.142857074737549,0.20000000298023224,0.),(5.142857074737549,0.,3.),(5.142857074737549,0.,0.),(4.5,0.20000000298023224,2.25),(4.5,0.20000000298023224,1.5),(4.5,0.20000000298023224,0.75),(4.5,0.,2.25),(4.5,0.,1.5),(4.5,0.,0.75),(4.285714149475098,0.20000000298023224,3.),(4.285714149475098,0.20000000298023224,0.),(4.285714149475098,0.,3.),(4.285714149475098,0.,0.),(3.4285714626312256,0.20000000298023224,3.),(3.4285714626312256,0.20000000298023224,0.),(3.4285714626312256,0.,3.),(3.4285714626312256,0.,0.),(3.,0.20000000298023224,2.25),(3.,0.20000000298023224,1.5),(3.,0.20000000298023224,0.75),(3.,0.,2.25),(3.,0.,1.5),(3.,0.,0.75),(2.5714285373687744,0.20000000298023224,3.),(2.5714285373687744,0.20000000298023224,0.),(2.5714285373687744,0.,3.),(2.5714285373687744,0.,0.),(1.7142857313156128,0.20000000298023224,3.),(1.7142857313156128,0.20000000298023224,0.),(1.7142857313156128,0.,3.),(1.7142857313156128,0.,0.),(1.5,0.20000000298023224,2.25),(1.5,0.20000000298023224,1.5),(1.5,0.20000000298023224,0.75),(1.5,0.,2.25),(1.5,0.,1.5),(1.5,0.,0.75),(0.8571428656578064,0.20000000298023224,3.),(0.8571428656578064,0.20000000298023224,0.),(0.8571428656578064,0.,3.),(0.8571428656578064,0.,0.),(0.,0.20000000298023224,3.),(0.,0.20000000298023224,2.25),(0.,0.20000000298023224,1.5),(0.,0.20000000298023224,0.75),(0.,0.20000000298023224,0.),(0.,0.,3.),(0.,0.,2.25),(0.,0.,1.5),(0.,0.,0.75),(0.,0.,0.)),$);
#27=IFCPOLYGONALFACESET(#26,.T.,(#28,#29,#30,#31,#32,#33,#34,#35,#36,#37,#38,#39,#40,#41,#42,#43,#44,#45,#46,#47,#48,#49,#50,#51,#52,#53,#54,#55,#56,#57,#58,#59,#60,#61,#62,#63,#64,#65,#66,#67,#68,#69,#70,#71,#72,#73,#74,#75,#76,#77,#78,#79,#80,#81,#82,#83,#84,#85,#86,#87,#88,#89,#90,#91,#92,#93,#94,#95,#96,#97,#98,#99,#100),$);
#28=IFCINDEXEDPOLYGONALFACE((18,32,33,19));
#29=IFCINDEXEDPOLYGONALFACE((32,46,47,33));
#30=IFCINDEXEDPOLYGONALFACE((33,47,48,34));
#31=IFCINDEXEDPOLYGONALFACE((19,33,34,20));
#32=IFCINDEXEDPOLYGONALFACE((61,62,52));
#33=IFCINDEXEDPOLYGONALFACE((48,61,52));
#34=IFCINDEXEDPOLYGONALFACE((48,42,38));
#35=IFCINDEXEDPOLYGONALFACE((38,34,48));
#36=IFCINDEXEDPOLYGONALFACE((34,38,28));
#37=IFCINDEXEDPOLYGONALFACE((52,42,48));
#38=IFCINDEXEDPOLYGONALFACE((48,47,60,61));
#39=IFCINDEXEDPOLYGONALFACE((59,46,51,58));
#40=IFCINDEXEDPOLYGONALFACE((59,60,47,46));
#41=IFCINDEXEDPOLYGONALFACE((46,37,41));
#42=IFCINDEXEDPOLYGONALFACE((37,46,32));
#43=IFCINDEXEDPOLYGONALFACE((51,46,41));
#44=IFCINDEXEDPOLYGONALFACE((28,24,20,34));
#45=IFCINDEXEDPOLYGONALFACE((14,20,24));
#46=IFCINDEXEDPOLYGONALFACE((9,14,10));
#47=IFCINDEXEDPOLYGONALFACE((9,8,19,20));
#48=IFCINDEXEDPOLYGONALFACE((14,9,20));
#49=IFCINDEXEDPOLYGONALFACE((32,18,23,27));
#50=IFCINDEXEDPOLYGONALFACE((23,18,13));
#51=IFCINDEXEDPOLYGONALFACE((37,32,27));
#52=IFCINDEXEDPOLYGONALFACE((18,7,6,13));
#53=IFCINDEXEDPOLYGONALFACE((8,7,18,19));
#54=IFCINDEXEDPOLYGONALFACE((9,10,5,4));
#55=IFCINDEXEDPOLYGONALFACE((7,8,3,2));
#56=IFCINDEXEDPOLYGONALFACE((6,7,2,1));
#57=IFCINDEXEDPOLYGONALFACE((8,9,4,3));
#58=IFCINDEXEDPOLYGONALFACE((43,29,30,44));
#59=IFCINDEXEDPOLYGONALFACE((29,15,16,30));
#60=IFCINDEXEDPOLYGONALFACE((30,16,17,31));
#61=IFCINDEXEDPOLYGONALFACE((44,30,31,45));
#62=IFCINDEXEDPOLYGONALFACE((4,5,12));
#63=IFCINDEXEDPOLYGONALFACE((17,4,12));
#64=IFCINDEXEDPOLYGONALFACE((17,22,26));
#65=IFCINDEXEDPOLYGONALFACE((26,31,17));
#66=IFCINDEXEDPOLYGONALFACE((31,26,36));
#67=IFCINDEXEDPOLYGONALFACE((12,22,17));
#68=IFCINDEXEDPOLYGONALFACE((17,16,3,4));
#69=IFCINDEXEDPOLYGONALFACE((2,15,11,1));
#70=IFCINDEXEDPOLYGONALFACE((2,3,16,15));
#71=IFCINDEXEDPOLYGONALFACE((25,21,15,29));
#72=IFCINDEXEDPOLYGONALFACE((11,15,21));
#73=IFCINDEXEDPOLYGONALFACE((36,40,45,31));
#74=IFCINDEXEDPOLYGONALFACE((50,45,40));
#75=IFCINDEXEDPOLYGONALFACE((56,50,57));
#76=IFCINDEXEDPOLYGONALFACE((56,55,44,45));
#77=IFCINDEXEDPOLYGONALFACE((50,56,45));
#78=IFCINDEXEDPOLYGONALFACE((29,43,39,35));
#79=IFCINDEXEDPOLYGONALFACE((39,43,49));
#80=IFCINDEXEDPOLYGONALFACE((25,29,35));
#81=IFCINDEXEDPOLYGONALFACE((43,54,53,49));
#82=IFCINDEXEDPOLYGONALFACE((55,54,43,44));
#83=IFCINDEXEDPOLYGONALFACE((56,57,62,61));
#84=IFCINDEXEDPOLYGONALFACE((54,55,60,59));
#85=IFCINDEXEDPOLYGONALFACE((53,54,59,58));
#86=IFCINDEXEDPOLYGONALFACE((55,56,61,60));
#87=IFCINDEXEDPOLYGONALFACE((52,62,57,50));
#88=IFCINDEXEDPOLYGONALFACE((38,42,40,36));
#89=IFCINDEXEDPOLYGONALFACE((42,52,50,40));
#90=IFCINDEXEDPOLYGONALFACE((24,28,26,22));
#91=IFCINDEXEDPOLYGONALFACE((10,14,12,5));
#92=IFCINDEXEDPOLYGONALFACE((14,24,22,12));
#93=IFCINDEXEDPOLYGONALFACE((28,38,36,26));
#94=IFCINDEXEDPOLYGONALFACE((58,51,49,53));
#95=IFCINDEXEDPOLYGONALFACE((41,37,35,39));
#96=IFCINDEXEDPOLYGONALFACE((51,41,39,49));
#97=IFCINDEXEDPOLYGONALFACE((37,27,25,35));
#98=IFCINDEXEDPOLYGONALFACE((23,21,25,27));
#99=IFCINDEXEDPOLYGONALFACE((13,6,1,11));
#100=IFCINDEXEDPOLYGONALFACE((23,13,11,21));
#101=IFCSHAPEREPRESENTATION(#102,'Body','Tessellation',(#27));
#102=IFCGEOMETRICREPRESENTATIONSUBCONTEXT('Body','Model',*,*,*,*,#7,$,.MODEL_VIEW.,$);
#103=IFCPRODUCTDEFINITIONSHAPE($,$,(#101));
#104=IFCOPENINGELEMENT('0lAlW3DeTSNRtJ9UR1Xfk8',$,'Door opening',$,$,#105,#129,$,.OPENING.);
#105=IFCLOCALPLACEMENT(#23,#106);
#106=IFCAXIS2PLACEMENT3D(#107,$,$);
#107=IFCCARTESIANPOINT((0.,0.,0.));
#108=IFCCARTESIANPOINTLIST3D(((2.,0.30000001192092896,2.0999999046325684),(2.,0.30000001192092896,1.0499999523162842),(2.,0.30000001192092896,0.),(2.,-0.10000000149011612,2.0999999046325684),(2.,-0.10000000149011612,1.0499999523162842),(2.,-0.10000000149011612,0.),(1.5,0.30000001192092896,2.0999999046325684),(1.5,0.30000001192092896,0.),(1.5,-0.10000000149011612,2.0999999046325684),(1.5,-0.10000000149011612,0.),(1.,0.30000001192092896,2.0999999046325684),(1.,0.30000001192092896,1.0499999523162842),(1.,0.30000001192092896,0.),(1.,-0.10000000149011612,2.0999999046325684),(1.,-0.10000000149011612,1.0499999523162842),(1.,-0.10000000149011612,0.)),$);
#109=IFCPOLYGONALFACESET(#108,.T.,(#110,#111,#112,#113,#114,#115,#116,#117,#118,#119,#120,#121,#122,#123,#124,#125,#126,#127),$);
#110=IFCINDEXEDPOLYGONALFACE((2,3,8));
#111=IFCINDEXEDPOLYGONALFACE((2,7,1));
#112=IFCINDEXEDPOLYGONALFACE((12,2,8,13));
#113=IFCINDEXEDPOLYGONALFACE((2,12,11,7));
#114=IFCINDEXEDPOLYGONALFACE((12,13,16,15));
#115=IFCINDEXEDPOLYGONALFACE((11,12,15,14));
#116=IFCINDEXEDPOLYGONALFACE((15,16,10));
#117=IFCINDEXEDPOLYGONALFACE((15,9,14));
#118=IFCINDEXEDPOLYGONALFACE((5,15,10));
#119=IFCINDEXEDPOLYGONALFACE((15,5,9));
#120=IFCINDEXEDPOLYGONALFACE((5,4,9));
#121=IFCINDEXEDPOLYGONALFACE((6,5,10));
#122=IFCINDEXEDPOLYGONALFACE((5,6,3,2));
#123=IFCINDEXEDPOLYGONALFACE((4,5,2,1));
#124=IFCINDEXEDPOLYGONALFACE((8,10,16,13));
#125=IFCINDEXEDPOLYGONALFACE((10,8,3,6));
#126=IFCINDEXEDPOLYGONALFACE((7,11,14,9));
#127=IFCINDEXEDPOLYGONALFACE((9,4,1,7));
#128=IFCSHAPEREPRESENTATION(#102,'Body','Tessellation',(#109));
#129=IFCPRODUCTDEFINITIONSHAPE($,$,(#128));
#130=IFCRELVOIDSELEMENT('1OE18kYynRFQL_hn5FdOUP',$,$,$,#22,#104);
#131=IFCOPENINGELEMENT('1AJTorPWTGXRNXkewB0mIw',$,'Window opening',$,$,#132,#157,$,.OPENING.);
#132=IFCLOCALPLACEMENT(#23,#133);
#133=IFCAXIS2PLACEMENT3D(#134,$,$);
#134=IFCCARTESIANPOINT((0.,0.,0.));
#135=IFCCARTESIANPOINTLIST3D(((5.25,0.30000001192092896,2.0999999046325684),(5.25,0.30000001192092896,1.5),(5.25,0.30000001192092896,0.8999999761581421),(5.25,-0.10000000149011612,2.0999999046325684),(5.25,-0.10000000149011612,1.5),(5.25,-0.10000000149011612,0.8999999761581421),(4.5,0.30000001192092896,2.0999999046325684),(4.5,0.30000001192092896,0.8999999761581421),(4.5,-0.10000000149011612,2.0999999046325684),(4.5,-0.10000000149011612,0.8999999761581421),(3.75,0.30000001192092896,2.0999999046325684),(3.75,0.30000001192092896,1.5),(3.75,0.30000001192092896,0.8999999761581421),(3.75,-0.10000000149011612,2.0999999046325684),(3.75,-0.10000000149011612,1.5),(3.75,-0.10000000149011612,0.8999999761581421)),$);
#136=IFCPOLYGONALFACESET(#135,.T.,(#137,#138,#139,#140,#141,#142,#143,#144,#145,#146,#147,#148,#149,#150,#151,#152,#153,#154,#155),$);
#137=IFCINDEXEDPOLYGONALFACE((12,7,2));
#138=IFCINDEXEDPOLYGONALFACE((2,7,1));
#139=IFCINDEXEDPOLYGONALFACE((8,2,3));
#140=IFCINDEXEDPOLYGONALFACE((12,8,13));
#141=IFCINDEXEDPOLYGONALFACE((12,11,7));
#142=IFCINDEXEDPOLYGONALFACE((8,12,2));
#143=IFCINDEXEDPOLYGONALFACE((12,13,16,15));
#144=IFCINDEXEDPOLYGONALFACE((11,12,15,14));
#145=IFCINDEXEDPOLYGONALFACE((15,16,10));
#146=IFCINDEXEDPOLYGONALFACE((15,9,14));
#147=IFCINDEXEDPOLYGONALFACE((9,15,10));
#148=IFCINDEXEDPOLYGONALFACE((9,10,5,4));
#149=IFCINDEXEDPOLYGONALFACE((6,5,10));
#150=IFCINDEXEDPOLYGONALFACE((5,6,3,2));
#151=IFCINDEXEDPOLYGONALFACE((4,5,2,1));
#152=IFCINDEXEDPOLYGONALFACE((8,10,16,13));
#153=IFCINDEXEDPOLYGONALFACE((10,8,3,6));
#154=IFCINDEXEDPOLYGONALFACE((7,11,14,9));
#155=IFCINDEXEDPOLYGONALFACE((9,4,1,7));
#156=IFCSHAPEREPRESENTATION(#102,'Body','Tessellation',(#136));
#157=IFCPRODUCTDEFINITIONSHAPE($,$,(#156));
#158=IFCRELVOIDSELEMENT('1k1yK5mXjKMewilkfiuply',$,$,$,#22,#131);
#159=IFCOPENINGELEMENT('1cWifVGYXJRBjCdOE9ealK',$,'Niche',$,$,#160,#186,$,.RECESS.);
#160=IFCLOCALPLACEMENT(#23,#161);
#161=IFCAXIS2PLACEMENT3D(#162,$,$);
#162=IFCCARTESIANPOINT((0.,0.,0.));
#163=IFCCARTESIANPOINTLIST3D(((3.299999952316284,0.2199999988079071,1.5),(3.299999952316284,0.2199999988079071,1.2000000476837158),(3.299999952316284,0.2199999988079071,0.8999999761581421),(3.299999952316284,0.11999999731779099,1.5),(3.299999952316284,0.11999999731779099,1.2000000476837158),(3.299999952316284,0.11999999731779099,0.8999999761581421),(3.,0.2199999988079071,1.5),(3.,0.2199999988079071,0.8999999761581421),(3.,0.11999999731779099,1.5),(3.,0.11999999731779099,0.8999999761581421),(2.700000047683716,0.2199999988079071,1.5),(2.700000047683716,0.2199999988079071,1.2000000476837158),(2.700000047683716,0.2199999988079071,0.8999999761581421),(2.700000047683716,0.11999999731779099,1.5),(2.700000047683716,0.11999999731779099,1.2000000476837158),(2.700000047683716,0.11999999731779099,0.8999999761581421)),$);
#164=IFCPOLYGONALFACESET(#163,.T.,(#165,#166,#167,#168,#169,#170,#171,#172,#173,#174,#175,#176,#177,#178,#179,#180,#181,#182,#183,#184),$);
#165=IFCINDEXEDPOLYGONALFACE((2,3,8));
#166=IFCINDEXEDPOLYGONALFACE((2,7,1));
#167=IFCINDEXEDPOLYGONALFACE((12,2,8));
#168=IFCINDEXEDPOLYGONALFACE((2,12,7));
#169=IFCINDEXEDPOLYGONALFACE((12,11,7));
#170=IFCINDEXEDPOLYGONALFACE((13,12,8));
#171=IFCINDEXEDPOLYGONALFACE((12,13,16,15));
#172=IFCINDEXEDPOLYGONALFACE((11,12,15,14));
#173=IFCINDEXEDPOLYGONALFACE((15,16,10));
#174=IFCINDEXEDPOLYGONALFACE((15,9,14));
#175=IFCINDEXEDPOLYGONALFACE((5,15,10));
#176=IFCINDEXEDPOLYGONALFACE((15,5,9));
#177=IFCINDEXEDPOLYGONALFACE((5,4,9));
#178=IFCINDEXEDPOLYGONALFACE((6,5,10));
#179=IFCINDEXEDPOLYGONALFACE((5,6,3,2));
#180=IFCINDEXEDPOLYGONALFACE((4,5,2,1));
#181=IFCINDEXEDPOLYGONALFACE((8,10,16,13));
#182=IFCINDEXEDPOLYGONALFACE((10,8,3,6));
#183=IFCINDEXEDPOLYGONALFACE((7,11,14,9));
#184=IFCINDEXEDPOLYGONALFACE((9,4,1,7));
#185=IFCSHAPEREPRESENTATION(#102,'Body','Tessellation',(#164));
#186=IFCPRODUCTDEFINITIONSHAPE($,$,(#185));
#187=IFCRELVOIDSELEMENT('0eRlqL9cvTk9TZ36GeN89N',$,$,$,#22,#159);
#188=IFCDOOR('12MA55qKLKYQMKK1vOYRJ7',$,'Door',$,$,#189,#281,$,$,$,.DOOR.,$,$);
#189=IFCLOCALPLACEMENT(#19,#190);
#190=IFCAXIS2PLACEMENT3D(#191,$,$);
#191=IFCCARTESIANPOINT((0.,0.,0.));
#192=IFCCARTESIANPOINTLIST3D(((1.9500000476837158,0.12999999523162842,2.049999952316284),(1.9500000476837158,0.12999999523162842,1.7937500476837158),(1.9500000476837158,0.12999999523162842,1.537500023841858),(1.9500000476837158,0.12999999523162842,1.28125),(1.9500000476837158,0.12999999523162842,1.024999976158142),(1.9500000476837158,0.12999999523162842,0.768750011920929),(1.9500000476837158,0.12999999523162842,0.512499988079071),(1.9500000476837158,0.12999999523162842,0.2562499940395355),(1.9500000476837158,0.12999999523162842,0.),(1.9500000476837158,0.07000000029802322,2.049999952316284),(1.9500000476837158,0.07000000029802322,1.7937500476837158),(1.9500000476837158,0.07000000029802322,1.537500023841858),(1.9500000476837158,0.07000000029802322,1.28125),(1.9500000476837158,0.07000000029802322,1.024999976158142),(1.9500000476837158,0.07000000029802322,0.768750011920929),(1.9500000476837158,0.07000000029802322,0.512499988079071),(1.9500000476837158,0.07000000029802322,0.2562499940395355),(1.9500000476837158,0.07000000029802322,0.),(1.725000023841858,0.12999999523162842,2.049999952316284),(1.725000023841858,0.12999999523162842,1.537500023841858),(1.725000023841858,0.12999999523162842,1.024999976158142),(1.725000023841858,0.12999999523162842,0.512499988079071),(1.725000023841858,0.12999999523162842,0.),(1.725000023841858,0.07000000029802322,2.049999952316284),(1.725000023841858,0.07000000029802322,1.537500023841858),(1.725000023841858,0.07000000029802322,1.024999976158142),(1.725000023841858,0.07000000029802322,0.512499988079071),(1.725000023841858,0.07000000029802322,0.),(1.5,0.12999999523162842,2.049999952316284),(1.5,0.12999999523162842,1.537500023841858),(1.5,0.12999999523162842,1.024999976158142),(1.5,0.12999999523162842,0.512499988079071),(1.5,0.12999999523162842,0.),(1.5,0.07000000029802322,2.049999952316284),(1.5,0.07000000029802322,1.537500023841858),(1.5,0.07000000029802322,1.024999976158142),(1.5,0.07000000029802322,0.512499988079071),(1.5,0.07000000029802322,0.),(1.274999976158142,0.12999999523162842,2.049999952316284),(1.274999976158142,0.12999999523162842,1.537500023841858),(1.274999976158142,0.12999999523162842,1.024999976158142),(1.274999976158142,0.12999999523162842,0.512499988079071),(1.274999976158142,0.12999999523162842,0.),(1.274999976158142,0.07000000029802322,2.049999952316284),(1.274999976158142,0.07000000029802322,1.537500023841858),(1.274999976158142,0.07000000029802322,1.024999976158142),(1.274999976158142,0.07000000029802322,0.512499988079071),(1.274999976158142,0.07000000029802322,0.),(1.0499999523162842,0.12999999523162842,2.049999952316284),(1.0499999523162842,0.12999999523162842,1.7937500476837158),(1.0499999523162842,0.12999999523162842,1.537500023841858),(1.0499999523162842,0.12999999523162842,1.28125),(1.0499999523162842,0.12999999523162842,1.024999976158142),(1.0499999523162842,0.12999999523162842,0.768750011920929),(1.0499999523162842,0.12999999523162842,0.512499988079071),(1.0499999523162842,0.12999999523162842,0.2562499940395355),(1.0499999523162842,0.12999999523162842,0.),(1.0499999523162842,0.07000000029802322,2.049999952316284),(1.0499999523162842,0.07000000029802322,1.7937500476837158),(1.0499999523162842,0.07000000029802322,1.537500023841858),(1.0499999523162842,0.07000000029802322,1.28125),(1.0499999523162842,0.07000000029802322,1.024999976158142),(1.0499999523162842,0.07000000029802322,0.768750011920929),(1.0499999523162842,0.07000000029802322,0.512499988079071),(1.0499999523162842,0.07000000029802322,0.2562499940395355),(1.0499999523162842,0.07000000029802322,0.)),$);
#193=IFCPOLYGONALFACESET(#192,.T.,(#194,#195,#196,#197,#198,#199,#200,#201,#202,#203,#204,#205,#206,#207,#208,#209,#210,#211,#212,#213,#214,#215,#216,#217,#218,#219,#220,#221,#222,#223,#224,#225,#226,#227,#228,#229,#230,#231,#232,#233,#234,#235,#236,#237,#238,#239,#240,#241,#242,#243,#244,#245,#246,#247,#248,#249,#250,#251,#252,#253,#254,#255,#256,#257,#258,#259,#260,#261,#262,#263,#264,#265,#266,#267,#268,#269,#270,#271,#272,#273,#274,#275,#276,#277,#278,#279),$);
#194=IFCINDEXEDPOLYGONALFACE((25,35,36,26));
#195=IFCINDEXEDPOLYGONALFACE((35,45,46,36));
#196=IFCINDEXEDPOLYGONALFACE((36,46,47,37));
#197=IFCINDEXEDPOLYGONALFACE((26,36,37,27));
#198=IFCINDEXEDPOLYGONALFACE((48,65,66));
#199=IFCINDEXEDPOLYGONALFACE((47,63,64));
#200=IFCINDEXEDPOLYGONALFACE((64,65,47));
#201=IFCINDEXEDPOLYGONALFACE((48,38,37,47));
#202=IFCINDEXEDPOLYGONALFACE((47,46,62,63));
#203=IFCINDEXEDPOLYGONALFACE((27,37,38,28));
#204=IFCINDEXEDPOLYGONALFACE((65,48,47));
#205=IFCINDEXEDPOLYGONALFACE((46,61,62));
#206=IFCINDEXEDPOLYGONALFACE((45,59,60));
#207=IFCINDEXEDPOLYGONALFACE((60,61,45));
#208=IFCINDEXEDPOLYGONALFACE((45,44,59));
#209=IFCINDEXEDPOLYGONALFACE((44,58,59));
#210=IFCINDEXEDPOLYGONALFACE((34,44,45,35));
#211=IFCINDEXEDPOLYGONALFACE((46,45,61));
#212=IFCINDEXEDPOLYGONALFACE((17,27,28));
#213=IFCINDEXEDPOLYGONALFACE((27,15,26));
#214=IFCINDEXEDPOLYGONALFACE((18,17,28));
#215=IFCINDEXEDPOLYGONALFACE((27,17,16));
#216=IFCINDEXEDPOLYGONALFACE((26,15,14));
#217=IFCINDEXEDPOLYGONALFACE((27,16,15));
#218=IFCINDEXEDPOLYGONALFACE((13,26,14));
#219=IFCINDEXEDPOLYGONALFACE((35,25,24,34));
#220=IFCINDEXEDPOLYGONALFACE((24,25,11));
#221=IFCINDEXEDPOLYGONALFACE((25,13,12));
#222=IFCINDEXEDPOLYGONALFACE((24,11,10));
#223=IFCINDEXEDPOLYGONALFACE((25,12,11));
#224=IFCINDEXEDPOLYGONALFACE((25,26,13));
#225=IFCINDEXEDPOLYGONALFACE((17,18,9,8));
#226=IFCINDEXEDPOLYGONALFACE((15,16,7,6));
#227=IFCINDEXEDPOLYGONALFACE((16,17,8,7));
#228=IFCINDEXEDPOLYGONALFACE((13,14,5,4));
#229=IFCINDEXEDPOLYGONALFACE((11,12,3,2));
#230=IFCINDEXEDPOLYGONALFACE((10,11,2,1));
#231=IFCINDEXEDPOLYGONALFACE((12,13,4,3));
#232=IFCINDEXEDPOLYGONALFACE((14,15,6,5));
#233=IFCINDEXEDPOLYGONALFACE((40,30,31,41));
#234=IFCINDEXEDPOLYGONALFACE((30,20,21,31));
#235=IFCINDEXEDPOLYGONALFACE((31,21,22,32));
#236=IFCINDEXEDPOLYGONALFACE((41,31,32,42));
#237=IFCINDEXEDPOLYGONALFACE((23,8,9));
#238=IFCINDEXEDPOLYGONALFACE((22,6,7));
#239=IFCINDEXEDPOLYGONALFACE((7,8,22));
#240=IFCINDEXEDPOLYGONALFACE((23,33,32,22));
#241=IFCINDEXEDPOLYGONALFACE((22,21,5,6));
#242=IFCINDEXEDPOLYGONALFACE((42,32,33,43));
#243=IFCINDEXEDPOLYGONALFACE((8,23,22));
#244=IFCINDEXEDPOLYGONALFACE((21,4,5));
#245=IFCINDEXEDPOLYGONALFACE((20,2,3));
#246=IFCINDEXEDPOLYGONALFACE((3,4,20));
#247=IFCINDEXEDPOLYGONALFACE((20,19,2));
#248=IFCINDEXEDPOLYGONALFACE((19,1,2));
#249=IFCINDEXEDPOLYGONALFACE((29,19,20,30));
#250=IFCINDEXEDPOLYGONALFACE((21,20,4));
#251=IFCINDEXEDPOLYGONALFACE((56,42,43));
#252=IFCINDEXEDPOLYGONALFACE((42,54,41));
#253=IFCINDEXEDPOLYGONALFACE((57,56,43));
#254=IFCINDEXEDPOLYGONALFACE((42,56,55));
#255=IFCINDEXEDPOLYGONALFACE((41,54,53));
#256=IFCINDEXEDPOLYGONALFACE((42,55,54));
#257=IFCINDEXEDPOLYGONALFACE((52,41,53));
#258=IFCINDEXEDPOLYGONALFACE((30,40,39,29));
#259=IFCINDEXEDPOLYGONALFACE((39,40,50));
#260=IFCINDEXEDPOLYGONALFACE((40,52,51));
#261=IFCINDEXEDPOLYGONALFACE((39,50,49));
#262=IFCINDEXEDPOLYGONALFACE((40,51,50));
#263=IFCINDEXEDPOLYGONALFACE((40,41,52));
#264=IFCINDEXEDPOLYGONALFACE((56,57,66,65));
#265=IFCINDEXEDPOLYGONALFACE((54,55,64,63));
#266=IFCINDEXEDPOLYGONALFACE((55,56,65,64));
#267=IFCINDEXEDPOLYGONALFACE((52,53,62,61));
#268=IFCINDEXEDPOLYGONALFACE((50,51,60,59));
#269=IFCINDEXEDPOLYGONALFACE((49,50,59,58));
#270=IFCINDEXEDPOLYGONALFACE((51,52,61,60));
#271=IFCINDEXEDPOLYGONALFACE((53,54,63,62));
#272=IFCINDEXEDPOLYGONALFACE((48,66,57,43));
#273=IFCINDEXEDPOLYGONALFACE((28,38,33,23));
#274=IFCINDEXEDPOLYGONALFACE((18,28,23,9));
#275=IFCINDEXEDPOLYGONALFACE((38,48,43,33));
#276=IFCINDEXEDPOLYGONALFACE((44,39,49,58));
#277=IFCINDEXEDPOLYGONALFACE((39,44,34,29));
#278=IFCINDEXEDPOLYGONALFACE((10,1,19,24));
#279=IFCINDEXEDPOLYGONALFACE((24,19,29,34));
#280=IFCSHAPEREPRESENTATION(#102,'Body','Tessellation',(#193));
#281=IFCPRODUCTDEFINITIONSHAPE($,$,(#280));
#282=IFCWINDOW('0PPhUYeKrO9gy5ultOMeeZ',$,'Window',$,$,#283,#373,$,$,$,.WINDOW.,$,$);
#283=IFCLOCALPLACEMENT(#19,#284);
#284=IFCAXIS2PLACEMENT3D(#285,$,$);
#285=IFCCARTESIANPOINT((0.,0.,0.));
#286=IFCCARTESIANPOINTLIST3D(((5.199999809265137,0.12999999523162842,2.049999952316284),(5.199999809265137,0.12999999523162842,1.8666666746139526),(5.199999809265137,0.12999999523162842,1.6833332777023315),(5.199999809265137,0.12999999523162842,1.5),(5.199999809265137,0.12999999523162842,1.3166667222976685),(5.199999809265137,0.12999999523162842,1.1333333253860474),(5.199999809265137,0.12999999523162842,0.949999988079071),(5.199999809265137,0.07000000029802322,2.049999952316284),(5.199999809265137,0.07000000029802322,1.8666666746139526),(5.199999809265137,0.07000000029802322,1.6833332777023315),(5.199999809265137,0.07000000029802322,1.5),(5.199999809265137,0.07000000029802322,1.3166667222976685),(5.199999809265137,0.07000000029802322,1.1333333253860474),(5.199999809265137,0.07000000029802322,0.949999988079071),(4.9666666984558105,0.12999999523162842,2.049999952316284),(4.9666666984558105,0.12999999523162842,0.949999988079071),(4.9666666984558105,0.07000000029802322,2.049999952316284),(4.9666666984558105,0.07000000029802322,0.949999988079071),(4.849999904632568,0.12999999523162842,1.774999976158142),(4.849999904632568,0.12999999523162842,1.5),(4.849999904632568,0.12999999523162842,1.225000023841858),(4.849999904632568,0.07000000029802322,1.774999976158142),(4.849999904632568,0.07000000029802322,1.5),(4.849999904632568,0.07000000029802322,1.225000023841858),(4.733333110809326,0.12999999523162842,2.049999952316284),(4.733333110809326,0.12999999523162842,0.949999988079071),(4.733333110809326,0.07000000029802322,2.049999952316284),(4.733333110809326,0.07000000029802322,0.949999988079071),(4.5,0.12999999523162842,2.049999952316284),(4.5,0.12999999523162842,1.774999976158142),(4.5,0.12999999523162842,1.5),(4.5,0.12999999523162842,1.225000023841858),(4.5,0.12999999523162842,0.949999988079071),(4.5,0.07000000029802322,2.049999952316284),(4.5,0.07000000029802322,1.774999976158142),(4.5,0.07000000029802322,1.5),(4.5,0.07000000029802322,1.225000023841858),(4.5,0.07000000029802322,0.949999988079071),(4.266666889190674,0.12999999523162842,2.049999952316284),(4.266666889190674,0.12999999523162842,0.949999988079071),(4.266666889190674,0.07000000029802322,2.049999952316284),(4.266666889190674,0.07000000029802322,0.949999988079071),(4.150000095367432,0.12999999523162842,1.774999976158142),(4.150000095367432,0.12999999523162842,1.5),(4.150000095367432,0.12999999523162842,1.225000023841858),(4.150000095367432,0.07000000029802322,1.774999976158142),(4.150000095367432,0.07000000029802322,1.5),(4.150000095367432,0.07000000029802322,1.225000023841858),(4.0333333015441895,0.12999999523162842,2.049999952316284),(4.0333333015441895,0.12999999523162842,0.949999988079071),(4.0333333015441895,0.07000000029802322,2.049999952316284),(4.0333333015441895,0.07000000029802322,0.949999988079071),(3.799999952316284,0.12999999523162842,2.049999952316284),(3.799999952316284,0.12999999523162842,1.8666666746139526),(3.799999952316284,0.12999999523162842,1.6833332777023315),(3.799999952316284,0.12999999523162842,1.5),(3.799999952316284,0.12999999523162842,1.3166667222976685),(3.799999952316284,0.12999999523162842,1.1333333253860474),(3.799999952316284,0.12999999523162842,0.949999988079071),(3.799999952316284,0.07000000029802322,2.049999952316284),(3.799999952316284,0.07000000029802322,1.8666666746139526),(3.799999952316284,0.07000000029802322,1.6833332777023315),(3.799999952316284,0.07000000029802322,1.5),(3.799999952316284,0.07000000029802322,1.3166667222976685),(3.799999952316284,0.07000000029802322,1.1333333253860474),(3.799999952316284,0.07000000029802322,0.949999988079071)),$);
#287=IFCPOLYGONALFACESET(#286,.T.,(#288,#289,#290,#291,#292,#293,#294,#295,#296,#297,#298,#299,#300,#301,#302,#303,#304,#305,#306,#307,#308,#309,#310,#311,#312,#313,#314,#315,#316,#317,#318,#319,#320,#321,#322,#323,#324,#325,#326,#327,#328,#329,#330,#331,#332,#333,#334,#335,#336,#337,#338,#339,#340,#341,#342,#343,#344,#345,#346,#347,#348,#349,#350,#351,#352,#353,#354,#355,#356,#357,#358,#359,#360,#361,#362,#363,#364,#365,#366,#367,#368,#369,#370,#371),$);
#288=IFCINDEXEDPOLYGONALFACE((22,35,36,23));
#289=IFCINDEXEDPOLYGONALFACE((35,46,47,36));
#290=IFCINDEXEDPOLYGONALFACE((36,47,48,37));
#291=IFCINDEXEDPOLYGONALFACE((23,36,37,24));
#292=IFCINDEXEDPOLYGONALFACE((65,66,52));
#293=IFCINDEXEDPOLYGONALFACE((65,48,64));
#294=IFCINDEXEDPOLYGONALFACE((48,65,52));
#295=IFCINDEXEDPOLYGONALFACE((42,38,37,48));
#296=IFCINDEXEDPOLYGONALFACE((48,47,63,64));
#297=IFCINDEXEDPOLYGONALFACE((38,28,24,37));
#298=IFCINDEXEDPOLYGONALFACE((52,42,48));
#299=IFCINDEXEDPOLYGONALFACE((47,62,63));
#300=IFCINDEXEDPOLYGONALFACE((51,60,61));
#301=IFCINDEXEDPOLYGONALFACE((61,62,46));
#302=IFCINDEXEDPOLYGONALFACE((61,46,51));
#303=IFCINDEXEDPOLYGONALFACE((46,41,51));
#304=IFCINDEXEDPOLYGONALFACE((46,35,34,41));
#305=IFCINDEXEDPOLYGONALFACE((47,46,62));
#306=IFCINDEXEDPOLYGONALFACE((24,28,18));
#307=IFCINDEXEDPOLYGONALFACE((23,24,12,11));
#308=IFCINDEXEDPOLYGONALFACE((13,24,18));
#309=IFCINDEXEDPOLYGONALFACE((18,14,13));
#310=IFCINDEXEDPOLYGONALFACE((24,13,12));
#311=IFCINDEXEDPOLYGONALFACE((10,23,11));
#312=IFCINDEXEDPOLYGONALFACE((35,22,27,34));
#313=IFCINDEXEDPOLYGONALFACE((27,22,17));
#314=IFCINDEXEDPOLYGONALFACE((22,9,17));
#315=IFCINDEXEDPOLYGONALFACE((9,8,17));
#316=IFCINDEXEDPOLYGONALFACE((10,9,22));
#317=IFCINDEXEDPOLYGONALFACE((22,23,10));
#318=IFCINDEXEDPOLYGONALFACE((13,14,7,6));
#319=IFCINDEXEDPOLYGONALFACE((12,13,6,5));
#320=IFCINDEXEDPOLYGONALFACE((10,11,4,3));
#321=IFCINDEXEDPOLYGONALFACE((8,9,2,1));
#322=IFCINDEXEDPOLYGONALFACE((9,10,3,2));
#323=IFCINDEXEDPOLYGONALFACE((11,12,5,4));
#324=IFCINDEXEDPOLYGONALFACE((43,30,31,44));
#325=IFCINDEXEDPOLYGONALFACE((30,19,20,31));
#326=IFCINDEXEDPOLYGONALFACE((31,20,21,32));
#327=IFCINDEXEDPOLYGONALFACE((44,31,32,45));
#328=IFCINDEXEDPOLYGONALFACE((6,7,16));
#329=IFCINDEXEDPOLYGONALFACE((6,21,5));
#330=IFCINDEXEDPOLYGONALFACE((21,6,16));
#331=IFCINDEXEDPOLYGONALFACE((26,33,32,21));
#332=IFCINDEXEDPOLYGONALFACE((21,20,4,5));
#333=IFCINDEXEDPOLYGONALFACE((33,40,45,32));
#334=IFCINDEXEDPOLYGONALFACE((16,26,21));
#335=IFCINDEXEDPOLYGONALFACE((20,3,4));
#336=IFCINDEXEDPOLYGONALFACE((15,1,2));
#337=IFCINDEXEDPOLYGONALFACE((2,3,19));
#338=IFCINDEXEDPOLYGONALFACE((2,19,15));
#339=IFCINDEXEDPOLYGONALFACE((19,25,15));
#340=IFCINDEXEDPOLYGONALFACE((19,30,29,25));
#341=IFCINDEXEDPOLYGONALFACE((20,19,3));
#342=IFCINDEXEDPOLYGONALFACE((45,40,50));
#343=IFCINDEXEDPOLYGONALFACE((44,45,57,56));
#344=IFCINDEXEDPOLYGONALFACE((58,45,50));
#345=IFCINDEXEDPOLYGONALFACE((50,59,58));
#346=IFCINDEXEDPOLYGONALFACE((45,58,57));
#347=IFCINDEXEDPOLYGONALFACE((55,44,56));
#348=IFCINDEXEDPOLYGONALFACE((30,43,39,29));
#349=IFCINDEXEDPOLYGONALFACE((39,43,49));
#350=IFCINDEXEDPOLYGONALFACE((43,54,49));
#351=IFCINDEXEDPOLYGONALFACE((54,53,49));
#352=IFCINDEXEDPOLYGONALFACE((55,54,43));
#353=IFCINDEXEDPOLYGONALFACE((43,44,55));
#354=IFCINDEXEDPOLYGONALFACE((58,59,66,65));
#355=IFCINDEXEDPOLYGONALFACE((57,58,65,64));
#356=IFCINDEXEDPOLYGONALFACE((55,56,63,62));
#357=IFCINDEXEDPOLYGONALFACE((53,54,61,60));
#358=IFCINDEXEDPOLYGONALFACE((54,55,62,61));
#359=IFCINDEXEDPOLYGONALFACE((56,57,64,63));
#360=IFCINDEXEDPOLYGONALFACE((52,66,59,50));
#361=IFCINDEXEDPOLYGONALFACE((42,52,50,40));
#362=IFCINDEXEDPOLYGONALFACE((28,38,33,26));
#363=IFCINDEXEDPOLYGONALFACE((14,18,16,7));
#364=IFCINDEXEDPOLYGONALFACE((18,28,26,16));
#365=IFCINDEXEDPOLYGONALFACE((38,42,40,33));
#366=IFCINDEXEDPOLYGONALFACE((51,49,53,60));
#367=IFCINDEXEDPOLYGONALFACE((41,39,49,51));
#368=IFCINDEXEDPOLYGONALFACE((34,29,39,41));
#369=IFCINDEXEDPOLYGONALFACE((17,15,25,27));
#370=IFCINDEXEDPOLYGONALFACE((8,1,15,17));
#371=IFCINDEXEDPOLYGONALFACE((27,25,29,34));
#372=IFCSHAPEREPRESENTATION(#102,'Body','Tessellation',(#287));
#373=IFCPRODUCTDEFINITIONSHAPE($,$,(#372));
#374=IFCRELCONTAINEDINSPATIALSTRUCTURE('16$GlZkBTRK8rgM6F9eFPk',$,$,$,(#22,#188,#282),#18);
#375=IFCRELAGGREGATES('0qrYT8zBfLVxxzjXpC$lGV',$,$,$,#14,(#18));
#376=IFCRELAGGREGATES('3jb6s_MOjI7Pxw2E$rOw3r',$,$,$,#10,(#14));
#377=IFCRELAGGREGATES('2$7$ikB89Mhg2041ZF2ww0',$,$,$,#1,(#10));
#378=IFCRELFILLSELEMENT('1Rk26dkyPGTwBHd4$Xkx0Q',$,$,$,#104,#188);
#379=IFCRELFILLSELEMENT('0dcmgtPz5M8urfsbN7d2Hj',$,$,$,#131,#282);
ENDSEC;
END-ISO-10303-21;
