ISO-10303-21;
HEADER;
FILE_DESCRIPTION ((''), '2;1');
FILE_NAME ('12 Tags and attributes.ifc', '2026-10-09T14:44:28', (''), (''), 'xbim Toolkit v6.1.605.0', 'IfcHopper', '');
FILE_SCHEMA (('IFC4X3_ADD2'));
ENDSEC;
DATA;
#1=IFCPROJECT('00iDIlBTrGq8OixiHpBKas',$,'Tags and attributes',$,$,$,$,(#7),#2);
#2=IFCUNITASSIGNMENT((#3,#4,#5,#6));
#3=IFCSIUNIT(*,.LENGTHUNIT.,$,.METRE.);
#4=IFCSIUNIT(*,.AREAUNIT.,$,.SQUARE_METRE.);
#5=IFCSIUNIT(*,.VOLUMEUNIT.,$,.CUBIC_METRE.);
#6=IFCSIUNIT(*,.PLANEANGLEUNIT.,$,.RADIAN.);
#7=IFCGEOMETRICREPRESENTATIONCONTEXT($,'Model',3,1.E-05,#8,$);
#8=IFCAXIS2PLACEMENT3D(#9,$,$);
#9=IFCCARTESIANPOINT((0.,0.,0.));
#10=IFCSITE('3fZBR_Ws1UXRLeLwxMNZPn',$,'Hopper Site',$,$,#11,$,$,.ELEMENT.,$,$,$,$,$);
#11=IFCLOCALPLACEMENT($,#12);
#12=IFCAXIS2PLACEMENT3D(#13,$,$);
#13=IFCCARTESIANPOINT((0.,0.,0.));
#14=IFCBUILDING('2gSArWFkHOQOmlhwomx0H$',$,'Hopper Building',$,$,#15,$,$,.ELEMENT.,$,$,$);
#15=IFCLOCALPLACEMENT(#11,#16);
#16=IFCAXIS2PLACEMENT3D(#17,$,$);
#17=IFCCARTESIANPOINT((0.,0.,0.));
#18=IFCBUILDINGSTOREY('2pOo_TCBTIXAGSY3Z4e4gG',$,'Ground floor',$,$,#19,$,$,.ELEMENT.,0.);
#19=IFCLOCALPLACEMENT(#15,#20);
#20=IFCAXIS2PLACEMENT3D(#21,$,$);
#21=IFCCARTESIANPOINT((0.,0.,0.));
#22=IFCDOOR('07KOWBv$1Mg8TdKrsG9$id',$,'Front door',$,$,#23,#118,'D01',2.1,0.9,.DOOR.,.SINGLE_SWING_LEFT.,$);
#23=IFCLOCALPLACEMENT(#19,#24);
#24=IFCAXIS2PLACEMENT3D(#25,$,$);
#25=IFCCARTESIANPOINT((0.,0.,0.));
#26=IFCCARTESIANPOINTLIST3D(((0.8999999761581421,0.05999999865889549,2.0999999046325684),(0.8999999761581421,0.05999999865889549,1.837499976158142),(0.8999999761581421,0.05999999865889549,1.5750000476837158),(0.8999999761581421,0.05999999865889549,1.3125),(0.8999999761581421,0.05999999865889549,1.0499999523162842),(0.8999999761581421,0.05999999865889549,0.7875000238418579),(0.8999999761581421,0.05999999865889549,0.5249999761581421),(0.8999999761581421,0.05999999865889549,0.26249998807907104),(0.8999999761581421,0.05999999865889549,0.),(0.8999999761581421,0.,2.0999999046325684),(0.8999999761581421,0.,1.837499976158142),(0.8999999761581421,0.,1.5750000476837158),(0.8999999761581421,0.,1.3125),(0.8999999761581421,0.,1.0499999523162842),(0.8999999761581421,0.,0.7875000238418579),(0.8999999761581421,0.,0.5249999761581421),(0.8999999761581421,0.,0.26249998807907104),(0.8999999761581421,0.,0.),(0.675000011920929,0.05999999865889549,2.0999999046325684),(0.675000011920929,0.05999999865889549,1.5750000476837158),(0.675000011920929,0.05999999865889549,1.0499999523162842),(0.675000011920929,0.05999999865889549,0.5249999761581421),(0.675000011920929,0.05999999865889549,0.),(0.675000011920929,0.,2.0999999046325684),(0.675000011920929,0.,1.5750000476837158),(0.675000011920929,0.,1.0499999523162842),(0.675000011920929,0.,0.5249999761581421),(0.675000011920929,0.,0.),(0.44999998807907104,0.05999999865889549,2.0999999046325684),(0.44999998807907104,0.05999999865889549,1.5750000476837158),(0.44999998807907104,0.05999999865889549,1.0499999523162842),(0.44999998807907104,0.05999999865889549,0.5249999761581421),(0.44999998807907104,0.05999999865889549,0.),(0.44999998807907104,0.,2.0999999046325684),(0.44999998807907104,0.,1.5750000476837158),(0.44999998807907104,0.,1.0499999523162842),(0.44999998807907104,0.,0.5249999761581421),(0.44999998807907104,0.,0.),(0.22499999403953552,0.05999999865889549,2.0999999046325684),(0.22499999403953552,0.05999999865889549,1.5750000476837158),(0.22499999403953552,0.05999999865889549,1.0499999523162842),(0.22499999403953552,0.05999999865889549,0.5249999761581421),(0.22499999403953552,0.05999999865889549,0.),(0.22499999403953552,0.,2.0999999046325684),(0.22499999403953552,0.,1.5750000476837158),(0.22499999403953552,0.,1.0499999523162842),(0.22499999403953552,0.,0.5249999761581421),(0.22499999403953552,0.,0.),(0.,0.05999999865889549,2.0999999046325684),(0.,0.05999999865889549,1.837499976158142),(0.,0.05999999865889549,1.5750000476837158),(0.,0.05999999865889549,1.3125),(0.,0.05999999865889549,1.0499999523162842),(0.,0.05999999865889549,0.7875000238418579),(0.,0.05999999865889549,0.5249999761581421),(0.,0.05999999865889549,0.26249998807907104),(0.,0.05999999865889549,0.),(0.,0.,2.0999999046325684),(0.,0.,1.837499976158142),(0.,0.,1.5750000476837158),(0.,0.,1.3125),(0.,0.,1.0499999523162842),(0.,0.,0.7875000238418579),(0.,0.,0.5249999761581421),(0.,0.,0.26249998807907104),(0.,0.,0.)),$);
#27=IFCPOLYGONALFACESET(#26,.T.,(#28,#29,#30,#31,#32,#33,#34,#35,#36,#37,#38,#39,#40,#41,#42,#43,#44,#45,#46,#47,#48,#49,#50,#51,#52,#53,#54,#55,#56,#57,#58,#59,#60,#61,#62,#63,#64,#65,#66,#67,#68,#69,#70,#71,#72,#73,#74,#75,#76,#77,#78,#79,#80,#81,#82,#83,#84,#85,#86,#87,#88,#89,#90,#91,#92,#93,#94,#95,#96,#97,#98,#99,#100,#101,#102,#103,#104,#105,#106,#107,#108,#109,#110,#111,#112,#113,#114,#115),$);
#28=IFCINDEXEDPOLYGONALFACE((25,35,36,26));
#29=IFCINDEXEDPOLYGONALFACE((35,45,46,36));
#30=IFCINDEXEDPOLYGONALFACE((36,46,47,37));
#31=IFCINDEXEDPOLYGONALFACE((26,36,37,27));
#32=IFCINDEXEDPOLYGONALFACE((48,65,66));
#33=IFCINDEXEDPOLYGONALFACE((47,63,64));
#34=IFCINDEXEDPOLYGONALFACE((64,65,47));
#35=IFCINDEXEDPOLYGONALFACE((38,37,47,48));
#36=IFCINDEXEDPOLYGONALFACE((46,63,47));
#37=IFCINDEXEDPOLYGONALFACE((27,37,38,28));
#38=IFCINDEXEDPOLYGONALFACE((65,48,47));
#39=IFCINDEXEDPOLYGONALFACE((46,61,62));
#40=IFCINDEXEDPOLYGONALFACE((45,59,60));
#41=IFCINDEXEDPOLYGONALFACE((60,61,45));
#42=IFCINDEXEDPOLYGONALFACE((45,44,59));
#43=IFCINDEXEDPOLYGONALFACE((44,58,59));
#44=IFCINDEXEDPOLYGONALFACE((44,45,35,34));
#45=IFCINDEXEDPOLYGONALFACE((46,45,61));
#46=IFCINDEXEDPOLYGONALFACE((46,62,63));
#47=IFCINDEXEDPOLYGONALFACE((17,27,28));
#48=IFCINDEXEDPOLYGONALFACE((27,15,26));
#49=IFCINDEXEDPOLYGONALFACE((18,17,28));
#50=IFCINDEXEDPOLYGONALFACE((27,17,16));
#51=IFCINDEXEDPOLYGONALFACE((26,15,14));
#52=IFCINDEXEDPOLYGONALFACE((27,16,15));
#53=IFCINDEXEDPOLYGONALFACE((13,26,14));
#54=IFCINDEXEDPOLYGONALFACE((35,25,24,34));
#55=IFCINDEXEDPOLYGONALFACE((24,25,11));
#56=IFCINDEXEDPOLYGONALFACE((25,13,12));
#57=IFCINDEXEDPOLYGONALFACE((24,11,10));
#58=IFCINDEXEDPOLYGONALFACE((25,12,11));
#59=IFCINDEXEDPOLYGONALFACE((25,26,13));
#60=IFCINDEXEDPOLYGONALFACE((17,18,9,8));
#61=IFCINDEXEDPOLYGONALFACE((15,16,7,6));
#62=IFCINDEXEDPOLYGONALFACE((16,17,8,7));
#63=IFCINDEXEDPOLYGONALFACE((13,14,5,4));
#64=IFCINDEXEDPOLYGONALFACE((11,12,3,2));
#65=IFCINDEXEDPOLYGONALFACE((10,11,2,1));
#66=IFCINDEXEDPOLYGONALFACE((12,13,4,3));
#67=IFCINDEXEDPOLYGONALFACE((14,15,6,5));
#68=IFCINDEXEDPOLYGONALFACE((40,30,31,41));
#69=IFCINDEXEDPOLYGONALFACE((30,20,21,31));
#70=IFCINDEXEDPOLYGONALFACE((31,21,22,32));
#71=IFCINDEXEDPOLYGONALFACE((41,31,32,42));
#72=IFCINDEXEDPOLYGONALFACE((23,8,9));
#73=IFCINDEXEDPOLYGONALFACE((22,6,7));
#74=IFCINDEXEDPOLYGONALFACE((7,8,22));
#75=IFCINDEXEDPOLYGONALFACE((33,32,22,23));
#76=IFCINDEXEDPOLYGONALFACE((21,6,22));
#77=IFCINDEXEDPOLYGONALFACE((42,32,33,43));
#78=IFCINDEXEDPOLYGONALFACE((8,23,22));
#79=IFCINDEXEDPOLYGONALFACE((21,4,5));
#80=IFCINDEXEDPOLYGONALFACE((20,2,3));
#81=IFCINDEXEDPOLYGONALFACE((3,4,20));
#82=IFCINDEXEDPOLYGONALFACE((20,19,2));
#83=IFCINDEXEDPOLYGONALFACE((19,1,2));
#84=IFCINDEXEDPOLYGONALFACE((19,20,30,29));
#85=IFCINDEXEDPOLYGONALFACE((21,20,4));
#86=IFCINDEXEDPOLYGONALFACE((21,5,6));
#87=IFCINDEXEDPOLYGONALFACE((56,42,43));
#88=IFCINDEXEDPOLYGONALFACE((42,54,41));
#89=IFCINDEXEDPOLYGONALFACE((57,56,43));
#90=IFCINDEXEDPOLYGONALFACE((42,56,55));
#91=IFCINDEXEDPOLYGONALFACE((41,54,53));
#92=IFCINDEXEDPOLYGONALFACE((42,55,54));
#93=IFCINDEXEDPOLYGONALFACE((52,41,53));
#94=IFCINDEXEDPOLYGONALFACE((30,40,39,29));
#95=IFCINDEXEDPOLYGONALFACE((39,40,50));
#96=IFCINDEXEDPOLYGONALFACE((40,52,51));
#97=IFCINDEXEDPOLYGONALFACE((39,50,49));
#98=IFCINDEXEDPOLYGONALFACE((40,51,50));
#99=IFCINDEXEDPOLYGONALFACE((40,41,52));
#100=IFCINDEXEDPOLYGONALFACE((56,57,66,65));
#101=IFCINDEXEDPOLYGONALFACE((54,55,64,63));
#102=IFCINDEXEDPOLYGONALFACE((55,56,65,64));
#103=IFCINDEXEDPOLYGONALFACE((52,53,62,61));
#104=IFCINDEXEDPOLYGONALFACE((50,51,60,59));
#105=IFCINDEXEDPOLYGONALFACE((49,50,59,58));
#106=IFCINDEXEDPOLYGONALFACE((51,52,61,60));
#107=IFCINDEXEDPOLYGONALFACE((53,54,63,62));
#108=IFCINDEXEDPOLYGONALFACE((48,66,57,43));
#109=IFCINDEXEDPOLYGONALFACE((28,38,33,23));
#110=IFCINDEXEDPOLYGONALFACE((18,28,23,9));
#111=IFCINDEXEDPOLYGONALFACE((38,48,43,33));
#112=IFCINDEXEDPOLYGONALFACE((44,39,49,58));
#113=IFCINDEXEDPOLYGONALFACE((39,44,34,29));
#114=IFCINDEXEDPOLYGONALFACE((10,1,19,24));
#115=IFCINDEXEDPOLYGONALFACE((24,19,29,34));
#116=IFCSHAPEREPRESENTATION(#117,'Body','Tessellation',(#27));
#117=IFCGEOMETRICREPRESENTATIONSUBCONTEXT('Body','Model',*,*,*,*,#7,$,.MODEL_VIEW.,$);
#118=IFCPRODUCTDEFINITIONSHAPE($,$,(#116));
#119=IFCWINDOW('1gTTsxFArSTwB0bo4wL_ut',$,'Window',$,$,#120,#207,'W1-01',1.2,1.2,.WINDOW.,$,$);
#120=IFCLOCALPLACEMENT(#19,#121);
#121=IFCAXIS2PLACEMENT3D(#122,$,$);
#122=IFCCARTESIANPOINT((0.,0.,0.));
#123=IFCWINDOWTYPE('1RYZXuGsDV4x1K9t2MBr1_',$,'Window W1',$,$,$,$,'W1',$,.WINDOW.,.SINGLE_PANEL.,.T.,$);
#124=IFCCARTESIANPOINTLIST3D(((3.200000047683716,0.05999999865889549,2.0999999046325684),(3.200000047683716,0.05999999865889549,1.899999976158142),(3.200000047683716,0.05999999865889549,1.7000000476837158),(3.200000047683716,0.05999999865889549,1.5),(3.200000047683716,0.05999999865889549,1.2999999523162842),(3.200000047683716,0.05999999865889549,1.100000023841858),(3.200000047683716,0.05999999865889549,0.8999999761581421),(3.200000047683716,0.,2.0999999046325684),(3.200000047683716,0.,1.899999976158142),(3.200000047683716,0.,1.7000000476837158),(3.200000047683716,0.,1.5),(3.200000047683716,0.,1.2999999523162842),(3.200000047683716,0.,1.100000023841858),(3.200000047683716,0.,0.8999999761581421),(3.,0.05999999865889549,2.0999999046325684),(3.,0.05999999865889549,0.8999999761581421),(3.,0.,2.0999999046325684),(3.,0.,0.8999999761581421),(2.9000000953674316,0.05999999865889549,1.7999999523162842),(2.9000000953674316,0.05999999865889549,1.5),(2.9000000953674316,0.05999999865889549,1.2000000476837158),(2.9000000953674316,0.,1.7999999523162842),(2.9000000953674316,0.,1.5),(2.9000000953674316,0.,1.2000000476837158),(2.799999952316284,0.05999999865889549,2.0999999046325684),(2.799999952316284,0.05999999865889549,0.8999999761581421),(2.799999952316284,0.,2.0999999046325684),(2.799999952316284,0.,0.8999999761581421),(2.5999999046325684,0.05999999865889549,2.0999999046325684),(2.5999999046325684,0.05999999865889549,1.7999999523162842),(2.5999999046325684,0.05999999865889549,1.5),(2.5999999046325684,0.05999999865889549,1.2000000476837158),(2.5999999046325684,0.05999999865889549,0.8999999761581421),(2.5999999046325684,0.,2.0999999046325684),(2.5999999046325684,0.,1.7999999523162842),(2.5999999046325684,0.,1.5),(2.5999999046325684,0.,1.2000000476837158),(2.5999999046325684,0.,0.8999999761581421),(2.4000000953674316,0.05999999865889549,2.0999999046325684),(2.4000000953674316,0.05999999865889549,0.8999999761581421),(2.4000000953674316,0.,2.0999999046325684),(2.4000000953674316,0.,0.8999999761581421),(2.299999952316284,0.05999999865889549,1.7999999523162842),(2.299999952316284,0.05999999865889549,1.5),(2.299999952316284,0.05999999865889549,1.2000000476837158),(2.299999952316284,0.,1.7999999523162842),(2.299999952316284,0.,1.5),(2.299999952316284,0.,1.2000000476837158),(2.200000047683716,0.05999999865889549,2.0999999046325684),(2.200000047683716,0.05999999865889549,0.8999999761581421),(2.200000047683716,0.,2.0999999046325684),(2.200000047683716,0.,0.8999999761581421),(2.,0.05999999865889549,2.0999999046325684),(2.,0.05999999865889549,1.899999976158142),(2.,0.05999999865889549,1.7000000476837158),(2.,0.05999999865889549,1.5),(2.,0.05999999865889549,1.2999999523162842),(2.,0.05999999865889549,1.100000023841858),(2.,0.05999999865889549,0.8999999761581421),(2.,0.,2.0999999046325684),(2.,0.,1.899999976158142),(2.,0.,1.7000000476837158),(2.,0.,1.5),(2.,0.,1.2999999523162842),(2.,0.,1.100000023841858),(2.,0.,0.8999999761581421)),$);
#125=IFCPOLYGONALFACESET(#124,.T.,(#126,#127,#128,#129,#130,#131,#132,#133,#134,#135,#136,#137,#138,#139,#140,#141,#142,#143,#144,#145,#146,#147,#148,#149,#150,#151,#152,#153,#154,#155,#156,#157,#158,#159,#160,#161,#162,#163,#164,#165,#166,#167,#168,#169,#170,#171,#172,#173,#174,#175,#176,#177,#178,#179,#180,#181,#182,#183,#184,#185,#186,#187,#188,#189,#190,#191,#192,#193,#194,#195,#196,#197,#198,#199,#200,#201,#202,#203,#204,#205),$);
#126=IFCINDEXEDPOLYGONALFACE((22,35,36,23));
#127=IFCINDEXEDPOLYGONALFACE((35,46,47,36));
#128=IFCINDEXEDPOLYGONALFACE((36,47,48,37));
#129=IFCINDEXEDPOLYGONALFACE((23,36,37,24));
#130=IFCINDEXEDPOLYGONALFACE((65,66,52));
#131=IFCINDEXEDPOLYGONALFACE((65,48,64));
#132=IFCINDEXEDPOLYGONALFACE((48,65,52));
#133=IFCINDEXEDPOLYGONALFACE((42,38,37,48));
#134=IFCINDEXEDPOLYGONALFACE((48,47,63,64));
#135=IFCINDEXEDPOLYGONALFACE((38,28,24,37));
#136=IFCINDEXEDPOLYGONALFACE((52,42,48));
#137=IFCINDEXEDPOLYGONALFACE((62,63,47,46));
#138=IFCINDEXEDPOLYGONALFACE((51,60,61));
#139=IFCINDEXEDPOLYGONALFACE((61,62,46));
#140=IFCINDEXEDPOLYGONALFACE((61,46,51));
#141=IFCINDEXEDPOLYGONALFACE((46,41,51));
#142=IFCINDEXEDPOLYGONALFACE((46,35,34,41));
#143=IFCINDEXEDPOLYGONALFACE((24,28,18));
#144=IFCINDEXEDPOLYGONALFACE((23,24,12,11));
#145=IFCINDEXEDPOLYGONALFACE((13,24,18));
#146=IFCINDEXEDPOLYGONALFACE((18,14,13));
#147=IFCINDEXEDPOLYGONALFACE((24,13,12));
#148=IFCINDEXEDPOLYGONALFACE((11,10,22,23));
#149=IFCINDEXEDPOLYGONALFACE((35,22,27,34));
#150=IFCINDEXEDPOLYGONALFACE((27,22,17));
#151=IFCINDEXEDPOLYGONALFACE((22,9,17));
#152=IFCINDEXEDPOLYGONALFACE((9,8,17));
#153=IFCINDEXEDPOLYGONALFACE((10,9,22));
#154=IFCINDEXEDPOLYGONALFACE((13,14,7,6));
#155=IFCINDEXEDPOLYGONALFACE((12,13,6,5));
#156=IFCINDEXEDPOLYGONALFACE((10,11,4,3));
#157=IFCINDEXEDPOLYGONALFACE((8,9,2,1));
#158=IFCINDEXEDPOLYGONALFACE((9,10,3,2));
#159=IFCINDEXEDPOLYGONALFACE((11,12,5,4));
#160=IFCINDEXEDPOLYGONALFACE((43,30,31,44));
#161=IFCINDEXEDPOLYGONALFACE((30,19,20,31));
#162=IFCINDEXEDPOLYGONALFACE((31,20,21,32));
#163=IFCINDEXEDPOLYGONALFACE((44,31,32,45));
#164=IFCINDEXEDPOLYGONALFACE((6,7,16));
#165=IFCINDEXEDPOLYGONALFACE((6,21,5));
#166=IFCINDEXEDPOLYGONALFACE((21,6,16));
#167=IFCINDEXEDPOLYGONALFACE((26,33,32,21));
#168=IFCINDEXEDPOLYGONALFACE((21,20,4,5));
#169=IFCINDEXEDPOLYGONALFACE((33,40,45,32));
#170=IFCINDEXEDPOLYGONALFACE((16,26,21));
#171=IFCINDEXEDPOLYGONALFACE((3,4,20,19));
#172=IFCINDEXEDPOLYGONALFACE((15,1,2));
#173=IFCINDEXEDPOLYGONALFACE((2,3,19));
#174=IFCINDEXEDPOLYGONALFACE((2,19,15));
#175=IFCINDEXEDPOLYGONALFACE((19,25,15));
#176=IFCINDEXEDPOLYGONALFACE((19,30,29,25));
#177=IFCINDEXEDPOLYGONALFACE((45,40,50));
#178=IFCINDEXEDPOLYGONALFACE((44,45,57,56));
#179=IFCINDEXEDPOLYGONALFACE((58,45,50));
#180=IFCINDEXEDPOLYGONALFACE((50,59,58));
#181=IFCINDEXEDPOLYGONALFACE((45,58,57));
#182=IFCINDEXEDPOLYGONALFACE((56,55,43,44));
#183=IFCINDEXEDPOLYGONALFACE((30,43,39,29));
#184=IFCINDEXEDPOLYGONALFACE((39,43,49));
#185=IFCINDEXEDPOLYGONALFACE((43,54,49));
#186=IFCINDEXEDPOLYGONALFACE((54,53,49));
#187=IFCINDEXEDPOLYGONALFACE((55,54,43));
#188=IFCINDEXEDPOLYGONALFACE((58,59,66,65));
#189=IFCINDEXEDPOLYGONALFACE((57,58,65,64));
#190=IFCINDEXEDPOLYGONALFACE((55,56,63,62));
#191=IFCINDEXEDPOLYGONALFACE((53,54,61,60));
#192=IFCINDEXEDPOLYGONALFACE((54,55,62,61));
#193=IFCINDEXEDPOLYGONALFACE((56,57,64,63));
#194=IFCINDEXEDPOLYGONALFACE((52,66,59,50));
#195=IFCINDEXEDPOLYGONALFACE((42,52,50,40));
#196=IFCINDEXEDPOLYGONALFACE((28,38,33,26));
#197=IFCINDEXEDPOLYGONALFACE((14,18,16,7));
#198=IFCINDEXEDPOLYGONALFACE((18,28,26,16));
#199=IFCINDEXEDPOLYGONALFACE((38,42,40,33));
#200=IFCINDEXEDPOLYGONALFACE((51,49,53,60));
#201=IFCINDEXEDPOLYGONALFACE((51,41,39,49));
#202=IFCINDEXEDPOLYGONALFACE((29,39,41,34));
#203=IFCINDEXEDPOLYGONALFACE((17,15,25,27));
#204=IFCINDEXEDPOLYGONALFACE((8,1,15,17));
#205=IFCINDEXEDPOLYGONALFACE((27,25,29,34));
#206=IFCSHAPEREPRESENTATION(#117,'Body','Tessellation',(#125));
#207=IFCPRODUCTDEFINITIONSHAPE($,$,(#206));
#208=IFCRELCONTAINEDINSPATIALSTRUCTURE('0OfJgfOrrVKAGGM_rQ2$wY',$,$,$,(#22,#119),#18);
#209=IFCRELAGGREGATES('2tT3dqDrXTcRnMT7mnfOWl',$,$,$,#14,(#18));
#210=IFCRELAGGREGATES('112zPhzLTMJQsfxqICT8r3',$,$,$,#10,(#14));
#211=IFCRELAGGREGATES('0y4GgkM1jI7w_sIGGdyTpf',$,$,$,#1,(#10));
#212=IFCRELDEFINESBYTYPE('0e6e_XeZjO7eiJ38iElM9I',$,$,$,(#119),#123);
ENDSEC;
END-ISO-10303-21;
