ISO-10303-21;
HEADER;
FILE_DESCRIPTION ((''), '2;1');
FILE_NAME ('14 Schema export IFC2X3.ifc', '2026-10-09T14:44:28', (''), (''), 'xbim Toolkit v6.1.605.0', 'IfcHopper', '');
FILE_SCHEMA (('IFC2X3'));
ENDSEC;
DATA;
#1=IFCPROJECT('1sNmLLZ1jSdwKFGZSL01$Y',#5,'Schema export',$,$,$,$,(#13),#8);
#2=IFCPERSON($,'Unknown',$,$,$,$,$,$);
#3=IFCORGANIZATION($,'Unknown',$,$,$);
#4=IFCORGANIZATION($,'IfcHopper',$,$,$);
#5=IFCOWNERHISTORY(#6,#7,$,.ADDED.,$,$,$,1791557068);
#6=IFCPERSONANDORGANIZATION(#2,#3,$);
#7=IFCAPPLICATION(#4,'1.0','IfcHopper','IfcHopper');
#8=IFCUNITASSIGNMENT((#9,#10,#11,#12));
#9=IFCSIUNIT(*,.LENGTHUNIT.,$,.METRE.);
#10=IFCSIUNIT(*,.AREAUNIT.,$,.SQUARE_METRE.);
#11=IFCSIUNIT(*,.VOLUMEUNIT.,$,.CUBIC_METRE.);
#12=IFCSIUNIT(*,.PLANEANGLEUNIT.,$,.RADIAN.);
#13=IFCGEOMETRICREPRESENTATIONCONTEXT($,'Model',3,1.E-05,#14,$);
#14=IFCAXIS2PLACEMENT3D(#15,$,$);
#15=IFCCARTESIANPOINT((0.,0.,0.));
#16=IFCSITE('09QwjNq25KQO4MX6JCs5p$',#5,'Hopper Site',$,$,#17,$,$,.ELEMENT.,$,$,$,$,$);
#17=IFCLOCALPLACEMENT($,#18);
#18=IFCAXIS2PLACEMENT3D(#19,$,$);
#19=IFCCARTESIANPOINT((0.,0.,0.));
#20=IFCBUILDING('1IADrAEt1UXgIXAa7DgsOW',#5,'Access road',$,'IfcRoad',#21,$,$,.ELEMENT.,$,$,$);
#21=IFCLOCALPLACEMENT(#17,#22);
#22=IFCAXIS2PLACEMENT3D(#23,$,$);
#23=IFCCARTESIANPOINT((0.,0.,0.));
#24=IFCBUILDINGSTOREY('2pg0PXOQfHVQSGE_CdCWZU',#5,'Carriageway',$,'IfcRoadPart.CARRIAGEWAY',#25,$,$,.ELEMENT.,$);
#25=IFCLOCALPLACEMENT(#21,#26);
#26=IFCAXIS2PLACEMENT3D(#27,$,$);
#27=IFCCARTESIANPOINT((0.,0.,0.));
#28=IFCBUILDINGELEMENTPROXY('0mkKTMO6zMS9mftmYyoM0A',#5,'Pavement',$,'IfcPavement',#29,#837,$,$);
#29=IFCLOCALPLACEMENT(#25,#30);
#30=IFCAXIS2PLACEMENT3D(#31,$,$);
#31=IFCCARTESIANPOINT((0.,0.,0.));
#32=IFCFACETEDBREP(#33);
#33=IFCCLOSEDSHELL((#184,#187,#190,#193,#196,#199,#202,#205,#208,#211,#214,#217,#220,#223,#226,#229,#232,#235,#238,#241,#244,#247,#250,#253,#256,#259,#262,#265,#268,#271,#274,#277,#280,#283,#286,#289,#292,#295,#298,#301,#304,#307,#310,#313,#316,#319,#322,#325,#328,#331,#334,#337,#340,#343,#346,#349,#352,#355,#358,#361,#364,#367,#370,#373,#376,#379,#382,#385,#388,#391,#394,#397,#400,#403,#406,#409,#412,#415,#418,#421,#424,#427,#430,#433,#436,#439,#442,#445,#448,#451,#454,#457,#460,#463,#466,#469,#472,#475,#478,#481,#484,#487,#490,#493,#496,#499,#502,#505,#508,#511,#514,#517,#520,#523,#526,#529,#532,#535,#538,#541,#544,#547,#550,#553,#556,#559,#562,#565,#568,#571,#574,#577,#580,#583,#586,#589,#592,#595,#598,#601,#604,#607,#610,#613,#616,#619,#622,#625,#628,#631,#634,#637,#640,#643,#646,#649,#652,#655,#658,#661,#664,#667,#670,#673,#676,#679,#682,#685,#688,#691,#694,#697,#700,#703,#706,#709,#712,#715,#718,#721,#724,#727,#730,#733,#736,#739,#742,#745,#748,#751,#754,#757,#760,#763,#766,#769,#772,#775,#778,#781,#784,#787,#790,#793,#796,#799,#802,#805,#808,#811,#814,#817,#820,#823,#826,#829,#832));
#34=IFCCARTESIANPOINT((10.,-5.,0.));
#35=IFCCARTESIANPOINT((10.,-5.,-0.30000001192092896));
#36=IFCCARTESIANPOINT((10.,-6.166666507720947,0.));
#37=IFCCARTESIANPOINT((10.,-6.166666507720947,-0.30000001192092896));
#38=IFCCARTESIANPOINT((10.,-7.333333492279053,0.));
#39=IFCCARTESIANPOINT((10.,-7.333333492279053,-0.30000001192092896));
#40=IFCCARTESIANPOINT((10.,-8.5,0.));
#41=IFCCARTESIANPOINT((10.,-8.5,-0.30000001192092896));
#42=IFCCARTESIANPOINT((10.,-9.666666984558105,0.));
#43=IFCCARTESIANPOINT((10.,-9.666666984558105,-0.30000001192092896));
#44=IFCCARTESIANPOINT((10.,-10.833333015441895,0.));
#45=IFCCARTESIANPOINT((10.,-10.833333015441895,-0.30000001192092896));
#46=IFCCARTESIANPOINT((10.,-12.,0.));
#47=IFCCARTESIANPOINT((10.,-12.,-0.30000001192092896));
#48=IFCCARTESIANPOINT((8.75,-5.,0.));
#49=IFCCARTESIANPOINT((8.75,-5.,-0.30000001192092896));
#50=IFCCARTESIANPOINT((8.75,-12.,0.));
#51=IFCCARTESIANPOINT((8.75,-12.,-0.30000001192092896));
#52=IFCCARTESIANPOINT((7.5,-5.,0.));
#53=IFCCARTESIANPOINT((7.5,-5.,-0.30000001192092896));
#54=IFCCARTESIANPOINT((7.5,-5.875,0.));
#55=IFCCARTESIANPOINT((7.5,-5.875,-0.30000001192092896));
#56=IFCCARTESIANPOINT((7.5,-6.75,0.));
#57=IFCCARTESIANPOINT((7.5,-6.75,-0.30000001192092896));
#58=IFCCARTESIANPOINT((7.5,-7.625,0.));
#59=IFCCARTESIANPOINT((7.5,-7.625,-0.30000001192092896));
#60=IFCCARTESIANPOINT((7.5,-8.5,0.));
#61=IFCCARTESIANPOINT((7.5,-8.5,-0.30000001192092896));
#62=IFCCARTESIANPOINT((7.5,-9.375,0.));
#63=IFCCARTESIANPOINT((7.5,-9.375,-0.30000001192092896));
#64=IFCCARTESIANPOINT((7.5,-10.25,0.));
#65=IFCCARTESIANPOINT((7.5,-10.25,-0.30000001192092896));
#66=IFCCARTESIANPOINT((7.5,-11.125,0.));
#67=IFCCARTESIANPOINT((7.5,-11.125,-0.30000001192092896));
#68=IFCCARTESIANPOINT((7.5,-12.,0.));
#69=IFCCARTESIANPOINT((7.5,-12.,-0.30000001192092896));
#70=IFCCARTESIANPOINT((6.25,-5.,0.));
#71=IFCCARTESIANPOINT((6.25,-5.,-0.30000001192092896));
#72=IFCCARTESIANPOINT((6.25,-12.,0.));
#73=IFCCARTESIANPOINT((6.25,-12.,-0.30000001192092896));
#74=IFCCARTESIANPOINT((5.,-5.,0.));
#75=IFCCARTESIANPOINT((5.,-5.,-0.30000001192092896));
#76=IFCCARTESIANPOINT((5.,-5.875,0.));
#77=IFCCARTESIANPOINT((5.,-5.875,-0.30000001192092896));
#78=IFCCARTESIANPOINT((5.,-6.75,0.));
#79=IFCCARTESIANPOINT((5.,-6.75,-0.30000001192092896));
#80=IFCCARTESIANPOINT((5.,-7.625,0.));
#81=IFCCARTESIANPOINT((5.,-7.625,-0.30000001192092896));
#82=IFCCARTESIANPOINT((5.,-8.5,0.));
#83=IFCCARTESIANPOINT((5.,-8.5,-0.30000001192092896));
#84=IFCCARTESIANPOINT((5.,-9.375,0.));
#85=IFCCARTESIANPOINT((5.,-9.375,-0.30000001192092896));
#86=IFCCARTESIANPOINT((5.,-10.25,0.));
#87=IFCCARTESIANPOINT((5.,-10.25,-0.30000001192092896));
#88=IFCCARTESIANPOINT((5.,-11.125,0.));
#89=IFCCARTESIANPOINT((5.,-11.125,-0.30000001192092896));
#90=IFCCARTESIANPOINT((5.,-12.,0.));
#91=IFCCARTESIANPOINT((5.,-12.,-0.30000001192092896));
#92=IFCCARTESIANPOINT((3.75,-5.,0.));
#93=IFCCARTESIANPOINT((3.75,-5.,-0.30000001192092896));
#94=IFCCARTESIANPOINT((3.75,-12.,0.));
#95=IFCCARTESIANPOINT((3.75,-12.,-0.30000001192092896));
#96=IFCCARTESIANPOINT((2.5,-5.,0.));
#97=IFCCARTESIANPOINT((2.5,-5.,-0.30000001192092896));
#98=IFCCARTESIANPOINT((2.5,-12.,0.));
#99=IFCCARTESIANPOINT((2.5,-12.,-0.30000001192092896));
#100=IFCCARTESIANPOINT((1.25,-5.,0.));
#101=IFCCARTESIANPOINT((1.25,-5.,-0.30000001192092896));
#102=IFCCARTESIANPOINT((1.25,-12.,0.));
#103=IFCCARTESIANPOINT((1.25,-12.,-0.30000001192092896));
#104=IFCCARTESIANPOINT((0.,-5.,0.));
#105=IFCCARTESIANPOINT((0.,-5.,-0.30000001192092896));
#106=IFCCARTESIANPOINT((0.,-6.75,0.));
#107=IFCCARTESIANPOINT((0.,-6.75,-0.30000001192092896));
#108=IFCCARTESIANPOINT((0.,-8.5,0.));
#109=IFCCARTESIANPOINT((0.,-8.5,-0.30000001192092896));
#110=IFCCARTESIANPOINT((0.,-10.25,0.));
#111=IFCCARTESIANPOINT((0.,-10.25,-0.30000001192092896));
#112=IFCCARTESIANPOINT((0.,-12.,0.));
#113=IFCCARTESIANPOINT((0.,-12.,-0.30000001192092896));
#114=IFCCARTESIANPOINT((-1.25,-5.,0.));
#115=IFCCARTESIANPOINT((-1.25,-5.,-0.30000001192092896));
#116=IFCCARTESIANPOINT((-1.25,-12.,0.));
#117=IFCCARTESIANPOINT((-1.25,-12.,-0.30000001192092896));
#118=IFCCARTESIANPOINT((-2.5,-5.,0.));
#119=IFCCARTESIANPOINT((-2.5,-5.,-0.30000001192092896));
#120=IFCCARTESIANPOINT((-2.5,-12.,0.));
#121=IFCCARTESIANPOINT((-2.5,-12.,-0.30000001192092896));
#122=IFCCARTESIANPOINT((-3.75,-5.,0.));
#123=IFCCARTESIANPOINT((-3.75,-5.,-0.30000001192092896));
#124=IFCCARTESIANPOINT((-3.75,-12.,0.));
#125=IFCCARTESIANPOINT((-3.75,-12.,-0.30000001192092896));
#126=IFCCARTESIANPOINT((-5.,-5.,0.));
#127=IFCCARTESIANPOINT((-5.,-5.,-0.30000001192092896));
#128=IFCCARTESIANPOINT((-5.,-5.875,0.));
#129=IFCCARTESIANPOINT((-5.,-5.875,-0.30000001192092896));
#130=IFCCARTESIANPOINT((-5.,-6.75,0.));
#131=IFCCARTESIANPOINT((-5.,-6.75,-0.30000001192092896));
#132=IFCCARTESIANPOINT((-5.,-7.625,0.));
#133=IFCCARTESIANPOINT((-5.,-7.625,-0.30000001192092896));
#134=IFCCARTESIANPOINT((-5.,-8.5,0.));
#135=IFCCARTESIANPOINT((-5.,-8.5,-0.30000001192092896));
#136=IFCCARTESIANPOINT((-5.,-9.375,0.));
#137=IFCCARTESIANPOINT((-5.,-9.375,-0.30000001192092896));
#138=IFCCARTESIANPOINT((-5.,-10.25,0.));
#139=IFCCARTESIANPOINT((-5.,-10.25,-0.30000001192092896));
#140=IFCCARTESIANPOINT((-5.,-11.125,0.));
#141=IFCCARTESIANPOINT((-5.,-11.125,-0.30000001192092896));
#142=IFCCARTESIANPOINT((-5.,-12.,0.));
#143=IFCCARTESIANPOINT((-5.,-12.,-0.30000001192092896));
#144=IFCCARTESIANPOINT((-6.25,-5.,0.));
#145=IFCCARTESIANPOINT((-6.25,-5.,-0.30000001192092896));
#146=IFCCARTESIANPOINT((-6.25,-12.,0.));
#147=IFCCARTESIANPOINT((-6.25,-12.,-0.30000001192092896));
#148=IFCCARTESIANPOINT((-7.5,-5.,0.));
#149=IFCCARTESIANPOINT((-7.5,-5.,-0.30000001192092896));
#150=IFCCARTESIANPOINT((-7.5,-5.875,0.));
#151=IFCCARTESIANPOINT((-7.5,-5.875,-0.30000001192092896));
#152=IFCCARTESIANPOINT((-7.5,-6.75,0.));
#153=IFCCARTESIANPOINT((-7.5,-6.75,-0.30000001192092896));
#154=IFCCARTESIANPOINT((-7.5,-7.625,0.));
#155=IFCCARTESIANPOINT((-7.5,-7.625,-0.30000001192092896));
#156=IFCCARTESIANPOINT((-7.5,-8.5,0.));
#157=IFCCARTESIANPOINT((-7.5,-8.5,-0.30000001192092896));
#158=IFCCARTESIANPOINT((-7.5,-9.375,0.));
#159=IFCCARTESIANPOINT((-7.5,-9.375,-0.30000001192092896));
#160=IFCCARTESIANPOINT((-7.5,-10.25,0.));
#161=IFCCARTESIANPOINT((-7.5,-10.25,-0.30000001192092896));
#162=IFCCARTESIANPOINT((-7.5,-11.125,0.));
#163=IFCCARTESIANPOINT((-7.5,-11.125,-0.30000001192092896));
#164=IFCCARTESIANPOINT((-7.5,-12.,0.));
#165=IFCCARTESIANPOINT((-7.5,-12.,-0.30000001192092896));
#166=IFCCARTESIANPOINT((-8.75,-5.,0.));
#167=IFCCARTESIANPOINT((-8.75,-5.,-0.30000001192092896));
#168=IFCCARTESIANPOINT((-8.75,-12.,0.));
#169=IFCCARTESIANPOINT((-8.75,-12.,-0.30000001192092896));
#170=IFCCARTESIANPOINT((-10.,-5.,0.));
#171=IFCCARTESIANPOINT((-10.,-5.,-0.30000001192092896));
#172=IFCCARTESIANPOINT((-10.,-6.166666507720947,0.));
#173=IFCCARTESIANPOINT((-10.,-6.166666507720947,-0.30000001192092896));
#174=IFCCARTESIANPOINT((-10.,-7.333333492279053,0.));
#175=IFCCARTESIANPOINT((-10.,-7.333333492279053,-0.30000001192092896));
#176=IFCCARTESIANPOINT((-10.,-8.5,0.));
#177=IFCCARTESIANPOINT((-10.,-8.5,-0.30000001192092896));
#178=IFCCARTESIANPOINT((-10.,-9.666666984558105,0.));
#179=IFCCARTESIANPOINT((-10.,-9.666666984558105,-0.30000001192092896));
#180=IFCCARTESIANPOINT((-10.,-10.833333015441895,0.));
#181=IFCCARTESIANPOINT((-10.,-10.833333015441895,-0.30000001192092896));
#182=IFCCARTESIANPOINT((-10.,-12.,0.));
#183=IFCCARTESIANPOINT((-10.,-12.,-0.30000001192092896));
#184=IFCFACE((#185));
#185=IFCFACEOUTERBOUND(#186,.T.);
#186=IFCPOLYLOOP((#169,#168,#182,#183));
#187=IFCFACE((#188));
#188=IFCFACEOUTERBOUND(#189,.T.);
#189=IFCPOLYLOOP((#147,#146,#164,#165));
#190=IFCFACE((#191));
#191=IFCFACEOUTERBOUND(#192,.T.);
#192=IFCPOLYLOOP((#165,#164,#168,#169));
#193=IFCFACE((#194));
#194=IFCFACEOUTERBOUND(#195,.T.);
#195=IFCPOLYLOOP((#125,#124,#142,#143));
#196=IFCFACE((#197));
#197=IFCFACEOUTERBOUND(#198,.T.);
#198=IFCPOLYLOOP((#117,#116,#120,#121));
#199=IFCFACE((#200));
#200=IFCFACEOUTERBOUND(#201,.T.);
#201=IFCPOLYLOOP((#121,#120,#124,#125));
#202=IFCFACE((#203));
#203=IFCFACEOUTERBOUND(#204,.T.);
#204=IFCPOLYLOOP((#143,#142,#146,#147));
#205=IFCFACE((#206));
#206=IFCFACEOUTERBOUND(#207,.T.);
#207=IFCPOLYLOOP((#113,#112,#116,#117));
#208=IFCFACE((#209));
#209=IFCFACEOUTERBOUND(#210,.T.);
#210=IFCPOLYLOOP((#99,#98,#102,#103));
#211=IFCFACE((#212));
#212=IFCFACEOUTERBOUND(#213,.T.);
#213=IFCPOLYLOOP((#91,#90,#94,#95));
#214=IFCFACE((#215));
#215=IFCFACEOUTERBOUND(#216,.T.);
#216=IFCPOLYLOOP((#95,#94,#98,#99));
#217=IFCFACE((#218));
#218=IFCFACEOUTERBOUND(#219,.T.);
#219=IFCPOLYLOOP((#69,#68,#72,#73));
#220=IFCFACE((#221));
#221=IFCFACEOUTERBOUND(#222,.T.);
#222=IFCPOLYLOOP((#47,#46,#50,#51));
#223=IFCFACE((#224));
#224=IFCFACEOUTERBOUND(#225,.T.);
#225=IFCPOLYLOOP((#51,#50,#68,#69));
#226=IFCFACE((#227));
#227=IFCFACEOUTERBOUND(#228,.T.);
#228=IFCPOLYLOOP((#73,#72,#90,#91));
#229=IFCFACE((#230));
#230=IFCFACEOUTERBOUND(#231,.T.);
#231=IFCPOLYLOOP((#103,#102,#112,#113));
#232=IFCFACE((#233));
#233=IFCFACEOUTERBOUND(#234,.T.);
#234=IFCPOLYLOOP((#47,#45,#44,#46));
#235=IFCFACE((#236));
#236=IFCFACEOUTERBOUND(#237,.T.);
#237=IFCPOLYLOOP((#45,#43,#42,#44));
#238=IFCFACE((#239));
#239=IFCFACEOUTERBOUND(#240,.T.);
#240=IFCPOLYLOOP((#40,#42,#43,#41));
#241=IFCFACE((#242));
#242=IFCFACEOUTERBOUND(#243,.T.);
#243=IFCPOLYLOOP((#37,#36,#38,#39));
#244=IFCFACE((#245));
#245=IFCFACEOUTERBOUND(#246,.T.);
#246=IFCPOLYLOOP((#35,#34,#36,#37));
#247=IFCFACE((#248));
#248=IFCFACEOUTERBOUND(#249,.T.);
#249=IFCPOLYLOOP((#39,#38,#40,#41));
#250=IFCFACE((#251));
#251=IFCFACEOUTERBOUND(#252,.T.);
#252=IFCPOLYLOOP((#49,#48,#34,#35));
#253=IFCFACE((#254));
#254=IFCFACEOUTERBOUND(#255,.T.);
#255=IFCPOLYLOOP((#71,#70,#52,#53));
#256=IFCFACE((#257));
#257=IFCFACEOUTERBOUND(#258,.T.);
#258=IFCPOLYLOOP((#53,#52,#48,#49));
#259=IFCFACE((#260));
#260=IFCFACEOUTERBOUND(#261,.T.);
#261=IFCPOLYLOOP((#93,#92,#74,#75));
#262=IFCFACE((#263));
#263=IFCFACEOUTERBOUND(#264,.T.);
#264=IFCPOLYLOOP((#101,#100,#96,#97));
#265=IFCFACE((#266));
#266=IFCFACEOUTERBOUND(#267,.T.);
#267=IFCPOLYLOOP((#97,#96,#92,#93));
#268=IFCFACE((#269));
#269=IFCFACEOUTERBOUND(#270,.T.);
#270=IFCPOLYLOOP((#75,#74,#70,#71));
#271=IFCFACE((#272));
#272=IFCFACEOUTERBOUND(#273,.T.);
#273=IFCPOLYLOOP((#105,#104,#100,#101));
#274=IFCFACE((#275));
#275=IFCFACEOUTERBOUND(#276,.T.);
#276=IFCPOLYLOOP((#119,#118,#114,#115));
#277=IFCFACE((#278));
#278=IFCFACEOUTERBOUND(#279,.T.);
#279=IFCPOLYLOOP((#127,#126,#122,#123));
#280=IFCFACE((#281));
#281=IFCFACEOUTERBOUND(#282,.T.);
#282=IFCPOLYLOOP((#123,#122,#118,#119));
#283=IFCFACE((#284));
#284=IFCFACEOUTERBOUND(#285,.T.);
#285=IFCPOLYLOOP((#149,#148,#144,#145));
#286=IFCFACE((#287));
#287=IFCFACEOUTERBOUND(#288,.T.);
#288=IFCPOLYLOOP((#171,#170,#166,#167));
#289=IFCFACE((#290));
#290=IFCFACEOUTERBOUND(#291,.T.);
#291=IFCPOLYLOOP((#167,#166,#148,#149));
#292=IFCFACE((#293));
#293=IFCFACEOUTERBOUND(#294,.T.);
#294=IFCPOLYLOOP((#145,#144,#126,#127));
#295=IFCFACE((#296));
#296=IFCFACEOUTERBOUND(#297,.T.);
#297=IFCPOLYLOOP((#115,#114,#104,#105));
#298=IFCFACE((#299));
#299=IFCFACEOUTERBOUND(#300,.T.);
#300=IFCPOLYLOOP((#173,#172,#170,#171));
#301=IFCFACE((#302));
#302=IFCFACEOUTERBOUND(#303,.T.);
#303=IFCPOLYLOOP((#175,#174,#172,#173));
#304=IFCFACE((#305));
#305=IFCFACEOUTERBOUND(#306,.T.);
#306=IFCPOLYLOOP((#177,#176,#174,#175));
#307=IFCFACE((#308));
#308=IFCFACEOUTERBOUND(#309,.T.);
#309=IFCPOLYLOOP((#179,#181,#180,#178));
#310=IFCFACE((#311));
#311=IFCFACEOUTERBOUND(#312,.T.);
#312=IFCPOLYLOOP((#181,#183,#182,#180));
#313=IFCFACE((#314));
#314=IFCFACEOUTERBOUND(#315,.T.);
#315=IFCPOLYLOOP((#179,#178,#176,#177));
#316=IFCFACE((#317));
#317=IFCFACEOUTERBOUND(#318,.T.);
#318=IFCPOLYLOOP((#55,#57,#79,#77));
#319=IFCFACE((#320));
#320=IFCFACEOUTERBOUND(#321,.T.);
#321=IFCPOLYLOOP((#59,#61,#83,#81));
#322=IFCFACE((#323));
#323=IFCFACEOUTERBOUND(#324,.T.);
#324=IFCPOLYLOOP((#57,#59,#81,#79));
#325=IFCFACE((#326));
#326=IFCFACEOUTERBOUND(#327,.T.);
#327=IFCPOLYLOOP((#81,#83,#109));
#328=IFCFACE((#329));
#329=IFCFACEOUTERBOUND(#330,.T.);
#330=IFCPOLYLOOP((#107,#79,#81));
#331=IFCFACE((#332));
#332=IFCFACEOUTERBOUND(#333,.T.);
#333=IFCPOLYLOOP((#109,#107,#81));
#334=IFCFACE((#335));
#335=IFCFACEOUTERBOUND(#336,.T.);
#336=IFCPOLYLOOP((#63,#65,#87,#85));
#337=IFCFACE((#338));
#338=IFCFACEOUTERBOUND(#339,.T.);
#339=IFCPOLYLOOP((#61,#63,#85,#83));
#340=IFCFACE((#341));
#341=IFCFACEOUTERBOUND(#342,.T.);
#342=IFCPOLYLOOP((#65,#67,#89,#87));
#343=IFCFACE((#344));
#344=IFCFACEOUTERBOUND(#345,.T.);
#345=IFCPOLYLOOP((#85,#87,#111));
#346=IFCFACE((#347));
#347=IFCFACEOUTERBOUND(#348,.T.);
#348=IFCPOLYLOOP((#109,#83,#85));
#349=IFCFACE((#350));
#350=IFCFACEOUTERBOUND(#351,.T.);
#351=IFCPOLYLOOP((#111,#109,#85));
#352=IFCFACE((#353));
#353=IFCFACEOUTERBOUND(#354,.T.);
#354=IFCPOLYLOOP((#137,#135,#109));
#355=IFCFACE((#356));
#356=IFCFACEOUTERBOUND(#357,.T.);
#357=IFCPOLYLOOP((#111,#139,#137));
#358=IFCFACE((#359));
#359=IFCFACEOUTERBOUND(#360,.T.);
#360=IFCPOLYLOOP((#109,#111,#137));
#361=IFCFACE((#362));
#362=IFCFACEOUTERBOUND(#363,.T.);
#363=IFCPOLYLOOP((#139,#141,#163,#161));
#364=IFCFACE((#365));
#365=IFCFACEOUTERBOUND(#366,.T.);
#366=IFCPOLYLOOP((#135,#137,#159,#157));
#367=IFCFACE((#368));
#368=IFCFACEOUTERBOUND(#369,.T.);
#369=IFCPOLYLOOP((#137,#139,#161,#159));
#370=IFCFACE((#371));
#371=IFCFACEOUTERBOUND(#372,.T.);
#372=IFCPOLYLOOP((#133,#131,#107));
#373=IFCFACE((#374));
#374=IFCFACEOUTERBOUND(#375,.T.);
#375=IFCPOLYLOOP((#109,#135,#133));
#376=IFCFACE((#377));
#377=IFCFACEOUTERBOUND(#378,.T.);
#378=IFCPOLYLOOP((#107,#109,#133));
#379=IFCFACE((#380));
#380=IFCFACEOUTERBOUND(#381,.T.);
#381=IFCPOLYLOOP((#131,#133,#155,#153));
#382=IFCFACE((#383));
#383=IFCFACEOUTERBOUND(#384,.T.);
#384=IFCPOLYLOOP((#133,#135,#157,#155));
#385=IFCFACE((#386));
#386=IFCFACEOUTERBOUND(#387,.T.);
#387=IFCPOLYLOOP((#129,#131,#153,#151));
#388=IFCFACE((#389));
#389=IFCFACEOUTERBOUND(#390,.T.);
#390=IFCPOLYLOOP((#181,#169,#183));
#391=IFCFACE((#392));
#392=IFCFACEOUTERBOUND(#393,.T.);
#393=IFCPOLYLOOP((#163,#147,#165));
#394=IFCFACE((#395));
#395=IFCFACEOUTERBOUND(#396,.T.);
#396=IFCPOLYLOOP((#165,#169,#163));
#397=IFCFACE((#398));
#398=IFCFACEOUTERBOUND(#399,.T.);
#399=IFCPOLYLOOP((#141,#125,#143));
#400=IFCFACE((#401));
#401=IFCFACEOUTERBOUND(#402,.T.);
#402=IFCPOLYLOOP((#121,#111,#117));
#403=IFCFACE((#404));
#404=IFCFACEOUTERBOUND(#405,.T.);
#405=IFCPOLYLOOP((#121,#125,#141));
#406=IFCFACE((#407));
#407=IFCFACEOUTERBOUND(#408,.T.);
#408=IFCPOLYLOOP((#143,#147,#141));
#409=IFCFACE((#410));
#410=IFCFACEOUTERBOUND(#411,.T.);
#411=IFCPOLYLOOP((#181,#161,#163));
#412=IFCFACE((#413));
#413=IFCFACEOUTERBOUND(#414,.T.);
#414=IFCPOLYLOOP((#169,#181,#163));
#415=IFCFACE((#416));
#416=IFCFACEOUTERBOUND(#417,.T.);
#417=IFCPOLYLOOP((#181,#179,#159,#161));
#418=IFCFACE((#419));
#419=IFCFACEOUTERBOUND(#420,.T.);
#420=IFCPOLYLOOP((#179,#177,#157,#159));
#421=IFCFACE((#422));
#422=IFCFACEOUTERBOUND(#423,.T.);
#423=IFCPOLYLOOP((#139,#111,#141));
#424=IFCFACE((#425));
#425=IFCFACEOUTERBOUND(#426,.T.);
#426=IFCPOLYLOOP((#141,#111,#121));
#427=IFCFACE((#428));
#428=IFCFACEOUTERBOUND(#429,.T.);
#429=IFCPOLYLOOP((#155,#157,#177,#175));
#430=IFCFACE((#431));
#431=IFCFACEOUTERBOUND(#432,.T.);
#432=IFCPOLYLOOP((#147,#163,#141));
#433=IFCFACE((#434));
#434=IFCFACEOUTERBOUND(#435,.T.);
#435=IFCPOLYLOOP((#111,#103,#113));
#436=IFCFACE((#437));
#437=IFCFACEOUTERBOUND(#438,.T.);
#438=IFCPOLYLOOP((#89,#95,#99));
#439=IFCFACE((#440));
#440=IFCFACEOUTERBOUND(#441,.T.);
#441=IFCPOLYLOOP((#99,#103,#111));
#442=IFCFACE((#443));
#443=IFCFACEOUTERBOUND(#444,.T.);
#444=IFCPOLYLOOP((#89,#73,#91));
#445=IFCFACE((#446));
#446=IFCFACEOUTERBOUND(#447,.T.);
#447=IFCPOLYLOOP((#67,#51,#69));
#448=IFCFACE((#449));
#449=IFCFACEOUTERBOUND(#450,.T.);
#450=IFCPOLYLOOP((#69,#73,#67));
#451=IFCFACE((#452));
#452=IFCFACEOUTERBOUND(#453,.T.);
#453=IFCPOLYLOOP((#91,#95,#89));
#454=IFCFACE((#455));
#455=IFCFACEOUTERBOUND(#456,.T.);
#456=IFCPOLYLOOP((#67,#45,#51));
#457=IFCFACE((#458));
#458=IFCFACEOUTERBOUND(#459,.T.);
#459=IFCPOLYLOOP((#89,#111,#87));
#460=IFCFACE((#461));
#461=IFCFACEOUTERBOUND(#462,.T.);
#462=IFCPOLYLOOP((#111,#89,#99));
#463=IFCFACE((#464));
#464=IFCFACEOUTERBOUND(#465,.T.);
#465=IFCPOLYLOOP((#47,#51,#45));
#466=IFCFACE((#467));
#467=IFCFACEOUTERBOUND(#468,.T.);
#468=IFCPOLYLOOP((#43,#65,#63));
#469=IFCFACE((#470));
#470=IFCFACEOUTERBOUND(#471,.T.);
#471=IFCPOLYLOOP((#41,#43,#63,#61));
#472=IFCFACE((#473));
#473=IFCFACEOUTERBOUND(#474,.T.);
#474=IFCPOLYLOOP((#43,#45,#67,#65));
#475=IFCFACE((#476));
#476=IFCFACEOUTERBOUND(#477,.T.);
#477=IFCPOLYLOOP((#89,#67,#73));
#478=IFCFACE((#479));
#479=IFCFACEOUTERBOUND(#480,.T.);
#480=IFCPOLYLOOP((#111,#113,#117));
#481=IFCFACE((#482));
#482=IFCFACEOUTERBOUND(#483,.T.);
#483=IFCPOLYLOOP((#153,#155,#175));
#484=IFCFACE((#485));
#485=IFCFACEOUTERBOUND(#486,.T.);
#486=IFCPOLYLOOP((#151,#153,#173));
#487=IFCFACE((#488));
#488=IFCFACEOUTERBOUND(#489,.T.);
#489=IFCPOLYLOOP((#175,#173,#153));
#490=IFCFACE((#491));
#491=IFCFACEOUTERBOUND(#492,.T.);
#492=IFCPOLYLOOP((#129,#107,#131));
#493=IFCFACE((#494));
#494=IFCFACEOUTERBOUND(#495,.T.);
#495=IFCPOLYLOOP((#145,#129,#151));
#496=IFCFACE((#497));
#497=IFCFACEOUTERBOUND(#498,.T.);
#498=IFCPOLYLOOP((#119,#107,#129));
#499=IFCFACE((#500));
#500=IFCFACEOUTERBOUND(#501,.T.);
#501=IFCPOLYLOOP((#151,#173,#167));
#502=IFCFACE((#503));
#503=IFCFACEOUTERBOUND(#504,.T.);
#504=IFCPOLYLOOP((#173,#171,#167));
#505=IFCFACE((#506));
#506=IFCFACEOUTERBOUND(#507,.T.);
#507=IFCPOLYLOOP((#151,#149,#145));
#508=IFCFACE((#509));
#509=IFCFACEOUTERBOUND(#510,.T.);
#510=IFCPOLYLOOP((#151,#167,#149));
#511=IFCFACE((#512));
#512=IFCFACEOUTERBOUND(#513,.T.);
#513=IFCPOLYLOOP((#129,#127,#123));
#514=IFCFACE((#515));
#515=IFCFACEOUTERBOUND(#516,.T.);
#516=IFCPOLYLOOP((#107,#119,#115));
#517=IFCFACE((#518));
#518=IFCFACEOUTERBOUND(#519,.T.);
#519=IFCPOLYLOOP((#107,#115,#105));
#520=IFCFACE((#521));
#521=IFCFACEOUTERBOUND(#522,.T.);
#522=IFCPOLYLOOP((#129,#123,#119));
#523=IFCFACE((#524));
#524=IFCFACEOUTERBOUND(#525,.T.);
#525=IFCPOLYLOOP((#129,#145,#127));
#526=IFCFACE((#527));
#527=IFCFACEOUTERBOUND(#528,.T.);
#528=IFCPOLYLOOP((#101,#107,#105));
#529=IFCFACE((#530));
#530=IFCFACEOUTERBOUND(#531,.T.);
#531=IFCPOLYLOOP((#61,#59,#39,#41));
#532=IFCFACE((#533));
#533=IFCFACEOUTERBOUND(#534,.T.);
#534=IFCPOLYLOOP((#77,#79,#107));
#535=IFCFACE((#536));
#536=IFCFACEOUTERBOUND(#537,.T.);
#537=IFCPOLYLOOP((#39,#57,#37));
#538=IFCFACE((#539));
#539=IFCFACEOUTERBOUND(#540,.T.);
#540=IFCPOLYLOOP((#57,#55,#37));
#541=IFCFACE((#542));
#542=IFCFACEOUTERBOUND(#543,.T.);
#543=IFCPOLYLOOP((#39,#59,#57));
#544=IFCFACE((#545));
#545=IFCFACEOUTERBOUND(#546,.T.);
#546=IFCPOLYLOOP((#97,#93,#77));
#547=IFCFACE((#548));
#548=IFCFACEOUTERBOUND(#549,.T.);
#549=IFCPOLYLOOP((#75,#71,#77));
#550=IFCFACE((#551));
#551=IFCFACEOUTERBOUND(#552,.T.);
#552=IFCPOLYLOOP((#93,#75,#77));
#553=IFCFACE((#554));
#554=IFCFACEOUTERBOUND(#555,.T.);
#555=IFCPOLYLOOP((#53,#55,#71));
#556=IFCFACE((#557));
#557=IFCFACEOUTERBOUND(#558,.T.);
#558=IFCPOLYLOOP((#71,#55,#77));
#559=IFCFACE((#560));
#560=IFCFACEOUTERBOUND(#561,.T.);
#561=IFCPOLYLOOP((#55,#53,#49));
#562=IFCFACE((#563));
#563=IFCFACEOUTERBOUND(#564,.T.);
#564=IFCPOLYLOOP((#49,#35,#37));
#565=IFCFACE((#566));
#566=IFCFACEOUTERBOUND(#567,.T.);
#567=IFCPOLYLOOP((#55,#49,#37));
#568=IFCFACE((#569));
#569=IFCFACEOUTERBOUND(#570,.T.);
#570=IFCPOLYLOOP((#97,#77,#107));
#571=IFCFACE((#572));
#572=IFCFACEOUTERBOUND(#573,.T.);
#573=IFCPOLYLOOP((#101,#97,#107));
#574=IFCFACE((#575));
#575=IFCFACEOUTERBOUND(#576,.T.);
#576=IFCPOLYLOOP((#54,#76,#78,#56));
#577=IFCFACE((#578));
#578=IFCFACEOUTERBOUND(#579,.T.);
#579=IFCPOLYLOOP((#80,#78,#106));
#580=IFCFACE((#581));
#581=IFCFACEOUTERBOUND(#582,.T.);
#582=IFCPOLYLOOP((#108,#82,#80));
#583=IFCFACE((#584));
#584=IFCFACEOUTERBOUND(#585,.T.);
#585=IFCPOLYLOOP((#106,#108,#80));
#586=IFCFACE((#587));
#587=IFCFACEOUTERBOUND(#588,.T.);
#588=IFCPOLYLOOP((#56,#78,#80,#58));
#589=IFCFACE((#590));
#590=IFCFACEOUTERBOUND(#591,.T.);
#591=IFCPOLYLOOP((#58,#80,#82,#60));
#592=IFCFACE((#593));
#593=IFCFACEOUTERBOUND(#594,.T.);
#594=IFCPOLYLOOP((#128,#150,#152,#130));
#595=IFCFACE((#596));
#596=IFCFACEOUTERBOUND(#597,.T.);
#597=IFCPOLYLOOP((#130,#152,#154,#132));
#598=IFCFACE((#599));
#599=IFCFACEOUTERBOUND(#600,.T.);
#600=IFCPOLYLOOP((#132,#154,#156,#134));
#601=IFCFACE((#602));
#602=IFCFACEOUTERBOUND(#603,.T.);
#603=IFCPOLYLOOP((#132,#134,#108));
#604=IFCFACE((#605));
#605=IFCFACEOUTERBOUND(#606,.T.);
#606=IFCPOLYLOOP((#106,#130,#132));
#607=IFCFACE((#608));
#608=IFCFACEOUTERBOUND(#609,.T.);
#609=IFCPOLYLOOP((#108,#106,#132));
#610=IFCFACE((#611));
#611=IFCFACEOUTERBOUND(#612,.T.);
#612=IFCPOLYLOOP((#136,#138,#110));
#613=IFCFACE((#614));
#614=IFCFACEOUTERBOUND(#615,.T.);
#615=IFCPOLYLOOP((#108,#134,#136));
#616=IFCFACE((#617));
#617=IFCFACEOUTERBOUND(#618,.T.);
#618=IFCPOLYLOOP((#110,#108,#136));
#619=IFCFACE((#620));
#620=IFCFACEOUTERBOUND(#621,.T.);
#621=IFCPOLYLOOP((#134,#156,#158,#136));
#622=IFCFACE((#623));
#623=IFCFACEOUTERBOUND(#624,.T.);
#624=IFCPOLYLOOP((#136,#158,#160,#138));
#625=IFCFACE((#626));
#626=IFCFACEOUTERBOUND(#627,.T.);
#627=IFCPOLYLOOP((#138,#160,#162,#140));
#628=IFCFACE((#629));
#629=IFCFACEOUTERBOUND(#630,.T.);
#630=IFCPOLYLOOP((#60,#82,#84,#62));
#631=IFCFACE((#632));
#632=IFCFACEOUTERBOUND(#633,.T.);
#633=IFCPOLYLOOP((#62,#84,#86,#64));
#634=IFCFACE((#635));
#635=IFCFACEOUTERBOUND(#636,.T.);
#636=IFCPOLYLOOP((#84,#82,#108));
#637=IFCFACE((#638));
#638=IFCFACEOUTERBOUND(#639,.T.);
#639=IFCPOLYLOOP((#110,#86,#84));
#640=IFCFACE((#641));
#641=IFCFACEOUTERBOUND(#642,.T.);
#642=IFCPOLYLOOP((#108,#110,#84));
#643=IFCFACE((#644));
#644=IFCFACEOUTERBOUND(#645,.T.);
#645=IFCPOLYLOOP((#64,#86,#88,#66));
#646=IFCFACE((#647));
#647=IFCFACEOUTERBOUND(#648,.T.);
#648=IFCPOLYLOOP((#168,#180,#182));
#649=IFCFACE((#650));
#650=IFCFACEOUTERBOUND(#651,.T.);
#651=IFCPOLYLOOP((#168,#164,#162));
#652=IFCFACE((#653));
#653=IFCFACEOUTERBOUND(#654,.T.);
#654=IFCPOLYLOOP((#146,#162,#164));
#655=IFCFACE((#656));
#656=IFCFACEOUTERBOUND(#657,.T.);
#657=IFCPOLYLOOP((#162,#180,#168));
#658=IFCFACE((#659));
#659=IFCFACEOUTERBOUND(#660,.T.);
#660=IFCPOLYLOOP((#178,#180,#160,#158));
#661=IFCFACE((#662));
#662=IFCFACEOUTERBOUND(#663,.T.);
#663=IFCPOLYLOOP((#160,#180,#162));
#664=IFCFACE((#665));
#665=IFCFACEOUTERBOUND(#666,.T.);
#666=IFCPOLYLOOP((#176,#178,#158,#156));
#667=IFCFACE((#668));
#668=IFCFACEOUTERBOUND(#669,.T.);
#669=IFCPOLYLOOP((#140,#146,#142));
#670=IFCFACE((#671));
#671=IFCFACEOUTERBOUND(#672,.T.);
#672=IFCPOLYLOOP((#140,#124,#120));
#673=IFCFACE((#674));
#674=IFCFACEOUTERBOUND(#675,.T.);
#675=IFCPOLYLOOP((#140,#142,#124));
#676=IFCFACE((#677));
#677=IFCFACEOUTERBOUND(#678,.T.);
#678=IFCPOLYLOOP((#110,#138,#140));
#679=IFCFACE((#680));
#680=IFCFACEOUTERBOUND(#681,.T.);
#681=IFCPOLYLOOP((#110,#116,#112));
#682=IFCFACE((#683));
#683=IFCFACEOUTERBOUND(#684,.T.);
#684=IFCPOLYLOOP((#102,#110,#112));
#685=IFCFACE((#686));
#686=IFCFACEOUTERBOUND(#687,.T.);
#687=IFCPOLYLOOP((#120,#110,#140));
#688=IFCFACE((#689));
#689=IFCFACEOUTERBOUND(#690,.T.);
#690=IFCPOLYLOOP((#110,#120,#116));
#691=IFCFACE((#692));
#692=IFCFACEOUTERBOUND(#693,.T.);
#693=IFCPOLYLOOP((#146,#140,#162));
#694=IFCFACE((#695));
#695=IFCFACEOUTERBOUND(#696,.T.);
#696=IFCPOLYLOOP((#174,#176,#156,#154));
#697=IFCFACE((#698));
#698=IFCFACEOUTERBOUND(#699,.T.);
#699=IFCPOLYLOOP((#152,#174,#154));
#700=IFCFACE((#701));
#701=IFCFACEOUTERBOUND(#702,.T.);
#702=IFCPOLYLOOP((#166,#170,#172));
#703=IFCFACE((#704));
#704=IFCFACEOUTERBOUND(#705,.T.);
#705=IFCPOLYLOOP((#152,#150,#172));
#706=IFCFACE((#707));
#707=IFCFACEOUTERBOUND(#708,.T.);
#708=IFCPOLYLOOP((#166,#172,#150));
#709=IFCFACE((#710));
#710=IFCFACEOUTERBOUND(#711,.T.);
#711=IFCPOLYLOOP((#152,#172,#174));
#712=IFCFACE((#713));
#713=IFCFACEOUTERBOUND(#714,.T.);
#714=IFCPOLYLOOP((#166,#150,#148));
#715=IFCFACE((#716));
#716=IFCFACEOUTERBOUND(#717,.T.);
#717=IFCPOLYLOOP((#150,#144,#148));
#718=IFCFACE((#719));
#719=IFCFACEOUTERBOUND(#720,.T.);
#720=IFCPOLYLOOP((#128,#106,#118));
#721=IFCFACE((#722));
#722=IFCFACEOUTERBOUND(#723,.T.);
#723=IFCPOLYLOOP((#128,#144,#150));
#724=IFCFACE((#725));
#725=IFCFACEOUTERBOUND(#726,.T.);
#726=IFCPOLYLOOP((#128,#126,#144));
#727=IFCFACE((#728));
#728=IFCFACEOUTERBOUND(#729,.T.);
#729=IFCPOLYLOOP((#128,#118,#122));
#730=IFCFACE((#731));
#731=IFCFACEOUTERBOUND(#732,.T.);
#732=IFCPOLYLOOP((#118,#106,#114));
#733=IFCFACE((#734));
#734=IFCFACEOUTERBOUND(#735,.T.);
#735=IFCPOLYLOOP((#122,#126,#128));
#736=IFCFACE((#737));
#737=IFCFACEOUTERBOUND(#738,.T.);
#738=IFCPOLYLOOP((#106,#128,#130));
#739=IFCFACE((#740));
#740=IFCFACEOUTERBOUND(#741,.T.);
#741=IFCPOLYLOOP((#110,#98,#88));
#742=IFCFACE((#743));
#743=IFCFACEOUTERBOUND(#744,.T.);
#744=IFCPOLYLOOP((#88,#94,#90));
#745=IFCFACE((#746));
#746=IFCFACEOUTERBOUND(#747,.T.);
#747=IFCPOLYLOOP((#88,#98,#94));
#748=IFCFACE((#749));
#749=IFCFACEOUTERBOUND(#750,.T.);
#750=IFCPOLYLOOP((#88,#86,#110));
#751=IFCFACE((#752));
#752=IFCFACEOUTERBOUND(#753,.T.);
#753=IFCPOLYLOOP((#66,#88,#72));
#754=IFCFACE((#755));
#755=IFCFACEOUTERBOUND(#756,.T.);
#756=IFCPOLYLOOP((#72,#88,#90));
#757=IFCFACE((#758));
#758=IFCFACEOUTERBOUND(#759,.T.);
#759=IFCPOLYLOOP((#72,#68,#66));
#760=IFCFACE((#761));
#761=IFCFACEOUTERBOUND(#762,.T.);
#762=IFCPOLYLOOP((#44,#66,#50));
#763=IFCFACE((#764));
#764=IFCFACEOUTERBOUND(#765,.T.);
#765=IFCPOLYLOOP((#68,#50,#66));
#766=IFCFACE((#767));
#767=IFCFACEOUTERBOUND(#768,.T.);
#768=IFCPOLYLOOP((#50,#46,#44));
#769=IFCFACE((#770));
#770=IFCFACEOUTERBOUND(#771,.T.);
#771=IFCPOLYLOOP((#64,#66,#44));
#772=IFCFACE((#773));
#773=IFCFACEOUTERBOUND(#774,.T.);
#774=IFCPOLYLOOP((#42,#62,#64));
#775=IFCFACE((#776));
#776=IFCFACEOUTERBOUND(#777,.T.);
#777=IFCPOLYLOOP((#60,#62,#42,#40));
#778=IFCFACE((#779));
#779=IFCFACEOUTERBOUND(#780,.T.);
#780=IFCPOLYLOOP((#58,#60,#40,#38));
#781=IFCFACE((#782));
#782=IFCFACEOUTERBOUND(#783,.T.);
#783=IFCPOLYLOOP((#42,#64,#44));
#784=IFCFACE((#785));
#785=IFCFACEOUTERBOUND(#786,.T.);
#786=IFCPOLYLOOP((#114,#106,#104));
#787=IFCFACE((#788));
#788=IFCFACEOUTERBOUND(#789,.T.);
#789=IFCPOLYLOOP((#106,#100,#104));
#790=IFCFACE((#791));
#791=IFCFACEOUTERBOUND(#792,.T.);
#792=IFCPOLYLOOP((#106,#78,#76));
#793=IFCFACE((#794));
#794=IFCFACEOUTERBOUND(#795,.T.);
#795=IFCPOLYLOOP((#76,#96,#106));
#796=IFCFACE((#797));
#797=IFCFACEOUTERBOUND(#798,.T.);
#798=IFCPOLYLOOP((#106,#96,#100));
#799=IFCFACE((#800));
#800=IFCFACEOUTERBOUND(#801,.T.);
#801=IFCPOLYLOOP((#76,#74,#92));
#802=IFCFACE((#803));
#803=IFCFACEOUTERBOUND(#804,.T.);
#804=IFCPOLYLOOP((#92,#96,#76));
#805=IFCFACE((#806));
#806=IFCFACEOUTERBOUND(#807,.T.);
#807=IFCPOLYLOOP((#74,#76,#70));
#808=IFCFACE((#809));
#809=IFCFACEOUTERBOUND(#810,.T.);
#810=IFCPOLYLOOP((#38,#56,#58));
#811=IFCFACE((#812));
#812=IFCFACEOUTERBOUND(#813,.T.);
#813=IFCPOLYLOOP((#56,#38,#36));
#814=IFCFACE((#815));
#815=IFCFACEOUTERBOUND(#816,.T.);
#816=IFCPOLYLOOP((#54,#56,#36));
#817=IFCFACE((#818));
#818=IFCFACEOUTERBOUND(#819,.T.);
#819=IFCPOLYLOOP((#52,#70,#54));
#820=IFCFACE((#821));
#821=IFCFACEOUTERBOUND(#822,.T.);
#822=IFCPOLYLOOP((#54,#70,#76));
#823=IFCFACE((#824));
#824=IFCFACEOUTERBOUND(#825,.T.);
#825=IFCPOLYLOOP((#54,#48,#52));
#826=IFCFACE((#827));
#827=IFCFACEOUTERBOUND(#828,.T.);
#828=IFCPOLYLOOP((#36,#48,#54));
#829=IFCFACE((#830));
#830=IFCFACEOUTERBOUND(#831,.T.);
#831=IFCPOLYLOOP((#48,#36,#34));
#832=IFCFACE((#833));
#833=IFCFACEOUTERBOUND(#834,.T.);
#834=IFCPOLYLOOP((#110,#102,#98));
#835=IFCSHAPEREPRESENTATION(#836,'Body','Brep',(#32));
#836=IFCGEOMETRICREPRESENTATIONSUBCONTEXT('Body','Model',*,*,*,*,#13,$,.MODEL_VIEW.,$);
#837=IFCPRODUCTDEFINITIONSHAPE($,$,(#835));
#838=IFCRELCONTAINEDINSPATIALSTRUCTURE('3KrqABUmDIzQ10LJsWSuJB',#5,$,$,(#28),#24);
#839=IFCRELAGGREGATES('2MpohNuHHNqeujtWXPWqg$',#5,$,$,#20,(#24));
#840=IFCBUILDING('0P8TqK2RPNEBWzj_XhR04j',#5,'Hopper Building',$,$,#841,$,$,.ELEMENT.,$,$,$);
#841=IFCLOCALPLACEMENT(#17,#842);
#842=IFCAXIS2PLACEMENT3D(#843,$,$);
#843=IFCCARTESIANPOINT((0.,0.,0.));
#844=IFCBUILDINGSTOREY('0eJX5kEx9G9Anfis3ZMPhr',#5,'Hopper Storey',$,$,#845,$,$,.ELEMENT.,0.);
#845=IFCLOCALPLACEMENT(#841,#846);
#846=IFCAXIS2PLACEMENT3D(#847,$,$);
#847=IFCCARTESIANPOINT((0.,0.,0.));
#848=IFCWALL('0vAbXIXi5MJxXRqP_AHjEj',#5,'Glass-topped wall',$,$,#849,#1142,$);
#849=IFCLOCALPLACEMENT(#845,#850);
#850=IFCAXIS2PLACEMENT3D(#851,$,$);
#851=IFCCARTESIANPOINT((0.,0.,0.));
#852=IFCMATERIAL('Concrete');
#853=IFCFACETEDBREP(#854);
#854=IFCCLOSEDSHELL((#917,#920,#923,#926,#929,#932,#935,#938,#941,#944,#947,#950,#953,#956,#959,#962,#965,#968,#971,#974,#977,#980,#983,#986,#989,#992,#995,#998,#1001,#1004,#1007,#1010,#1013,#1016,#1019,#1022,#1025,#1028,#1031,#1034,#1037,#1040,#1043,#1046,#1049,#1052,#1055,#1058,#1061,#1064,#1067,#1070,#1073,#1076,#1079,#1082,#1085,#1088,#1091,#1094,#1097,#1100,#1103,#1106,#1109,#1112,#1115,#1118,#1121,#1124,#1127,#1130,#1133));
#855=IFCCARTESIANPOINT((6.,0.20000000298023224,3.));
#856=IFCCARTESIANPOINT((6.,0.20000000298023224,2.25));
#857=IFCCARTESIANPOINT((6.,0.20000000298023224,1.5));
#858=IFCCARTESIANPOINT((6.,0.20000000298023224,0.75));
#859=IFCCARTESIANPOINT((6.,0.20000000298023224,0.));
#860=IFCCARTESIANPOINT((6.,0.,3.));
#861=IFCCARTESIANPOINT((6.,0.,2.25));
#862=IFCCARTESIANPOINT((6.,0.,1.5));
#863=IFCCARTESIANPOINT((6.,0.,0.75));
#864=IFCCARTESIANPOINT((6.,0.,0.));
#865=IFCCARTESIANPOINT((5.142857074737549,0.20000000298023224,3.));
#866=IFCCARTESIANPOINT((5.142857074737549,0.20000000298023224,0.));
#867=IFCCARTESIANPOINT((5.142857074737549,0.,3.));
#868=IFCCARTESIANPOINT((5.142857074737549,0.,0.));
#869=IFCCARTESIANPOINT((4.5,0.20000000298023224,2.25));
#870=IFCCARTESIANPOINT((4.5,0.20000000298023224,1.5));
#871=IFCCARTESIANPOINT((4.5,0.20000000298023224,0.75));
#872=IFCCARTESIANPOINT((4.5,0.,2.25));
#873=IFCCARTESIANPOINT((4.5,0.,1.5));
#874=IFCCARTESIANPOINT((4.5,0.,0.75));
#875=IFCCARTESIANPOINT((4.285714149475098,0.20000000298023224,3.));
#876=IFCCARTESIANPOINT((4.285714149475098,0.20000000298023224,0.));
#877=IFCCARTESIANPOINT((4.285714149475098,0.,3.));
#878=IFCCARTESIANPOINT((4.285714149475098,0.,0.));
#879=IFCCARTESIANPOINT((3.4285714626312256,0.20000000298023224,3.));
#880=IFCCARTESIANPOINT((3.4285714626312256,0.20000000298023224,0.));
#881=IFCCARTESIANPOINT((3.4285714626312256,0.,3.));
#882=IFCCARTESIANPOINT((3.4285714626312256,0.,0.));
#883=IFCCARTESIANPOINT((3.,0.20000000298023224,2.25));
#884=IFCCARTESIANPOINT((3.,0.20000000298023224,1.5));
#885=IFCCARTESIANPOINT((3.,0.20000000298023224,0.75));
#886=IFCCARTESIANPOINT((3.,0.,2.25));
#887=IFCCARTESIANPOINT((3.,0.,1.5));
#888=IFCCARTESIANPOINT((3.,0.,0.75));
#889=IFCCARTESIANPOINT((2.5714285373687744,0.20000000298023224,3.));
#890=IFCCARTESIANPOINT((2.5714285373687744,0.20000000298023224,0.));
#891=IFCCARTESIANPOINT((2.5714285373687744,0.,3.));
#892=IFCCARTESIANPOINT((2.5714285373687744,0.,0.));
#893=IFCCARTESIANPOINT((1.7142857313156128,0.20000000298023224,3.));
#894=IFCCARTESIANPOINT((1.7142857313156128,0.20000000298023224,0.));
#895=IFCCARTESIANPOINT((1.7142857313156128,0.,3.));
#896=IFCCARTESIANPOINT((1.7142857313156128,0.,0.));
#897=IFCCARTESIANPOINT((1.5,0.20000000298023224,2.25));
#898=IFCCARTESIANPOINT((1.5,0.20000000298023224,1.5));
#899=IFCCARTESIANPOINT((1.5,0.20000000298023224,0.75));
#900=IFCCARTESIANPOINT((1.5,0.,2.25));
#901=IFCCARTESIANPOINT((1.5,0.,1.5));
#902=IFCCARTESIANPOINT((1.5,0.,0.75));
#903=IFCCARTESIANPOINT((0.8571428656578064,0.20000000298023224,3.));
#904=IFCCARTESIANPOINT((0.8571428656578064,0.20000000298023224,0.));
#905=IFCCARTESIANPOINT((0.8571428656578064,0.,3.));
#906=IFCCARTESIANPOINT((0.8571428656578064,0.,0.));
#907=IFCCARTESIANPOINT((0.,0.20000000298023224,3.));
#908=IFCCARTESIANPOINT((0.,0.20000000298023224,2.25));
#909=IFCCARTESIANPOINT((0.,0.20000000298023224,1.5));
#910=IFCCARTESIANPOINT((0.,0.20000000298023224,0.75));
#911=IFCCARTESIANPOINT((0.,0.20000000298023224,0.));
#912=IFCCARTESIANPOINT((0.,0.,3.));
#913=IFCCARTESIANPOINT((0.,0.,2.25));
#914=IFCCARTESIANPOINT((0.,0.,1.5));
#915=IFCCARTESIANPOINT((0.,0.,0.75));
#916=IFCCARTESIANPOINT((0.,0.,0.));
#917=IFCFACE((#918));
#918=IFCFACEOUTERBOUND(#919,.T.);
#919=IFCPOLYLOOP((#872,#886,#887,#873));
#920=IFCFACE((#921));
#921=IFCFACEOUTERBOUND(#922,.T.);
#922=IFCPOLYLOOP((#886,#900,#901,#887));
#923=IFCFACE((#924));
#924=IFCFACEOUTERBOUND(#925,.T.);
#925=IFCPOLYLOOP((#887,#901,#902,#888));
#926=IFCFACE((#927));
#927=IFCFACEOUTERBOUND(#928,.T.);
#928=IFCPOLYLOOP((#873,#887,#888,#874));
#929=IFCFACE((#930));
#930=IFCFACEOUTERBOUND(#931,.T.);
#931=IFCPOLYLOOP((#915,#916,#906));
#932=IFCFACE((#933));
#933=IFCFACEOUTERBOUND(#934,.T.);
#934=IFCPOLYLOOP((#902,#915,#906));
#935=IFCFACE((#936));
#936=IFCFACEOUTERBOUND(#937,.T.);
#937=IFCPOLYLOOP((#902,#896,#892));
#938=IFCFACE((#939));
#939=IFCFACEOUTERBOUND(#940,.T.);
#940=IFCPOLYLOOP((#892,#888,#902));
#941=IFCFACE((#942));
#942=IFCFACEOUTERBOUND(#943,.T.);
#943=IFCPOLYLOOP((#888,#892,#882));
#944=IFCFACE((#945));
#945=IFCFACEOUTERBOUND(#946,.T.);
#946=IFCPOLYLOOP((#906,#896,#902));
#947=IFCFACE((#948));
#948=IFCFACEOUTERBOUND(#949,.T.);
#949=IFCPOLYLOOP((#902,#901,#914,#915));
#950=IFCFACE((#951));
#951=IFCFACEOUTERBOUND(#952,.T.);
#952=IFCPOLYLOOP((#913,#900,#905,#912));
#953=IFCFACE((#954));
#954=IFCFACEOUTERBOUND(#955,.T.);
#955=IFCPOLYLOOP((#913,#914,#901,#900));
#956=IFCFACE((#957));
#957=IFCFACEOUTERBOUND(#958,.T.);
#958=IFCPOLYLOOP((#900,#891,#895));
#959=IFCFACE((#960));
#960=IFCFACEOUTERBOUND(#961,.T.);
#961=IFCPOLYLOOP((#891,#900,#886));
#962=IFCFACE((#963));
#963=IFCFACEOUTERBOUND(#964,.T.);
#964=IFCPOLYLOOP((#905,#900,#895));
#965=IFCFACE((#966));
#966=IFCFACEOUTERBOUND(#967,.T.);
#967=IFCPOLYLOOP((#882,#878,#874,#888));
#968=IFCFACE((#969));
#969=IFCFACEOUTERBOUND(#970,.T.);
#970=IFCPOLYLOOP((#868,#874,#878));
#971=IFCFACE((#972));
#972=IFCFACEOUTERBOUND(#973,.T.);
#973=IFCPOLYLOOP((#863,#868,#864));
#974=IFCFACE((#975));
#975=IFCFACEOUTERBOUND(#976,.T.);
#976=IFCPOLYLOOP((#863,#862,#873,#874));
#977=IFCFACE((#978));
#978=IFCFACEOUTERBOUND(#979,.T.);
#979=IFCPOLYLOOP((#868,#863,#874));
#980=IFCFACE((#981));
#981=IFCFACEOUTERBOUND(#982,.T.);
#982=IFCPOLYLOOP((#886,#872,#877,#881));
#983=IFCFACE((#984));
#984=IFCFACEOUTERBOUND(#985,.T.);
#985=IFCPOLYLOOP((#877,#872,#867));
#986=IFCFACE((#987));
#987=IFCFACEOUTERBOUND(#988,.T.);
#988=IFCPOLYLOOP((#891,#886,#881));
#989=IFCFACE((#990));
#990=IFCFACEOUTERBOUND(#991,.T.);
#991=IFCPOLYLOOP((#872,#861,#860,#867));
#992=IFCFACE((#993));
#993=IFCFACEOUTERBOUND(#994,.T.);
#994=IFCPOLYLOOP((#862,#861,#872,#873));
#995=IFCFACE((#996));
#996=IFCFACEOUTERBOUND(#997,.T.);
#997=IFCPOLYLOOP((#863,#864,#859,#858));
#998=IFCFACE((#999));
#999=IFCFACEOUTERBOUND(#1000,.T.);
#1000=IFCPOLYLOOP((#861,#862,#857,#856));
#1001=IFCFACE((#1002));
#1002=IFCFACEOUTERBOUND(#1003,.T.);
#1003=IFCPOLYLOOP((#860,#861,#856,#855));
#1004=IFCFACE((#1005));
#1005=IFCFACEOUTERBOUND(#1006,.T.);
#1006=IFCPOLYLOOP((#862,#863,#858,#857));
#1007=IFCFACE((#1008));
#1008=IFCFACEOUTERBOUND(#1009,.T.);
#1009=IFCPOLYLOOP((#897,#883,#884,#898));
#1010=IFCFACE((#1011));
#1011=IFCFACEOUTERBOUND(#1012,.T.);
#1012=IFCPOLYLOOP((#883,#869,#870,#884));
#1013=IFCFACE((#1014));
#1014=IFCFACEOUTERBOUND(#1015,.T.);
#1015=IFCPOLYLOOP((#884,#870,#871,#885));
#1016=IFCFACE((#1017));
#1017=IFCFACEOUTERBOUND(#1018,.T.);
#1018=IFCPOLYLOOP((#898,#884,#885,#899));
#1019=IFCFACE((#1020));
#1020=IFCFACEOUTERBOUND(#1021,.T.);
#1021=IFCPOLYLOOP((#858,#859,#866));
#1022=IFCFACE((#1023));
#1023=IFCFACEOUTERBOUND(#1024,.T.);
#1024=IFCPOLYLOOP((#871,#858,#866));
#1025=IFCFACE((#1026));
#1026=IFCFACEOUTERBOUND(#1027,.T.);
#1027=IFCPOLYLOOP((#871,#876,#880));
#1028=IFCFACE((#1029));
#1029=IFCFACEOUTERBOUND(#1030,.T.);
#1030=IFCPOLYLOOP((#880,#885,#871));
#1031=IFCFACE((#1032));
#1032=IFCFACEOUTERBOUND(#1033,.T.);
#1033=IFCPOLYLOOP((#885,#880,#890));
#1034=IFCFACE((#1035));
#1035=IFCFACEOUTERBOUND(#1036,.T.);
#1036=IFCPOLYLOOP((#866,#876,#871));
#1037=IFCFACE((#1038));
#1038=IFCFACEOUTERBOUND(#1039,.T.);
#1039=IFCPOLYLOOP((#871,#870,#857,#858));
#1040=IFCFACE((#1041));
#1041=IFCFACEOUTERBOUND(#1042,.T.);
#1042=IFCPOLYLOOP((#856,#869,#865,#855));
#1043=IFCFACE((#1044));
#1044=IFCFACEOUTERBOUND(#1045,.T.);
#1045=IFCPOLYLOOP((#856,#857,#870,#869));
#1046=IFCFACE((#1047));
#1047=IFCFACEOUTERBOUND(#1048,.T.);
#1048=IFCPOLYLOOP((#879,#875,#869,#883));
#1049=IFCFACE((#1050));
#1050=IFCFACEOUTERBOUND(#1051,.T.);
#1051=IFCPOLYLOOP((#865,#869,#875));
#1052=IFCFACE((#1053));
#1053=IFCFACEOUTERBOUND(#1054,.T.);
#1054=IFCPOLYLOOP((#890,#894,#899,#885));
#1055=IFCFACE((#1056));
#1056=IFCFACEOUTERBOUND(#1057,.T.);
#1057=IFCPOLYLOOP((#904,#899,#894));
#1058=IFCFACE((#1059));
#1059=IFCFACEOUTERBOUND(#1060,.T.);
#1060=IFCPOLYLOOP((#910,#904,#911));
#1061=IFCFACE((#1062));
#1062=IFCFACEOUTERBOUND(#1063,.T.);
#1063=IFCPOLYLOOP((#910,#909,#898,#899));
#1064=IFCFACE((#1065));
#1065=IFCFACEOUTERBOUND(#1066,.T.);
#1066=IFCPOLYLOOP((#904,#910,#899));
#1067=IFCFACE((#1068));
#1068=IFCFACEOUTERBOUND(#1069,.T.);
#1069=IFCPOLYLOOP((#883,#897,#893,#889));
#1070=IFCFACE((#1071));
#1071=IFCFACEOUTERBOUND(#1072,.T.);
#1072=IFCPOLYLOOP((#893,#897,#903));
#1073=IFCFACE((#1074));
#1074=IFCFACEOUTERBOUND(#1075,.T.);
#1075=IFCPOLYLOOP((#879,#883,#889));
#1076=IFCFACE((#1077));
#1077=IFCFACEOUTERBOUND(#1078,.T.);
#1078=IFCPOLYLOOP((#897,#908,#907,#903));
#1079=IFCFACE((#1080));
#1080=IFCFACEOUTERBOUND(#1081,.T.);
#1081=IFCPOLYLOOP((#909,#908,#897,#898));
#1082=IFCFACE((#1083));
#1083=IFCFACEOUTERBOUND(#1084,.T.);
#1084=IFCPOLYLOOP((#910,#911,#916,#915));
#1085=IFCFACE((#1086));
#1086=IFCFACEOUTERBOUND(#1087,.T.);
#1087=IFCPOLYLOOP((#908,#909,#914,#913));
#1088=IFCFACE((#1089));
#1089=IFCFACEOUTERBOUND(#1090,.T.);
#1090=IFCPOLYLOOP((#907,#908,#913,#912));
#1091=IFCFACE((#1092));
#1092=IFCFACEOUTERBOUND(#1093,.T.);
#1093=IFCPOLYLOOP((#909,#910,#915,#914));
#1094=IFCFACE((#1095));
#1095=IFCFACEOUTERBOUND(#1096,.T.);
#1096=IFCPOLYLOOP((#906,#916,#911,#904));
#1097=IFCFACE((#1098));
#1098=IFCFACEOUTERBOUND(#1099,.T.);
#1099=IFCPOLYLOOP((#892,#896,#894,#890));
#1100=IFCFACE((#1101));
#1101=IFCFACEOUTERBOUND(#1102,.T.);
#1102=IFCPOLYLOOP((#896,#906,#904,#894));
#1103=IFCFACE((#1104));
#1104=IFCFACEOUTERBOUND(#1105,.T.);
#1105=IFCPOLYLOOP((#878,#882,#880,#876));
#1106=IFCFACE((#1107));
#1107=IFCFACEOUTERBOUND(#1108,.T.);
#1108=IFCPOLYLOOP((#864,#868,#866,#859));
#1109=IFCFACE((#1110));
#1110=IFCFACEOUTERBOUND(#1111,.T.);
#1111=IFCPOLYLOOP((#868,#878,#876,#866));
#1112=IFCFACE((#1113));
#1113=IFCFACEOUTERBOUND(#1114,.T.);
#1114=IFCPOLYLOOP((#882,#892,#890,#880));
#1115=IFCFACE((#1116));
#1116=IFCFACEOUTERBOUND(#1117,.T.);
#1117=IFCPOLYLOOP((#912,#905,#903,#907));
#1118=IFCFACE((#1119));
#1119=IFCFACEOUTERBOUND(#1120,.T.);
#1120=IFCPOLYLOOP((#895,#891,#889,#893));
#1121=IFCFACE((#1122));
#1122=IFCFACEOUTERBOUND(#1123,.T.);
#1123=IFCPOLYLOOP((#905,#895,#893,#903));
#1124=IFCFACE((#1125));
#1125=IFCFACEOUTERBOUND(#1126,.T.);
#1126=IFCPOLYLOOP((#891,#881,#879,#889));
#1127=IFCFACE((#1128));
#1128=IFCFACEOUTERBOUND(#1129,.T.);
#1129=IFCPOLYLOOP((#877,#875,#879,#881));
#1130=IFCFACE((#1131));
#1131=IFCFACEOUTERBOUND(#1132,.T.);
#1132=IFCPOLYLOOP((#867,#860,#855,#865));
#1133=IFCFACE((#1134));
#1134=IFCFACEOUTERBOUND(#1135,.T.);
#1135=IFCPOLYLOOP((#877,#867,#865,#875));
#1136=IFCSTYLEDITEM(#853,(#1140),$);
#1137=IFCSURFACESTYLERENDERING(#1138,0.37254901960784315,$,$,$,$,$,$,.NOTDEFINED.);
#1138=IFCCOLOURRGB($,0.47058823529411764,0.6666666666666666,0.7843137254901961);
#1139=IFCSURFACESTYLE('RGB(120, 170, 200) transparency 0.37',.BOTH.,(#1137));
#1140=IFCPRESENTATIONSTYLEASSIGNMENT((#1139));
#1141=IFCSHAPEREPRESENTATION(#836,'Body','Brep',(#853));
#1142=IFCPRODUCTDEFINITIONSHAPE($,$,(#1141));
#1143=IFCRELCONTAINEDINSPATIALSTRUCTURE('1mEzp2PZjMQ84f4GyuSsh0',#5,$,$,(#848),#844);
#1144=IFCRELAGGREGATES('0yKTZdtYvRifX0oEoz4eEA',#5,$,$,#840,(#844));
#1145=IFCRELAGGREGATES('1nFbcRH3vQzQZqVOZslUOG',#5,$,$,#16,(#20,#840));
#1146=IFCRELAGGREGATES('28464uzcbLHgzaH8SfedqT',#5,$,$,#1,(#16));
#1147=IFCRELASSOCIATESMATERIAL('1DwS6tPUfQk86zhVpD1VPi',#5,$,$,(#848),#852);
ENDSEC;
END-ISO-10303-21;
