ISO-10303-21;
HEADER;
FILE_DESCRIPTION ((''), '2;1');
FILE_NAME ('14 Schema export IFC4X3_ADD2.ifc', '2026-10-09T14:44:28', (''), (''), 'xbim Toolkit v6.1.605.0', 'IfcHopper', '');
FILE_SCHEMA (('IFC4X3_ADD2'));
ENDSEC;
DATA;
#1=IFCPROJECT('1sNmLLZ1jSdwKFGZSL01$Y',$,'Schema export',$,$,$,$,(#7),#2);
#2=IFCUNITASSIGNMENT((#3,#4,#5,#6));
#3=IFCSIUNIT(*,.LENGTHUNIT.,$,.METRE.);
#4=IFCSIUNIT(*,.AREAUNIT.,$,.SQUARE_METRE.);
#5=IFCSIUNIT(*,.VOLUMEUNIT.,$,.CUBIC_METRE.);
#6=IFCSIUNIT(*,.PLANEANGLEUNIT.,$,.RADIAN.);
#7=IFCGEOMETRICREPRESENTATIONCONTEXT($,'Model',3,1.E-05,#8,$);
#8=IFCAXIS2PLACEMENT3D(#9,$,$);
#9=IFCCARTESIANPOINT((0.,0.,0.));
#10=IFCSITE('09QwjNq25KQO4MX6JCs5p$',$,'Hopper Site',$,$,#11,$,$,.ELEMENT.,$,$,$,$,$);
#11=IFCLOCALPLACEMENT($,#12);
#12=IFCAXIS2PLACEMENT3D(#13,$,$);
#13=IFCCARTESIANPOINT((0.,0.,0.));
#14=IFCROAD('1IADrAEt1UXgIXAa7DgsOW',$,'Access road',$,$,#15,$,$,.ELEMENT.,$);
#15=IFCLOCALPLACEMENT(#11,#16);
#16=IFCAXIS2PLACEMENT3D(#17,$,$);
#17=IFCCARTESIANPOINT((0.,0.,0.));
#18=IFCROADPART('2pg0PXOQfHVQSGE_CdCWZU',$,'Carriageway',$,$,#19,$,$,.ELEMENT.,.NOTDEFINED.,.CARRIAGEWAY.);
#19=IFCLOCALPLACEMENT(#15,#20);
#20=IFCAXIS2PLACEMENT3D(#21,$,$);
#21=IFCCARTESIANPOINT((0.,0.,0.));
#22=IFCPAVEMENT('0mkKTMO6zMS9mftmYyoM0A',$,'Pavement',$,$,#23,#247,$,$);
#23=IFCLOCALPLACEMENT(#19,#24);
#24=IFCAXIS2PLACEMENT3D(#25,$,$);
#25=IFCCARTESIANPOINT((0.,0.,0.));
#26=IFCCARTESIANPOINTLIST3D(((10.,-5.,0.),(10.,-5.,-0.30000001192092896),(10.,-6.166666507720947,0.),(10.,-6.166666507720947,-0.30000001192092896),(10.,-7.333333492279053,0.),(10.,-7.333333492279053,-0.30000001192092896),(10.,-8.5,0.),(10.,-8.5,-0.30000001192092896),(10.,-9.666666984558105,0.),(10.,-9.666666984558105,-0.30000001192092896),(10.,-10.833333015441895,0.),(10.,-10.833333015441895,-0.30000001192092896),(10.,-12.,0.),(10.,-12.,-0.30000001192092896),(8.75,-5.,0.),(8.75,-5.,-0.30000001192092896),(8.75,-12.,0.),(8.75,-12.,-0.30000001192092896),(7.5,-5.,0.),(7.5,-5.,-0.30000001192092896),(7.5,-5.875,0.),(7.5,-5.875,-0.30000001192092896),(7.5,-6.75,0.),(7.5,-6.75,-0.30000001192092896),(7.5,-7.625,0.),(7.5,-7.625,-0.30000001192092896),(7.5,-8.5,0.),(7.5,-8.5,-0.30000001192092896),(7.5,-9.375,0.),(7.5,-9.375,-0.30000001192092896),(7.5,-10.25,0.),(7.5,-10.25,-0.30000001192092896),(7.5,-11.125,0.),(7.5,-11.125,-0.30000001192092896),(7.5,-12.,0.),(7.5,-12.,-0.30000001192092896),(6.25,-5.,0.),(6.25,-5.,-0.30000001192092896),(6.25,-12.,0.),(6.25,-12.,-0.30000001192092896),(5.,-5.,0.),(5.,-5.,-0.30000001192092896),(5.,-5.875,0.),(5.,-5.875,-0.30000001192092896),(5.,-6.75,0.),(5.,-6.75,-0.30000001192092896),(5.,-7.625,0.),(5.,-7.625,-0.30000001192092896),(5.,-8.5,0.),(5.,-8.5,-0.30000001192092896),(5.,-9.375,0.),(5.,-9.375,-0.30000001192092896),(5.,-10.25,0.),(5.,-10.25,-0.30000001192092896),(5.,-11.125,0.),(5.,-11.125,-0.30000001192092896),(5.,-12.,0.),(5.,-12.,-0.30000001192092896),(3.75,-5.,0.),(3.75,-5.,-0.30000001192092896),(3.75,-12.,0.),(3.75,-12.,-0.30000001192092896),(2.5,-5.,0.),(2.5,-5.,-0.30000001192092896),(2.5,-12.,0.),(2.5,-12.,-0.30000001192092896),(1.25,-5.,0.),(1.25,-5.,-0.30000001192092896),(1.25,-12.,0.),(1.25,-12.,-0.30000001192092896),(0.,-5.,0.),(0.,-5.,-0.30000001192092896),(0.,-6.75,0.),(0.,-6.75,-0.30000001192092896),(0.,-8.5,0.),(0.,-8.5,-0.30000001192092896),(0.,-10.25,0.),(0.,-10.25,-0.30000001192092896),(0.,-12.,0.),(0.,-12.,-0.30000001192092896),(-1.25,-5.,0.),(-1.25,-5.,-0.30000001192092896),(-1.25,-12.,0.),(-1.25,-12.,-0.30000001192092896),(-2.5,-5.,0.),(-2.5,-5.,-0.30000001192092896),(-2.5,-12.,0.),(-2.5,-12.,-0.30000001192092896),(-3.75,-5.,0.),(-3.75,-5.,-0.30000001192092896),(-3.75,-12.,0.),(-3.75,-12.,-0.30000001192092896),(-5.,-5.,0.),(-5.,-5.,-0.30000001192092896),(-5.,-5.875,0.),(-5.,-5.875,-0.30000001192092896),(-5.,-6.75,0.),(-5.,-6.75,-0.30000001192092896),(-5.,-7.625,0.),(-5.,-7.625,-0.30000001192092896),(-5.,-8.5,0.),(-5.,-8.5,-0.30000001192092896),(-5.,-9.375,0.),(-5.,-9.375,-0.30000001192092896),(-5.,-10.25,0.),(-5.,-10.25,-0.30000001192092896),(-5.,-11.125,0.),(-5.,-11.125,-0.30000001192092896),(-5.,-12.,0.),(-5.,-12.,-0.30000001192092896),(-6.25,-5.,0.),(-6.25,-5.,-0.30000001192092896),(-6.25,-12.,0.),(-6.25,-12.,-0.30000001192092896),(-7.5,-5.,0.),(-7.5,-5.,-0.30000001192092896),(-7.5,-5.875,0.),(-7.5,-5.875,-0.30000001192092896),(-7.5,-6.75,0.),(-7.5,-6.75,-0.30000001192092896),(-7.5,-7.625,0.),(-7.5,-7.625,-0.30000001192092896),(-7.5,-8.5,0.),(-7.5,-8.5,-0.30000001192092896),(-7.5,-9.375,0.),(-7.5,-9.375,-0.30000001192092896),(-7.5,-10.25,0.),(-7.5,-10.25,-0.30000001192092896),(-7.5,-11.125,0.),(-7.5,-11.125,-0.30000001192092896),(-7.5,-12.,0.),(-7.5,-12.,-0.30000001192092896),(-8.75,-5.,0.),(-8.75,-5.,-0.30000001192092896),(-8.75,-12.,0.),(-8.75,-12.,-0.30000001192092896),(-10.,-5.,0.),(-10.,-5.,-0.30000001192092896),(-10.,-6.166666507720947,0.),(-10.,-6.166666507720947,-0.30000001192092896),(-10.,-7.333333492279053,0.),(-10.,-7.333333492279053,-0.30000001192092896),(-10.,-8.5,0.),(-10.,-8.5,-0.30000001192092896),(-10.,-9.666666984558105,0.),(-10.,-9.666666984558105,-0.30000001192092896),(-10.,-10.833333015441895,0.),(-10.,-10.833333015441895,-0.30000001192092896),(-10.,-12.,0.),(-10.,-12.,-0.30000001192092896)),$);
#27=IFCPOLYGONALFACESET(#26,.T.,(#28,#29,#30,#31,#32,#33,#34,#35,#36,#37,#38,#39,#40,#41,#42,#43,#44,#45,#46,#47,#48,#49,#50,#51,#52,#53,#54,#55,#56,#57,#58,#59,#60,#61,#62,#63,#64,#65,#66,#67,#68,#69,#70,#71,#72,#73,#74,#75,#76,#77,#78,#79,#80,#81,#82,#83,#84,#85,#86,#87,#88,#89,#90,#91,#92,#93,#94,#95,#96,#97,#98,#99,#100,#101,#102,#103,#104,#105,#106,#107,#108,#109,#110,#111,#112,#113,#114,#115,#116,#117,#118,#119,#120,#121,#122,#123,#124,#125,#126,#127,#128,#129,#130,#131,#132,#133,#134,#135,#136,#137,#138,#139,#140,#141,#142,#143,#144,#145,#146,#147,#148,#149,#150,#151,#152,#153,#154,#155,#156,#157,#158,#159,#160,#161,#162,#163,#164,#165,#166,#167,#168,#169,#170,#171,#172,#173,#174,#175,#176,#177,#178,#179,#180,#181,#182,#183,#184,#185,#186,#187,#188,#189,#190,#191,#192,#193,#194,#195,#196,#197,#198,#199,#200,#201,#202,#203,#204,#205,#206,#207,#208,#209,#210,#211,#212,#213,#214,#215,#216,#217,#218,#219,#220,#221,#222,#223,#224,#225,#226,#227,#228,#229,#230,#231,#232,#233,#234,#235,#236,#237,#238,#239,#240,#241,#242,#243,#244),$);
#28=IFCINDEXEDPOLYGONALFACE((136,135,149,150));
#29=IFCINDEXEDPOLYGONALFACE((114,113,131,132));
#30=IFCINDEXEDPOLYGONALFACE((132,131,135,136));
#31=IFCINDEXEDPOLYGONALFACE((92,91,109,110));
#32=IFCINDEXEDPOLYGONALFACE((84,83,87,88));
#33=IFCINDEXEDPOLYGONALFACE((88,87,91,92));
#34=IFCINDEXEDPOLYGONALFACE((110,109,113,114));
#35=IFCINDEXEDPOLYGONALFACE((80,79,83,84));
#36=IFCINDEXEDPOLYGONALFACE((66,65,69,70));
#37=IFCINDEXEDPOLYGONALFACE((58,57,61,62));
#38=IFCINDEXEDPOLYGONALFACE((62,61,65,66));
#39=IFCINDEXEDPOLYGONALFACE((36,35,39,40));
#40=IFCINDEXEDPOLYGONALFACE((14,13,17,18));
#41=IFCINDEXEDPOLYGONALFACE((18,17,35,36));
#42=IFCINDEXEDPOLYGONALFACE((40,39,57,58));
#43=IFCINDEXEDPOLYGONALFACE((70,69,79,80));
#44=IFCINDEXEDPOLYGONALFACE((14,12,11,13));
#45=IFCINDEXEDPOLYGONALFACE((12,10,9,11));
#46=IFCINDEXEDPOLYGONALFACE((7,9,10,8));
#47=IFCINDEXEDPOLYGONALFACE((4,3,5,6));
#48=IFCINDEXEDPOLYGONALFACE((2,1,3,4));
#49=IFCINDEXEDPOLYGONALFACE((6,5,7,8));
#50=IFCINDEXEDPOLYGONALFACE((16,15,1,2));
#51=IFCINDEXEDPOLYGONALFACE((38,37,19,20));
#52=IFCINDEXEDPOLYGONALFACE((20,19,15,16));
#53=IFCINDEXEDPOLYGONALFACE((60,59,41,42));
#54=IFCINDEXEDPOLYGONALFACE((68,67,63,64));
#55=IFCINDEXEDPOLYGONALFACE((64,63,59,60));
#56=IFCINDEXEDPOLYGONALFACE((42,41,37,38));
#57=IFCINDEXEDPOLYGONALFACE((72,71,67,68));
#58=IFCINDEXEDPOLYGONALFACE((86,85,81,82));
#59=IFCINDEXEDPOLYGONALFACE((94,93,89,90));
#60=IFCINDEXEDPOLYGONALFACE((90,89,85,86));
#61=IFCINDEXEDPOLYGONALFACE((116,115,111,112));
#62=IFCINDEXEDPOLYGONALFACE((138,137,133,134));
#63=IFCINDEXEDPOLYGONALFACE((134,133,115,116));
#64=IFCINDEXEDPOLYGONALFACE((112,111,93,94));
#65=IFCINDEXEDPOLYGONALFACE((82,81,71,72));
#66=IFCINDEXEDPOLYGONALFACE((140,139,137,138));
#67=IFCINDEXEDPOLYGONALFACE((142,141,139,140));
#68=IFCINDEXEDPOLYGONALFACE((144,143,141,142));
#69=IFCINDEXEDPOLYGONALFACE((146,148,147,145));
#70=IFCINDEXEDPOLYGONALFACE((148,150,149,147));
#71=IFCINDEXEDPOLYGONALFACE((146,145,143,144));
#72=IFCINDEXEDPOLYGONALFACE((22,24,46,44));
#73=IFCINDEXEDPOLYGONALFACE((26,28,50,48));
#74=IFCINDEXEDPOLYGONALFACE((24,26,48,46));
#75=IFCINDEXEDPOLYGONALFACE((48,50,76));
#76=IFCINDEXEDPOLYGONALFACE((74,46,48));
#77=IFCINDEXEDPOLYGONALFACE((76,74,48));
#78=IFCINDEXEDPOLYGONALFACE((30,32,54,52));
#79=IFCINDEXEDPOLYGONALFACE((28,30,52,50));
#80=IFCINDEXEDPOLYGONALFACE((32,34,56,54));
#81=IFCINDEXEDPOLYGONALFACE((52,54,78));
#82=IFCINDEXEDPOLYGONALFACE((76,50,52));
#83=IFCINDEXEDPOLYGONALFACE((78,76,52));
#84=IFCINDEXEDPOLYGONALFACE((104,102,76));
#85=IFCINDEXEDPOLYGONALFACE((78,106,104));
#86=IFCINDEXEDPOLYGONALFACE((76,78,104));
#87=IFCINDEXEDPOLYGONALFACE((106,108,130,128));
#88=IFCINDEXEDPOLYGONALFACE((102,104,126,124));
#89=IFCINDEXEDPOLYGONALFACE((104,106,128,126));
#90=IFCINDEXEDPOLYGONALFACE((100,98,74));
#91=IFCINDEXEDPOLYGONALFACE((76,102,100));
#92=IFCINDEXEDPOLYGONALFACE((74,76,100));
#93=IFCINDEXEDPOLYGONALFACE((98,100,122,120));
#94=IFCINDEXEDPOLYGONALFACE((100,102,124,122));
#95=IFCINDEXEDPOLYGONALFACE((96,98,120,118));
#96=IFCINDEXEDPOLYGONALFACE((148,136,150));
#97=IFCINDEXEDPOLYGONALFACE((130,114,132));
#98=IFCINDEXEDPOLYGONALFACE((132,136,130));
#99=IFCINDEXEDPOLYGONALFACE((108,92,110));
#100=IFCINDEXEDPOLYGONALFACE((88,78,84));
#101=IFCINDEXEDPOLYGONALFACE((88,92,108));
#102=IFCINDEXEDPOLYGONALFACE((110,114,108));
#103=IFCINDEXEDPOLYGONALFACE((148,128,130));
#104=IFCINDEXEDPOLYGONALFACE((136,148,130));
#105=IFCINDEXEDPOLYGONALFACE((148,146,126,128));
#106=IFCINDEXEDPOLYGONALFACE((146,144,124,126));
#107=IFCINDEXEDPOLYGONALFACE((106,78,108));
#108=IFCINDEXEDPOLYGONALFACE((108,78,88));
#109=IFCINDEXEDPOLYGONALFACE((122,124,144,142));
#110=IFCINDEXEDPOLYGONALFACE((114,130,108));
#111=IFCINDEXEDPOLYGONALFACE((78,70,80));
#112=IFCINDEXEDPOLYGONALFACE((56,62,66));
#113=IFCINDEXEDPOLYGONALFACE((66,70,78));
#114=IFCINDEXEDPOLYGONALFACE((56,40,58));
#115=IFCINDEXEDPOLYGONALFACE((34,18,36));
#116=IFCINDEXEDPOLYGONALFACE((36,40,34));
#117=IFCINDEXEDPOLYGONALFACE((58,62,56));
#118=IFCINDEXEDPOLYGONALFACE((34,12,18));
#119=IFCINDEXEDPOLYGONALFACE((56,78,54));
#120=IFCINDEXEDPOLYGONALFACE((78,56,66));
#121=IFCINDEXEDPOLYGONALFACE((14,18,12));
#122=IFCINDEXEDPOLYGONALFACE((10,32,30));
#123=IFCINDEXEDPOLYGONALFACE((8,10,30,28));
#124=IFCINDEXEDPOLYGONALFACE((10,12,34,32));
#125=IFCINDEXEDPOLYGONALFACE((56,34,40));
#126=IFCINDEXEDPOLYGONALFACE((78,80,84));
#127=IFCINDEXEDPOLYGONALFACE((120,122,142));
#128=IFCINDEXEDPOLYGONALFACE((118,120,140));
#129=IFCINDEXEDPOLYGONALFACE((142,140,120));
#130=IFCINDEXEDPOLYGONALFACE((96,74,98));
#131=IFCINDEXEDPOLYGONALFACE((112,96,118));
#132=IFCINDEXEDPOLYGONALFACE((86,74,96));
#133=IFCINDEXEDPOLYGONALFACE((118,140,134));
#134=IFCINDEXEDPOLYGONALFACE((140,138,134));
#135=IFCINDEXEDPOLYGONALFACE((118,116,112));
#136=IFCINDEXEDPOLYGONALFACE((118,134,116));
#137=IFCINDEXEDPOLYGONALFACE((96,94,90));
#138=IFCINDEXEDPOLYGONALFACE((74,86,82));
#139=IFCINDEXEDPOLYGONALFACE((74,82,72));
#140=IFCINDEXEDPOLYGONALFACE((96,90,86));
#141=IFCINDEXEDPOLYGONALFACE((96,112,94));
#142=IFCINDEXEDPOLYGONALFACE((68,74,72));
#143=IFCINDEXEDPOLYGONALFACE((28,26,6,8));
#144=IFCINDEXEDPOLYGONALFACE((44,46,74));
#145=IFCINDEXEDPOLYGONALFACE((6,24,4));
#146=IFCINDEXEDPOLYGONALFACE((24,22,4));
#147=IFCINDEXEDPOLYGONALFACE((6,26,24));
#148=IFCINDEXEDPOLYGONALFACE((64,60,44));
#149=IFCINDEXEDPOLYGONALFACE((42,38,44));
#150=IFCINDEXEDPOLYGONALFACE((60,42,44));
#151=IFCINDEXEDPOLYGONALFACE((20,22,38));
#152=IFCINDEXEDPOLYGONALFACE((38,22,44));
#153=IFCINDEXEDPOLYGONALFACE((22,20,16));
#154=IFCINDEXEDPOLYGONALFACE((16,2,4));
#155=IFCINDEXEDPOLYGONALFACE((22,16,4));
#156=IFCINDEXEDPOLYGONALFACE((64,44,74));
#157=IFCINDEXEDPOLYGONALFACE((68,64,74));
#158=IFCINDEXEDPOLYGONALFACE((21,43,45,23));
#159=IFCINDEXEDPOLYGONALFACE((47,45,73));
#160=IFCINDEXEDPOLYGONALFACE((75,49,47));
#161=IFCINDEXEDPOLYGONALFACE((73,75,47));
#162=IFCINDEXEDPOLYGONALFACE((23,45,47,25));
#163=IFCINDEXEDPOLYGONALFACE((25,47,49,27));
#164=IFCINDEXEDPOLYGONALFACE((95,117,119,97));
#165=IFCINDEXEDPOLYGONALFACE((97,119,121,99));
#166=IFCINDEXEDPOLYGONALFACE((99,121,123,101));
#167=IFCINDEXEDPOLYGONALFACE((99,101,75));
#168=IFCINDEXEDPOLYGONALFACE((73,97,99));
#169=IFCINDEXEDPOLYGONALFACE((75,73,99));
#170=IFCINDEXEDPOLYGONALFACE((103,105,77));
#171=IFCINDEXEDPOLYGONALFACE((75,101,103));
#172=IFCINDEXEDPOLYGONALFACE((77,75,103));
#173=IFCINDEXEDPOLYGONALFACE((101,123,125,103));
#174=IFCINDEXEDPOLYGONALFACE((103,125,127,105));
#175=IFCINDEXEDPOLYGONALFACE((105,127,129,107));
#176=IFCINDEXEDPOLYGONALFACE((27,49,51,29));
#177=IFCINDEXEDPOLYGONALFACE((29,51,53,31));
#178=IFCINDEXEDPOLYGONALFACE((51,49,75));
#179=IFCINDEXEDPOLYGONALFACE((77,53,51));
#180=IFCINDEXEDPOLYGONALFACE((75,77,51));
#181=IFCINDEXEDPOLYGONALFACE((31,53,55,33));
#182=IFCINDEXEDPOLYGONALFACE((135,147,149));
#183=IFCINDEXEDPOLYGONALFACE((135,131,129));
#184=IFCINDEXEDPOLYGONALFACE((113,129,131));
#185=IFCINDEXEDPOLYGONALFACE((129,147,135));
#186=IFCINDEXEDPOLYGONALFACE((145,147,127,125));
#187=IFCINDEXEDPOLYGONALFACE((127,147,129));
#188=IFCINDEXEDPOLYGONALFACE((143,145,125,123));
#189=IFCINDEXEDPOLYGONALFACE((107,113,109));
#190=IFCINDEXEDPOLYGONALFACE((107,91,87));
#191=IFCINDEXEDPOLYGONALFACE((107,109,91));
#192=IFCINDEXEDPOLYGONALFACE((77,105,107));
#193=IFCINDEXEDPOLYGONALFACE((77,83,79));
#194=IFCINDEXEDPOLYGONALFACE((69,77,79));
#195=IFCINDEXEDPOLYGONALFACE((87,77,107));
#196=IFCINDEXEDPOLYGONALFACE((77,87,83));
#197=IFCINDEXEDPOLYGONALFACE((113,107,129));
#198=IFCINDEXEDPOLYGONALFACE((141,143,123,121));
#199=IFCINDEXEDPOLYGONALFACE((119,141,121));
#200=IFCINDEXEDPOLYGONALFACE((133,137,139));
#201=IFCINDEXEDPOLYGONALFACE((119,117,139));
#202=IFCINDEXEDPOLYGONALFACE((133,139,117));
#203=IFCINDEXEDPOLYGONALFACE((119,139,141));
#204=IFCINDEXEDPOLYGONALFACE((133,117,115));
#205=IFCINDEXEDPOLYGONALFACE((117,111,115));
#206=IFCINDEXEDPOLYGONALFACE((95,73,85));
#207=IFCINDEXEDPOLYGONALFACE((95,111,117));
#208=IFCINDEXEDPOLYGONALFACE((95,93,111));
#209=IFCINDEXEDPOLYGONALFACE((95,85,89));
#210=IFCINDEXEDPOLYGONALFACE((85,73,81));
#211=IFCINDEXEDPOLYGONALFACE((89,93,95));
#212=IFCINDEXEDPOLYGONALFACE((73,95,97));
#213=IFCINDEXEDPOLYGONALFACE((77,65,55));
#214=IFCINDEXEDPOLYGONALFACE((55,61,57));
#215=IFCINDEXEDPOLYGONALFACE((55,65,61));
#216=IFCINDEXEDPOLYGONALFACE((55,53,77));
#217=IFCINDEXEDPOLYGONALFACE((33,55,39));
#218=IFCINDEXEDPOLYGONALFACE((39,55,57));
#219=IFCINDEXEDPOLYGONALFACE((39,35,33));
#220=IFCINDEXEDPOLYGONALFACE((11,33,17));
#221=IFCINDEXEDPOLYGONALFACE((35,17,33));
#222=IFCINDEXEDPOLYGONALFACE((17,13,11));
#223=IFCINDEXEDPOLYGONALFACE((31,33,11));
#224=IFCINDEXEDPOLYGONALFACE((9,29,31));
#225=IFCINDEXEDPOLYGONALFACE((27,29,9,7));
#226=IFCINDEXEDPOLYGONALFACE((25,27,7,5));
#227=IFCINDEXEDPOLYGONALFACE((9,31,11));
#228=IFCINDEXEDPOLYGONALFACE((81,73,71));
#229=IFCINDEXEDPOLYGONALFACE((73,67,71));
#230=IFCINDEXEDPOLYGONALFACE((73,45,43));
#231=IFCINDEXEDPOLYGONALFACE((43,63,73));
#232=IFCINDEXEDPOLYGONALFACE((73,63,67));
#233=IFCINDEXEDPOLYGONALFACE((43,41,59));
#234=IFCINDEXEDPOLYGONALFACE((59,63,43));
#235=IFCINDEXEDPOLYGONALFACE((41,43,37));
#236=IFCINDEXEDPOLYGONALFACE((5,23,25));
#237=IFCINDEXEDPOLYGONALFACE((23,5,3));
#238=IFCINDEXEDPOLYGONALFACE((21,23,3));
#239=IFCINDEXEDPOLYGONALFACE((19,37,21));
#240=IFCINDEXEDPOLYGONALFACE((21,37,43));
#241=IFCINDEXEDPOLYGONALFACE((21,15,19));
#242=IFCINDEXEDPOLYGONALFACE((3,15,21));
#243=IFCINDEXEDPOLYGONALFACE((15,3,1));
#244=IFCINDEXEDPOLYGONALFACE((77,69,65));
#245=IFCSHAPEREPRESENTATION(#246,'Body','Tessellation',(#27));
#246=IFCGEOMETRICREPRESENTATIONSUBCONTEXT('Body','Model',*,*,*,*,#7,$,.MODEL_VIEW.,$);
#247=IFCPRODUCTDEFINITIONSHAPE($,$,(#245));
#248=IFCRELCONTAINEDINSPATIALSTRUCTURE('3KrqABUmDIzQ10LJsWSuJB',$,$,$,(#22),#18);
#249=IFCRELAGGREGATES('2MpohNuHHNqeujtWXPWqg$',$,$,$,#14,(#18));
#250=IFCBUILDING('0P8TqK2RPNEBWzj_XhR04j',$,'Hopper Building',$,$,#251,$,$,.ELEMENT.,$,$,$);
#251=IFCLOCALPLACEMENT(#11,#252);
#252=IFCAXIS2PLACEMENT3D(#253,$,$);
#253=IFCCARTESIANPOINT((0.,0.,0.));
#254=IFCBUILDINGSTOREY('0eJX5kEx9G9Anfis3ZMPhr',$,'Hopper Storey',$,$,#255,$,$,.ELEMENT.,0.);
#255=IFCLOCALPLACEMENT(#251,#256);
#256=IFCAXIS2PLACEMENT3D(#257,$,$);
#257=IFCCARTESIANPOINT((0.,0.,0.));
#258=IFCWALL('0vAbXIXi5MJxXRqP_AHjEj',$,'Glass-topped wall',$,$,#259,#343,$,$);
#259=IFCLOCALPLACEMENT(#255,#260);
#260=IFCAXIS2PLACEMENT3D(#261,$,$);
#261=IFCCARTESIANPOINT((0.,0.,0.));
#262=IFCMATERIAL('Concrete','C30/37','concrete');
#263=IFCCARTESIANPOINTLIST3D(((6.,0.20000000298023224,3.),(6.,0.20000000298023224,2.25),(6.,0.20000000298023224,1.5),(6.,0.20000000298023224,0.75),(6.,0.20000000298023224,0.),(6.,0.,3.),(6.,0.,2.25),(6.,0.,1.5),(6.,0.,0.75),(6.,0.,0.),(5.142857074737549,0.20000000298023224,3.),(5.142857074737549,0.20000000298023224,0.),(5.142857074737549,0.,3.),(5.142857074737549,0.,0.),(4.5,0.20000000298023224,2.25),(4.5,0.20000000298023224,1.5),(4.5,0.20000000298023224,0.75),(4.5,0.,2.25),(4.5,0.,1.5),(4.5,0.,0.75),(4.285714149475098,0.20000000298023224,3.),(4.285714149475098,0.20000000298023224,0.),(4.285714149475098,0.,3.),(4.285714149475098,0.,0.),(3.4285714626312256,0.20000000298023224,3.),(3.4285714626312256,0.20000000298023224,0.),(3.4285714626312256,0.,3.),(3.4285714626312256,0.,0.),(3.,0.20000000298023224,2.25),(3.,0.20000000298023224,1.5),(3.,0.20000000298023224,0.75),(3.,0.,2.25),(3.,0.,1.5),(3.,0.,0.75),(2.5714285373687744,0.20000000298023224,3.),(2.5714285373687744,0.20000000298023224,0.),(2.5714285373687744,0.,3.),(2.5714285373687744,0.,0.),(1.7142857313156128,0.20000000298023224,3.),(1.7142857313156128,0.20000000298023224,0.),(1.7142857313156128,0.,3.),(1.7142857313156128,0.,0.),(1.5,0.20000000298023224,2.25),(1.5,0.20000000298023224,1.5),(1.5,0.20000000298023224,0.75),(1.5,0.,2.25),(1.5,0.,1.5),(1.5,0.,0.75),(0.8571428656578064,0.20000000298023224,3.),(0.8571428656578064,0.20000000298023224,0.),(0.8571428656578064,0.,3.),(0.8571428656578064,0.,0.),(0.,0.20000000298023224,3.),(0.,0.20000000298023224,2.25),(0.,0.20000000298023224,1.5),(0.,0.20000000298023224,0.75),(0.,0.20000000298023224,0.),(0.,0.,3.),(0.,0.,2.25),(0.,0.,1.5),(0.,0.,0.75),(0.,0.,0.)),$);
#264=IFCPOLYGONALFACESET(#263,.T.,(#265,#266,#267,#268,#269,#270,#271,#272,#273,#274,#275,#276,#277,#278,#279,#280,#281,#282,#283,#284,#285,#286,#287,#288,#289,#290,#291,#292,#293,#294,#295,#296,#297,#298,#299,#300,#301,#302,#303,#304,#305,#306,#307,#308,#309,#310,#311,#312,#313,#314,#315,#316,#317,#318,#319,#320,#321,#322,#323,#324,#325,#326,#327,#328,#329,#330,#331,#332,#333,#334,#335,#336,#337),$);
#265=IFCINDEXEDPOLYGONALFACE((18,32,33,19));
#266=IFCINDEXEDPOLYGONALFACE((32,46,47,33));
#267=IFCINDEXEDPOLYGONALFACE((33,47,48,34));
#268=IFCINDEXEDPOLYGONALFACE((19,33,34,20));
#269=IFCINDEXEDPOLYGONALFACE((61,62,52));
#270=IFCINDEXEDPOLYGONALFACE((48,61,52));
#271=IFCINDEXEDPOLYGONALFACE((48,42,38));
#272=IFCINDEXEDPOLYGONALFACE((38,34,48));
#273=IFCINDEXEDPOLYGONALFACE((34,38,28));
#274=IFCINDEXEDPOLYGONALFACE((52,42,48));
#275=IFCINDEXEDPOLYGONALFACE((48,47,60,61));
#276=IFCINDEXEDPOLYGONALFACE((59,46,51,58));
#277=IFCINDEXEDPOLYGONALFACE((59,60,47,46));
#278=IFCINDEXEDPOLYGONALFACE((46,37,41));
#279=IFCINDEXEDPOLYGONALFACE((37,46,32));
#280=IFCINDEXEDPOLYGONALFACE((51,46,41));
#281=IFCINDEXEDPOLYGONALFACE((28,24,20,34));
#282=IFCINDEXEDPOLYGONALFACE((14,20,24));
#283=IFCINDEXEDPOLYGONALFACE((9,14,10));
#284=IFCINDEXEDPOLYGONALFACE((9,8,19,20));
#285=IFCINDEXEDPOLYGONALFACE((14,9,20));
#286=IFCINDEXEDPOLYGONALFACE((32,18,23,27));
#287=IFCINDEXEDPOLYGONALFACE((23,18,13));
#288=IFCINDEXEDPOLYGONALFACE((37,32,27));
#289=IFCINDEXEDPOLYGONALFACE((18,7,6,13));
#290=IFCINDEXEDPOLYGONALFACE((8,7,18,19));
#291=IFCINDEXEDPOLYGONALFACE((9,10,5,4));
#292=IFCINDEXEDPOLYGONALFACE((7,8,3,2));
#293=IFCINDEXEDPOLYGONALFACE((6,7,2,1));
#294=IFCINDEXEDPOLYGONALFACE((8,9,4,3));
#295=IFCINDEXEDPOLYGONALFACE((43,29,30,44));
#296=IFCINDEXEDPOLYGONALFACE((29,15,16,30));
#297=IFCINDEXEDPOLYGONALFACE((30,16,17,31));
#298=IFCINDEXEDPOLYGONALFACE((44,30,31,45));
#299=IFCINDEXEDPOLYGONALFACE((4,5,12));
#300=IFCINDEXEDPOLYGONALFACE((17,4,12));
#301=IFCINDEXEDPOLYGONALFACE((17,22,26));
#302=IFCINDEXEDPOLYGONALFACE((26,31,17));
#303=IFCINDEXEDPOLYGONALFACE((31,26,36));
#304=IFCINDEXEDPOLYGONALFACE((12,22,17));
#305=IFCINDEXEDPOLYGONALFACE((17,16,3,4));
#306=IFCINDEXEDPOLYGONALFACE((2,15,11,1));
#307=IFCINDEXEDPOLYGONALFACE((2,3,16,15));
#308=IFCINDEXEDPOLYGONALFACE((25,21,15,29));
#309=IFCINDEXEDPOLYGONALFACE((11,15,21));
#310=IFCINDEXEDPOLYGONALFACE((36,40,45,31));
#311=IFCINDEXEDPOLYGONALFACE((50,45,40));
#312=IFCINDEXEDPOLYGONALFACE((56,50,57));
#313=IFCINDEXEDPOLYGONALFACE((56,55,44,45));
#314=IFCINDEXEDPOLYGONALFACE((50,56,45));
#315=IFCINDEXEDPOLYGONALFACE((29,43,39,35));
#316=IFCINDEXEDPOLYGONALFACE((39,43,49));
#317=IFCINDEXEDPOLYGONALFACE((25,29,35));
#318=IFCINDEXEDPOLYGONALFACE((43,54,53,49));
#319=IFCINDEXEDPOLYGONALFACE((55,54,43,44));
#320=IFCINDEXEDPOLYGONALFACE((56,57,62,61));
#321=IFCINDEXEDPOLYGONALFACE((54,55,60,59));
#322=IFCINDEXEDPOLYGONALFACE((53,54,59,58));
#323=IFCINDEXEDPOLYGONALFACE((55,56,61,60));
#324=IFCINDEXEDPOLYGONALFACE((52,62,57,50));
#325=IFCINDEXEDPOLYGONALFACE((38,42,40,36));
#326=IFCINDEXEDPOLYGONALFACE((42,52,50,40));
#327=IFCINDEXEDPOLYGONALFACE((24,28,26,22));
#328=IFCINDEXEDPOLYGONALFACE((10,14,12,5));
#329=IFCINDEXEDPOLYGONALFACE((14,24,22,12));
#330=IFCINDEXEDPOLYGONALFACE((28,38,36,26));
#331=IFCINDEXEDPOLYGONALFACE((58,51,49,53));
#332=IFCINDEXEDPOLYGONALFACE((41,37,35,39));
#333=IFCINDEXEDPOLYGONALFACE((51,41,39,49));
#334=IFCINDEXEDPOLYGONALFACE((37,27,25,35));
#335=IFCINDEXEDPOLYGONALFACE((23,21,25,27));
#336=IFCINDEXEDPOLYGONALFACE((13,6,1,11));
#337=IFCINDEXEDPOLYGONALFACE((23,13,11,21));
#338=IFCSTYLEDITEM(#264,(#341),$);
#339=IFCSURFACESTYLESHADING(#340,0.37254901960784315);
#340=IFCCOLOURRGB($,0.47058823529411764,0.6666666666666666,0.7843137254901961);
#341=IFCSURFACESTYLE('RGB(120, 170, 200) transparency 0.37',.BOTH.,(#339));
#342=IFCSHAPEREPRESENTATION(#246,'Body','Tessellation',(#264));
#343=IFCPRODUCTDEFINITIONSHAPE($,$,(#342));
#344=IFCRELCONTAINEDINSPATIALSTRUCTURE('1mEzp2PZjMQ84f4GyuSsh0',$,$,$,(#258),#254);
#345=IFCRELAGGREGATES('0yKTZdtYvRifX0oEoz4eEA',$,$,$,#250,(#254));
#346=IFCRELAGGREGATES('1nFbcRH3vQzQZqVOZslUOG',$,$,$,#10,(#14,#250));
#347=IFCRELAGGREGATES('28464uzcbLHgzaH8SfedqT',$,$,$,#1,(#10));
#348=IFCRELASSOCIATESMATERIAL('1DwS6tPUfQk86zhVpD1VPi',$,$,$,(#258),#262);
ENDSEC;
END-ISO-10303-21;
