<svg xmlns="http://www.w3.org/2000/svg" width="24" height="24" viewBox="0 0 24 24">
  <!-- Deconstruct Classification: Classification glyph (purple tag) scaled down above, parts below. -->
  <g transform="translate(4.8,1) scale(0.6)">
    <defs>
      <linearGradient id="purple" x1="0" y1="0" x2="1" y2="1">
        <stop offset="0" stop-color="#C468B3"/>
        <stop offset="1" stop-color="#9A3B89"/>
      </linearGradient>
    </defs>

    <path d="M2.5,11.5 L7.5,6.5 H21.5 V16.5 H7.5 Z" fill="url(#purple)" stroke="#4D1C44" stroke-linejoin="round"/>
    <rect x="5.5" y="10.5" width="2" height="2" fill="#FFFFFF" stroke="#4D1C44"/>
    <g fill="#FFFFFF">
      <rect x="10" y="9" width="9" height="1"/>
      <rect x="10" y="11" width="6" height="1"/>
      <rect x="10" y="13" width="8" height="1"/>
    </g>
  </g>

  <!-- Parts below, linked by pixel dashes -->
  <defs>
    <linearGradient id="partPurple" x1="0" y1="0" x2="0" y2="1">
      <stop offset="0" stop-color="#C468B3"/>
      <stop offset="1" stop-color="#9A3B89"/>
    </linearGradient>
  </defs>
  <g fill="#454545">
    <rect x="6" y="15" width="1" height="1"/>
    <rect x="8" y="15" width="1" height="1"/>
    <rect x="10" y="15" width="1" height="1"/>
    <rect x="12" y="15" width="1" height="1"/>
    <rect x="14" y="15" width="1" height="1"/>
    <rect x="16" y="15" width="1" height="1"/>
    <rect x="18" y="15" width="1" height="1"/>
  </g>
  <g fill="url(#partPurple)" stroke="#4D1C44">
    <rect x="4.5" y="17.5" width="4" height="4"/>
    <rect x="10.5" y="17.5" width="4" height="4"/>
    <rect x="16.5" y="17.5" width="4" height="4"/>
  </g>
</svg>
